<?xml version="1.0" standalone="no"?>
<!DOCTYPE svg PUBLIC "-//W3C//DTD SVG 1.1//EN" "http://www.w3.org/Graphics/SVG/1.1/DTD/svg11.dtd" >
<svg xmlns="http://www.w3.org/2000/svg">
<metadata></metadata>
<defs>
<font id="cmu_typewriter_textregular" horiz-adv-x="1075" >
<font-face units-per-em="2048" ascent="1587" descent="-461" />
<missing-glyph horiz-adv-x="500" />
<glyph horiz-adv-x="0" />
<glyph unicode="&#xd;" />
<glyph unicode=" " />
<glyph unicode="!" d="M408 129q0 49 37 88t92 39q52 0 89.5 -36.5t37.5 -90.5q0 -50 -36 -89.5t-91 -39.5q-52 0 -90.5 37.5t-38.5 91.5zM408 1122v19q0 64 41 98.5t88 34.5q49 0 88 -34.5t39 -98.5l-25 -658q-1 -25 -8.5 -40t-21 -21t-22 -7t-24.5 -1h-61q-15 0 -27 3t-19 10.5t-12 12.5 t-7 17t-3 16.5t-1.5 18t-0.5 14.5z" />
<glyph unicode="&#x22;" d="M264 1178q0 44 28 69t64 25q35 0 62.5 -24t27.5 -70q0 -1 -24 -424q-4 -52 -24 -69q-15 -13 -42 -13q-10 0 -18.5 2t-15 6t-11 7.5t-8 10t-5.5 11t-3.5 12t-2 10.5t-0.5 10l-1 7q-3 61 -10 167.5t-12 181.5t-5 81zM625 1186q0 34 27 60t65 26q31 0 60.5 -22t29.5 -72 q0 -6 -5 -80t-12 -179t-10 -165q-1 -16 -1.5 -21t-4 -20.5t-10 -21.5t-19 -12.5t-30.5 -6.5q-64 0 -64 76q-6 98 -13 209.5t-10 165t-3 63.5z" />
<glyph unicode="#" d="M72 406q0 63 82 63h116l41 313h-164q-24 0 -40.5 7.5t-23.5 19.5t-9 21t-2 18q0 25 20 43t58 18h178l2 2q0 1 9.5 71t19.5 143t12 79q15 45 59 45q27 0 44.5 -17.5t17.5 -41.5q0 -15 -4.5 -49t-14 -100.5t-16.5 -131.5h237l2 2q0 1 9 71t18.5 143t11.5 79q6 17 21.5 31 t40.5 14q24 0 42.5 -17t18.5 -42q0 -15 -4.5 -49t-14 -100.5t-16.5 -131.5h101q77 0 77 -63q0 -37 -34 -55q-16 -9 -60 -9h-102l-43 -313h164q24 0 40.5 -7t23.5 -19t9 -20t2 -17q0 -64 -75 -64h-181q-11 -73 -20.5 -148.5t-14 -109t-8.5 -45.5q-5 -12 -19.5 -25.5 t-37.5 -13.5q-25 0 -44 19t-19 47q0 13 5 45.5t14 97t17 133.5h-239q-11 -73 -20.5 -148.5t-14 -109t-8.5 -45.5q-5 -12 -19.5 -25.5t-37.5 -13.5q-26 0 -45 19t-19 47q0 12 5 45t14.5 97.5t17.5 133.5h-100q-80 0 -80 64zM397 469h238l43 313h-240z" />
<glyph unicode="$" d="M119 344q0 53 29 75.5t61 22.5q39 0 65.5 -25.5t26.5 -64.5q0 -24 -12.5 -45t-12.5 -33q0 -6 3 -17t15 -32t31.5 -40t58 -38t89.5 -28v471q-92 18 -160 52t-104 70t-57.5 79.5t-27 73.5t-5.5 59q0 51 20.5 102.5t60.5 100t111 84.5t162 49v77v4q0 16 1 25.5t6.5 24.5 t19.5 22.5t37 7.5q10 0 18.5 -2t15 -5t11 -8.5t8 -10t5.5 -11t3 -11.5t1.5 -11.5t0.5 -9.5v-8v-5v-79q163 -20 258.5 -102.5t95.5 -225.5q0 -52 -30 -75t-62 -23q-36 0 -63 26t-27 66q0 14 4 27t8.5 19.5t10.5 13.5l6 7q-46 121 -201 140v-422q90 -15 160 -53t111 -89 t62 -106t21 -111q0 -60 -23.5 -118.5t-67 -108t-112 -85t-151.5 -46.5v-80v-16.5t-1.5 -17.5t-5.5 -19.5t-10.5 -14.5t-18 -12.5t-27.5 -3.5q-64 0 -64 82v80q-159 12 -256.5 110t-97.5 242zM252 934q0 -64 56.5 -120.5t164.5 -76.5v393q-100 -14 -160.5 -71t-60.5 -125z M600 121q105 19 163 83.5t58 137.5q0 72 -56.5 135t-164.5 86v-442z" />
<glyph unicode="%" d="M72 1149q0 115 51.5 193.5t126.5 78.5t126.5 -78t51.5 -196q0 -115 -51.5 -194t-126.5 -79q-74 0 -126 78t-52 197zM178 -98q0 15 12 45l560 1411q8 19 13 29t21 22t39 12q30 0 51 -21.5t21 -49.5q0 -15 -12 -45l-561 -1416q-21 -59 -72 -59q-29 0 -50.5 21.5t-21.5 50.5 zM186 1149q0 -63 21.5 -105.5t42.5 -42.5t42 42.5t21 105.5q0 60 -20.5 102.5t-42.5 42.5t-43 -43t-21 -102zM645 102q0 115 51 194t127 79t127 -79t51 -194t-51 -193.5t-127 -78.5t-127 78.5t-51 193.5zM760 102q0 -62 21 -103.5t42 -41.5t42.5 41.5t21.5 103.5t-21.5 104 t-42.5 42t-42 -42t-21 -104z" />
<glyph unicode="&#x26;" d="M57 281q0 125 72 215q2 1 33 34.5t65.5 71t40.5 43.5q-57 171 -57 332q0 143 64 220t149 77q52 0 90 -25.5t58.5 -68.5t30 -89.5t9.5 -97.5q0 -22 -1 -37.5t-12 -55t-31 -77t-61.5 -95t-100.5 -118.5q37 -101 151 -282q60 119 178 430q-18 0 -28.5 1t-25.5 6.5 t-22.5 19.5t-7.5 36q0 28 15.5 43t30 17t36.5 2h189q17 0 27.5 -1.5t25 -7t22 -19.5t7.5 -36q0 -17 -6 -29.5t-13.5 -18.5t-20.5 -9t-21 -3.5t-21 -0.5h-64l-123 -320q-49 -125 -104 -217q14 -20 35.5 -43t62 -49.5t74.5 -26.5q29 0 52 27.5t28 89.5q0 10 2.5 22t16.5 27 t38 15q4 0 8 -0.5t13.5 -4t16.5 -10t13 -20.5t6 -33q0 -53 -19.5 -105.5t-65.5 -92.5t-109 -40q-118 0 -240 144q-116 -144 -254 -144q-75 0 -133.5 44t-88.5 112.5t-30 147.5zM199 287q0 -25 5 -53t16 -59.5t35 -52t56 -20.5q95 0 178 119q-32 44 -90 148q-63 102 -82 147 q-77 -85 -97.5 -122t-20.5 -107zM326 977q0 -123 32 -232q140 158 140 248q0 14 -2 33t-8.5 50.5t-23 52t-40.5 20.5q-38 0 -68 -44.5t-30 -127.5z" />
<glyph unicode="'" d="M444 1178q0 43 28 68.5t65 25.5q38 0 64 -26t26 -68q0 -6 -5 -80t-12 -179t-10 -165q0 -1 -0.5 -9t-1 -11.5t-1.5 -11.5t-3 -12.5t-5 -11.5t-8 -10.5t-11 -7.5t-14.5 -6t-18.5 -2q-14 0 -24.5 3t-17 9.5t-11.5 12t-7 15t-3.5 14t-1.5 13.5l-1 9q-3 61 -10 167.5 t-12 181.5t-5 81z" />
<glyph unicode="(" d="M354 627q0 107 23.5 208.5t61 178.5t84.5 145t95.5 115t92.5 81t75 50t45 16q35 0 49.5 -19t14.5 -38q0 -20 -8 -29.5t-32 -26.5q-4 -3 -7 -5q-98 -67 -170 -154t-110 -178.5t-55 -176t-17 -167.5q0 -190 85 -371.5t263 -302.5q19 -13 24.5 -17t14 -12.5t10.5 -15.5 t2 -19q0 -19 -14.5 -38t-49.5 -19q-40 0 -137 79t-174 185q-68 96 -117 231t-49 300z" />
<glyph unicode=")" d="M180 -111q0 21 10 33t37 29q99 67 171 154t110 178.5t55 176t17 167.5q0 50 -5.5 101.5t-27.5 132.5t-59 153.5t-108 154t-167 144.5q-33 20 -33 51q0 18 15.5 37.5t48.5 19.5q40 0 137 -79t174 -185q68 -96 117 -231t49 -299q0 -107 -23.5 -208.5t-61 -178.5t-84.5 -145 t-95.5 -115.5t-92.5 -81.5t-75 -50t-45 -16q-33 0 -48.5 19.5t-15.5 37.5z" />
<glyph unicode="*" d="M139 438q0 19 9 33t16.5 19.5t25.5 15.5l222 121l-224 121q-17 9 -25.5 15t-16 19t-7.5 31q0 25 19.5 46.5t48.5 21.5q16 0 47 -19l221 -129q-6 79 -6 248q0 86 68 86q67 0 67 -86q0 -169 -6 -248l254 148q28 0 47 -9t25.5 -23t8 -21.5t1.5 -14.5q0 -18 -8.5 -32 t-17 -20.5t-25.5 -15.5l-221 -120q17 -9 71.5 -37t101.5 -53.5t70 -40.5q4 -2 9.5 -7.5t12.5 -19t7 -29.5q0 -25 -19.5 -46t-48.5 -21q-10 0 -15 1t-19 8t-41 23q-167 101 -193 115q6 -79 6 -248q0 -86 -67 -86q-68 0 -68 86q0 168 6 248l-254 -147q-23 0 -40 6.5 t-24.5 14.5t-12 19.5t-5 16.5t-0.5 10z" />
<glyph unicode="+" d="M76 627q0 24 18 43.5t64 19.5h315v311q0 29 4 41q6 19 23 31t37 12q63 0 63 -84v-311h315q33 0 52.5 -12.5t23.5 -24.5t4 -26q0 -64 -75 -64h-320v-313q0 -27 -4 -39q-6 -19 -22.5 -32t-36.5 -13t-37 13t-23 32q-4 12 -4 39v313h-309q-34 0 -41 2q-20 6 -33.5 23 t-13.5 39z" />
<glyph unicode="," d="M369 -219q0 19 11.5 32t20.5 16.5t25 8.5q120 39 152 168q-21 -6 -41 -6q-53 0 -90 36t-37 93q0 52 35 89.5t94 37.5q70 0 120 -57t50 -148q0 -64 -22.5 -121t-55.5 -95t-71.5 -66t-71.5 -41t-54 -13q-26 0 -45.5 21t-19.5 45z" />
<glyph unicode="-" d="M178 442q0 62 72 62h575q37 0 52.5 -19t15.5 -43q0 -63 -72 -63h-575q-38 1 -53 20t-15 43z" />
<glyph unicode="." d="M408 129q0 49 37 88t92 39q52 0 89.5 -36.5t37.5 -90.5q0 -50 -36 -89.5t-91 -39.5q-52 0 -90.5 37.5t-38.5 91.5z" />
<glyph unicode="/" d="M119 -109q0 20 18 56l690 1423q19 35 36 44q13 7 28 7q25 0 43 -17t18 -44q0 -16 -14 -49l-690 -1428q-7 -12 -10 -16.5t-11.5 -15.5t-19.5 -16t-25 -5q-26 0 -44.5 17t-18.5 44z" />
<glyph unicode="0" d="M102 627q0 181 61 331t160.5 233t213.5 83q84 0 162.5 -48.5t138.5 -132.5t96.5 -206.5t36.5 -261.5q0 -109 -23 -210t-64 -179.5t-95 -137.5t-119 -90t-133 -31q-84 0 -163 48.5t-139 133t-96.5 207t-36.5 261.5zM244 647q0 -149 39.5 -274.5t107 -198t146.5 -72.5 q120 0 206 159.5t86 385.5q0 218 -87.5 360t-204.5 142q-118 0 -205.5 -142t-87.5 -360z" />
<glyph unicode="1" d="M215 961q0 20 6.5 33.5t19.5 19t23.5 7.5t26.5 3q20 2 41.5 9.5t54 26.5t66.5 61.5t61 103.5q6 15 11.5 24t18.5 17t31 8q17 0 29.5 -6t18.5 -13.5t9.5 -21t4 -22t0.5 -21.5v-1065h186q17 0 27.5 -1.5t25 -7t22 -19.5t7.5 -36q0 -17 -6 -29.5t-13.5 -18.5t-20.5 -9 t-21 -3.5t-21 -0.5h-514q-13 0 -21 0.5t-21 3.5t-20.5 9t-13.5 18.5t-6 29.5q0 22 7.5 36t22 19.5t25 7t27.5 1.5h187v864q-104 -90 -213 -90q-68 0 -68 62z" />
<glyph unicode="2" d="M106 63q0 20 7 30.5t24 25.5l453 381q113 94 174 184t61 190q0 86 -47 150t-119.5 94.5t-158.5 30.5q-85 0 -151 -43.5t-89 -114.5q29 -23 29 -65q0 -41 -27.5 -66.5t-62.5 -25.5q-34 0 -63.5 23.5t-29.5 74.5q0 136 114.5 239t289.5 103q126 0 229 -48t165.5 -140 t62.5 -212q0 -115 -59 -214.5t-165 -194.5q-50 -46 -206 -174.5t-199 -165.5h487q0 27 1.5 40t7.5 28.5t21.5 21.5t41.5 6q25 0 40.5 -7t21 -21.5t7 -25t1.5 -30.5v-53q0 -50 -16 -67t-66 -17h-695q-18 0 -28 1t-25.5 6.5t-23 19.5t-7.5 36z" />
<glyph unicode="3" d="M90 279q0 47 27 71.5t65 24.5t64 -26.5t26 -63.5q0 -40 -24 -64q24 -44 82 -72.5t110 -37.5t101 -9q133 0 217 77t84 177q0 99 -82.5 177.5t-224.5 78.5h-95q-17 0 -27.5 1.5t-25 7t-22 19.5t-7.5 36q0 40 24 50t112 16q8 1 12 1q65 4 105 15t85 47q40 33 63 82t23 96 q0 70 -69 118t-172 48q-25 0 -55.5 -2t-87.5 -18t-85 -44q19 -19 19 -55q0 -41 -27.5 -66.5t-62.5 -25.5t-63.5 24.5t-28.5 71.5q0 108 104 174t285 66q171 0 278 -85t107 -204q0 -86 -44 -166.5t-128 -134.5q104 -47 167.5 -134.5t63.5 -193.5q0 -71 -32 -139t-88 -121.5 t-140.5 -86t-181.5 -32.5q-193 0 -322 84t-129 218z" />
<glyph unicode="4" d="M59 428q0 31 3 41.5t16 30.5l467 733q20 30 34 36.5t52 6.5h57q52 0 68 -16.5t16 -67.5v-721h160q18 0 28 -1t24.5 -6.5t22 -19.5t7.5 -36q0 -28 -15.5 -43t-30 -17t-36.5 -2h-160v-221h127q17 0 27.5 -1.5t25 -7t22 -19.5t7.5 -36q0 -17 -6 -29.5t-13.5 -18.5t-20.5 -9 t-21 -3.5t-21 -0.5h-369q-13 0 -20.5 0.5t-21 3.5t-20.5 9t-13 18.5t-6 29.5q0 22 7.5 36t21.5 19.5t24.5 7t27.5 1.5h127v221h-516q-48 0 -65 16t-17 66zM203 471h454v715z" />
<glyph unicode="5" d="M106 291q0 53 30 75.5t63 22.5q35 0 62.5 -25t27.5 -67q0 -39 -27 -66q20 -40 53.5 -67.5t71 -40t66 -17t55.5 -4.5q131 0 224 82.5t93 204.5q0 69 -29 132.5t-90 107t-141 43.5q-172 0 -258 -103q-10 -12 -15.5 -17t-16.5 -9t-29 -4q-23 0 -37.5 7t-20 22t-7 25.5 t-1.5 29.5v544q0 50 16 67t66 17h551q17 0 27.5 -1t25 -6.5t22 -19.5t7.5 -36q0 -28 -15.5 -43t-30 -17t-36.5 -2h-491v-389q112 60 245 60q88 0 164 -34.5t127 -91.5t80 -130.5t29 -151.5q0 -171 -134 -291.5t-325 -120.5q-170 0 -286 92.5t-116 221.5z" />
<glyph unicode="6" d="M109 612q0 150 47 277t124.5 210t175 129t201.5 46q71 0 126 -18.5t86 -49.5t46 -67.5t15 -75.5q0 -44 -26 -70t-66 -26q-39 0 -64.5 26.5t-25.5 63.5q0 39 20 59q-33 33 -113 33q-143 0 -261.5 -125t-139.5 -332q130 119 305 119q169 0 287.5 -121t118.5 -295 q0 -119 -59.5 -216t-156 -149.5t-208.5 -52.5q-64 0 -123 19t-116.5 65.5t-99.5 117t-67.5 182t-25.5 251.5zM270 455q0 -22 6 -64l-2 -18l2 -8q2 -6 5.5 -18.5t5.5 -18.5q33 -102 96.5 -164t157.5 -62q114 0 198 82.5t84 210.5q0 118 -76.5 203.5t-197.5 85.5 q-117 0 -198 -67t-81 -162z" />
<glyph unicode="7" d="M90 1114v86q0 20 1.5 30.5t7 25t21 21.5t40.5 7q53 0 65 -33h676q17 0 27.5 -1t25 -6.5t22 -19.5t7.5 -36q0 -21 -6.5 -31t-38.5 -39q-48 -47 -95 -101t-113.5 -156t-115.5 -212.5t-85.5 -267.5t-39.5 -322q0 -41 -20 -61.5t-49 -20.5q-72 0 -72 97q0 76 9.5 160 t38 198.5t73.5 225t123.5 235.5t179.5 233h-541q0 -28 -1 -40t-7 -28t-21.5 -22t-41.5 -6q-25 0 -40.5 7t-21 21.5t-7 25t-1.5 30.5z" />
<glyph unicode="8" d="M90 356q0 111 82 197.5t203 120.5q-121 40 -188.5 112t-67.5 160q0 129 119.5 228.5t298.5 99.5q178 0 297.5 -99t119.5 -229q0 -88 -67 -159.5t-189 -112.5q120 -34 202.5 -120.5t82.5 -197.5q0 -153 -128.5 -266t-317.5 -113q-188 0 -317.5 113.5t-129.5 265.5z M231 358q0 -106 89.5 -181t216.5 -75t216 75t89 181q0 99 -85 176.5t-220 77.5q-134 0 -220 -77.5t-86 -176.5zM260 944q0 -86 82 -146.5t195 -60.5q114 0 195 60t81 147q0 82 -79.5 143.5t-196.5 61.5q-118 0 -197.5 -61.5t-79.5 -143.5z" />
<glyph unicode="9" d="M109 856q0 120 61.5 217t160 149t212.5 52q62 0 119 -18t113.5 -64t97.5 -115.5t66.5 -182t25.5 -255.5q0 -148 -43.5 -274t-116.5 -210t-167.5 -131t-195.5 -47q-75 0 -131.5 16t-87.5 39t-50 53.5t-24.5 54.5t-5.5 48q0 44 26.5 70.5t66.5 26.5q39 0 64.5 -26.5 t25.5 -63.5q0 -34 -19 -58q46 -35 135 -35q146 0 254 132.5t123 324.5q-130 -119 -305 -119q-169 0 -287 121t-118 295zM250 856q0 -118 76.5 -203.5t197.5 -85.5q122 0 201.5 70.5t79.5 159.5q0 10 -4 33.5t-4 27.5q0 6 1 12t1 7q0 9 -8 37.5t-27 72t-43 74.5 q-71 88 -178 88q-116 0 -204.5 -82.5t-88.5 -210.5z" />
<glyph unicode=":" d="M408 129q0 49 37 88t92 39q52 0 89.5 -36.5t37.5 -90.5q0 -50 -36 -89.5t-91 -39.5q-52 0 -90.5 37.5t-38.5 91.5zM408 756q0 49 37 88t92 39q52 0 89.5 -36.5t37.5 -90.5q0 -50 -36 -89.5t-91 -39.5q-52 0 -90.5 37.5t-38.5 91.5z" />
<glyph unicode=";" d="M369 -219q0 19 11.5 32t20.5 16.5t25 8.5q120 39 152 168q-21 -6 -41 -6q-53 0 -90 36t-37 93q0 52 35 89.5t94 37.5q70 0 120 -57t50 -148q0 -64 -22.5 -121t-55.5 -95t-71.5 -66t-71.5 -41t-54 -13q-26 0 -45.5 21t-19.5 45zM408 754q0 49 37 88t92 39q52 0 89.5 -36.5 t37.5 -90.5q0 -50 -36 -89.5t-91 -39.5q-52 0 -90.5 37.5t-38.5 91.5z" />
<glyph unicode="&#x3c;" d="M115 627q0 12 4 21.5t11 17t12.5 11.5t14 9.5t9.5 5.5l682 420q28 16 47 16q23 0 43 -17.5t20 -43.5q0 -6 -0.5 -11t-3 -9.5t-4 -8t-5 -7.5t-5.5 -6.5t-7 -6t-6.5 -5t-7 -5t-6.5 -4.5l-614 -379q3 -1 47 -29l567 -348q1 0 5.5 -3t7 -5t7 -5.5t7.5 -7t7 -8.5t6 -10 t3.5 -11.5t1.5 -13.5q0 -26 -20 -43.5t-43 -17.5q-19 0 -47 16l-682 420q-51 29 -51 68z" />
<glyph unicode="=" d="M76 782q0 13 4.5 25t24.5 24.5t55 12.5h755q80 0 80 -64q0 -22 -15.5 -42.5t-53.5 -20.5h-774q-44 0 -60 20t-16 45zM78 471q0 9 2.5 18t9 20.5t22.5 18.5t40 7h768q24 0 41 -7.5t23.5 -19.5t8.5 -20.5t2 -16.5q0 -24 -18 -43.5t-64 -19.5h-759q-24 1 -40.5 8t-23.5 18 t-9.5 19.5t-2.5 17.5z" />
<glyph unicode="&#x3e;" d="M115 184q0 16 8.5 29.5t14.5 18.5t22 16l614 379q-11 6 -47 28l-567 349q-1 1 -6 4t-8 5t-8.5 6.5t-8.5 9l-7 10.5t-5.5 13t-1.5 15q0 24 18.5 42.5t44.5 18.5q19 0 47 -16l682 -418q38 -22 47 -46q4 -10 4 -21q0 -7 -2 -14t-4.5 -12t-7 -10.5t-7.5 -9t-8.5 -8t-8.5 -6 t-7.5 -5t-5.5 -3.5l-682 -420q-28 -16 -47 -16q-25 0 -44 17t-19 44z" />
<glyph unicode="?" d="M127 1014q0 46 21 88t64.5 79.5t122 60t181.5 22.5q108 0 190 -19.5t126 -47.5t71.5 -65.5t35 -65.5t7.5 -56q0 -123 -135 -199q-68 -37 -114.5 -78.5t-69 -84t-31 -78.5t-8.5 -76v-35q0 -51 -17 -66.5t-65 -15.5q-57 0 -69.5 19.5t-12.5 86.5q0 25 0.5 41t6.5 50.5 t16.5 60.5t32 64t52.5 70.5t79.5 70t109.5 71.5q25 13 40.5 23t29.5 30.5t14 45.5q0 53 -71.5 91t-217.5 38q-163 0 -227 -72q20 -24 20 -57q0 -41 -27.5 -66.5t-62.5 -25.5q-36 0 -64 25t-28 71zM403 102q0 43 30 73t73 30t72.5 -30t29.5 -73t-29.5 -72.5t-72.5 -29.5 t-73 29.5t-30 72.5z" />
<glyph unicode="@" d="M90 627q0 135 44 254.5t117.5 203t170.5 131.5t201 48q58 0 107 -17t83.5 -43.5t62.5 -68t45.5 -80t30 -91t18.5 -90t9 -88t3.5 -73t0.5 -56.5q0 -101 -21.5 -181t-54 -127t-74 -78.5t-78 -42.5t-69.5 -11q-118 0 -206.5 116.5t-88.5 293.5q0 172 86.5 289.5t210.5 117.5 q70 0 131 -41q-55 146 -196 146q-79 0 -154.5 -38t-134 -104t-94 -163.5t-35.5 -208.5q0 -142 59 -260.5t155 -185t206 -66.5q123 0 219 88q14 14 23.5 17t37.5 3q78 0 78 -57q0 -30 -49 -71t-135 -73t-172 -32q-106 0 -204.5 49t-172 132.5t-117 203.5t-43.5 254zM506 625 q0 -118 54.5 -200.5t127.5 -82.5q69 0 124.5 81.5t55.5 201.5q0 121 -55 202.5t-127 81.5q-69 0 -124.5 -80.5t-55.5 -203.5z" />
<glyph unicode="A" d="M55 61q0 42 35 60q12 4 88 4l248 1073q7 28 16 44.5t25.5 23.5t29 8.5t40.5 1.5t42 -1.5t29 -9t23.5 -24t15.5 -45.5l248 -1071q76 0 88 -6q35 -14 35 -58q0 -17 -6.5 -29.5t-14 -18.5t-22 -9t-22.5 -3.5t-23 -0.5h-209q-15 0 -23.5 0.5t-22.5 3.5t-21 9t-13 18t-6 30 q0 19 5.5 31t13 18.5t24.5 10t31 4t41 0.5l-48 213h-331l-47 -213q27 0 40.5 -0.5t30.5 -4t24.5 -10t13 -18.5t5.5 -31q0 -18 -6 -30t-13 -18t-21 -9t-22.5 -3.5t-23.5 -0.5h-209q-15 0 -23 0.5t-22.5 3.5t-22 9t-14 18.5t-6.5 29.5zM401 463h271l-135 643z" />
<glyph unicode="B" d="M47 61q0 22 7.5 36t22.5 19.5t26 7t28 1.5h55v1001h-55q-17 0 -28 1.5t-26 7t-22.5 19.5t-7.5 36q0 21 8 35t23 19t25 6t26 1h463q82 0 150.5 -28.5t111.5 -74t66.5 -101.5t23.5 -113q0 -94 -60.5 -169.5t-160.5 -109.5q121 -29 192.5 -116.5t71.5 -196.5 q0 -61 -23.5 -121t-66.5 -110t-112 -80.5t-152 -30.5h-504q-16 0 -26 1t-25 6t-23 19t-8 35zM328 125h260q64 0 115 20t81 53t46 71t16 77q0 37 -13 77t-39 78t-74 62.5t-110 24.5h-282v-463zM328 713h211q71 0 125 22t82.5 56.5t42.5 70.5t14 70q0 22 -6 46t-21.5 51.5 t-39 48t-63 34.5t-89.5 14h-256v-413z" />
<glyph unicode="C" d="M82 627q0 182 68 331.5t181 232.5t244 83q150 0 267 -98q12 23 18.5 36.5t8.5 19t3 7.5l4 5q3 5 4 6.5t5 5.5t6 5.5t7 4.5t9 4.5t10 2.5t13 1q17 0 29.5 -6t18.5 -13.5t9 -21t3.5 -21.5t0.5 -22v-285q0 -21 -1 -31.5t-7 -25t-21.5 -21t-41.5 -6.5q-22 0 -36 5t-21 16.5 t-9.5 20t-5.5 26.5q-21 121 -95 190.5t-169 69.5q-68 0 -133 -39t-115.5 -107t-81.5 -166.5t-31 -209.5q0 -224 109.5 -374.5t253.5 -150.5q36 0 75.5 11.5t82 37.5t72 78t34.5 123q4 60 70 60q13 0 21.5 -1.5t22 -7t20.5 -20.5t7 -39q0 -143 -120 -255t-293 -112 q-99 0 -189.5 49.5t-158 134.5t-108 207t-40.5 259z" />
<glyph unicode="D" d="M39 61q0 22 7.5 36t22.5 19.5t26 7t28 1.5h45v1001h-45q-16 0 -27 1.5t-26 6.5t-23 19t-8 35q0 22 7.5 36t23 19.5t25.5 6.5t28 1h422q131 0 235.5 -91t158.5 -235t54 -309t-55 -305t-159 -225.5t-234 -85.5h-422q-17 0 -27 1t-25.5 6t-23.5 19t-8 35zM309 125h197 q66 0 123 28t97 75.5t69 110.5t43 133.5t14 143.5q0 92 -22 180.5t-63.5 163t-109.5 120.5t-151 46h-197v-1001z" />
<glyph unicode="E" d="M53 61q0 22 7.5 36t22.5 19.5t26 7t28 1.5h62v1001h-62q-16 0 -27 1.5t-26 7t-23 19.5t-8 36q0 21 8 35t23.5 19t25.5 6t27 1h764q51 0 66.5 -17.5t15.5 -66.5v-149q0 -21 -1.5 -31.5t-7.5 -25t-21.5 -21t-41.5 -6.5q-25 0 -40 6.5t-21 21.5t-7 25.5t-1 30.5v108h-502 v-415h268q0 32 0.5 45.5t4 31t11 23.5t21 11t35.5 5q25 0 40.5 -7t21 -21.5t7 -25t1.5 -30.5v-190q0 -20 -1.5 -30.5t-7 -25t-21 -21.5t-40.5 -7q-27 0 -41.5 5.5t-21.5 23t-8 33.5t-1 55h-268v-461h547v141q0 21 1 31.5t7 25t21.5 21t41.5 6.5q25 0 40.5 -7t21 -21.5t7 -25 t1.5 -30.5v-182q0 -50 -16 -67t-66 -17h-809q-17 0 -27 1t-25.5 6t-23.5 19t-8 35z" />
<glyph unicode="F" d="M57 61q0 22 7.5 36t22.5 19.5t26 7t28 1.5h68v1001h-68q-16 0 -27 1.5t-26 6.5t-23 19t-8 35q0 22 7.5 36t23 19.5t25.5 6.5t28 1h781q51 0 66.5 -17.5t15.5 -66.5v-149q0 -21 -1.5 -31.5t-7.5 -25t-21.5 -21t-41.5 -6.5q-25 0 -40.5 7t-21 21.5t-7 25t-1.5 30.5v108 h-512v-438h279q0 28 0.5 38.5t2 28.5t6 24t12 14t20 10t30.5 2q25 0 40.5 -7t21 -21.5t7 -25t1.5 -30.5v-191q0 -20 -1.5 -30.5t-7 -25t-21 -21.5t-40.5 -7q-18 0 -30.5 2t-20 10t-12 14t-6 24t-2 28.5t-0.5 38.5h-279v-438h107q17 0 27.5 -1.5t25 -7t22 -19.5t7.5 -36 q0 -17 -6 -29.5t-13.5 -18.5t-20.5 -9t-21 -3.5t-21 -0.5h-316q-17 0 -27 1t-25.5 6t-23.5 19t-8 35z" />
<glyph unicode="G" d="M78 627q0 181 63 330.5t167.5 233t226.5 83.5q130 0 239 -92q26 58 40 75t44 17q17 0 29.5 -6t18.5 -13.5t9.5 -21t4 -22t0.5 -21.5v-285q0 -21 -1.5 -31.5t-7.5 -25t-21.5 -21t-41.5 -6.5q-37 0 -52 15t-18 45q-10 63 -31 112.5t-46 78t-54.5 46.5t-54.5 24.5t-49 6.5 q-126 0 -225 -149t-99 -375q0 -220 97 -371.5t225 -151.5q87 0 151 81.5t82 244.5h-86q-17 0 -27.5 1.5t-25 7t-22 19.5t-7.5 36q0 17 6 29.5t13.5 18.5t20.5 9t21 3.5t21 0.5h244q17 0 27 -1t25.5 -6t23.5 -19t8 -35q0 -18 -6 -30.5t-13.5 -19t-22 -10t-25 -4t-29.5 -0.5 v-344q0 -20 -1.5 -30.5t-7 -25t-21 -21.5t-40.5 -7q-26 0 -41.5 6t-21.5 21t-7.5 26t-1.5 33q-38 -43 -101 -76t-142 -33q-121 0 -225.5 82.5t-168 233t-63.5 334.5z" />
<glyph unicode="H" d="M45 61q0 22 7.5 36t22 19.5t25 7t27.5 1.5h51v1001h-51q-22 0 -36.5 2t-30 17t-15.5 43q0 22 7.5 36t22 19.5t25 6.5t27.5 1h244q17 0 27.5 -1t25 -6.5t22 -19.5t7.5 -36q0 -28 -15.5 -43t-30 -17t-36.5 -2h-52v-413h435v413h-52q-17 0 -27.5 1.5t-24.5 7t-21.5 19.5 t-7.5 36q0 17 6 29.5t13 18.5t20.5 9t21 3.5t20.5 0.5h244q18 0 28 -1t24.5 -6.5t22 -19.5t7.5 -36q0 -28 -15.5 -43t-30 -17t-36.5 -2h-51v-1001h51q17 0 27.5 -1.5t25 -7t22 -19.5t7.5 -36q0 -17 -6 -29.5t-13.5 -18.5t-20.5 -9t-21 -3.5t-21 -0.5h-244q-17 0 -27 1 t-25 6.5t-22 19.5t-7 36t7.5 35.5t22 18.5t25 6.5t26.5 1.5h52v463h-435v-463h52q17 0 27.5 -1.5t25 -7t22 -19.5t7.5 -36q0 -17 -6 -29.5t-13.5 -18.5t-20.5 -9t-21 -3.5t-21 -0.5h-244q-13 0 -21 0.5t-21 3.5t-20.5 9t-13.5 18.5t-6 29.5z" />
<glyph unicode="I" d="M162 63q0 21 8 35t23 19t26 6.5t27 1.5h221v1001h-221q-16 0 -27 1.5t-26 7t-23 19.5t-8 36q0 21 8 35t23.5 19t25.5 6t27 1h583q17 0 27 -1t25.5 -6.5t23.5 -19.5t8 -36q0 -21 -8 -35t-23 -19t-26 -6.5t-27 -1.5h-221v-1001h221q16 0 27 -1.5t26 -7t23 -19.5t8 -36 q0 -21 -8 -35t-23.5 -19t-25.5 -6t-27 -1h-583q-17 0 -27 1t-25.5 6.5t-23.5 19.5t-8 36z" />
<glyph unicode="J" d="M145 203q0 47 27.5 71.5t65.5 24.5t64 -26.5t26 -63.5q0 -32 -17 -53q60 -54 174 -54q17 0 37 2t52.5 13t56.5 29.5t42.5 55t18.5 85.5v839h-168q-16 0 -27 1.5t-26 7t-23 19.5t-8 36q0 21 8 35t23.5 19t25.5 6t27 1h371q17 0 27 -1t25.5 -6t23.5 -19t8 -35 q0 -22 -7.5 -36t-22.5 -19.5t-26 -7t-28 -1.5h-61v-852q0 -134 -103 -215.5t-246 -81.5q-152 0 -246 64t-94 162z" />
<glyph unicode="K" d="M53 63q0 21 8 35t23 19t26 6.5t27 1.5h45v1001h-45q-17 0 -28 1.5t-26 7t-22.5 19.5t-7.5 36q0 21 8 35t23.5 19t25.5 6t27 1h205q18 0 28 -1t25.5 -6.5t23 -19.5t7.5 -36q0 -21 -8 -35t-23 -19t-26 -6.5t-27 -1.5h-45v-544l432 544q-22 0 -36.5 2t-31 17t-16.5 43 q0 22 8 36t23.5 19.5t25.5 6.5t27 1h180q13 0 20.5 -0.5t21 -3.5t21.5 -9t14.5 -18.5t6.5 -29.5q0 -19 -5.5 -31t-13.5 -18.5t-25 -10t-31 -4t-41 -0.5l-312 -393l328 -583q1 -2 6.5 -11.5t7.5 -13.5q28 0 42.5 -1.5t32 -7t25 -19t7.5 -36.5q0 -21 -8 -35t-23.5 -19 t-25.5 -6t-27 -1h-154q-18 0 -28 1t-25.5 6.5t-23 19.5t-7.5 36q0 28 16 43t30.5 17t35.5 2l-287 512l-190 -240v-272h45q17 0 28 -1.5t26 -7t22.5 -19.5t7.5 -36q0 -21 -8 -35t-23.5 -19t-25.5 -6t-27 -1h-205q-18 0 -28 1t-25.5 6.5t-23 19.5t-7.5 36z" />
<glyph unicode="L" d="M66 61q0 22 7.5 36t21.5 19.5t24.5 7t27.5 1.5h76v1001h-76q-16 0 -26.5 1.5t-25 6.5t-22 18.5t-7.5 35.5t7 36t22 19.5t25 6.5t27 1h332q17 0 27 -1t25.5 -6.5t23.5 -19.5t8 -36q0 -28 -16.5 -43t-31 -17t-36.5 -2h-114v-1001h493v141q0 21 1.5 32t7.5 25.5t21.5 20.5 t41.5 6q25 0 40 -6.5t21 -21t7 -25t1 -31.5v-182q0 -50 -15.5 -67t-65.5 -17h-771q-13 0 -20.5 0.5t-21 3.5t-20.5 9t-13 18.5t-6 29.5z" />
<glyph unicode="M" d="M35 61q0 18 5.5 30.5t13 19t23.5 10t28.5 3.5t37.5 1v1001q-25 0 -37.5 0.5t-28.5 4t-23.5 10t-13 19t-5.5 30.5q0 17 6 29.5t13.5 18.5t20.5 9t21 3.5t21 -0.5h114q81 0 101 -48q192 -575 205 -639h2q15 76 55 193l137 413q11 33 18.5 46.5t30 24.5t62.5 10h114h21 t21 -3t20.5 -9t13.5 -18.5t6 -29.5q0 -18 -5.5 -30.5t-13 -19t-23.5 -10t-28.5 -4t-37.5 -0.5v-1001q25 0 37.5 -0.5t28.5 -4t23.5 -10t13 -19t5.5 -30.5q0 -17 -6 -29.5t-13.5 -18.5t-20.5 -9t-21 -3.5t-21 -0.5h-168q-13 0 -20.5 0.5t-21 3.5t-20.5 9t-13 18.5t-6 29.5 q0 18 5.5 30.5t13 19t23.5 10t28.5 3.5t37.5 1v977h-2q-11 -49 -61 -206t-95 -291.5t-49 -141.5q-25 -45 -71 -45q-39 0 -62 31q-11 15 -53 139q-1 5 -38 118t-75.5 233.5t-48.5 162.5h-2v-977q25 0 37.5 -0.5t29 -4t24 -10t13 -19t5.5 -30.5q0 -17 -6 -29.5t-13.5 -18.5 t-20.5 -9t-21 -3.5t-21 -0.5h-168q-13 0 -21 0.5t-21 3.5t-20.5 9t-13.5 18.5t-6 29.5z" />
<glyph unicode="N" d="M57 63q0 28 15.5 43t30 17t36.5 2h51v1001h-51q-17 0 -27.5 1.5t-25 7t-22 19.5t-7.5 36q0 17 6 29.5t13.5 18.5t20.5 9t21 3.5t21 0.5h140q47 0 70 -13t40 -60l377 -1024h2v972h-51q-22 0 -36.5 2t-30 17t-15.5 43q0 22 7.5 36t22 19.5t25 6.5t27.5 1h217q18 0 28 -1 t24.5 -6.5t22 -19.5t7.5 -36q0 -28 -15.5 -43t-30 -17t-36.5 -2h-51v-1042q0 -55 -18 -69.5t-68 -14.5q-24 0 -37 1.5t-28.5 8.5t-26.5 22.5t-21 41.5l-377 1024h-2v-973h51q17 0 27.5 -1.5t25 -7t22 -19.5t7.5 -36q0 -17 -6 -29.5t-13.5 -18.5t-20.5 -9t-21 -3.5t-21 -0.5 h-217q-17 0 -27.5 1t-25 6.5t-22 19.5t-7.5 36z" />
<glyph unicode="O" d="M115 625q0 120 2 199t11 152t20 116t36 80t52.5 54t75.5 29.5t98 15.5t127 3t127 -3t98 -16t75 -30t52 -54t36 -79.5t20 -116t11 -152.5t2 -198t-2 -198.5t-11 -152t-20.5 -115t-36 -79.5t-52 -54.5t-75 -30t-97.5 -15.5t-127 -3q-61 0 -104 2t-85 9t-69.5 16.5t-53.5 30 t-41 44t-29 63t-20.5 82t-11.5 107t-6.5 132t-1.5 162.5zM256 643q0 -291 25 -395q13 -54 38 -84t77 -46t141 -16q133 0 186.5 34.5t71.5 123.5q22 106 22 383q0 283 -24 375q-22 81 -77.5 106t-178.5 25q-130 0 -184 -28.5t-74 -116.5q-23 -94 -23 -361z" />
<glyph unicode="P" d="M53 61q0 22 7.5 36t22.5 19.5t26 7t28 1.5h62v1001h-62q-16 0 -27 1.5t-26 7t-23 19.5t-8 36q0 21 8 35t23.5 19t25.5 6t27 1h459q170 0 278.5 -112.5t108.5 -261.5q0 -150 -108 -262.5t-279 -112.5h-256v-377h61q16 0 27 -1.5t26 -7t23 -19.5t8 -36q0 -21 -8 -35 t-23.5 -19t-25.5 -6t-27 -1h-264q-17 0 -27 1t-25.5 6t-23.5 19t-8 35zM340 627h217q70 0 127 23.5t90 61t50.5 80t17.5 85.5t-17.5 85.5t-50.5 79.5t-90 60.5t-127 23.5h-217v-499z" />
<glyph unicode="Q" d="M115 625q0 120 2 199t11 152t20 116t36 80t52.5 54t75.5 29.5t98 15.5t127 3t127 -3t98 -16t75 -30t52 -54t36 -79.5t20 -116t11 -152.5t2 -198q0 -231 -12 -342q-14 -125 -46 -186t-99 -89q41 -79 67 -123q64 -125 64 -131q0 -14 -5.5 -22.5t-17 -12t-19.5 -4t-24 -0.5 h-18q-30 0 -45.5 4t-26.5 21q-1 1 -30 57t-59.5 113.5t-35.5 69.5q-35 -3 -114 -3q-61 0 -104 2t-85 9t-69.5 16.5t-53.5 30t-41 44t-29 63t-20.5 82t-11.5 107t-6.5 132t-1.5 162.5zM256 625q0 -251 18 -355q11 -60 32 -94t72.5 -54t141.5 -20h66l-94 183q-9 15 -9 26 q0 14 5.5 22.5t17.5 12t20 4t23 0.5h22q31 0 39.5 -5t22.5 -28l98 -178q18 12 27 21.5t22.5 40.5t20 78.5t11.5 135.5t5 212q0 250 -18 354q-17 99 -71 133.5t-191 34.5q-94 0 -146 -16t-76.5 -47t-38.5 -91q-20 -98 -20 -370z" />
<glyph unicode="R" d="M45 61q0 22 7.5 36t22 19.5t25 7t27.5 1.5h51v1001h-51q-22 0 -36.5 2t-30 17t-15.5 43q0 22 7.5 36t22 19.5t25 6.5t27.5 1h362q175 0 286.5 -103t111.5 -241q0 -75 -41 -153.5t-133 -130.5q71 -56 100 -125q13 -34 15.5 -63t2.5 -130q0 -52 1 -79.5t6.5 -61t18 -48 t32.5 -14.5q22 0 30.5 33t8.5 60q2 61 69 61q13 0 21.5 -1.5t22 -6.5t21 -20t7.5 -38q0 -32 -10 -67t-30 -68.5t-56 -55.5t-82 -22q-107 0 -162 95q-27 46 -33 95.5t-6 164.5q0 53 -1.5 76.5t-11.5 50t-32 47.5q-30 26 -65 39.5t-54 15.5t-47 2h-160v-438h52q17 0 27.5 -1.5 t25 -7t22 -19.5t7.5 -36q0 -17 -6 -29.5t-13.5 -18.5t-20.5 -9t-21 -3.5t-21 -0.5h-244q-13 0 -21 0.5t-21 3.5t-20.5 9t-13.5 18.5t-6 29.5zM319 688h148q130 0 204 67.5t74 151.5q0 83 -73.5 151t-204.5 68h-148v-438z" />
<glyph unicode="S" d="M106 61v271q0 21 1.5 31.5t7.5 25t21.5 21t41.5 6.5q24 0 38.5 -5.5t21 -18t8 -21.5t2.5 -27q7 -121 96 -178q95 -64 240 -64q114 0 182 70.5t68 157.5q0 183 -228 231q-87 18 -235 55q-124 36 -194.5 125.5t-70.5 196.5q0 135 108 235.5t273 100.5q175 0 287 -96 q14 53 28 74.5t48 21.5q17 0 29.5 -6t18.5 -13.5t9 -21t3.5 -21.5t0.5 -22v-270q0 -21 -1 -31.5t-7 -25t-21.5 -21t-41.5 -6.5q-32 0 -49 12.5t-21 44.5q-5 24 -7 35t-12.5 42.5t-21.5 50.5t-34 46.5t-50 43t-68.5 27t-91.5 11.5q-105 0 -175 -61t-70 -142q0 -69 47 -120.5 t116 -71.5l166 -37q132 -31 186 -53t113 -80q99 -107 99 -244q0 -69 -27 -134t-75.5 -116t-122.5 -82t-160 -31q-210 0 -338 95q-15 -54 -29.5 -74.5t-46.5 -20.5q-17 0 -29.5 6t-18.5 13.5t-9.5 21t-4 22t-0.5 21.5z" />
<glyph unicode="T" d="M53 1018v149q0 51 16.5 67.5t67.5 16.5h801q51 0 66.5 -17.5t15.5 -66.5v-149q0 -21 -1.5 -31.5t-7.5 -25t-21.5 -21t-41.5 -6.5q-25 0 -40 6.5t-21 21.5t-7 25.5t-1 30.5v108h-271v-1001h107q17 0 27.5 -1.5t25 -7t22 -19.5t7.5 -36q0 -17 -6 -29.5t-13.5 -18.5 t-20.5 -9t-21 -3.5t-21 -0.5h-355q-17 0 -27 1t-25 6.5t-22 19.5t-7 36t7.5 35.5t22 18.5t25 6.5t26.5 1.5h107v1001h-272v-108q0 -21 -1.5 -31.5t-7.5 -25t-21.5 -21t-41.5 -6.5q-25 0 -40.5 7t-21 21.5t-7 25t-1.5 30.5z" />
<glyph unicode="U" d="M8 1190q0 21 8 35t23.5 19t25.5 6t27 1h264q17 0 27 -1t25.5 -6t23.5 -19t8 -35q0 -22 -8 -36t-23 -19.5t-26 -7t-27 -1.5h-61v-698q0 -79 22.5 -143t58 -103t77.5 -59.5t84 -20.5q41 0 82.5 21t77.5 59.5t58.5 103t22.5 142.5v698h-61q-16 0 -27 1.5t-26 7t-23 19.5 t-8 36q0 21 8 35t23.5 19t25.5 6t27 1h264q17 0 27 -1t25.5 -6t23.5 -19t8 -35q0 -22 -7.5 -36t-22.5 -19.5t-26 -7t-28 -1.5h-61v-708q0 -186 -113.5 -313.5t-269.5 -127.5t-269.5 127.5t-113.5 313.5v708h-62q-16 0 -27 1.5t-26 7t-23 19.5t-8 36z" />
<glyph unicode="V" d="M37 1190q0 21 8 35t23.5 19t25.5 6t27 1h209q17 0 27 -1t25.5 -6t23.5 -19t8 -35q0 -23 -7 -36.5t-25 -19t-34 -7t-49 -1.5l199 -796q28 -118 37 -183h2q15 95 79 353l158 626q-33 0 -49 1.5t-34 7t-25 19t-7 36.5q0 21 8 35t23.5 19t25.5 6t27 1h209q17 0 27 -1t25.5 -6 t23.5 -19t8 -35q0 -19 -5.5 -31t-13.5 -18.5t-25 -10t-31 -4t-41 -0.5l-271 -1067q-7 -27 -16.5 -43.5t-27 -23t-29.5 -7.5t-39 -1q-23 0 -33 0.5t-26 4t-23.5 11.5t-16 23t-14.5 38l-270 1065q-34 0 -50.5 1t-34.5 7t-25 19.5t-7 36.5z" />
<glyph unicode="W" d="M23 1188q0 18 6 30.5t13.5 19t21 9.5t21.5 3.5t21 0.5h162q18 0 28 -1t24.5 -6.5t22 -19.5t7.5 -36q0 -28 -15.5 -43t-30 -17t-36.5 -2h-51l107 -811q16 -127 16 -159h2q5 57 32 192t52 242.5t29 116.5q20 45 82 45q66 0 84 -47q0 -1 16 -72.5t35 -157.5t37 -180t22 -139 h2q1 42 33 288l90 682h-51q-22 0 -36.5 2t-30 17t-15.5 43q0 22 7.5 36t22 19.5t25 6.5t27.5 1h162q17 0 27 -1t25.5 -6.5t23.5 -19.5t8 -36q0 -62 -78 -62l-148 -1071q-4 -25 -13 -41t-24 -21.5t-23.5 -7t-23.5 -1.5q-68 0 -82 51q-2 3 -29.5 123t-57 260.5t-33.5 181.5h-2 q-5 -54 -62 -307t-63 -268q-20 -41 -80 -41q-15 0 -23.5 1.5t-23.5 7t-24 21.5t-13 41l-148 1071h-2q-75 0 -75 62z" />
<glyph unicode="X" d="M55 61q0 22 7.5 36t22 19.5t25 7t27.5 1.5h45l273 541l-246 460h-47q-16 0 -27 1.5t-26 7t-23 19.5t-8 36q0 21 8 35t23.5 19t25.5 6t27 1h213q13 0 21 -0.5t21 -3.5t20.5 -9t13.5 -18.5t6 -29.5q0 -22 -7 -36t-22.5 -19.5t-27 -7t-31.5 -1.5l157 -299l146 299 q-18 0 -28 0.5t-24.5 4t-22.5 10t-13.5 19t-5.5 30.5q0 17 6 29.5t13 18.5t20.5 9t21 3.5t20.5 0.5h213q17 0 27 -1t25.5 -6.5t23.5 -19.5t8 -36q0 -21 -8 -35t-23 -19t-26 -6.5t-27 -1.5h-45l-231 -458l289 -543h47q16 0 27 -1.5t26 -7t23 -19.5t8 -36q0 -21 -8 -35 t-23.5 -19t-25.5 -6t-27 -1h-213q-13 0 -21 0.5t-21 3.5t-20.5 9t-13.5 18.5t-6 29.5q0 23 7 36.5t22.5 19t27.5 7t35 1.5l-203 397l-188 -397q23 0 35.5 -1.5t29 -7t24 -19.5t7.5 -36q0 -21 -8 -35t-23.5 -19t-25.5 -6t-27 -1h-213q-13 0 -21 0.5t-21 3.5t-20.5 9 t-13.5 18.5t-6 29.5z" />
<glyph unicode="Y" d="M39 1190q0 17 6 29.5t13.5 18.5t20.5 9t21 3.5t21 0.5h213q13 0 21 -0.5t21 -3.5t20.5 -9t13.5 -18.5t6 -29.5q0 -23 -7 -36.5t-22.5 -19t-28 -7t-36.5 -1.5q0 -1 36.5 -77t68.5 -143.5t66 -147t44 -115.5l215 483q-19 0 -29.5 0.5t-25 4t-22 10t-13 19t-5.5 30.5 q0 17 6 29.5t13.5 18.5t20.5 9t21 3.5t21 0.5h213q18 0 28 -1t24.5 -6.5t22 -19.5t7.5 -36q0 -28 -15.5 -43t-30 -17t-36.5 -2h-43l-301 -626v-375h51q17 0 27.5 -1.5t25 -7t22 -19.5t7.5 -36q0 -17 -6 -29.5t-13.5 -18.5t-20.5 -9t-21 -3.5t-21 -0.5h-243q-18 0 -28 1 t-24.5 6.5t-22 19.5t-7.5 36q0 28 15.5 43t30 17t36.5 2h51v375l-303 626h-43q-17 0 -27.5 1.5t-25 7t-22 19.5t-7.5 36z" />
<glyph unicode="Z" d="M98 70q0 30 21 63l674 993h-529v-108q0 -21 -1 -31.5t-7 -25t-21.5 -21t-41.5 -6.5q-25 0 -40.5 7t-21 21.5t-7 25t-1.5 30.5v149q0 51 16.5 67.5t67.5 16.5h684q20 0 30.5 -1t25.5 -7t21.5 -21t6.5 -40q0 -31 -21 -64l-673 -993h563v147q0 21 1 31.5t7 25t21.5 21 t41.5 6.5q25 0 40.5 -7t21 -21.5t7 -25t1.5 -30.5v-188q0 -50 -16 -67t-66 -17h-721q-20 0 -30.5 1.5t-25 7t-21.5 21t-7 40.5z" />
<glyph unicode="[" d="M455 -100v1452q0 23 7 38t20 21.5t23.5 8t24.5 1.5h383q76 0 76 -63q0 -26 -15.5 -45t-51.5 -19h-324v-1339h324q36 0 51.5 -19t15.5 -45q0 -61 -71 -61h-392q-41 0 -57 19t-14 51z" />
<glyph unicode="\" d="M119 1358q0 26 20 44.5t43 18.5q20 0 35.5 -12.5t20 -21t14.5 -29.5l682 -1407q18 -36 18 -60q0 -27 -18.5 -44t-42.5 -17q-20 0 -36 13t-23 24.5t-15 30.5l-680 1409q-1 2 -7 13.5t-8.5 20t-2.5 17.5z" />
<glyph unicode="]" d="M82 -109q0 26 17 45t53 19h323v1341h-321l-2 -2q-36 0 -53 19t-17 45q0 63 74 63h389q40 0 57.5 -19t15.5 -50v-1452q0 -33 -16.5 -51.5t-58.5 -18.5h-383q-78 0 -78 61z" />
<glyph unicode="^" d="M156 946q0 41 57 64q39 18 78 37t64 31t50.5 24.5t40.5 19.5l30 14t23.5 10.5t16 6t12.5 3.5t9 1h2q13 0 142 -62q30 -14 49.5 -23.5t56.5 -27t73 -34.5q17 -7 26.5 -12.5t20.5 -19.5t11 -32q0 -24 -20.5 -53t-49.5 -29h-2q-11 0 -32 10t-113 57q-80 41 -136 70 q-3 1 -11 6t-13 5q-7 0 -16 -3t-30.5 -14t-44 -22.5t-74 -38.5t-102.5 -53q-30 -17 -49 -17q-29 0 -49 28.5t-20 53.5z" />
<glyph unicode="_" d="M115 -123q0 9 3 19t10.5 23t26.5 21.5t46 8.5h673q26 0 44 -8.5t26 -21.5t11 -23.5t3 -20.5q0 -26 -19.5 -48t-68.5 -22h-671q-26 1 -44 8.5t-26 20t-11 22.5t-3 21z" />
<glyph unicode="`" d="M221 1237q0 30 21.5 51t48.5 21h4q10 0 33 -9t121 -52q88 -39 151 -66q57 -25 57 -64q0 -27 -18.5 -54.5t-48.5 -27.5h-2q-12 0 -142 57l-45.5 19.5t-50.5 22t-65 28.5q-15 7 -21.5 11t-19 13t-18 21.5t-5.5 28.5z" />
<glyph unicode="a" d="M113 262q0 96 79 164.5t215 103t320 37.5q0 105 -70 157t-192 52q-45 0 -74 -2q-30 -3 -36.5 -6.5t-6.5 -15.5q-1 -51 -30 -73t-60 -22q-39 0 -65.5 25.5t-26.5 69.5q0 31 12.5 55.5t30 40t47.5 26.5t52.5 16t58 7.5t52 3t44.5 0.5q106 0 187 -28.5t127 -76t68.5 -101.5 t22.5 -111v-443q43 -16 123 -16q22 0 36.5 -2t30 -17t15.5 -43q0 -18 -6 -30.5t-13 -19t-23 -9.5t-27 -3.5t-33 -0.5q-37 0 -62.5 1.5t-59 7.5t-58.5 20.5t-41 36.5q-119 -78 -299 -78q-151 0 -244.5 81.5t-93.5 192.5zM254 262q0 -62 59 -105.5t152 -43.5q110 0 182 34 q29 13 46 27.5t24 33t8.5 31t1.5 35.5v172q-219 -6 -346 -57t-127 -127z" />
<glyph unicode="b" d="M25 1188q0 22 7.5 36t23 19.5t25.5 6.5t28 1h149q51 0 66.5 -17.5t15.5 -66.5v-372q111 100 260 100q107 0 199 -60t146 -164.5t54 -228.5q0 -95 -34.5 -180t-92 -144.5t-134.5 -94.5t-160 -35q-136 0 -238 104q0 -25 -1.5 -37t-7.5 -27.5t-21 -21.5t-40 -6 q-26 0 -41.5 6.5t-21.5 21t-7 25t-1 31.5v1042h-93q-15 0 -25.5 1.5t-25 6.5t-22.5 19t-8 35zM340 391q0 -39 14 -85t41 -90.5t73 -73.5t103 -29q112 0 199.5 93.5t87.5 235.5q0 135 -78.5 231.5t-191.5 96.5q-97 0 -172.5 -69.5t-75.5 -159.5v-150z" />
<glyph unicode="c" d="M150 442q0 57 15 117t51.5 122t89 110.5t135.5 79t184 30.5q30 0 47 -0.5t53 -3t59.5 -7.5t54 -16t48 -26.5t30.5 -40t13 -55.5q0 -43 -27 -69t-65 -26q-39 0 -64 25t-26 76q0 18 -123 18q-78 0 -140 -25.5t-97 -63.5t-58 -85.5t-31 -86.5t-8 -73q0 -138 94.5 -233.5 t226.5 -95.5q43 0 78.5 11t55 24t36.5 34t21.5 30t11.5 24q10 28 25 36.5t43 8.5q71 0 71 -58q0 -13 -9 -38t-34 -60t-62.5 -64.5t-103 -51t-145.5 -21.5q-191 0 -320.5 133.5t-129.5 320.5z" />
<glyph unicode="d" d="M74 440q0 127 58.5 232t154.5 164t207 59q133 0 239 -92v323h-92q-21 0 -35.5 2t-30.5 17t-16 43q0 22 7.5 36t23 19.5t25.5 6.5t28 1h150q51 0 66 -17.5t15 -66.5v-1042h93q21 0 35.5 -2t30.5 -17t16 -43q0 -22 -7.5 -36t-23 -19.5t-25.5 -6.5t-28 -1h-150 q-57 0 -69.5 20t-12.5 82q-110 -114 -258 -114q-164 0 -282.5 131.5t-118.5 320.5zM215 440q0 -136 79.5 -231.5t188.5 -95.5q56 0 105 28t79.5 71t48 92t17.5 93v146q0 87 -67.5 157t-163.5 70q-112 0 -199.5 -94t-87.5 -236z" />
<glyph unicode="e" d="M113 444q0 189 128.5 323t311.5 134q97 0 174 -35t125 -95t73 -137.5t25 -166.5q0 -27 -6 -43.5t-20 -23t-24.5 -8t-31.5 -1.5h-610q24 -127 121.5 -202.5t218.5 -75.5q25 0 51.5 5t58.5 17t59.5 38t43.5 63q10 28 24.5 36.5t43.5 8.5q71 0 71 -58q0 -17 -11.5 -44 t-40 -60.5t-68.5 -62.5t-105 -48.5t-141 -19.5q-197 0 -334 134t-137 322zM260 514h545q-6 75 -31 129t-62.5 81.5t-76 39.5t-82.5 12q-107 0 -189 -74.5t-104 -187.5z" />
<glyph unicode="f" d="M86 63q0 21 8 35t23 19t26 6.5t27 1.5h207v633h-207q-13 0 -21 0.5t-21 3.5t-20.5 9t-13.5 18.5t-6 29.5q0 22 7.5 36t22.5 19.5t26 7t28 1.5h205v108q0 127 95 200t226 73q18 0 34 -1t49 -7.5t55.5 -18t40.5 -36.5t18 -60q0 -40 -27.5 -65t-60.5 -25q-32 0 -54.5 21.5 t-29 40t-6.5 26.5q-19 0 -30.5 -0.5t-35 -3.5t-39 -8.5t-35 -17.5t-31 -28.5t-20 -42.5t-8.5 -59v-96h250q17 0 27.5 -1.5t25 -7t22 -19.5t7.5 -36q0 -17 -6 -29.5t-13.5 -18.5t-20.5 -9t-21 -3.5t-21 -0.5h-250v-633h207q16 0 27 -1.5t26 -7t23 -19.5t8 -36q0 -21 -8 -35 t-23.5 -19t-25.5 -6t-27 -1h-555q-17 0 -27 1t-25.5 6.5t-23.5 19.5t-8 36z" />
<glyph unicode="g" d="M59 -168q0 14 1 27t9 45t22.5 60t45.5 62t74 60q-47 65 -47 147q0 81 41 140q-66 83 -66 194q0 133 98 230.5t240 97.5q111 0 199 -61q95 71 217 71q76 0 112.5 -34t36.5 -76q0 -41 -25.5 -62.5t-55.5 -21.5q-22 0 -47 16.5t-33 52.5q-67 -5 -119 -35q53 -86 53 -178 q0 -137 -98.5 -233t-239.5 -96q-45 0 -91 13t-65 22.5t-28 15.5q-12 -30 -12 -58q0 -43 24 -73q17 -20 29.5 -24.5t38.5 -4.5q16 -4 59 -4h143q183 0 297 -59q72 -38 107 -103.5t35 -130.5q0 -85 -64.5 -154.5t-173.5 -108t-239 -38.5t-239.5 38t-174 107.5t-64.5 155.5z M178 -168q0 -70 104.5 -124t254.5 -54t254 54t104 124q0 37 -14.5 65.5t-34.5 46.5t-57.5 31t-67 19.5t-80 9.5t-79 3.5t-81.5 0.5q-117 0 -149.5 -4.5t-69.5 -28.5q-45 -28 -64.5 -68t-19.5 -75zM281 565q0 -83 57 -144t139 -61q80 0 138.5 60t58.5 147q0 83 -57.5 144 t-139.5 61q-80 0 -138 -60t-58 -147z" />
<glyph unicode="h" d="M25 61q0 22 7.5 36t22.5 19.5t26 7t28 1.5h90v1001h-93q-15 0 -25.5 1.5t-25 6.5t-22.5 19t-8 35q0 22 7.5 36t23 19.5t25.5 6.5t28 1h149q51 0 66.5 -17.5t15.5 -66.5v-381q41 41 109 75t159 34q126 0 196 -72.5t70 -222.5v-475h91q17 0 28 -1.5t26 -7t22.5 -19.5 t7.5 -36q0 -21 -8 -35t-23 -19t-25 -6t-26 -1h-314q-13 0 -20.5 0.5t-21 3.5t-21.5 9t-14.5 18.5t-6.5 29.5q0 22 7.5 36t22.5 19.5t26 7t28 1.5h80v465q0 96 -29 138t-108 42q-42 0 -84.5 -16t-82 -48t-64.5 -89t-25 -130v-362h90q17 0 28 -1.5t26 -7t22.5 -19.5t7.5 -36 q0 -21 -8 -35t-23 -19t-25 -6t-26 -1h-326q-13 0 -20 0.5t-20.5 3.5t-21 9t-13.5 18.5t-6 29.5z" />
<glyph unicode="i" d="M160 61q0 22 7.5 36t22.5 19.5t26 7t28 1.5h248v633h-232q-17 0 -27 1t-25.5 6.5t-23.5 19.5t-8 36q0 21 8 35t23 19t26 6.5t27 1.5h291q51 0 66.5 -17.5t15.5 -66.5v-674h215q16 0 27 -1.5t26 -7t23 -19.5t8 -36q0 -21 -8 -35t-23.5 -19t-25.5 -6t-27 -1h-604 q-17 0 -27 1t-25.5 6t-23.5 19t-8 35zM428 1151q0 43 29.5 72.5t72.5 29.5t73 -29.5t30 -72.5t-30 -72.5t-73 -29.5t-72.5 29.5t-29.5 72.5z" />
<glyph unicode="j" d="M98 -311q0 42 27.5 68t64.5 26q35 0 63 -25.5t28 -66.5q0 -19 -2 -25q62 -8 114 -8q33 0 53.5 2.5t54 21t58.5 54.5q53 72 53 184v838h-266q-13 0 -21 0.5t-21 3.5t-20.5 9t-13.5 18.5t-6 29.5q0 22 7.5 36t22.5 19.5t26 7t28 1.5h324q51 0 66.5 -17.5t15.5 -66.5v-889 q0 -43 -9.5 -89.5t-36 -99.5t-66 -93.5t-107 -67.5t-152.5 -27q-31 0 -51 1t-59 4.5t-65 14t-53.5 26.5t-42 44.5t-14.5 65.5zM549 1151q0 43 29.5 72.5t72.5 29.5t73 -29.5t30 -72.5t-30 -72.5t-73 -29.5t-72.5 29.5t-29.5 72.5z" />
<glyph unicode="k" d="M43 63q0 28 15.5 43t30 17t36.5 2h100v1001h-100q-17 0 -27.5 1.5t-25 7t-22 19.5t-7.5 36q0 17 6 29.5t13.5 18.5t20.5 9t21 3.5t21 0.5h133q51 0 66.5 -17.5t15.5 -66.5v-721l332 312h-76q-13 0 -21 0.5t-21 3.5t-20.5 9t-13.5 18.5t-6 29.5q0 22 7.5 36t22 19.5t25 7 t27.5 1.5h315q16 0 27 -1.5t26 -7t23 -19.5t8 -36q0 -21 -8 -35t-23.5 -19t-25.5 -6t-27 -1h-71l-252 -236l305 -397h63q16 0 27 -1.5t26 -7t23 -19.5t8 -36q0 -21 -8 -35t-23.5 -19t-25.5 -6t-27 -1h-241q-13 0 -21 0.5t-21 3.5t-20.5 9t-13.5 18.5t-6 29.5q0 19 5.5 31 t13 18.5t24.5 10t31 4t41 0.5l-244 317l-164 -151v-166h100q17 0 27.5 -1.5t25 -7t22 -19.5t7.5 -36q0 -17 -6 -29.5t-13.5 -18.5t-20.5 -9t-21 -3.5t-21 -0.5h-315q-17 0 -27.5 1t-25 6.5t-22 19.5t-7.5 36z" />
<glyph unicode="l" d="M119 61q0 22 7.5 36t22.5 19.5t26 7t28 1.5h264v1001h-266q-21 0 -35.5 2t-30.5 17t-16 43q0 22 7.5 36t23 19.5t25.5 6.5t28 1h323q51 0 66.5 -17.5t15.5 -66.5v-1042h266q17 0 27.5 -1.5t25 -7t22 -19.5t7.5 -36q0 -17 -6 -29.5t-13.5 -18.5t-20.5 -9t-21 -3.5 t-21 -0.5h-673q-16 0 -26 1t-25 6t-23 19t-8 35z" />
<glyph unicode="m" d="M-8 61q0 19 5.5 31t13.5 18.5t25.5 10t31.5 4t41 0.5v633q-28 0 -41 0.5t-31 3.5t-25.5 9.5t-13.5 18.5t-6 31q0 21 8 35t23 19t26 6.5t27 1.5h65q18 0 28.5 -1.5t24 -6.5t21 -18.5t8.5 -35.5q37 34 88.5 54t100.5 20q108 0 155 -107q39 55 100 81t115 26q37 0 67 -13.5 t49 -33t32.5 -49t20 -53t10 -53.5t4 -43.5t0.5 -28.5v-496q27 0 41 -0.5t31 -4t25 -10t13.5 -18.5t5.5 -31q0 -21 -8 -35t-23.5 -19t-25.5 -6t-27 -1h-163q-13 0 -20.5 0.5t-21 3.5t-21.5 9t-14.5 18.5t-6.5 29.5q0 22 8 36t24.5 19.5t30 7t37.5 1.5v477q0 94 -19 131 t-57 37q-69 0 -124.5 -75t-55.5 -203v-367q34 0 50.5 -1t34.5 -7t25 -19.5t7 -36.5q0 -21 -8 -35t-23.5 -19t-25.5 -6t-27 -1h-164q-13 0 -20.5 0.5t-21 3.5t-21.5 9t-14.5 18.5t-6.5 29.5q0 22 8 36t24.5 19.5t30 7t37.5 1.5v477q0 94 -19 131t-57 37q-69 0 -124.5 -75 t-55.5 -203v-367q34 0 50.5 -1t34.5 -7t25 -19.5t7 -36.5q0 -21 -8 -35t-23.5 -19t-25.5 -6t-27 -1h-180q-13 0 -20.5 0.5t-21 3.5t-21.5 9t-14.5 18.5t-6.5 29.5z" />
<glyph unicode="n" d="M25 61q0 22 7.5 36t22.5 19.5t26 7t28 1.5h90v633h-93q-13 0 -20 0.5t-20.5 3.5t-21 9t-13.5 18.5t-6 29.5q0 22 7.5 36t22.5 19.5t26 7t28 1.5h149q57 0 69.5 -20t12.5 -77q41 41 109 75t159 34q126 0 196 -72.5t70 -222.5v-475h91q17 0 28 -1.5t26 -7t22.5 -19.5 t7.5 -36q0 -21 -8 -35t-23 -19t-25 -6t-26 -1h-314q-13 0 -20.5 0.5t-21 3.5t-21.5 9t-14.5 18.5t-6.5 29.5q0 22 7.5 36t22.5 19.5t26 7t28 1.5h80v465q0 96 -29 138t-108 42q-42 0 -84.5 -16t-82 -48t-64.5 -89t-25 -130v-362h90q17 0 28 -1.5t26 -7t22.5 -19.5t7.5 -36 q0 -21 -8 -35t-23 -19t-25 -6t-26 -1h-326q-13 0 -20 0.5t-20.5 3.5t-21 9t-13.5 18.5t-6 29.5z" />
<glyph unicode="o" d="M117 442q0 191 123.5 325t296.5 134q113 0 209.5 -61t153 -166.5t56.5 -231.5q0 -191 -124 -322.5t-295 -131.5t-295.5 131t-124.5 323zM258 457q0 -142 82.5 -243t196.5 -101t196 101t82 243q0 137 -82.5 228t-195.5 91q-112 0 -195.5 -91.5t-83.5 -227.5z" />
<glyph unicode="p" d="M25 -393q0 22 7.5 36t23 19.5t25.5 6.5t28 1h90v1088h-93q-13 0 -20 0.5t-20.5 3.5t-21 9t-13.5 18.5t-6 29.5q0 22 7.5 36t22.5 19.5t26 7t28 1.5h149q54 0 68 -19t14 -69q111 100 260 100q107 0 199 -60t146 -164.5t54 -228.5q0 -95 -34.5 -180t-92 -144.5 t-134.5 -94.5t-160 -35q-136 0 -238 104v-422h90q18 0 28 -1t25.5 -6.5t23 -19.5t7.5 -36q0 -28 -16 -43t-30.5 -17t-35.5 -2h-326q-15 0 -25.5 1.5t-25 6.5t-22.5 19t-8 35zM340 391q0 -39 14 -85t41 -90.5t73 -73.5t103 -29q112 0 199.5 93.5t87.5 235.5 q0 135 -78.5 231.5t-191.5 96.5q-97 0 -172.5 -69.5t-75.5 -159.5v-150z" />
<glyph unicode="q" d="M82 440q0 191 131.5 323t306.5 132q151 0 256 -113q0 29 0.5 42t4 30.5t11 24t21.5 11.5t35 5q25 0 40.5 -7t21 -21.5t7 -25t1.5 -30.5v-1141h100q18 0 28 -1t24.5 -6.5t22 -19.5t7.5 -36q0 -28 -15.5 -43t-30 -17t-36.5 -2h-342q-17 0 -27.5 1.5t-25 7t-22 19.5t-7.5 36 q0 17 6 29.5t13.5 18.5t20.5 9t21 3.5t21 0.5h100v441q-44 -48 -114 -85.5t-162 -37.5q-170 0 -294 131.5t-124 320.5zM223 440q0 -136 85 -231.5t200 -95.5q60 0 112 28t85.5 70.5t52 91.5t18.5 94v80q0 70 -28.5 136t-86.5 111.5t-131 45.5q-125 0 -216 -95.5t-91 -234.5z " />
<glyph unicode="r" d="M66 63q0 22 7.5 35.5t22 18.5t25 6.5t26.5 1.5h166v633h-166q-17 0 -27 1t-25 6.5t-22 19.5t-7 36t7.5 35.5t22 18.5t25 6.5t26.5 1.5h226q51 0 66.5 -17.5t15.5 -66.5v-70q145 166 348 166q60 0 101.5 -13.5t60 -35.5t25.5 -40.5t7 -37.5q0 -40 -25.5 -64t-60.5 -24 q-37 0 -61.5 26t-26.5 64q-90 0 -162 -33.5t-116 -89t-67 -124t-23 -142.5v-256h227q16 0 27 -1.5t26 -7t23 -19.5t8 -36q0 -21 -8 -35t-23.5 -19t-25.5 -6t-27 -1h-535q-17 0 -27 1t-25 6.5t-22 19.5t-7 36z" />
<glyph unicode="s" d="M147 72v198q0 21 1.5 31.5t7.5 25t21.5 21t41.5 6.5q37 0 50 -13.5t22 -45.5q18 -57 48 -95.5t67.5 -56t71 -24t75.5 -6.5q132 0 197 40.5t65 102.5q0 26 -11.5 47.5t-35.5 37t-46.5 26t-58.5 19t-57 13t-55 9.5q-54 8 -83 13t-78.5 16.5t-77.5 22.5t-64 30.5t-55 42 t-32.5 55t-13.5 71.5q0 27 7 54t32 62.5t65.5 62t114.5 45t171 18.5q129 0 219 -43q12 43 61 43q17 0 29.5 -6t18.5 -13.5t9.5 -21t4 -22t0.5 -21.5v-141q0 -21 -1.5 -31.5t-7.5 -25t-21.5 -21t-41.5 -6.5q-23 0 -37.5 5.5t-21 17t-8.5 21.5t-3 26q-3 23 -11.5 40.5 t-29 35.5t-62 28t-102.5 10q-134 0 -197 -35t-63 -82q0 -85 199 -112q52 -10 139 -25q22 -3 40 -6.5t54 -13.5t64.5 -22t62 -33t56 -46.5t38 -63t15.5 -81.5q0 -33 -9 -66t-35 -70.5t-67.5 -65.5t-113 -47t-164.5 -19q-161 0 -266 78q-11 -35 -27 -53.5t-26 -21.5t-23 -3 q-17 0 -29.5 6t-18.5 13.5t-9.5 21t-4 22t-0.5 21.5z" />
<glyph unicode="t" d="M51 819q0 22 7.5 36t22.5 19.5t26 7t28 1.5h178v168q0 21 1.5 31.5t7.5 25t21.5 21t41.5 6.5q25 0 40.5 -7t21 -21.5t7 -25t1.5 -30.5v-168h336q17 0 27.5 -1.5t24.5 -7t21.5 -19.5t7.5 -36q0 -17 -6 -29.5t-13 -18.5t-20.5 -9t-21 -3.5t-20.5 -0.5h-336v-488 q0 -23 1 -37t9 -39.5t23 -40.5t47 -27.5t77 -12.5q17 0 35.5 3t42.5 12.5t42.5 24.5t31.5 43t14 64q0 23 2.5 37t19 27.5t48.5 13.5q26 0 41.5 -6.5t21.5 -20.5t7.5 -24t1.5 -29q0 -86 -48.5 -149.5t-119 -92t-150.5 -28.5q-124 0 -206.5 66t-82.5 204v500h-180 q-13 0 -21 0.5t-21 3.5t-20.5 9t-13.5 18.5t-6 29.5z" />
<glyph unicode="u" d="M25 819q0 22 7.5 36t22.5 19.5t26 7t28 1.5h149q51 0 66.5 -17.5t15.5 -66.5v-553q0 -26 1 -40t9.5 -35t24.5 -31t48 -18.5t79 -8.5q24 0 49.5 4t59.5 17t60 34.5t44 61.5t18 92v436h-92q-16 0 -26 1t-25 6t-23 19t-8 35q0 22 7.5 36t22.5 19.5t26 7t28 1.5h150 q51 0 66 -17.5t15 -66.5v-674h93q21 0 35.5 -2t30.5 -17t16 -43q0 -22 -7.5 -36t-23 -19.5t-25.5 -6.5t-28 -1h-150q-19 0 -29 1t-24 7t-21 20.5t-8 37.5q-104 -78 -244 -78q-290 0 -290 245v525h-93q-13 0 -20 0.5t-20.5 3.5t-21 9t-13.5 18.5t-6 29.5z" />
<glyph unicode="v" d="M49 819q0 22 7.5 36t22 19.5t25 7t27.5 1.5h240q17 0 27.5 -1.5t25 -7t22 -19.5t7.5 -36q0 -17 -6 -29.5t-13.5 -18.5t-20.5 -9t-21 -3.5t-21 -0.5h-58l224 -660l223 660h-58q-17 0 -27 1t-25 6.5t-22 19.5t-7 36t7.5 35.5t22 18.5t25 6.5t26.5 1.5h240q17 0 27.5 -1.5 t25 -7t22 -19.5t7.5 -36q0 -17 -6 -29.5t-13.5 -18.5t-20.5 -9t-21 -3.5t-21 -0.5h-61l-236 -699q-8 -24 -20 -39t-29 -20.5t-27.5 -6.5t-31.5 -1q-22 0 -32.5 1t-27.5 7t-28.5 21t-20.5 40l-235 697h-62q-13 0 -21 0.5t-21 3.5t-20.5 9t-13.5 18.5t-6 29.5z" />
<glyph unicode="w" d="M33 821q0 22 7.5 35.5t22.5 18.5t26 6.5t30 1.5h235q19 0 30.5 -1.5t26.5 -7t22 -19.5t7 -36q0 -18 -6 -30t-13 -18t-21 -9t-22.5 -3.5t-23.5 -0.5h-100l106 -611h2q6 28 49 177t48 161q23 45 82 45q51 0 67.5 -23.5t44.5 -120.5q1 -5 2 -7q51 -170 60 -232h2l102 611 h-100q-20 0 -31 1t-26 6.5t-22 19.5t-7 36t7.5 35.5t22.5 18.5t26 6.5t30 1.5h235q19 0 30 -1.5t26 -6.5t22.5 -18.5t7.5 -35.5q0 -18 -5.5 -30.5t-13 -19t-23.5 -9.5t-27 -3.5t-35 -0.5l-123 -688q-4 -22 -7 -32t-12 -23t-26.5 -18t-44.5 -5q-61 0 -86 35q-11 21 -49.5 157 t-44.5 205h-2q-11 -80 -60 -254q-29 -98 -47.5 -120.5t-77.5 -22.5q-56 0 -72.5 17.5t-23.5 60.5l-123 688q-24 0 -35 0.5t-27 3.5t-23.5 9.5t-13 19t-5.5 30.5z" />
<glyph unicode="x" d="M55 61q0 22 8 36t23 19.5t26 7t27 1.5h82l254 330l-242 303h-81q-13 0 -20.5 0.5t-21 3.5t-21.5 9t-14.5 18.5t-6.5 29.5q0 22 8 36t23 19.5t26 7t27 0.5h239q22 0 36.5 -1.5t30 -16.5t15.5 -43q0 -18 -5.5 -30.5t-13 -19t-23 -9.5t-25.5 -3.5t-31 -0.5l155 -207l152 207 q-22 0 -32.5 0.5t-26 3.5t-23 9.5t-13 19t-5.5 30.5q0 28 15.5 43t30 17t36.5 1h239q16 0 27 -1t26 -6.5t23 -19.5t8 -36q0 -17 -6.5 -29.5t-14.5 -18.5t-21.5 -9t-21 -3.5t-20.5 -0.5h-82l-233 -303l262 -330h82q16 0 27 -1.5t26 -7t23 -19.5t8 -36q0 -17 -6.5 -29.5 t-14.5 -18.5t-21.5 -9t-21 -3.5t-20.5 -0.5h-240q-13 0 -21 0.5t-21 3.5t-20.5 9t-13.5 18.5t-6 29.5q0 18 6 30.5t13.5 19t23 10t27 4t33.5 0.5l-183 252l-176 -252q30 0 44.5 -1.5t31.5 -7t24 -19t7 -36.5q0 -17 -6 -29.5t-13.5 -18.5t-20.5 -9t-21 -3.5t-21 -0.5h-240 q-13 0 -20.5 0.5t-21 3.5t-21.5 9t-14.5 18.5t-6.5 29.5z" />
<glyph unicode="y" d="M53 819q0 22 7.5 36t22 19.5t25 7t27.5 1.5h240q17 0 27.5 -1.5t25 -7t22 -19.5t7.5 -36q0 -17 -6 -29.5t-13.5 -18.5t-20.5 -9t-21 -3.5t-21 -0.5h-51l190 -492q4 -12 14 -37.5t17.5 -46t11.5 -37.5h2q17 74 53 177l148 436h-58q-17 0 -27 1t-25 6.5t-22 19.5t-7 36 t7.5 35.5t22 18.5t25 6.5t26.5 1.5h240q17 0 27.5 -1.5t25 -7t22 -19.5t7.5 -36q0 -17 -6 -29.5t-13.5 -18.5t-20.5 -9t-21 -3.5t-21 -0.5h-61l-318 -932q-7 -20 -15 -40.5t-36.5 -71t-60 -86.5t-83.5 -65.5t-110 -29.5q-73 0 -121.5 50.5t-48.5 117.5q0 40 24.5 65t65.5 25 q38 0 63 -25t25 -63q0 -12 -2.5 -22.5t-5.5 -16.5l-2 -6q19 1 32 4t38 13.5t49 36t45 65.5q12 23 31.5 78t33 98.5t13.5 46.5q0 5 -9 27l-290 731h-64q-13 0 -21 0.5t-21 3.5t-20.5 9t-13.5 18.5t-6 29.5z" />
<glyph unicode="z" d="M68 70q0 27 6.5 39.5t38.5 42.5l639 606h-510v-53q0 -21 -1.5 -31.5t-7.5 -25t-21.5 -21t-41.5 -6.5q-25 0 -40.5 7t-21 21.5t-7 25t-1.5 30.5v94q0 51 16.5 67.5t67.5 16.5h697q20 0 30.5 -1.5t25 -7t21.5 -21t7 -40.5q0 -27 -6.5 -39.5t-38.5 -42.5l-639 -606h550v78 q0 21 1.5 31.5t7.5 25t21.5 21t41.5 6.5q25 0 40.5 -7t21 -21.5t7 -25t1.5 -30.5v-119q0 -16 -1 -25t-4.5 -23t-13.5 -23t-26 -13h-776q-20 0 -30.5 1.5t-25 7t-21.5 21t-7 40.5z" />
<glyph unicode="{" d="M115 625q0 23 12.5 39.5t32.5 21.5q2 0 36 1.5t73 6t81.5 14.5t74 33t38.5 56q2 14 2 41v325q0 125 96 191t324 67q71 0 71 -61q0 -37 -25 -51.5t-60 -13.5t-92.5 -5.5t-104.5 -25.5q-22 -10 -36.5 -22t-20.5 -26t-7.5 -24t-1.5 -25v-329q0 -22 -0.5 -34.5t-6.5 -40.5 t-17.5 -48t-36 -44.5t-58.5 -43.5v-2q34 -19 58 -43.5t35.5 -44.5t17.5 -47t7 -41t1 -35v-322v-22t3.5 -20.5t10.5 -23.5t22.5 -19.5t37.5 -20.5q44 -17 100 -22.5t90.5 -5.5t59 -14.5t24.5 -49.5q0 -25 -15 -44t-52 -20h-23q-216 4 -308.5 69t-92.5 187v328q0 17 -0.5 24.5 t-4 22.5t-10.5 24.5t-22 21t-37 21.5q-45 19 -101.5 26t-91 7t-59 14.5t-24.5 49.5z" />
<glyph unicode="|" d="M465 -86v1413q0 23 2 35q5 23 24.5 41t45.5 18q9 0 18.5 -3t22.5 -10.5t21.5 -26t8.5 -44.5v-1413q0 -25 -2 -37q-3 -21 -22 -39t-47 -18q-12 0 -26.5 4.5t-30 25t-15.5 54.5z" />
<glyph unicode="}" d="M115 -106q0 43 35 57q5 2 81.5 5.5t145.5 24t84 66.5q4 14 4 47v320q0 30 2.5 50.5t12.5 52.5t35.5 59t66.5 49v2q-117 63 -117 198v332v19t-2.5 18.5t-6.5 20t-13.5 18.5t-22.5 18.5t-34.5 15t-48.5 13.5t-65 9t-84 5q-73 0 -73 64q0 61 67 63h25q218 -4 309.5 -69.5 t91.5 -188.5v-325q0 -49 16 -72q48 -72 259 -78h2q12 0 24.5 -2t29.5 -17t17 -42q0 -23 -12.5 -40.5t-32.5 -21.5q-2 -1 -52 -4t-98 -9.5t-95 -31.5t-56 -65q-2 -14 -2 -41v-326q0 -60 -21.5 -105.5t-58.5 -74t-92 -46t-115 -24.5t-135 -8q-71 0 -71 64z" />
<glyph unicode="~" d="M145 1069q0 15 20.5 45t53 60.5t79.5 53.5t93 23q54 0 108.5 -27t101 -54t81.5 -27q31 0 58 16.5t43.5 36.5t37 36.5t39.5 16.5q24 0 45 -19t21 -44q0 -15 -20.5 -44.5t-53 -60t-79.5 -53t-93 -22.5t-90 17t-72.5 37t-62.5 37t-62 17q-30 0 -58.5 -17t-46 -37t-38.5 -37 t-39 -17q-24 0 -45 19t-21 44z" />
<glyph unicode="&#xa0;" />
<glyph unicode="&#xa1;" d="M408 -346q0 10 2 47l22 610q5 72 68 72h69q16 0 28 -3t19.5 -10.5t12 -12.5t7 -17.5t3.5 -16.5t1.5 -18.5t0.5 -15.5l23 -631q0 -37 -13 -64.5t-33.5 -42t-40.5 -21.5t-40 -7q-51 0 -90 35t-39 96zM408 670q0 49 37 88t92 39q52 0 89.5 -36.5t37.5 -90.5q0 -50 -36 -89.5 t-91 -39.5q-52 0 -90.5 37.5t-38.5 91.5z" />
<glyph unicode="&#xa2;" d="M88 440q0 170 123.5 299.5t320.5 155.5v149q2 70 64 70q61 0 61 -67v-148q34 -1 58 -2t61 -4.5t63.5 -9.5t57 -17t49 -26.5t31 -39t12.5 -52.5q0 -39 -26.5 -66t-65.5 -27q-35 0 -63 25.5t-27 79.5l-70 8l-80 4v-655q71 7 116 27t63 42.5t29.5 44t28.5 36t48 14.5 q37 0 53.5 -18t16.5 -40q0 -16 -10.5 -41t-37 -56.5t-65 -59.5t-101.5 -49t-139 -25l-2 -2v-148q0 -37 -18 -53t-43 -16q-62 0 -64 69v150q-197 24 -320.5 153t-123.5 295zM231 442q0 -108 80 -199.5t221 -119.5v645q-144 -25 -222.5 -121t-78.5 -205z" />
<glyph unicode="&#xa3;" d="M92 106q0 64 55 104t138 40q43 0 98 -10q10 48 10 96v227h-98q-74 0 -74 64q0 61 76 61h96v230q0 74 20 135t52 100t73 65.5t81 38t79 11.5q67 0 122.5 -31t89 -80t51.5 -104.5t18 -108.5q0 -52 -29 -74t-61 -22q-40 0 -66 27.5t-26 62.5q0 27 13 46t13 30q0 31 -34.5 79 t-92.5 48q-57 0 -108 -56.5t-51 -162.5v-234h149q39 0 54.5 -19t15.5 -44q0 -62 -70 -62h-149v-231q0 -72 -21 -133l48 -18q47 -18 62 -23t52 -17t61 -16t45 -4q26 0 46 11.5t30 30.5t14.5 32t6.5 26q0 3 1 20t3.5 24.5t9 19.5t21.5 17t38 5q38 0 55 -18.5t17 -46.5 q0 -38 -15 -80t-43.5 -81.5t-77 -65t-108.5 -25.5q-41 0 -95.5 12t-90.5 24t-90.5 32.5t-61.5 23.5q-90 -92 -208 -92q-61 0 -102.5 32t-41.5 84z" />
<glyph unicode="&#xa4;" d="M-106 -6q0 24 23 51.5t101 103.5q40 38 64 62q-121 158 -121 356t121 357q-24 24 -64 63q-89 88 -106.5 109t-17.5 45q0 30 21.5 49.5t49.5 19.5q26 0 52 -22.5t165 -163.5h2q76 62 171.5 91.5t183.5 29.5q99 0 192 -33t160 -88h4q145 147 163 162q29 24 54 24 q27 0 48.5 -19.5t21.5 -49.5q0 -25 -22 -51t-107 -109l-18 -18t-18.5 -18t-21.5 -21q121 -159 121 -357q0 -194 -121 -356q144 -142 165.5 -167t21.5 -50q0 -30 -21.5 -51t-48.5 -21q-24 0 -46.5 19t-118.5 117q-33 33 -52 53h-4q-67 -55 -160 -88t-192 -33 q-103 0 -197 34.5t-158 86.5h-2q-151 -153 -165 -165q-28 -24 -52 -24q-27 0 -49 21t-22 51zM102 567q0 -114 56 -214t157 -161t224 -61q86 0 166 33.5t139 91t94 139t35 172.5q0 177 -124.5 305.5t-309.5 128.5q-178 0 -307.5 -125t-129.5 -309z" />
<glyph unicode="&#xa5;" d="M37 1186q0 65 72 65h233q76 0 76 -63q0 -22 -16 -42.5t-56 -21.5h-22l170 -366h86l170 366h-25q-36 0 -54 18t-18 44q0 13 4 26t21.5 26t46.5 13h236q73 0 73 -63q0 -64 -76 -64h-51l-174 -366h217q25 0 42.5 -7t25 -18t10 -20t2.5 -19q0 -61 -76 -61h-282 q-3 -8 -31.5 -63.5t-32.5 -94.5v-24h332q27 0 45 -5q20 -6 32.5 -22.5t12.5 -36.5q0 -11 -4 -23.5t-21.5 -25.5t-46.5 -14h-350v-197h56q77 0 77 -64q0 -63 -75 -63h-260q-74 0 -74 63q0 64 76 64h57v197h-352q-23 1 -39 8t-22 18t-8.5 19.5t-2.5 15.5q0 21 12.5 38t32.5 23 q17 5 45 5h334v24q-1 17 -4.5 28.5t-8.5 21.5t-20 41t-31 67h-278q-82 0 -82 61q0 64 84 64h215l-176 366h-51q-76 0 -76 62z" />
<glyph unicode="&#xa6;" d="M465 -78v543q0 33 20 55.5t52 22.5q71 0 71 -92v-531q0 -88 -71 -88q-72 0 -72 90zM465 801v530q0 28 8 47.5t21 28t23 11.5t20 3q49 0 67 -49q4 -14 4 -43v-530q0 -27 -7 -46t-19.5 -27.5t-22.5 -11.5t-22 -3q-27 0 -44.5 15.5t-23.5 33.5q-4 14 -4 41z" />
<glyph unicode="&#xa7;" d="M168 410q0 56 18.5 104t49.5 81t53 50t45 31v2q-68 41 -117 106.5t-49 157.5q0 140 110.5 230t260.5 90t241.5 -78.5t91.5 -177.5q0 -36 -21 -57t-50 -21q-24 0 -44 14.5t-26 40.5q-1 4 -2.5 18t-4 24t-9 24t-20.5 28t-36 27q-50 31 -122 31q-105 0 -178.5 -56.5 t-73.5 -134.5q0 -35 19 -66t45.5 -51.5t66.5 -40.5t69.5 -30t68.5 -22.5t50 -16.5q153 -57 227 -141.5t74 -188.5q0 -91 -49.5 -161t-116.5 -105v-2q68 -40 117 -107t49 -159q0 -140 -109 -230t-259 -90q-136 0 -236 72.5t-100 183.5q0 37 21.5 58.5t51.5 21.5 q23 0 42.5 -14.5t25.5 -40.5q1 -4 2.5 -17t4 -24t9 -25.5t21 -29t35.5 -27.5q50 -31 125 -31q105 0 178.5 57t73.5 136q0 30 -13.5 57t-37.5 47t-51 36.5t-61 30t-60.5 22.5t-56.5 18.5t-42 13.5q-301 111 -301 332zM285 410q0 -44 30 -82t71 -61t85.5 -39.5t72 -23.5 t31.5 -7q27 0 62 12t70.5 34t59.5 60.5t24 83.5q0 44 -30 81.5t-71 60.5t-85 39.5t-72 23t-33 6.5q-27 0 -62 -11.5t-70 -33.5t-59 -60t-24 -83z" />
<glyph unicode="&#xa8;" d="M225 1147q0 43 30 73.5t73 30.5q41 0 71.5 -29.5t30.5 -72.5q0 -42 -29 -72t-73 -30q-41 0 -72 28.5t-31 71.5zM643 1147q0 42 30 73t72 31q41 0 72 -29.5t31 -72.5t-29.5 -72.5t-73.5 -29.5t-73 30t-29 70z" />
<glyph unicode="&#xa9;" d="M-154 483q0 258 90 478t250 351.5t353 131.5q186 0 344.5 -126t252 -347.5t93.5 -487.5q0 -201 -55.5 -380.5t-149 -306t-220 -200t-263.5 -73.5q-143 0 -271.5 75t-221.5 203t-147.5 306t-54.5 376zM-10 485q0 -224 73.5 -413.5t199.5 -298.5t274 -109q103 0 202 60.5 t175.5 165.5t123.5 260t47 331q0 147 -31.5 278.5t-85 229t-123 169.5t-148.5 108.5t-158 36.5q-82 0 -162.5 -37.5t-150 -110.5t-122.5 -171t-83.5 -227.5t-30.5 -271.5zM154 438q0 195 110.5 328t263.5 133q101 0 179 -55h2q24 37 40 47q14 8 33 8q24 0 43 -16t19 -58 v-196q0 -11 -0.5 -17t-4 -19t-11 -20.5t-23 -13.5t-37.5 -6q-21 0 -34.5 5.5t-20.5 17.5t-10.5 22.5t-7.5 28.5t-7 28q-16 46 -56 81.5t-97 35.5q-91 0 -164.5 -94.5t-73.5 -241.5q0 -144 74.5 -238t167.5 -94q58 0 103.5 34t55.5 87q0 2 1.5 15t4.5 22.5t9 21.5t19.5 18.5 t33.5 6.5h6q72 0 72 -69q0 -99 -92 -181t-224 -82q-156 0 -265 133.5t-109 327.5z" />
<glyph unicode="&#xaa;" d="M70 506q0 21 14.5 39t40.5 22q14 2 41 2h749q40 0 56 -10q30 -20 30 -53q0 -64 -79 -64h-777q-31 0 -49 13.5t-22 26t-4 24.5zM129 911q0 43 25 73.5t85 54.5t165.5 37t261.5 16v12q0 86 -52 147.5t-159 61.5q-13 0 -27 -1t-30.5 -2.5t-26.5 -2.5v-19q0 -43 -27.5 -68.5 t-62.5 -25.5q-36 0 -63.5 26t-27.5 68q0 84 71.5 118t197.5 34q148 0 249 -92t101 -246v-256q8 -8 127 -8h31q39 0 56 -18.5t17 -45.5q0 -63 -71 -63h-45q-94 0 -148 9.5t-67.5 19t-30.5 30.5q-109 -70 -258 -70q-124 0 -207.5 58.5t-83.5 152.5zM272 911q8 -46 55.5 -66 t110.5 -20q29 0 62 5.5t72 19.5t65.5 45t28.5 74q-34 0 -86 -2t-159 -17t-149 -39z" />
<glyph unicode="&#xab;" d="M88 451q0 8 2 15t6.5 13.5t7 9.5t10 10t9.5 9l385 352q3 3 14 12.5t17 13.5t17.5 8.5t23.5 4.5q34 0 47.5 -18.5t13.5 -38.5q0 -19 -9 -31.5t-32 -34.5q-337 -307 -358 -325v-2q8 -7 358 -326q23 -22 32 -34.5t9 -31.5q0 -11 -4 -22.5t-19 -23t-38 -11.5q-10 0 -18.5 2 t-17.5 7.5t-12.5 8t-13 11.5t-10.5 10l-385 352q-1 1 -9.5 9t-10.5 10.5t-7 10t-6.5 14.5t-1.5 16zM358 451q0 8 2 15t6.5 13.5t7 9.5t10 10t9.5 9l385 352q4 3 14 12t16 13.5t17 9t23 4.5q34 0 48.5 -19t14.5 -38q0 -13 -6 -24.5t-13 -18.5t-24 -23q-76 -70 -141.5 -130 t-97 -89t-57 -52t-37.5 -34t-23 -20v-2q16 -13 40 -35.5t111 -102.5t205 -188q17 -16 24 -23t13 -18.5t6 -24.5q0 -18 -15 -37.5t-48 -19.5q-10 0 -18.5 2t-16.5 7t-12.5 9t-12 11.5t-10.5 9.5l-385 352q-1 1 -9.5 9t-10.5 10.5t-7 10t-6.5 14.5t-1.5 16z" />
<glyph unicode="&#xac;" d="M88 666q0 10 3 20t11 22.5t26 20.5t44 8h723q17 0 28.5 -2t27 -9.5t24 -27.5t8.5 -51v-481q0 -51 -21.5 -70.5t-50.5 -19.5q-73 0 -71 92v426h-668q-27 1 -45 9.5t-25.5 21t-10.5 22.5t-3 19z" />
<glyph unicode="&#xad;" d="M358 442q0 26 16.5 44t55.5 18h211q74 0 74 -64q0 -35 -19.5 -48t-54.5 -13h-209q-74 0 -74 63z" />
<glyph unicode="&#xae;" d="M-154 483q0 258 90 478t250 351.5t353 131.5q186 0 344.5 -126t252 -347.5t93.5 -487.5q0 -201 -55.5 -380.5t-149 -306t-220 -200t-263.5 -73.5q-143 0 -271.5 75t-221.5 203t-147.5 306t-54.5 376zM-10 485q0 -224 73.5 -413.5t199.5 -298.5t274 -109q103 0 202 60.5 t175.5 165.5t123.5 260t47 331q0 147 -31.5 278.5t-85 229t-123 169.5t-148.5 108.5t-158 36.5q-82 0 -162.5 -37.5t-150 -110.5t-122.5 -171t-83.5 -227.5t-30.5 -271.5zM111 63q0 64 75 64h50v623h-50q-75 0 -75 63q0 38 21 49.5t56 11.5h248q7 0 21.5 1.5t21.5 1.5 q73 0 133 -16.5t98.5 -42.5t65.5 -60t38 -66.5t11 -64.5q0 -58 -31 -109.5t-87 -85.5q37 -37 52 -71t15 -89v-73q0 -35 6.5 -57.5t14 -29t14.5 -6.5q16 0 20.5 21t4.5 47t18 47t57 21h4q29 0 47.5 -17t18.5 -47q0 -32 -9 -65t-27 -64.5t-51.5 -51.5t-76.5 -20q-27 0 -55 9 t-59 30.5t-50.5 67.5t-19.5 111v79q0 41 -29 66q-27 22 -57 28.5t-80 6.5h-86v-248h53q14 0 27 -2.5t29 -18t16 -43.5q0 -63 -74 -63h-246q-73 0 -73 63zM379 502h72q36 0 54 1t51 8t58 21q29 15 48.5 39.5t19.5 53.5q0 46 -53.5 85.5t-163.5 39.5h-86v-248z" />
<glyph unicode="&#xaf;" d="M147 1208q0 66 72 66h635q37 0 53.5 -20t16.5 -46q0 -27 -17.5 -45t-56.5 -18h-633q-38 1 -54 20t-16 43z" />
<glyph unicode="&#xb0;" d="M229 944q0 125 89 216t219 91t217.5 -92t87.5 -215q0 -125 -87.5 -216t-217.5 -91q-123 0 -215.5 88.5t-92.5 218.5zM373 944q0 -70 49 -117t115 -47q70 0 116.5 49t46.5 115q0 70 -48.5 117t-114.5 47q-65 0 -114.5 -46.5t-49.5 -117.5z" />
<glyph unicode="&#xb1;" d="M76 352q0 25 15 43.5t38 24.5q14 4 45 4h291v246h-299q-28 0 -47.5 8t-28 20.5t-11.5 22.5t-3 20q0 27 19 48t48 22q14 2 41 2h281v299q0 28 8.5 47t21.5 27t23 11t19 3q28 0 48 -19t21 -48q2 -14 2 -41v-279h299q28 0 47 -8t27 -21t11 -23t3 -20q0 -28 -19 -49t-48 -22 h-320v-246h293q33 0 47 -6q47 -15 47 -68q0 -8 -2.5 -17t-10 -22t-26 -21.5t-45.5 -8.5h-753q-39 0 -60.5 20.5t-21.5 50.5z" />
<glyph unicode="&#xb2;" d="M121 688q0 10 2 18.5t7.5 15.5t9 12t13 10.5t13 7.5t15 7.5t14.5 6.5q82 40 216 104q253 121 325.5 170.5t72.5 120.5q0 45 -28.5 77.5t-78 49.5t-103.5 24t-118 7q-120 0 -188 -29q10 -20 10 -43q0 -38 -26 -64t-64 -26q-39 0 -65.5 27t-26.5 69q0 81 72 133 q82 58 307 58q109 0 192.5 -19t131.5 -48t78 -68.5t40 -75t10 -74.5q0 -33 -6.5 -61t-22 -53.5t-32 -45.5t-47.5 -42.5t-56.5 -38.5t-71 -38.5t-78 -38t-91 -43t-98.5 -46.5h360v24q0 72 72 72h6q65 0 65 -74v-80q3 -69 -75 -69h-678q-78 0 -78 63z" />
<glyph unicode="&#xb3;" d="M100 784q0 40 27 66.5t63 26.5q38 0 65.5 -26.5t27.5 -66.5q0 -14 -2 -22q69 -21 229 -21h29q120 0 204 35.5t84 85.5q0 49 -88 90q-76 35 -200 35h-52q-23 0 -39 2.5t-31.5 17.5t-15.5 42q0 37 28 52.5t66 16t94.5 7t96.5 24.5q42 19 58 42t16 40q0 37 -64 62.5 t-143 25.5q-142 0 -221 -74q18 -30 18 -57q0 -40 -26.5 -65t-63.5 -25q-31 0 -61.5 22t-30.5 72q0 113 106.5 182.5t276.5 69.5q93 0 172 -23t130.5 -71.5t51.5 -114.5q0 -40 -22 -88.5t-82 -85.5v-2q25 -10 50 -24t55 -37.5t48.5 -59t18.5 -76.5q0 -32 -13 -64.5t-46 -66 t-82 -59t-127.5 -42t-176.5 -16.5h-22q-70 0 -124.5 3.5t-109.5 14.5t-91 29.5t-58.5 49.5t-22.5 73z" />
<glyph unicode="&#xb4;" d="M414 1118q0 15 5 26t18.5 20t17 11t20.5 9q212 93 250.5 109t48.5 16h4q28 0 50 -20.5t22 -51.5q0 -49 -62 -74q-63 -28 -151 -66q-136 -60 -148 -61h-5h-1q-31 0 -50 28t-19 54z" />
<glyph unicode="&#xb5;" d="M23 -391q0 63 75 63h99v1084h-95q-16 0 -25.5 1t-24 6t-22 19t-7.5 35q0 64 73 64h168q28 0 44.5 -6.5t23 -21.5t7.5 -24.5t1 -29.5v-553q0 -21 0.5 -31.5t4.5 -29t14.5 -28.5t27.5 -21t46 -16t69 -5q98 0 159.5 50t69.5 114q2 18 2 53v424h-84q-40 0 -51 4 q-39 14 -39 57q0 13 4.5 26t22.5 25.5t47 12.5h172q24 0 39.5 -6.5t22 -19t8.5 -23t2 -25.5v-680h96q78 0 78 -64q0 -63 -76 -63h-168q-72 0 -74 66q-112 -76 -244 -76q-95 0 -149 20v-338h98q76 0 76 -63q0 -64 -74 -64h-344q-73 0 -73 64z" />
<glyph unicode="&#xb6;" d="M96 788q0 87 31.5 169.5t88 148t143 105.5t188.5 40h391q27 0 46 -8t26.5 -21t10.5 -23t3 -19q0 -16 -5 -30t-26.5 -28t-58.5 -14h-55v-1421h57q88 0 88 -70q0 -72 -88 -72h-530q-34 1 -54 16.5t-24 29t-4 26.5q0 70 92 70h55v645q-164 29 -269.5 158t-105.5 298z M612 -313h123v1421h-123v-1421z" />
<glyph unicode="&#xb7;" d="M434 449q0 44 31.5 73t71.5 29q44 0 73 -31t29 -71t-29.5 -71.5t-72.5 -31.5q-44 0 -73.5 31.5t-29.5 71.5z" />
<glyph unicode="&#xb8;" d="M262 -365q0 64 74 64h55q127 4 200 20.5t73 59.5q0 17 -17 45q-31 22 -58.5 30.5t-51.5 9.5t-31 3q-27 8 -35 29t-8 57v65q0 23 1 34.5t6.5 29.5t20.5 26.5t39 8.5h7q25 0 41 -7.5t22 -22.5t7 -24.5t1 -26.5v-5v-49q53 -11 92 -32.5t59.5 -43t32.5 -48.5t14.5 -44 t2.5 -33q0 -42 -17 -75.5t-41.5 -54.5t-65.5 -36.5t-76 -23t-87.5 -12t-85 -5t-82.5 -0.5h-24q-30 0 -49 17t-19 44z" />
<glyph unicode="&#xb9;" d="M182 1169q0 23 10 37.5t26 19.5t23 6t15 1q167 12 260 164q8 14 13 21.5t19 16.5t32 9q10 0 18.5 -2t14 -5.5t10.5 -8.5t8 -10t5 -11.5t3 -11.5t1.5 -11t0.5 -9.5v-8.5v-4v-610h193q71 0 71 -64q0 -61 -69 -63h-566q-37 0 -53 19.5t-16 43.5q0 64 75 64h222v442 q-122 -88 -238 -88q-78 0 -78 63z" />
<glyph unicode="&#xba;" d="M70 506q0 21 14.5 39t40.5 22q14 2 41 2h749q37 0 56 -12q30 -20 30 -51q0 -64 -79 -64h-777q-31 0 -49 13.5t-22 26t-4 24.5zM96 1067q0 150 127.5 260.5t313.5 110.5q179 0 309.5 -107.5t130.5 -263.5q0 -153 -130 -260t-312 -107q-188 0 -313.5 109.5t-125.5 257.5z M240 1079q0 -105 88 -179.5t209 -74.5t209 73.5t88 180.5q0 96 -85 165t-212 69q-118 0 -207.5 -66t-89.5 -168z" />
<glyph unicode="&#xbb;" d="M160 57q0 13 6 24.5t13 18.5t24 23q94 86 169 154.5t104 96t49.5 46t33.5 29.5v2q-11 9 -23 20t-37.5 34t-57 52t-97 89t-141.5 130q-17 16 -24 23t-13 18.5t-6 24.5q0 19 14.5 38t48.5 19q10 0 18.5 -2t16.5 -7t12.5 -9t12 -11.5t10.5 -9.5l385 -352q35 -29 35 -57 q0 -9 -1.5 -16t-6.5 -14.5t-7 -10t-10.5 -10.5t-9.5 -9l-385 -352q-4 -3 -14 -12t-16 -13.5t-17 -9t-23 -4.5q-34 0 -48.5 19t-14.5 38zM430 59q0 21 19.5 42t128.5 119q104 94 182 165q9 8 32 30.5t37 33.5v2q-11 9 -23 20t-37.5 34t-57 52t-97 89t-141.5 130 q-43 34 -43 66q0 18 15.5 37.5t48.5 19.5q9 0 17.5 -2t16.5 -7.5t12 -8.5t12.5 -11t10.5 -10l385 -352q35 -29 35 -57q0 -9 -1.5 -16t-6.5 -14.5t-7 -10t-10.5 -10.5t-9.5 -9l-385 -352q-4 -4 -13.5 -12.5t-15.5 -13.5t-17 -9t-23 -4q-28 0 -46 18t-18 41z" />
<glyph unicode="&#xbc;" d="M-2 483q0 29 20 50.5t72 21.5h899q90 0 90 -72q0 -14 -4.5 -27t-24.5 -27t-53 -15h-915q-27 0 -45 8t-25.5 20.5t-10.5 22t-3 18.5zM68 -158q0 22 30 55t195 198l151 151q23 23 31.5 30t29 14t52.5 7h100q22 0 37 -6.5t22 -13.5t10.5 -20.5t4 -20t0.5 -19.5v-348h209 q32 0 50 -18.5t18 -43.5q0 -63 -76 -63h-201v-72h164q39 0 54.5 -19t15.5 -44t-15.5 -44t-52.5 -20h-455q-31 1 -47 19t-16 43q0 13 4.5 26t22.5 26t47 13h161v72h-460q-51 0 -67.5 15.5t-16.5 70.5q0 2 -1 6t-1 6zM184 1237q0 33 19 47t54 17.5t75.5 8t91.5 28.5t94 69 q14 14 20 19.5t18.5 11.5t27.5 6q11 0 19.5 -2t14.5 -6.5t10.5 -9.5t7 -12t4.5 -12t2.5 -12.5t0.5 -11v-10.5v-6v-539h191q73 0 73 -61q0 -64 -69 -66h-562q-40 0 -56.5 20t-16.5 44q0 63 76 63h221v412q-127 -61 -232 -61l-45 4q-39 14 -39 59zM242 -131h372v375z" />
<glyph unicode="&#xbd;" d="M-2 483q0 29 20 50.5t72 21.5h899q90 0 90 -72q0 -14 -4.5 -27t-24.5 -27t-53 -15h-915q-27 0 -45 8t-25.5 20.5t-10.5 22t-3 18.5zM123 137q0 45 24 76.5t68 48t94 23.5t115 8h70q166 0 273.5 -27.5t156.5 -107.5q30 -50 30 -115q0 -36 -10 -67t-24 -54.5t-43.5 -48 t-54.5 -40.5t-72 -38.5t-80.5 -37t-96.5 -41t-104 -44.5h342v25q0 24 7 39.5t19 22t22 8.5t22 2h8q65 0 65 -75v-6v-5v-68q1 -38 -18.5 -54t-56.5 -16h-680q-76 0 -76 64v4q0 17 3 24.5t28.5 23.5t71.5 37t143 63q121 53 202 89q6 3 35 14.5t50.5 21t53 27.5t51.5 36t35 43 t15 51q0 36 -21.5 60t-63.5 37t-90.5 18.5t-115.5 7.5h-69q-76 0 -148 -10q0 -2 1 -9t1 -12q0 -40 -27 -65t-65 -25q-35 0 -62.5 24.5t-27.5 67.5zM184 1237q0 33 19 47t54 17.5t75.5 8t91.5 28.5t94 69q14 14 20 19.5t18.5 11.5t27.5 6q11 0 19.5 -2t14.5 -6.5t10.5 -9.5 t7 -12t4.5 -12t2.5 -12.5t0.5 -11v-10.5v-6v-539h191q73 0 73 -61q0 -64 -69 -66h-562q-40 0 -56.5 20t-16.5 44q0 63 76 63h221v412q-127 -61 -232 -61l-45 4q-39 14 -39 59z" />
<glyph unicode="&#xbe;" d="M-2 483q0 29 20 50.5t72 21.5h899q90 0 90 -72q0 -14 -4.5 -27t-24.5 -27t-53 -15h-915q-27 0 -45 8t-25.5 20.5t-10.5 22t-3 18.5zM68 -158q0 22 30 55t195 198l151 151q23 23 31.5 30t29 14t52.5 7h100q22 0 37 -6.5t22 -13.5t10.5 -20.5t4 -20t0.5 -19.5v-348h209 q32 0 50 -18.5t18 -43.5q0 -63 -76 -63h-201v-72h164q39 0 54.5 -19t15.5 -44t-15.5 -44t-52.5 -20h-455q-31 1 -47 19t-16 43q0 13 4.5 26t22.5 26t47 13h161v72h-460q-51 0 -67.5 15.5t-16.5 70.5q0 2 -1 6t-1 6zM102 838q0 40 27 67t64 27q36 0 64 -26t28 -68 q0 -3 -1 -9.5t-1 -9.5q80 -18 206 -18h62q87 0 153.5 19t95.5 42.5t29 44.5q0 37 -79.5 72t-208.5 35h-66q-9 0 -18.5 2t-23 7.5t-22 19t-8.5 34.5q0 35 25 50.5t58.5 16t89.5 5.5t98 18q49 17 68.5 38t19.5 38q-5 32 -67 54t-156 22q-126 0 -197 -23q10 -27 10 -45 q0 -37 -27 -61.5t-65 -24.5q-37 0 -63.5 27.5t-26.5 69.5q0 53 36 97.5t107 65.5q66 19 217 19h13q157 0 260.5 -52t103.5 -145q0 -97 -94 -162q162 -66 162 -178q0 -103 -121.5 -168t-302.5 -65h-2l-35 2h-59q-77 2 -134 9t-110 24t-81 49.5t-28 79.5zM242 -131h372v375z " />
<glyph unicode="&#xbf;" d="M125 -211q0 35 10.5 66.5t22.5 51t33.5 39.5t31.5 27.5t27 18.5q172 117 172 313v33q0 20 1 29.5t7.5 24.5t24 21.5t45.5 6.5h10q17 0 28 -2t23.5 -8.5t18.5 -22.5t6 -41v-43q0 -79 -23 -147.5t-62.5 -117t-73 -79.5t-75 -60t-47.5 -34q-37 -33 -37 -76q0 -22 9.5 -42 t33 -41t73.5 -33.5t120 -12.5q122 0 182 19.5t96 52.5v2q-18 25 -18 55q0 40 27.5 65t64.5 25q38 0 64 -26.5t26 -69.5q0 -34 -8.5 -64.5t-37.5 -66t-76 -60.5t-131.5 -42t-196.5 -17q-105 0 -181.5 25t-115.5 65.5t-56.5 81.5t-17.5 84zM401 692q0 44 31.5 73.5t71.5 29.5 q44 0 73 -31.5t29 -71.5t-29.5 -71t-72.5 -31q-44 0 -73.5 31t-29.5 71z" />
<glyph unicode="&#xc0;" d="M55 61q0 42 35 60q12 4 88 4l248 1073q7 28 16 44.5t25.5 23.5t29 8.5t40.5 1.5t42 -1.5t29 -9t23.5 -24t15.5 -45.5l248 -1071q76 0 88 -6q35 -14 35 -58q0 -17 -6.5 -29.5t-14 -18.5t-22 -9t-22.5 -3.5t-23 -0.5h-209q-15 0 -23.5 0.5t-22.5 3.5t-21 9t-13 18t-6 30 q0 19 5.5 31t13 18.5t24.5 10t31 4t41 0.5l-48 213h-331l-47 -213q27 0 40.5 -0.5t30.5 -4t24.5 -10t13 -18.5t5.5 -31q0 -18 -6 -30t-13 -18t-21 -9t-22.5 -3.5t-23.5 -0.5h-209q-15 0 -23 0.5t-22.5 3.5t-22 9t-14 18.5t-6.5 29.5zM236 1581q0 29 20.5 50.5t48.5 21.5 q9 0 105 -33q33 -11 54.5 -18t65 -22t88.5 -30q62 -21 62 -61q0 -25 -16 -54.5t-50 -29.5h-2q-6 0 -309 102q-31 11 -49 27.5t-18 46.5zM401 463h271l-135 643z" />
<glyph unicode="&#xc1;" d="M55 61q0 42 35 60q12 4 88 4l248 1073q7 28 16 44.5t25.5 23.5t29 8.5t40.5 1.5t42 -1.5t29 -9t23.5 -24t15.5 -45.5l248 -1071q76 0 88 -6q35 -14 35 -58q0 -17 -6.5 -29.5t-14 -18.5t-22 -9t-22.5 -3.5t-23 -0.5h-209q-15 0 -23.5 0.5t-22.5 3.5t-21 9t-13 18t-6 30 q0 19 5.5 31t13 18.5t24.5 10t31 4t41 0.5l-48 213h-331l-47 -213q27 0 40.5 -0.5t30.5 -4t24.5 -10t13 -18.5t5.5 -31q0 -18 -6 -30t-13 -18t-21 -9t-22.5 -3.5t-23.5 -0.5h-209q-15 0 -23 0.5t-22.5 3.5t-22 9t-14 18.5t-6.5 29.5zM401 463h271l-135 643zM414 1489 q0 16 5.5 27t19 18.5t19 10t21.5 7.5q101 34 209 72q85 29 98 29q27 0 48.5 -20.5t21.5 -51.5q0 -54 -65 -74q-303 -102 -312 -102q-34 0 -49.5 30t-15.5 54z" />
<glyph unicode="&#xc2;" d="M55 61q0 42 35 60q12 4 88 4l248 1073q7 28 16 44.5t25.5 23.5t29 8.5t40.5 1.5t42 -1.5t29 -9t23.5 -24t15.5 -45.5l248 -1071q76 0 88 -6q35 -14 35 -58q0 -17 -6.5 -29.5t-14 -18.5t-22 -9t-22.5 -3.5t-23 -0.5h-209q-15 0 -23.5 0.5t-22.5 3.5t-21 9t-13 18t-6 30 q0 19 5.5 31t13 18.5t24.5 10t31 4t41 0.5l-48 213h-331l-47 -213q27 0 40.5 -0.5t30.5 -4t24.5 -10t13 -18.5t5.5 -31q0 -18 -6 -30t-13 -18t-21 -9t-22.5 -3.5t-23.5 -0.5h-209q-15 0 -23 0.5t-22.5 3.5t-22 9t-14 18.5t-6.5 29.5zM182 1427q0 32 43 62q49 36 122 90 q110 82 131 95.5t38 13.5h2q16 0 57 -28t238 -173q37 -26 37 -57q0 -25 -23 -52.5t-51 -27.5h-4q-15 0 -51.5 26.5t-204.5 161.5q-32 -25 -64 -50.5t-51.5 -41t-39.5 -31.5t-30.5 -24.5t-22.5 -17t-17.5 -12t-12.5 -7t-11.5 -4t-10.5 -0.5q-28 0 -51 26.5t-23 50.5zM401 463 h271l-135 643z" />
<glyph unicode="&#xc3;" d="M55 61q0 42 35 60q12 4 88 4l248 1073q7 28 16 44.5t25.5 23.5t29 8.5t40.5 1.5t42 -1.5t29 -9t23.5 -24t15.5 -45.5l248 -1071q76 0 88 -6q35 -14 35 -58q0 -17 -6.5 -29.5t-14 -18.5t-22 -9t-22.5 -3.5t-23 -0.5h-209q-15 0 -23.5 0.5t-22.5 3.5t-21 9t-13 18t-6 30 q0 19 5.5 31t13 18.5t24.5 10t31 4t41 0.5l-48 213h-331l-47 -213q27 0 40.5 -0.5t30.5 -4t24.5 -10t13 -18.5t5.5 -31q0 -18 -6 -30t-13 -18t-21 -9t-22.5 -3.5t-23.5 -0.5h-209q-15 0 -23 0.5t-22.5 3.5t-22 9t-14 18.5t-6.5 29.5zM117 1479q0 16 23.5 48.5t59.5 66.5 t87 59.5t98 25.5t92.5 -20t75.5 -43.5t66.5 -43.5t66.5 -20q31 0 62.5 20t52 43.5t44.5 43.5t42 20q19 0 41 -18.5t22 -46.5q0 -16 -23 -48.5t-58.5 -66.5t-86.5 -59t-98 -25q-45 0 -91 20t-78 43.5t-68.5 43.5t-63.5 20q-31 0 -62.5 -20t-52 -43.5t-44.5 -43.5t-42 -20 q-26 0 -45.5 20t-19.5 44zM401 463h271l-135 643z" />
<glyph unicode="&#xc4;" d="M55 61q0 42 35 60q12 4 88 4l248 1073q7 28 16 44.5t25.5 23.5t29 8.5t40.5 1.5t42 -1.5t29 -9t23.5 -24t15.5 -45.5l248 -1071q76 0 88 -6q35 -14 35 -58q0 -17 -6.5 -29.5t-14 -18.5t-22 -9t-22.5 -3.5t-23 -0.5h-209q-15 0 -23.5 0.5t-22.5 3.5t-21 9t-13 18t-6 30 q0 19 5.5 31t13 18.5t24.5 10t31 4t41 0.5l-48 213h-331l-47 -213q27 0 40.5 -0.5t30.5 -4t24.5 -10t13 -18.5t5.5 -31q0 -18 -6 -30t-13 -18t-21 -9t-22.5 -3.5t-23.5 -0.5h-209q-15 0 -23 0.5t-22.5 3.5t-22 9t-14 18.5t-6.5 29.5zM225 1573q0 43 30 73.5t73 30.5 q41 0 71.5 -29.5t30.5 -72.5q0 -42 -29 -72t-73 -30q-41 0 -72 28.5t-31 71.5zM401 463h271l-135 643zM643 1573q0 42 30 73t72 31q41 0 72 -29.5t31 -72.5t-29.5 -72.5t-73.5 -29.5t-73 30t-29 70z" />
<glyph unicode="&#xc5;" d="M55 63q0 64 76 64h45l242 1047q-44 25 -74.5 60.5t-43 73t-17 63t-4.5 50.5q0 108 67.5 190.5t169.5 82.5t171 -82t69 -191q0 -66 -27.5 -127t-79.5 -98l246 -1069h45q76 0 76 -64q0 -63 -72 -63h-237q-74 0 -74 63q0 64 74 64h41l-48 209h-327l-49 -209h43q73 0 73 -64 q0 -63 -73 -63h-238q-74 0 -74 63zM397 1423q0 -58 36 -101.5t83 -43.5q53 0 86 44.5t33 100.5q0 65 -36.5 104.5t-84.5 39.5q-45 0 -81 -40.5t-36 -103.5zM401 461h271q-129 582 -135 647l-52 -266z" />
<glyph unicode="&#xc6;" d="M45 63q0 24 16 44t58 20h26l201 997h-6q-76 0 -76 64q0 13 4 25.5t21.5 25t46.5 12.5h602q68 0 68 -75v-172q1 -33 -16 -52.5t-42 -19.5q-8 0 -16 2t-18.5 8t-17 21t-7.5 36v125h-234v-413h246q37 0 54.5 -17.5t17.5 -44.5q0 -63 -74 -63h-244v-459h252v152q0 35 17 53 t41 18q57 0 57 -76v-188q0 -2 1 -6t1 -6q0 -74 -72 -74h-422q-36 0 -54.5 17t-18.5 42q0 68 75 68h7v248h-226l-49 -248h19q23 0 39 -7t22.5 -18t9 -20t2.5 -19q0 -26 -16 -44.5t-55 -18.5h-168q-39 0 -55.5 18.5t-16.5 44.5zM338 500h201v624h-74z" />
<glyph unicode="&#xc7;" d="M82 627q0 140 41 262t109.5 205.5t157.5 131.5t185 48q143 0 265 -100q26 58 43 79t47 21q62 0 61 -79v-3v-289q0 -47 -12 -63q-17 -21 -57 -21q-18 0 -31.5 4.5t-21 9t-13 15.5t-6.5 16.5t-3.5 19.5t-2.5 17q-8 43 -28 85t-51.5 79t-78.5 59.5t-102 22.5 q-65 0 -129 -37.5t-115 -103.5t-83 -165.5t-32 -213.5q0 -115 31.5 -215t82.5 -166t115.5 -104t131.5 -38q100 0 176.5 67t83.5 171q1 13 3 21.5t8.5 22.5t21 21t36.5 7h9q67 0 67 -72q0 -54 -23 -111t-65.5 -109t-111 -90.5t-150.5 -49.5v-2q73 -16 128.5 -67t55.5 -132 q0 -99 -88 -154q-56 -33 -133 -43t-192 -10h-13q-75 0 -75 64q0 43 41 57q8 2 63.5 4t109 5.5t99 22.5t45.5 52q0 29 -21 48.5t-44 26t-49.5 10.5t-28.5 5q-35 15 -35 61q0 30 14 52q-185 30 -310.5 210t-125.5 435z" />
<glyph unicode="&#xc8;" d="M53 61q0 22 7.5 36t22.5 19.5t26 7t28 1.5h62v1001h-62q-16 0 -27 1.5t-26 7t-23 19.5t-8 36q0 21 8 35t23.5 19t25.5 6t27 1h764q51 0 66.5 -17.5t15.5 -66.5v-149q0 -21 -1.5 -31.5t-7.5 -25t-21.5 -21t-41.5 -6.5q-25 0 -40 6.5t-21 21.5t-7 25.5t-1 30.5v108h-502 v-415h268q0 32 0.5 45.5t4 31t11 23.5t21 11t35.5 5q25 0 40.5 -7t21 -21.5t7 -25t1.5 -30.5v-190q0 -20 -1.5 -30.5t-7 -25t-21 -21.5t-40.5 -7q-27 0 -41.5 5.5t-21.5 23t-8 33.5t-1 55h-268v-461h547v141q0 21 1 31.5t7 25t21.5 21t41.5 6.5q25 0 40.5 -7t21 -21.5t7 -25 t1.5 -30.5v-182q0 -50 -16 -67t-66 -17h-809q-17 0 -27 1t-25.5 6t-23.5 19t-8 35zM289 1581q0 27 18.5 49.5t50.5 22.5q10 0 120 -38q107 -36 194 -65q59 -20 59 -61q0 -25 -15.5 -54.5t-49.5 -29.5h-2q-13 0 -308 100q-67 22 -67 76z" />
<glyph unicode="&#xc9;" d="M53 61q0 22 7.5 36t22.5 19.5t26 7t28 1.5h62v1001h-62q-16 0 -27 1.5t-26 7t-23 19.5t-8 36q0 21 8 35t23.5 19t25.5 6t27 1h764q51 0 66.5 -17.5t15.5 -66.5v-149q0 -21 -1.5 -31.5t-7.5 -25t-21.5 -21t-41.5 -6.5q-25 0 -40 6.5t-21 21.5t-7 25.5t-1 30.5v108h-502 v-415h268q0 32 0.5 45.5t4 31t11 23.5t21 11t35.5 5q25 0 40.5 -7t21 -21.5t7 -25t1.5 -30.5v-190q0 -20 -1.5 -30.5t-7 -25t-21 -21.5t-40.5 -7q-27 0 -41.5 5.5t-21.5 23t-8 33.5t-1 55h-268v-461h547v141q0 21 1 31.5t7 25t21.5 21t41.5 6.5q25 0 40.5 -7t21 -21.5t7 -25 t1.5 -30.5v-182q0 -50 -16 -67t-66 -17h-809q-17 0 -27 1t-25.5 6t-23.5 19t-8 35zM410 1489q0 16 5.5 27t19 18.5t19 10t21.5 7.5q101 34 209 72q85 29 98 29q27 0 48.5 -20.5t21.5 -51.5q0 -54 -66 -74q-303 -102 -311 -102q-34 0 -49.5 30t-15.5 54z" />
<glyph unicode="&#xca;" d="M53 61q0 22 7.5 36t22.5 19.5t26 7t28 1.5h62v1001h-62q-16 0 -27 1.5t-26 7t-23 19.5t-8 36q0 21 8 35t23.5 19t25.5 6t27 1h764q51 0 66.5 -17.5t15.5 -66.5v-149q0 -21 -1.5 -31.5t-7.5 -25t-21.5 -21t-41.5 -6.5q-25 0 -40 6.5t-21 21.5t-7 25.5t-1 30.5v108h-502 v-415h268q0 32 0.5 45.5t4 31t11 23.5t21 11t35.5 5q25 0 40.5 -7t21 -21.5t7 -25t1.5 -30.5v-190q0 -20 -1.5 -30.5t-7 -25t-21 -21.5t-40.5 -7q-27 0 -41.5 5.5t-21.5 23t-8 33.5t-1 55h-268v-461h547v141q0 21 1 31.5t7 25t21.5 21t41.5 6.5q25 0 40.5 -7t21 -21.5t7 -25 t1.5 -30.5v-182q0 -50 -16 -67t-66 -17h-809q-17 0 -27 1t-25.5 6t-23.5 19t-8 35zM203 1427q0 32 43 62q49 36 122 90q110 82 131 95.5t38 13.5h2q16 0 57 -28t238 -173q36 -26 36 -57q0 -25 -22.5 -52.5t-50.5 -27.5q-20 0 -57 27t-150 118q-11 9 -17.5 14t-16.5 13.5 t-19 15.5q-209 -165 -217 -170q-25 -18 -44 -18q-27 0 -50 26.5t-23 50.5z" />
<glyph unicode="&#xcb;" d="M53 61q0 22 7.5 36t22.5 19.5t26 7t28 1.5h62v1001h-62q-16 0 -27 1.5t-26 7t-23 19.5t-8 36q0 21 8 35t23.5 19t25.5 6t27 1h764q51 0 66.5 -17.5t15.5 -66.5v-149q0 -21 -1.5 -31.5t-7.5 -25t-21.5 -21t-41.5 -6.5q-25 0 -40 6.5t-21 21.5t-7 25.5t-1 30.5v108h-502 v-415h268q0 32 0.5 45.5t4 31t11 23.5t21 11t35.5 5q25 0 40.5 -7t21 -21.5t7 -25t1.5 -30.5v-190q0 -20 -1.5 -30.5t-7 -25t-21 -21.5t-40.5 -7q-27 0 -41.5 5.5t-21.5 23t-8 33.5t-1 55h-268v-461h547v141q0 21 1 31.5t7 25t21.5 21t41.5 6.5q25 0 40.5 -7t21 -21.5t7 -25 t1.5 -30.5v-182q0 -50 -16 -67t-66 -17h-809q-17 0 -27 1t-25.5 6t-23.5 19t-8 35zM225 1573q0 43 30 73.5t73 30.5q41 0 71.5 -29.5t30.5 -72.5q0 -42 -29 -72t-73 -30q-41 0 -72 28.5t-31 71.5zM643 1573q0 42 30 73t72 31q41 0 72 -29.5t31 -72.5t-29.5 -72.5 t-73.5 -29.5t-73 30t-29 70z" />
<glyph unicode="&#xcc;" d="M162 63q0 21 8 35t23 19t26 6.5t27 1.5h221v1001h-221q-16 0 -27 1.5t-26 7t-23 19.5t-8 36q0 21 8 35t23.5 19t25.5 6t27 1h583q17 0 27 -1t25.5 -6.5t23.5 -19.5t8 -36q0 -21 -8 -35t-23 -19t-26 -6.5t-27 -1.5h-221v-1001h221q16 0 27 -1.5t26 -7t23 -19.5t8 -36 q0 -21 -8 -35t-23.5 -19t-25.5 -6t-27 -1h-583q-17 0 -27 1t-25.5 6.5t-23.5 19.5t-8 36zM377 1581q0 27 18.5 49.5t50.5 22.5q10 0 120 -38q107 -36 194 -65q59 -20 59 -61q0 -25 -15.5 -54.5t-49.5 -29.5h-2q-13 0 -308 100q-67 22 -67 76z" />
<glyph unicode="&#xcd;" d="M162 63q0 21 8 35t23 19t26 6.5t27 1.5h221v1001h-221q-16 0 -27 1.5t-26 7t-23 19.5t-8 36q0 21 8 35t23.5 19t25.5 6t27 1h583q17 0 27 -1t25.5 -6.5t23.5 -19.5t8 -36q0 -21 -8 -35t-23 -19t-26 -6.5t-27 -1.5h-221v-1001h221q16 0 27 -1.5t26 -7t23 -19.5t8 -36 q0 -21 -8 -35t-23.5 -19t-25.5 -6t-27 -1h-583q-17 0 -27 1t-25.5 6.5t-23.5 19.5t-8 36zM340 1489q0 16 5.5 27t19.5 18.5t19 10t22 7.5q101 34 209 72q85 29 98 29q27 0 48 -20.5t21 -51.5q0 -54 -65 -74q-303 -102 -311 -102q-34 0 -50 30t-16 54z" />
<glyph unicode="&#xce;" d="M162 63q0 21 8 35t23 19t26 6.5t27 1.5h221v1001h-221q-16 0 -27 1.5t-26 7t-23 19.5t-8 36q0 21 8 35t23.5 19t25.5 6t27 1h583q17 0 27 -1t25.5 -6.5t23.5 -19.5t8 -36q0 -21 -8 -35t-23 -19t-26 -6.5t-27 -1.5h-221v-1001h221q16 0 27 -1.5t26 -7t23 -19.5t8 -36 q0 -21 -8 -35t-23.5 -19t-25.5 -6t-27 -1h-583q-17 0 -27 1t-25.5 6.5t-23.5 19.5t-8 36zM203 1427q0 34 41 62q243 179 263 191q15 8 30 8h2q15 0 50.5 -24.5t241.5 -176.5q39 -28 39 -57q0 -25 -22.5 -52.5t-50.5 -27.5h-4q-15 0 -51.5 26.5t-204.5 161.5h-2 q-32 -25 -63.5 -50.5t-51.5 -41t-39.5 -31.5t-30.5 -24.5t-22.5 -17t-17.5 -12t-12.5 -6.5t-11 -4t-10.5 -1q-27 0 -50 26.5t-23 50.5z" />
<glyph unicode="&#xcf;" d="M162 63q0 21 8 35t23 19t26 6.5t27 1.5h221v1001h-221q-16 0 -27 1.5t-26 7t-23 19.5t-8 36q0 21 8 35t23.5 19t25.5 6t27 1h583q17 0 27 -1t25.5 -6.5t23.5 -19.5t8 -36q0 -21 -8 -35t-23 -19t-26 -6.5t-27 -1.5h-221v-1001h221q16 0 27 -1.5t26 -7t23 -19.5t8 -36 q0 -21 -8 -35t-23.5 -19t-25.5 -6t-27 -1h-583q-17 0 -27 1t-25.5 6.5t-23.5 19.5t-8 36zM223 1573q0 43 30 73.5t73 30.5q41 0 71.5 -29.5t30.5 -72.5q0 -42 -29 -72t-73 -30q-41 0 -72 28.5t-31 71.5zM641 1573q0 42 30 73t72 31q41 0 72 -29.5t31 -72.5t-29.5 -72.5 t-73.5 -29.5t-73 30t-29 70z" />
<glyph unicode="&#xd0;" d="M37 61q0 28 15.5 44t29.5 19t29 3h55v424h-53q-76 0 -76 63q0 64 78 64h51v446h-51q-78 0 -78 64q0 24 16 43.5t60 19.5h432q130 0 234 -89t159 -233.5t55 -312.5q0 -166 -56.5 -307t-158.5 -225t-227 -84h-445q-37 0 -53 18.5t-16 42.5zM309 127h193q89 0 159 46 t109.5 120t59.5 156t20 165q0 136 -41.5 252t-120 187t-178.5 71h-201v-446h230q23 0 39 -7t22.5 -18t9 -20t2.5 -19q0 -21 -7.5 -34.5t-21 -19.5t-25.5 -7.5t-28 -1.5h-221v-424z" />
<glyph unicode="&#xd1;" d="M57 63q0 28 15.5 43t30 17t36.5 2h51v1001h-51q-17 0 -27.5 1.5t-25 7t-22 19.5t-7.5 36q0 17 6 29.5t13.5 18.5t20.5 9t21 3.5t21 0.5h140q47 0 70 -13t40 -60l377 -1024h2v972h-51q-22 0 -36.5 2t-30 17t-15.5 43q0 22 7.5 36t22 19.5t25 6.5t27.5 1h217q18 0 28 -1 t24.5 -6.5t22 -19.5t7.5 -36q0 -28 -15.5 -43t-30 -17t-36.5 -2h-51v-1042q0 -55 -18 -69.5t-68 -14.5q-24 0 -37 1.5t-28.5 8.5t-26.5 22.5t-21 41.5l-377 1024h-2v-973h51q17 0 27.5 -1.5t25 -7t22 -19.5t7.5 -36q0 -17 -6 -29.5t-13.5 -18.5t-20.5 -9t-21 -3.5t-21 -0.5 h-217q-17 0 -27.5 1t-25 6.5t-22 19.5t-7.5 36zM117 1479q0 16 23.5 48.5t59.5 66.5t87 59.5t98 25.5t92.5 -20t75.5 -43.5t66.5 -43.5t66.5 -20q31 0 62.5 20t52 43.5t44.5 43.5t42 20q19 0 41 -18.5t22 -46.5q0 -16 -23 -48.5t-58.5 -66.5t-86.5 -59t-98 -25q-45 0 -91 20 t-78 43.5t-68.5 43.5t-63.5 20q-31 0 -62.5 -20t-52 -43.5t-44.5 -43.5t-42 -20q-26 0 -45.5 20t-19.5 44z" />
<glyph unicode="&#xd2;" d="M115 408v436q5 333 39 379q27 33 120.5 42t253.5 9q186 0 276.5 -9.5t115.5 -41.5q29 -37 37 -353q1 -17 1 -26v-436q-4 -332 -34 -375q-21 -32 -105.5 -44t-275.5 -12h-25q-164 0 -251.5 10.5t-112.5 39.5q-39 45 -39 381zM258 440q0 -11 1.5 -62t3 -93t5.5 -76 q3 -27 5 -37t11 -26.5t23.5 -21.5t42.5 -12t69 -8.5t103 -1.5h49q191 0 220 48q17 32 24 290v400q-3 238 -29 270q-17 20 -67.5 28.5t-159.5 8.5h-45q-46 0 -80 -1t-59.5 -5.5t-42.5 -6.5t-29 -11.5t-17.5 -13t-9.5 -19.5t-5 -21.5t-3 -26.5q-10 -117 -10 -311v-291z M270 1581q0 27 19 49.5t51 22.5q9 0 105 -33q33 -11 54.5 -18t65 -22t88.5 -30q18 -6 29 -12t21 -19t10 -30q0 -25 -16 -54.5t-50 -29.5h-2q-12 0 -307 100q-68 22 -68 76z" />
<glyph unicode="&#xd3;" d="M115 408v436q5 333 39 379q27 33 120.5 42t253.5 9q186 0 276.5 -9.5t115.5 -41.5q29 -37 37 -353q1 -17 1 -26v-436q-4 -332 -34 -375q-21 -32 -105.5 -44t-275.5 -12h-25q-164 0 -251.5 10.5t-112.5 39.5q-39 45 -39 381zM258 440q0 -11 1.5 -62t3 -93t5.5 -76 q3 -27 5 -37t11 -26.5t23.5 -21.5t42.5 -12t69 -8.5t103 -1.5h49q191 0 220 48q17 32 24 290v400q-3 238 -29 270q-17 20 -66.5 28.5t-158.5 8.5h-47q-46 0 -80 -1t-59.5 -5.5t-42.5 -6.5t-29 -11.5t-17.5 -13t-9.5 -19.5t-5 -21.5t-3 -26.5q-10 -117 -10 -311v-291z M360 1489q0 16 5.5 27t19.5 18.5t19 10t22 7.5q101 34 209 72q85 29 98 29q27 0 48.5 -20.5t21.5 -51.5q0 -54 -66 -74q-303 -102 -311 -102q-34 0 -50 30t-16 54z" />
<glyph unicode="&#xd4;" d="M115 625q0 120 2 199t11 152t20 116t36 80t52.5 54t75.5 29.5t98 15.5t127 3t127 -3t98 -16t75 -30t52 -54t36 -79.5t20 -116t11 -152.5t2 -198t-2 -198.5t-11 -152t-20.5 -115t-36 -79.5t-52 -54.5t-75 -30t-97.5 -15.5t-127 -3q-61 0 -104 2t-85 9t-69.5 16.5t-53.5 30 t-41 44t-29 63t-20.5 82t-11.5 107t-6.5 132t-1.5 162.5zM203 1427q0 32 43 62q49 36 122 90q110 82 131 95.5t38 13.5h4q15 0 53 -26t240 -175q36 -26 36 -57q0 -25 -22.5 -52.5t-50.5 -27.5h-2q-15 0 -51.5 26.5t-204.5 161.5h-2q-50 -39 -119 -95q-80 -64 -102 -78.5 t-40 -14.5q-27 0 -50 26.5t-23 50.5zM256 643q0 -291 25 -395q13 -54 38 -84t77 -46t141 -16q133 0 186.5 34.5t71.5 123.5q22 106 22 383q0 283 -24 375q-22 81 -77.5 106t-178.5 25q-130 0 -184 -28.5t-74 -116.5q-23 -94 -23 -361z" />
<glyph unicode="&#xd5;" d="M115 625q0 120 2 199t11 152t20 116t36 80t52.5 54t75.5 29.5t98 15.5t127 3t127 -3t98 -16t75 -30t52 -54t36 -79.5t20 -116t11 -152.5t2 -198t-2 -198.5t-11 -152t-20.5 -115t-36 -79.5t-52 -54.5t-75 -30t-97.5 -15.5t-127 -3q-61 0 -104 2t-85 9t-69.5 16.5t-53.5 30 t-41 44t-29 63t-20.5 82t-11.5 107t-6.5 132t-1.5 162.5zM119 1479q0 16 23.5 48.5t59.5 66.5t87 59.5t98 25.5t92.5 -20t75.5 -43.5t66.5 -43.5t66.5 -20q31 0 62.5 20t52 43.5t44.5 43.5t42 20q19 0 41 -18.5t22 -46.5q0 -16 -23 -48.5t-58.5 -66.5t-86.5 -59t-98 -25 q-45 0 -91 20t-78 43.5t-68.5 43.5t-63.5 20q-31 0 -62.5 -20t-52 -43.5t-44.5 -43.5t-42 -20q-26 0 -45.5 20t-19.5 44zM256 643q0 -291 25 -395q13 -54 38 -84t77 -46t141 -16q133 0 186.5 34.5t71.5 123.5q22 106 22 383q0 283 -24 375q-22 81 -77.5 106t-178.5 25 q-130 0 -184 -28.5t-74 -116.5q-23 -94 -23 -361z" />
<glyph unicode="&#xd6;" d="M115 625q0 120 2 199t11 152t20 116t36 80t52.5 54t75.5 29.5t98 15.5t127 3t127 -3t98 -16t75 -30t52 -54t36 -79.5t20 -116t11 -152.5t2 -198t-2 -198.5t-11 -152t-20.5 -115t-36 -79.5t-52 -54.5t-75 -30t-97.5 -15.5t-127 -3q-61 0 -104 2t-85 9t-69.5 16.5t-53.5 30 t-41 44t-29 63t-20.5 82t-11.5 107t-6.5 132t-1.5 162.5zM225 1573q0 43 30 73.5t73 30.5q41 0 71.5 -29.5t30.5 -72.5q0 -42 -29 -72t-73 -30q-41 0 -72 28.5t-31 71.5zM256 643q0 -291 25 -395q13 -54 38 -84t77 -46t141 -16q133 0 186.5 34.5t71.5 123.5q22 106 22 383 q0 283 -24 375q-22 81 -77.5 106t-178.5 25q-130 0 -184 -28.5t-74 -116.5q-23 -94 -23 -361zM643 1573q0 42 30 73t72 31q41 0 72 -29.5t31 -72.5t-29.5 -72.5t-73.5 -29.5t-73 30t-29 70z" />
<glyph unicode="&#xd7;" d="M190 350q0 24 19 46.5t126 129.5l101 101q-46 45 -113 112q-99 97 -116 117.5t-17 44.5q0 31 21.5 50.5t50.5 19.5q19 0 35 -10t60 -52.5t147 -147.5q21 -22 33 -34h2l124 124q100 102 118 113q13 7 32 7q25 0 46.5 -20.5t21.5 -49.5q0 -25 -20.5 -49.5t-118.5 -122.5 q-20 -19 -32 -31l-33 -33l-40 -40q48 -48 118 -116q93 -92 110.5 -113t17.5 -44q0 -28 -21.5 -49.5t-50.5 -21.5q-24 0 -47.5 19.5t-120.5 118.5q-63 63 -104 105h-2q-8 -8 -21 -21.5t-62.5 -62t-115.5 -114.5l-8 -8t-9.5 -10t-11 -9.5t-14 -9t-15.5 -6t-18 -2.5 q-32 0 -52 21t-20 48z" />
<glyph unicode="&#xd8;" d="M115 561v105q0 109 2.5 185.5t12 142.5t21.5 107.5t37 75.5t52 51t73 28.5t93.5 14.5t119.5 3q103 0 152 -4q5 16 12 38l10.5 33t9 26t9.5 21.5t9.5 15t11 11.5t13 5.5t17.5 2.5q26 0 46 -16.5t20 -42.5q0 -7 -2.5 -17.5t-6 -21.5t-11.5 -35t-15 -47q33 -15 55.5 -33.5 t40 -49.5t28.5 -68.5t18 -98t10 -130.5t5 -173v-104q0 -109 -3 -186t-12.5 -143t-21.5 -108t-37 -75.5t-52 -50.5t-73 -28.5t-93 -14.5t-119 -3q-88 0 -152 5q-28 -97 -44 -125.5t-48 -28.5q-22 0 -43.5 15t-21.5 44q0 10 3.5 23.5t13.5 43.5t17 54q-97 42 -125.5 154 t-31.5 399zM231 543q4 -198 17 -265q19 -96 67 -133l322 1000q-16 2 -100 2h-11q-53 0 -88.5 -3t-68.5 -13.5t-52.5 -24.5t-36.5 -43.5t-25.5 -63.5t-14.5 -91t-7.5 -118.5t-1.5 -152.5v-94zM436 106q33 -4 101 -4h10q53 0 89.5 3t69.5 14t52.5 25.5t36 45.5t25 64.5t14 92 t7 120t1.5 154.5v10q0 177 -10 274.5t-25.5 134t-46.5 66.5h-2z" />
<glyph unicode="&#xd9;" d="M8 1190q0 21 8 35t23.5 19t25.5 6t27 1h264q17 0 27 -1t25.5 -6t23.5 -19t8 -35q0 -22 -8 -36t-23 -19.5t-26 -7t-27 -1.5h-61v-698q0 -79 22.5 -143t58 -103t77.5 -59.5t84 -20.5q41 0 82.5 21t77.5 59.5t58.5 103t22.5 142.5v698h-61q-16 0 -27 1.5t-26 7t-23 19.5 t-8 36q0 21 8 35t23.5 19t25.5 6t27 1h264q17 0 27 -1t25.5 -6t23.5 -19t8 -35q0 -22 -7.5 -36t-22.5 -19.5t-26 -7t-28 -1.5h-61v-708q0 -186 -113.5 -313.5t-269.5 -127.5t-269.5 127.5t-113.5 313.5v708h-62q-16 0 -27 1.5t-26 7t-23 19.5t-8 36zM289 1581 q0 27 18.5 49.5t50.5 22.5q10 0 120 -38q107 -36 194 -65q59 -20 59 -61q0 -25 -15.5 -54.5t-49.5 -29.5h-2q-13 0 -308 100q-67 22 -67 76z" />
<glyph unicode="&#xda;" d="M8 1190q0 21 8 35t23.5 19t25.5 6t27 1h264q17 0 27 -1t25.5 -6t23.5 -19t8 -35q0 -22 -8 -36t-23 -19.5t-26 -7t-27 -1.5h-61v-698q0 -79 22.5 -143t58 -103t77.5 -59.5t84 -20.5q41 0 82.5 21t77.5 59.5t58.5 103t22.5 142.5v698h-61q-16 0 -27 1.5t-26 7t-23 19.5 t-8 36q0 21 8 35t23.5 19t25.5 6t27 1h264q17 0 27 -1t25.5 -6t23.5 -19t8 -35q0 -22 -7.5 -36t-22.5 -19.5t-26 -7t-28 -1.5h-61v-708q0 -186 -113.5 -313.5t-269.5 -127.5t-269.5 127.5t-113.5 313.5v708h-62q-16 0 -27 1.5t-26 7t-23 19.5t-8 36zM408 1489q0 16 5.5 27 t19 18.5t19 10t21.5 7.5q101 34 209 72q85 29 98 29q27 0 48.5 -20.5t21.5 -51.5q0 -54 -66 -74q-303 -102 -311 -102q-34 0 -49.5 30t-15.5 54z" />
<glyph unicode="&#xdb;" d="M8 1190q0 21 8 35t23.5 19t25.5 6t27 1h264q17 0 27 -1t25.5 -6t23.5 -19t8 -35q0 -22 -8 -36t-23 -19.5t-26 -7t-27 -1.5h-61v-698q0 -79 22.5 -143t58 -103t77.5 -59.5t84 -20.5q41 0 82.5 21t77.5 59.5t58.5 103t22.5 142.5v698h-61q-16 0 -27 1.5t-26 7t-23 19.5 t-8 36q0 21 8 35t23.5 19t25.5 6t27 1h264q17 0 27 -1t25.5 -6t23.5 -19t8 -35q0 -22 -7.5 -36t-22.5 -19.5t-26 -7t-28 -1.5h-61v-708q0 -186 -113.5 -313.5t-269.5 -127.5t-269.5 127.5t-113.5 313.5v708h-62q-16 0 -27 1.5t-26 7t-23 19.5t-8 36zM203 1427q0 33 41 62 l154 112q88 65 106 76t33 11h2q15 0 50.5 -24.5t241.5 -176.5q39 -28 39 -57q0 -25 -22.5 -52.5t-50.5 -27.5q-18 0 -48.5 21.5t-127.5 99.5q-52 42 -84 67h-2q-31 -24 -61 -48t-49.5 -40t-38.5 -31t-30 -24t-22 -17.5t-17.5 -12.5t-12.5 -8t-10.5 -5t-8.5 -1.5t-9 -0.5 q-27 0 -50 26.5t-23 50.5z" />
<glyph unicode="&#xdc;" d="M8 1190q0 21 8 35t23.5 19t25.5 6t27 1h264q17 0 27 -1t25.5 -6t23.5 -19t8 -35q0 -22 -8 -36t-23 -19.5t-26 -7t-27 -1.5h-61v-698q0 -79 22.5 -143t58 -103t77.5 -59.5t84 -20.5q41 0 82.5 21t77.5 59.5t58.5 103t22.5 142.5v698h-61q-16 0 -27 1.5t-26 7t-23 19.5 t-8 36q0 21 8 35t23.5 19t25.5 6t27 1h264q17 0 27 -1t25.5 -6t23.5 -19t8 -35q0 -22 -7.5 -36t-22.5 -19.5t-26 -7t-28 -1.5h-61v-708q0 -186 -113.5 -313.5t-269.5 -127.5t-269.5 127.5t-113.5 313.5v708h-62q-16 0 -27 1.5t-26 7t-23 19.5t-8 36zM223 1575q0 43 31 72.5 t72 29.5t71.5 -29.5t30.5 -72.5t-31 -72.5t-69 -29.5q-45 0 -75 30t-30 72zM643 1575q0 43 29.5 72.5t70.5 29.5t72 -29.5t31 -72.5t-30 -72.5t-71 -29.5q-44 0 -73 30.5t-29 71.5z" />
<glyph unicode="&#xdd;" d="M39 1190q0 17 6 29.5t13.5 18.5t20.5 9t21 3.5t21 0.5h213q13 0 21 -0.5t21 -3.5t20.5 -9t13.5 -18.5t6 -29.5q0 -23 -7 -36.5t-22.5 -19t-28 -7t-36.5 -1.5q0 -1 36.5 -77t68.5 -143.5t66 -147t44 -115.5l215 483q-19 0 -29.5 0.5t-25 4t-22 10t-13 19t-5.5 30.5 q0 17 6 29.5t13.5 18.5t20.5 9t21 3.5t21 0.5h213q18 0 28 -1t24.5 -6.5t22 -19.5t7.5 -36q0 -28 -15.5 -43t-30 -17t-36.5 -2h-43l-301 -626v-375h51q17 0 27.5 -1.5t25 -7t22 -19.5t7.5 -36q0 -17 -6 -29.5t-13.5 -18.5t-20.5 -9t-21 -3.5t-21 -0.5h-243q-18 0 -28 1 t-24.5 6.5t-22 19.5t-7.5 36q0 28 15.5 43t30 17t36.5 2h51v375l-303 626h-43q-17 0 -27.5 1.5t-25 7t-22 19.5t-7.5 36zM414 1489q0 16 5.5 27t19 18.5t19 10t21.5 7.5q101 34 209 72q85 29 98 29q27 0 48.5 -20.5t21.5 -51.5q0 -54 -65 -74q-303 -102 -312 -102 q-34 0 -49.5 30t-15.5 54z" />
<glyph unicode="&#xde;" d="M61 63q0 26 15.5 41.5t30 19t28.5 3.5h84v997h-84q-74 0 -74 64q0 63 74 63h311q74 0 74 -63q0 -64 -71 -64h-87v-86h244q161 0 265 -106.5t104 -249.5q0 -45 -12 -91.5t-41.5 -94.5t-72.5 -85.5t-111 -61t-152 -23.5h-224v-199h82q76 0 76 -64q0 -63 -74 -63h-311 q-74 0 -74 63zM362 451h179q79 0 138.5 23t91 60t46 74.5t14.5 73.5q0 37 -14.5 75t-43.5 73.5t-81 58t-119 22.5h-211v-460z" />
<glyph unicode="&#xdf;" d="M33 61q0 66 71 66h121v629h-116q-76 0 -76 61q0 62 67 64h125v145q0 32 7 61t30 62.5t61 57t106 39.5t159 16q89 0 156.5 -15.5t106 -38.5t63 -55t32.5 -60.5t8 -58.5q0 -105 -56 -180.5t-167 -81.5q-5 0 -14.5 -0.5t-13 -1t-11 -1t-11.5 -2t-10.5 -4t-13 -6.5t-14.5 -9 q-29 -45 -29 -89q0 -38 11.5 -63.5t34.5 -38.5t43 -19t52 -11t46 -9q83 -24 141.5 -93t58.5 -169q0 -121 -74.5 -193.5t-201.5 -72.5q-66 0 -119 30q-18 -30 -55 -30q-62 0 -62 71v207q-1 31 11.5 49t26.5 21.5t34 3.5h4q31 0 46.5 -15.5t19 -37t10 -59.5t18.5 -66 q21 -49 68 -49q60 0 103.5 32t43.5 109q0 31 -9 52.5t-31 49.5q-46 36 -111.5 48t-89.5 22q-60 25 -103 86.5t-43 142.5q0 101 57.5 167t160.5 73q12 0 21 1t26 7.5t28 19t20 38.5t9 63q0 33 -16.5 55.5t-68.5 39t-140 16.5h-4q-30 0 -63.5 -3t-82.5 -23t-61 -54 q-4 -12 -4 -37v-944q1 -26 -5.5 -42t-20 -23t-24 -9t-26.5 -2h-187q-73 0 -73 61z" />
<glyph unicode="&#xe0;" d="M113 262q0 96 79 164.5t215 103t320 37.5q0 105 -70 157t-192 52q-45 0 -74 -2q-30 -3 -36.5 -6.5t-6.5 -15.5q-1 -51 -30 -73t-60 -22q-39 0 -65.5 25.5t-26.5 69.5q0 31 12.5 55.5t30 40t47.5 26.5t52.5 16t58 7.5t52 3t44.5 0.5q106 0 187 -28.5t127 -76t68.5 -101.5 t22.5 -111v-443q43 -16 123 -16q22 0 36.5 -2t30 -17t15.5 -43q0 -18 -6 -30.5t-13 -19t-23 -9.5t-27 -3.5t-33 -0.5q-37 0 -62.5 1.5t-59 7.5t-58.5 20.5t-41 36.5q-119 -78 -299 -78q-151 0 -244.5 81.5t-93.5 192.5zM254 262q0 -62 59 -105.5t152 -43.5q110 0 182 34 q29 13 46 27.5t24 33t8.5 31t1.5 35.5v172q-219 -6 -346 -57t-127 -127zM362 1237q0 30 21.5 51t48.5 21h4q10 0 33 -9t121 -52q88 -39 151 -66q58 -25 58 -64q0 -27 -19 -54.5t-49 -27.5h-2q-12 0 -142 57l-45.5 19.5t-50.5 22t-65 28.5q-15 7 -21.5 11t-19 13t-18 21.5 t-5.5 28.5z" />
<glyph unicode="&#xe1;" d="M113 262q0 96 79 164.5t215 103t320 37.5q0 105 -70 157t-192 52q-45 0 -74 -2q-30 -3 -36.5 -6.5t-6.5 -15.5q-1 -51 -30 -73t-60 -22q-39 0 -65.5 25.5t-26.5 69.5q0 31 12.5 55.5t30 40t47.5 26.5t52.5 16t58 7.5t52 3t44.5 0.5q106 0 187 -28.5t127 -76t68.5 -101.5 t22.5 -111v-443q43 -16 123 -16q22 0 36.5 -2t30 -17t15.5 -43q0 -18 -6 -30.5t-13 -19t-23 -9.5t-27 -3.5t-33 -0.5q-37 0 -62.5 1.5t-59 7.5t-58.5 20.5t-41 36.5q-119 -78 -299 -78q-151 0 -244.5 81.5t-93.5 192.5zM254 262q0 -62 59 -105.5t152 -43.5q110 0 182 34 q29 13 46 27.5t24 33t8.5 31t1.5 35.5v172q-219 -6 -346 -57t-127 -127zM307 1118q0 12 5 22.5t8.5 16t16 12.5t14.5 8t16 7q270 118 288 123q9 2 17 2q27 0 48 -20.5t21 -51.5q0 -50 -61 -74q-63 -28 -151 -66q-136 -60 -148 -61h-5h-1q-31 0 -49.5 28t-18.5 54z" />
<glyph unicode="&#xe2;" d="M113 262q0 96 79 164.5t215 103t320 37.5q0 105 -70 157t-192 52q-45 0 -74 -2q-30 -3 -36.5 -6.5t-6.5 -15.5q-1 -51 -30 -73t-60 -22q-39 0 -65.5 25.5t-26.5 69.5q0 31 12.5 55.5t30 40t47.5 26.5t52.5 16t58 7.5t52 3t44.5 0.5q106 0 187 -28.5t127 -76t68.5 -101.5 t22.5 -111v-443q43 -16 123 -16q22 0 36.5 -2t30 -17t15.5 -43q0 -18 -6 -30.5t-13 -19t-23 -9.5t-27 -3.5t-33 -0.5q-37 0 -62.5 1.5t-59 7.5t-58.5 20.5t-41 36.5q-119 -78 -299 -78q-151 0 -244.5 81.5t-93.5 192.5zM158 1077q0 35 47 64q244 162 258 170q16 8 29 8h2 q12 0 36 -14.5t137 -89.5q67 -45 111 -74q14 -9 20.5 -13.5t16.5 -19t10 -31.5q0 -22 -21.5 -50t-49.5 -28h-4q-23 0 -133.5 82t-124.5 82q-3 0 -6 -0.5t-6.5 -2.5t-6.5 -4t-8.5 -5.5t-10 -6.5t-12.5 -9t-14 -11q-148 -106 -168 -116q-17 -9 -31 -9q-29 0 -50 28t-21 50z M254 262q0 -62 59 -105.5t152 -43.5q110 0 182 34q29 13 46 27.5t24 33t8.5 31t1.5 35.5v172q-219 -6 -346 -57t-127 -127z" />
<glyph unicode="&#xe3;" d="M113 262q0 96 79 164.5t215 103t320 37.5q0 105 -70 157t-192 52q-45 0 -74 -2q-30 -3 -36.5 -6.5t-6.5 -15.5q-1 -51 -30 -73t-60 -22q-39 0 -65.5 25.5t-26.5 69.5q0 31 12.5 55.5t30 40t47.5 26.5t52.5 16t58 7.5t52 3t44.5 0.5q106 0 187 -28.5t127 -76t68.5 -101.5 t22.5 -111v-443q43 -16 123 -16q22 0 36.5 -2t30 -17t15.5 -43q0 -18 -6 -30.5t-13 -19t-23 -9.5t-27 -3.5t-33 -0.5q-37 0 -62.5 1.5t-59 7.5t-58.5 20.5t-41 36.5q-119 -78 -299 -78q-151 0 -244.5 81.5t-93.5 192.5zM197 1071q0 29 32 57q134 123 226 123q38 0 71 -17 t52.5 -38t41 -38t37.5 -17q29 0 66 27t69.5 54t51.5 27q25 0 45 -18t20 -45q0 -26 -32 -58q-128 -122 -228 -122q-38 0 -70.5 17t-51.5 37t-40 37t-38 17q-28 0 -65.5 -27t-71 -54t-52.5 -27q-27 0 -45 20.5t-18 44.5zM254 262q0 -62 59 -105.5t152 -43.5q110 0 182 34 q29 13 46 27.5t24 33t8.5 31t1.5 35.5v172q-219 -6 -346 -57t-127 -127z" />
<glyph unicode="&#xe4;" d="M113 262q0 96 79 164.5t215 103t320 37.5q0 105 -70 157t-192 52q-45 0 -74 -2q-30 -3 -36.5 -6.5t-6.5 -15.5q-1 -51 -30 -73t-60 -22q-39 0 -65.5 25.5t-26.5 69.5q0 31 12.5 55.5t30 40t47.5 26.5t52.5 16t58 7.5t52 3t44.5 0.5q106 0 187 -28.5t127 -76t68.5 -101.5 t22.5 -111v-443q43 -16 123 -16q22 0 36.5 -2t30 -17t15.5 -43q0 -18 -6 -30.5t-13 -19t-23 -9.5t-27 -3.5t-33 -0.5q-37 0 -62.5 1.5t-59 7.5t-58.5 20.5t-41 36.5q-119 -78 -299 -78q-151 0 -244.5 81.5t-93.5 192.5zM242 1147q0 43 29.5 73.5t72.5 30.5q41 0 71.5 -29.5 t30.5 -72.5q0 -42 -29 -72t-73 -30q-41 0 -71.5 28.5t-30.5 71.5zM254 262q0 -62 59 -105.5t152 -43.5q110 0 182 34q29 13 46 27.5t24 33t8.5 31t1.5 35.5v172q-219 -6 -346 -57t-127 -127zM659 1147q0 42 30.5 73t72.5 31q41 0 71.5 -29.5t30.5 -72.5t-29 -72.5t-73 -29.5 t-73.5 30t-29.5 70z" />
<glyph unicode="&#xe5;" d="M113 262q0 96 79 164.5t215 103t320 37.5q0 105 -70 157t-192 52q-45 0 -74 -2q-30 -3 -36.5 -6.5t-6.5 -15.5q-1 -51 -30 -73t-60 -22q-39 0 -65.5 25.5t-26.5 69.5q0 31 12.5 55.5t30 40t47.5 26.5t52.5 16t58 7.5t52 3t44.5 0.5q106 0 187 -28.5t127 -76t68.5 -101.5 t22.5 -111v-443q43 -16 123 -16q22 0 36.5 -2t30 -17t15.5 -43q0 -18 -6 -30.5t-13 -19t-23 -9.5t-27 -3.5t-33 -0.5q-37 0 -62.5 1.5t-59 7.5t-58.5 20.5t-41 36.5q-119 -78 -299 -78q-151 0 -244.5 81.5t-93.5 192.5zM248 1147q0 73 72 125.5t172 52.5q99 0 171 -51.5 t72 -126.5q0 -73 -71.5 -125.5t-171.5 -52.5q-108 0 -176 54.5t-68 123.5zM254 262q0 -62 59 -105.5t152 -43.5q110 0 182 34q29 13 46 27.5t24 33t8.5 31t1.5 35.5v172q-219 -6 -346 -57t-127 -127zM367 1147q0 -41 36.5 -74t88.5 -33q55 0 88.5 33.5t33.5 73.5 q0 49 -38 77.5t-84 28.5q-54 0 -89.5 -31.5t-35.5 -74.5z" />
<glyph unicode="&#xe6;" d="M66 244q0 21 4.5 43.5t24 59t52 65.5t96.5 55.5t150 36.5q30 4 86 8v57q0 131 -78 181q-33 22 -84 22q-37 0 -55 -2q2 -8 2 -20q0 -42 -27.5 -68.5t-62.5 -26.5q-34 0 -62 24.5t-28 70.5q0 25 10 48.5t34 47.5t74.5 38.5t121.5 14.5q49 0 91 -15.5t70 -40.5t44.5 -46.5 t27.5 -42.5q34 56 89 100.5t130 44.5q33 0 66 -11t68 -41.5t61.5 -77t43.5 -124.5t17 -178q0 -26 -6 -42.5t-18.5 -23.5t-22 -8.5t-24.5 -1.5h-363q16 -130 79 -203t128 -73q25 0 45.5 11.5t33.5 30.5t20.5 34.5t13 34.5t6.5 20q16 35 53 35q21 0 38 -16.5t17 -41.5 q0 -26 -14.5 -63.5t-41.5 -76.5t-74 -66t-103 -27q-68 0 -129.5 38t-102.5 101q-98 -139 -266 -139q-106 0 -170.5 78t-64.5 176zM182 242q0 -47 35.5 -87t95.5 -40q22 0 47 6.5t53 21t46 45t18 72.5v19q0 11 1 49.5t1 58.5q-132 -3 -214.5 -41.5t-82.5 -103.5zM600 516h315 q-7 130 -46 193t-91 63q-58 0 -110 -67.5t-68 -188.5z" />
<glyph unicode="&#xe7;" d="M147 440q0 120 56 224t161.5 169.5t237.5 65.5h25q44 0 80 -2.5t80 -11.5t73.5 -24t49.5 -43t20 -66q0 -39 -26 -68t-66 -29q-35 0 -62.5 26.5t-27.5 66.5v16q-57 8 -138 8q-77 0 -140 -29.5t-101 -78t-58 -106t-20 -116.5q0 -132 90.5 -228.5t232.5 -96.5q66 0 114.5 26 t72.5 70q2 4 8 19t9.5 20t12 14t20.5 12t30 3q30 0 47.5 -13t20.5 -23.5t3 -19.5q0 -11 -6 -30.5t-25 -51t-48.5 -59.5t-83.5 -53.5t-123 -36.5v-14q72 -18 126 -68.5t54 -130.5q0 -95 -82 -150q-54 -36 -131.5 -46.5t-194.5 -10.5h-20q-74 0 -74 61q0 42 35 58q12 6 67 8 t109.5 4.5t99.5 21t45 54.5q0 27 -24.5 50t-69.5 30q-4 1 -17 2t-16.5 2t-13.5 3.5t-13 6t-9.5 9.5t-8.5 15t-4 21.5t-2 28.5v47q-173 30 -274 158t-101 286z" />
<glyph unicode="&#xe8;" d="M113 444q0 189 128.5 323t311.5 134q97 0 174 -35t125 -95t73 -137.5t25 -166.5q0 -27 -6 -43.5t-20 -23t-24.5 -8t-31.5 -1.5h-610q24 -127 121.5 -202.5t218.5 -75.5q25 0 51.5 5t58.5 17t59.5 38t43.5 63q10 28 24.5 36.5t43.5 8.5q71 0 71 -58q0 -17 -11.5 -44 t-40 -60.5t-68.5 -62.5t-105 -48.5t-141 -19.5q-197 0 -334 134t-137 322zM260 514h545q-6 75 -31 129t-62.5 81.5t-76 39.5t-82.5 12q-107 0 -189 -74.5t-104 -187.5zM393 1237q0 30 21.5 51t48.5 21h4q10 0 33 -9t121 -52q88 -39 151 -66q57 -25 57 -64q0 -27 -18.5 -54.5 t-48.5 -27.5h-2q-12 0 -142 57l-45.5 19.5t-50.5 22t-65 28.5q-15 7 -21.5 11t-19 13t-18 21.5t-5.5 28.5z" />
<glyph unicode="&#xe9;" d="M113 444q0 189 128.5 323t311.5 134q97 0 174 -35t125 -95t73 -137.5t25 -166.5q0 -27 -6 -43.5t-20 -23t-24.5 -8t-31.5 -1.5h-610q24 -127 121.5 -202.5t218.5 -75.5q25 0 51.5 5t58.5 17t59.5 38t43.5 63q10 28 24.5 36.5t43.5 8.5q71 0 71 -58q0 -17 -11.5 -44 t-40 -60.5t-68.5 -62.5t-105 -48.5t-141 -19.5q-197 0 -334 134t-137 322zM260 514h545q-6 75 -31 129t-62.5 81.5t-76 39.5t-82.5 12q-107 0 -189 -74.5t-104 -187.5zM276 1118q0 12 5 22.5t8.5 16t16 12.5t14.5 8t16 7q270 118 288 123q9 2 17 2q27 0 48.5 -20.5 t21.5 -51.5q0 -49 -62 -74q-63 -28 -151 -66q-136 -60 -148 -61h-5h-1q-31 0 -49.5 28t-18.5 54z" />
<glyph unicode="&#xea;" d="M113 444q0 189 128.5 323t311.5 134q97 0 174 -35t125 -95t73 -137.5t25 -166.5q0 -27 -6 -43.5t-20 -23t-24.5 -8t-31.5 -1.5h-610q24 -127 121.5 -202.5t218.5 -75.5q25 0 51.5 5t58.5 17t59.5 38t43.5 63q10 28 24.5 36.5t43.5 8.5q71 0 71 -58q0 -17 -11.5 -44 t-40 -60.5t-68.5 -62.5t-105 -48.5t-141 -19.5q-197 0 -334 134t-137 322zM188 1079q0 15 8.5 28t16 18.5t23.5 15.5q245 162 256 168q17 10 30 10h2q13 0 40 -16.5t155 -101.5q18 -12 28 -19t28 -18.5t34 -22.5q1 -1 6.5 -4t8.5 -5.5t8.5 -7t9 -9t7 -10t5.5 -13t2 -15.5 q0 -22 -22 -50t-50 -28h-4q-23 0 -133.5 82t-124.5 82q-4 0 -8 -1t-10 -5t-10.5 -7.5t-15.5 -11.5t-19 -14q-148 -106 -168 -116q-17 -9 -31 -9q-28 0 -50 27.5t-22 52.5zM260 514h545q-6 75 -31 129t-62.5 81.5t-76 39.5t-82.5 12q-107 0 -189 -74.5t-104 -187.5z" />
<glyph unicode="&#xeb;" d="M113 444q0 189 128.5 323t311.5 134q97 0 174 -35t125 -95t73 -137.5t25 -166.5q0 -27 -6 -43.5t-20 -23t-24.5 -8t-31.5 -1.5h-610q24 -127 121.5 -202.5t218.5 -75.5q25 0 51.5 5t58.5 17t59.5 38t43.5 63q10 28 24.5 36.5t43.5 8.5q71 0 71 -58q0 -17 -11.5 -44 t-40 -60.5t-68.5 -62.5t-105 -48.5t-141 -19.5q-197 0 -334 134t-137 322zM211 1147q0 43 30.5 73.5t71.5 30.5t72 -29.5t31 -72.5q0 -42 -29.5 -72t-73.5 -30t-73 30t-29 70zM260 514h545q-6 75 -31 129t-62.5 81.5t-76 39.5t-82.5 12q-107 0 -189 -74.5t-104 -187.5z M629 1147q0 42 30 73t72 31q44 0 73.5 -31t29.5 -71q0 -43 -29.5 -72.5t-73.5 -29.5t-73 30t-29 70z" />
<glyph unicode="&#xec;" d="M160 61q0 22 7.5 36t22.5 19.5t26 7t28 1.5h248v633h-232q-17 0 -27 1t-25.5 6.5t-23.5 19.5t-8 36q0 21 8 35t23 19t26 6.5t27 1.5h291q51 0 66.5 -17.5t15.5 -66.5v-674h215q16 0 27 -1.5t26 -7t23 -19.5t8 -36q0 -21 -8 -35t-23.5 -19t-25.5 -6t-27 -1h-604 q-17 0 -27 1t-25.5 6t-23.5 19t-8 35zM291 1237q0 30 21 51t48 21h5q10 0 33 -9t121 -52q88 -39 151 -66q57 -25 57 -64q0 -27 -19 -54.5t-49 -27.5h-2q-12 0 -142 57l-45.5 19.5t-50.5 22t-65 28.5q-19 9 -29 15t-22 22t-12 37z" />
<glyph unicode="&#xed;" d="M160 61q0 22 7.5 36t22.5 19.5t26 7t28 1.5h248v633h-232q-17 0 -27 1t-25.5 6.5t-23.5 19.5t-8 36q0 21 8 35t23 19t26 6.5t27 1.5h291q51 0 66.5 -17.5t15.5 -66.5v-674h215q16 0 27 -1.5t26 -7t23 -19.5t8 -36q0 -21 -8 -35t-23.5 -19t-25.5 -6t-27 -1h-604 q-17 0 -27 1t-25.5 6t-23.5 19t-8 35zM397 1118q0 7 1 13t4.5 11.5t5.5 9.5t7.5 8t8 6.5t9.5 6t8.5 4t9.5 3.5l8 4q270 118 288 123q9 2 17 2q27 0 48.5 -20.5t21.5 -51.5q0 -49 -62 -74q-281 -123 -295 -126q-4 -1 -12 -1q-31 0 -49.5 28t-18.5 54z" />
<glyph unicode="&#xee;" d="M160 61q0 22 7.5 36t22.5 19.5t26 7t28 1.5h248v633h-232q-17 0 -27 1t-25.5 6.5t-23.5 19.5t-8 36q0 21 8 35t23 19t26 6.5t27 1.5h291q51 0 66.5 -17.5t15.5 -66.5v-674h215q16 0 27 -1.5t26 -7t23 -19.5t8 -36q0 -21 -8 -35t-23.5 -19t-25.5 -6t-27 -1h-604 q-17 0 -27 1t-25.5 6t-23.5 19t-8 35zM229 1079q0 15 8 28t16 19t23 15q62 41 145 97q87 58 106.5 69.5t33.5 11.5h4q13 0 40 -16.5t155 -101.5q18 -12 28 -19t28 -18.5t34 -22.5q1 0 5.5 -3t7 -5t7 -5.5t7.5 -7t7 -8.5t6 -10t3.5 -11.5t1.5 -13.5q0 -22 -22 -50t-50 -28h-4 q-23 0 -132.5 82t-123.5 82q-12 0 -65 -39q-25 -18 -65 -47q-71 -51 -93 -64.5t-39 -13.5q-28 0 -50 27.5t-22 52.5z" />
<glyph unicode="&#xef;" d="M209 63q0 64 74 64h204v629h-196q-37 0 -52.5 19.5t-15.5 43.5q0 62 78 62h252q23 0 37 -3t27.5 -20t13.5 -49v-682h178q41 0 56.5 -19.5t15.5 -44.5q0 -61 -70 -63h-530q-14 0 -27.5 3t-29 18t-15.5 42zM248 1149q0 44 30 73t72 29q41 0 72 -29.5t31 -72.5t-29.5 -72.5 t-73.5 -29.5t-73 31t-29 71zM666 1147q0 43 30.5 73.5t71.5 30.5q39 0 69.5 -29.5t30.5 -72.5q0 -42 -28.5 -72t-71.5 -30q-41 0 -71.5 28.5t-30.5 71.5z" />
<glyph unicode="&#xf0;" d="M115 442q0 193 125 325t295 132q69 0 145 -29q-29 37 -60 66.5t-48.5 43t-61.5 44.5h-2q-105 -68 -135 -68q-25 0 -45.5 23t-20.5 51q0 14 5 25t17.5 20.5t15.5 11.5t15 9q-44 14 -94.5 20.5t-75.5 8t-42.5 14.5t-18.5 43q2 26 25 47.5t57 21.5q69 0 139 -16.5t112 -33.5 t44 -17q13 0 66.5 32.5t74.5 32.5q27 0 46.5 -23.5t19.5 -47.5q0 -23 -15 -38.5t-57 -37.5q7 -6 40 -34t45.5 -39.5t36.5 -37.5t46 -55q147 -197 147 -442v-35q0 -92 -25 -170t-67 -132t-96.5 -92.5t-113 -56.5t-117.5 -18q-82 0 -158.5 34t-135 92.5t-93.5 144t-35 181.5z M258 457q0 -144 82.5 -243t196.5 -99t195 101.5t81 232.5q0 78 -33.5 151.5t-99 122.5t-145.5 49q-116 0 -196.5 -92.5t-80.5 -222.5z" />
<glyph unicode="&#xf1;" d="M25 61q0 22 7.5 36t22.5 19.5t26 7t28 1.5h90v633h-93q-13 0 -20 0.5t-20.5 3.5t-21 9t-13.5 18.5t-6 29.5q0 22 7.5 36t22.5 19.5t26 7t28 1.5h149q57 0 69.5 -20t12.5 -77q41 41 109 75t159 34q126 0 196 -72.5t70 -222.5v-475h91q17 0 28 -1.5t26 -7t22.5 -19.5 t7.5 -36q0 -21 -8 -35t-23 -19t-25 -6t-26 -1h-314q-13 0 -20.5 0.5t-21 3.5t-21.5 9t-14.5 18.5t-6.5 29.5q0 22 7.5 36t22.5 19.5t26 7t28 1.5h80v465q0 96 -29 138t-108 42q-42 0 -84.5 -16t-82 -48t-64.5 -89t-25 -130v-362h90q17 0 28 -1.5t26 -7t22.5 -19.5t7.5 -36 q0 -21 -8 -35t-23 -19t-25 -6t-26 -1h-326q-13 0 -20 0.5t-20.5 3.5t-21 9t-13.5 18.5t-6 29.5zM180 1071q0 28 33 57q134 123 227 123q38 0 71 -17t52 -38t40.5 -38t37.5 -17q29 0 66 27t69.5 54t50.5 27q25 0 45.5 -18.5t20.5 -44.5q0 -27 -31 -58q-128 -122 -227 -122 q-38 0 -71 17t-52.5 37t-41 37t-38.5 17q-28 0 -65 -27t-70.5 -54t-52.5 -27q-28 0 -46 20.5t-18 44.5z" />
<glyph unicode="&#xf2;" d="M117 442q0 191 123.5 325t296.5 134q113 0 209.5 -61t153 -166.5t56.5 -231.5q0 -191 -124 -322.5t-295 -131.5t-295.5 131t-124.5 323zM258 457q0 -142 82.5 -243t196.5 -101t196 101t82 243q0 137 -82.5 228t-195.5 91q-112 0 -195.5 -91.5t-83.5 -227.5zM324 1237 q0 30 21 51t48 21h4q10 0 33 -9t121 -52q88 -39 151 -66q58 -25 58 -64q0 -27 -19 -54.5t-49 -27.5h-2q-12 0 -142 57l-45.5 19.5t-50.5 22t-65 28.5q-19 9 -29 15t-22 22t-12 37z" />
<glyph unicode="&#xf3;" d="M117 442q0 191 123.5 325t296.5 134q113 0 209.5 -61t153 -166.5t56.5 -231.5q0 -191 -124 -322.5t-295 -131.5t-295.5 131t-124.5 323zM258 457q0 -142 82.5 -243t196.5 -101t196 101t82 243q0 137 -82.5 228t-195.5 91q-112 0 -195.5 -91.5t-83.5 -227.5zM313 1118 q0 12 5 22.5t8.5 16t16 12.5t14.5 8t16 7q270 118 288 123q9 2 17 2q27 0 48.5 -20.5t21.5 -51.5q0 -49 -62 -74q-63 -28 -151 -66q-136 -60 -148 -61h-5h-1q-31 0 -49.5 28t-18.5 54z" />
<glyph unicode="&#xf4;" d="M117 442q0 191 123.5 325t296.5 134q113 0 209.5 -61t153 -166.5t56.5 -231.5q0 -191 -124 -322.5t-295 -131.5t-295.5 131t-124.5 323zM203 1079q0 15 8 28t16 19t23 15q244 162 258 170q17 8 29 8h2q12 0 36 -14.5t137 -89.5q67 -45 111 -74q1 -1 6.5 -4t8.5 -5.5 t8.5 -7t9 -9t7 -10t5.5 -13t2 -15.5q0 -22 -22.5 -50t-50.5 -28h-4q-23 0 -132.5 82t-123.5 82q-3 0 -6 -0.5t-6.5 -2.5t-6.5 -4t-8.5 -5.5t-10 -6.5t-12.5 -9t-14 -11q-148 -106 -168 -116q-17 -9 -31 -9q-28 0 -49.5 27.5t-21.5 52.5zM258 457q0 -142 82.5 -243 t196.5 -101t196 101t82 243q0 137 -82.5 228t-195.5 91q-112 0 -195.5 -91.5t-83.5 -227.5z" />
<glyph unicode="&#xf5;" d="M117 442q0 191 123.5 325t296.5 134q113 0 209.5 -61t153 -166.5t56.5 -231.5q0 -191 -124 -322.5t-295 -131.5t-295.5 131t-124.5 323zM180 1071q0 28 33 57q134 123 225 123q38 0 71.5 -17t53 -38t41 -38t37.5 -17q29 0 66 27t69.5 54t50.5 27q25 0 45.5 -18.5 t20.5 -44.5q0 -25 -33 -58q-128 -122 -227 -122q-39 0 -71.5 17t-50.5 37t-39.5 37t-39.5 17q-28 0 -65 -27t-70.5 -54t-52.5 -27q-28 0 -46 20.5t-18 44.5zM258 457q0 -142 82.5 -243t196.5 -101t196 101t82 243q0 137 -82.5 228t-195.5 91q-112 0 -195.5 -91.5 t-83.5 -227.5z" />
<glyph unicode="&#xf6;" d="M117 442q0 191 123.5 325t296.5 134q113 0 209.5 -61t153 -166.5t56.5 -231.5q0 -191 -124 -322.5t-295 -131.5t-295.5 131t-124.5 323zM225 1147q0 43 30.5 73.5t72.5 30.5q41 0 70.5 -29.5t29.5 -72.5q0 -42 -28.5 -72t-71.5 -30q-44 0 -73.5 30t-29.5 70zM258 457 q0 -142 82.5 -243t196.5 -101t196 101t82 243q0 137 -82.5 228t-195.5 91q-112 0 -195.5 -91.5t-83.5 -227.5zM643 1147q0 42 30 73t72 31q44 0 73.5 -31t29.5 -71q0 -43 -29.5 -72.5t-73.5 -29.5t-73 30t-29 70z" />
<glyph unicode="&#xf7;" d="M76 625q0 27 18 47.5t45 23.5h770q48 0 67 -20.5t19 -48.5q0 -16 -5 -30t-26 -28t-57 -14h-747q-49 0 -66.5 22t-17.5 48zM420 272q0 47 34.5 82t80.5 35q47 0 81.5 -33.5t34.5 -83.5q0 -47 -33.5 -80.5t-80.5 -33.5q-46 0 -81.5 32.5t-35.5 81.5zM420 979q0 47 34.5 81 t80.5 34q47 0 81.5 -32.5t34.5 -82.5q0 -48 -33.5 -82.5t-80.5 -34.5q-45 0 -81 34.5t-36 82.5z" />
<glyph unicode="&#xf8;" d="M86 -225q0 17 107 202q40 68 65 111q-81 63 -124.5 156.5t-43.5 195.5q0 126 61 232t163.5 166.5t222.5 60.5q19 0 37 -1.5t30.5 -3.5t30 -6.5t24.5 -7t26.5 -9t23.5 -7.5q5 11 14.5 27t44.5 75.5t82 141.5q2 3 8 13.5t8.5 14.5t9 12t12 11.5t14 6.5t18.5 3 q24 0 44.5 -17.5t20.5 -43.5q0 -18 -26 -65.5t-71.5 -122.5t-70.5 -123q80 -66 122 -160.5t42 -196.5q0 -125 -60.5 -229t-162.5 -162.5t-221 -58.5q-94 0 -170 33q-30 -52 -75 -131q-76 -133 -93.5 -156t-44.5 -23q-25 0 -46.5 17t-21.5 45zM207 440q0 -146 115 -245 l323 559q-56 18 -108 18q-133 0 -231.5 -94.5t-98.5 -237.5zM430 133q56 -18 105 -18q140 0 235.5 96.5t95.5 228.5q0 140 -110 250h-2z" />
<glyph unicode="&#xf9;" d="M25 819q0 22 7.5 36t22.5 19.5t26 7t28 1.5h149q51 0 66.5 -17.5t15.5 -66.5v-553q0 -26 1 -40t9.5 -35t24.5 -31t48 -18.5t79 -8.5q24 0 49.5 4t59.5 17t60 34.5t44 61.5t18 92v436h-92q-16 0 -26 1t-25 6t-23 19t-8 35q0 22 7.5 36t22.5 19.5t26 7t28 1.5h150 q51 0 66 -17.5t15 -66.5v-674h93q21 0 35.5 -2t30.5 -17t16 -43q0 -22 -7.5 -36t-23 -19.5t-25.5 -6.5t-28 -1h-150q-19 0 -29 1t-24 7t-21 20.5t-8 37.5q-104 -78 -244 -78q-290 0 -290 245v525h-93q-13 0 -20 0.5t-20.5 3.5t-21 9t-13.5 18.5t-6 29.5zM297 1237 q0 30 21.5 51t48.5 21h4q10 0 33 -9t121 -52q88 -39 151 -66q57 -25 57 -64q0 -27 -18.5 -54.5t-48.5 -27.5h-2q-13 0 -162 65q-26 11 -41.5 18t-44.5 19.5t-56 24.5q-19 9 -29 15t-22 22t-12 37z" />
<glyph unicode="&#xfa;" d="M25 819q0 22 7.5 36t22.5 19.5t26 7t28 1.5h149q51 0 66.5 -17.5t15.5 -66.5v-553q0 -26 1 -40t9.5 -35t24.5 -31t48 -18.5t79 -8.5q24 0 49.5 4t59.5 17t60 34.5t44 61.5t18 92v436h-92q-16 0 -26 1t-25 6t-23 19t-8 35q0 22 7.5 36t22.5 19.5t26 7t28 1.5h150 q51 0 66 -17.5t15 -66.5v-674h93q21 0 35.5 -2t30.5 -17t16 -43q0 -22 -7.5 -36t-23 -19.5t-25.5 -6.5t-28 -1h-150q-19 0 -29 1t-24 7t-21 20.5t-8 37.5q-104 -78 -244 -78q-290 0 -290 245v525h-93q-13 0 -20 0.5t-20.5 3.5t-21 9t-13.5 18.5t-6 29.5zM313 1118q0 7 1 13 t4.5 11.5t5.5 9.5t7.5 8t8 6.5t9.5 6t8.5 4t9.5 3.5l8 4q270 118 288 123q9 2 17 2q27 0 48.5 -20.5t21.5 -51.5q0 -49 -62 -74q-281 -123 -295 -126q-4 -1 -12 -1q-31 0 -49.5 28t-18.5 54z" />
<glyph unicode="&#xfb;" d="M25 819q0 22 7.5 36t22.5 19.5t26 7t28 1.5h149q51 0 66.5 -17.5t15.5 -66.5v-553q0 -26 1 -40t9.5 -35t24.5 -31t48 -18.5t79 -8.5q24 0 49.5 4t59.5 17t60 34.5t44 61.5t18 92v436h-92q-16 0 -26 1t-25 6t-23 19t-8 35q0 22 7.5 36t22.5 19.5t26 7t28 1.5h150 q51 0 66 -17.5t15 -66.5v-674h93q21 0 35.5 -2t30.5 -17t16 -43q0 -22 -7.5 -36t-23 -19.5t-25.5 -6.5t-28 -1h-150q-19 0 -29 1t-24 7t-21 20.5t-8 37.5q-104 -78 -244 -78q-290 0 -290 245v525h-93q-13 0 -20 0.5t-20.5 3.5t-21 9t-13.5 18.5t-6 29.5zM205 1079 q0 35 45 62q244 162 258 170q17 8 29 8h2q15 0 49 -21t235 -155q47 -29 47 -66q0 -22 -21.5 -50t-49.5 -28h-4q-23 0 -133.5 82t-124.5 82q-3 0 -6 -0.5t-6.5 -2.5t-6.5 -4t-8.5 -5.5t-10 -6.5t-12.5 -9t-14 -11q-25 -18 -65 -47q-71 -51 -93 -64.5t-39 -13.5 q-28 0 -49.5 27.5t-21.5 52.5z" />
<glyph unicode="&#xfc;" d="M25 819q0 22 7.5 36t22.5 19.5t26 7t28 1.5h149q51 0 66.5 -17.5t15.5 -66.5v-553q0 -26 1 -40t9.5 -35t24.5 -31t48 -18.5t79 -8.5q24 0 49.5 4t59.5 17t60 34.5t44 61.5t18 92v436h-92q-16 0 -26 1t-25 6t-23 19t-8 35q0 22 7.5 36t22.5 19.5t26 7t28 1.5h150 q51 0 66 -17.5t15 -66.5v-674h93q21 0 35.5 -2t30.5 -17t16 -43q0 -22 -7.5 -36t-23 -19.5t-25.5 -6.5t-28 -1h-150q-19 0 -29 1t-24 7t-21 20.5t-8 37.5q-104 -78 -244 -78q-290 0 -290 245v525h-93q-13 0 -20 0.5t-20.5 3.5t-21 9t-13.5 18.5t-6 29.5zM225 1147 q0 43 30 73.5t73 30.5q41 0 71.5 -29.5t30.5 -72.5q0 -42 -29 -72t-73 -30q-41 0 -72 28.5t-31 71.5zM643 1147q0 42 30 73t72 31q41 0 72 -29.5t31 -72.5t-29.5 -72.5t-73.5 -29.5t-73 30t-29 70z" />
<glyph unicode="&#xfd;" d="M53 819q0 22 7.5 36t22 19.5t25 7t27.5 1.5h240q17 0 27.5 -1.5t25 -7t22 -19.5t7.5 -36q0 -17 -6 -29.5t-13.5 -18.5t-20.5 -9t-21 -3.5t-21 -0.5h-51l190 -492q4 -12 14 -37.5t17.5 -46t11.5 -37.5h2q17 74 53 177l148 436h-58q-17 0 -27 1t-25 6.5t-22 19.5t-7 36 t7.5 35.5t22 18.5t25 6.5t26.5 1.5h240q17 0 27.5 -1.5t25 -7t22 -19.5t7.5 -36q0 -17 -6 -29.5t-13.5 -18.5t-20.5 -9t-21 -3.5t-21 -0.5h-61l-318 -932q-7 -20 -15 -40.5t-36.5 -71t-60 -86.5t-83.5 -65.5t-110 -29.5q-73 0 -121.5 50.5t-48.5 117.5q0 40 24.5 65t65.5 25 q38 0 63 -25t25 -63q0 -12 -2.5 -22.5t-5.5 -16.5l-2 -6q19 1 32 4t38 13.5t49 36t45 65.5q12 23 31.5 78t33 98.5t13.5 46.5q0 5 -9 27l-290 731h-64q-13 0 -21 0.5t-21 3.5t-20.5 9t-13.5 18.5t-6 29.5zM422 1118q0 15 5 26t18.5 20t17 11t20.5 9q270 118 288 123 q9 2 17 2q27 0 48.5 -20.5t21.5 -51.5q0 -50 -61 -74q-232 -101 -263 -114t-45 -13q-31 0 -49 27.5t-18 54.5z" />
<glyph unicode="&#xfe;" d="M23 -391q0 63 75 63h99v1452h-107q-38 1 -52.5 20.5t-14.5 43.5q0 63 73 63h172q22 0 37 -7t21.5 -13.5t10 -22t3.5 -20v-19.5v-376q121 100 260 100q162 0 280.5 -130t118.5 -321q0 -98 -35.5 -184t-94 -144t-134 -91t-155.5 -33q-74 0 -130.5 25.5t-109.5 76.5v-420h98 q76 0 76 -63q0 -64 -74 -64h-344q-73 0 -73 64zM340 379q0 -29 13.5 -71t39.5 -86.5t72.5 -75.5t103.5 -31q114 0 200.5 92.5t86.5 234.5q0 134 -78.5 229t-187.5 95q-104 0 -177 -71.5t-73 -147.5v-168z" />
<glyph unicode="&#xff;" d="M53 819q0 22 7.5 36t22 19.5t25 7t27.5 1.5h240q17 0 27.5 -1.5t25 -7t22 -19.5t7.5 -36q0 -17 -6 -29.5t-13.5 -18.5t-20.5 -9t-21 -3.5t-21 -0.5h-51l190 -492q4 -12 14 -37.5t17.5 -46t11.5 -37.5h2q17 74 53 177l148 436h-58q-17 0 -27 1t-25 6.5t-22 19.5t-7 36 t7.5 35.5t22 18.5t25 6.5t26.5 1.5h240q17 0 27.5 -1.5t25 -7t22 -19.5t7.5 -36q0 -17 -6 -29.5t-13.5 -18.5t-20.5 -9t-21 -3.5t-21 -0.5h-61l-318 -932q-7 -20 -15 -40.5t-36.5 -71t-60 -86.5t-83.5 -65.5t-110 -29.5q-73 0 -121.5 50.5t-48.5 117.5q0 40 24.5 65t65.5 25 q38 0 63 -25t25 -63q0 -12 -2.5 -22.5t-5.5 -16.5l-2 -6q19 1 32 4t38 13.5t49 36t45 65.5q12 23 31.5 78t33 98.5t13.5 46.5q0 5 -9 27l-290 731h-64q-13 0 -21 0.5t-21 3.5t-20.5 9t-13.5 18.5t-6 29.5zM225 1147q0 43 30 73.5t71 30.5t71.5 -29.5t30.5 -72.5 q0 -42 -28.5 -72t-71.5 -30q-44 0 -73.5 30t-29.5 70zM643 1147q0 42 29 73t71 31q44 0 73.5 -31t29.5 -71q0 -43 -29.5 -72.5t-73.5 -29.5t-72 30t-28 70z" />
<glyph unicode="&#x152;" d="M59 672v55q2 78 4 126.5t6.5 104.5t9.5 88.5t15.5 69.5t23 56t32 40t42.5 30.5t55.5 18t69.5 11t86 2.5q41 0 104.5 -11.5t90.5 -11.5h344q14 0 23.5 -2t22 -8t19.5 -22t7 -41v-172q0 -30 -12 -48t-23.5 -22t-22.5 -4q-12 0 -23 4t-22.5 21.5t-11.5 46.5v120h-246v-411 h258q39 0 55.5 -19t16.5 -47q0 -22 -7 -35t-22 -18.5t-26 -6.5t-31 -1h-244v-459h260v149q0 42 18.5 58t41.5 16q57 0 57 -71v-203q0 -26 -6.5 -42.5t-19.5 -23.5t-23 -8.5t-25 -1.5h-338q-52 0 -112 -11.5t-103 -11.5q-66 0 -112.5 4t-84.5 24.5t-61 35.5t-40.5 66.5 t-25.5 86t-13 125.5t-6 153.5t-1 199.5zM176 637q0 -191 9 -293t24.5 -142.5t46.5 -62.5q54 -37 154 -37q34 0 57 10.5t36 25.5t20 48.5t9.5 61t4.5 82.5v583q-3 141 -27.5 187.5t-103.5 46.5q-43 0 -75 -4.5t-56.5 -19.5t-41 -29t-27.5 -48t-17 -60t-9 -82.5t-3.5 -97 t-0.5 -120.5v-49z" />
<glyph unicode="&#x153;" d="M37 442q0 192 85.5 324.5t211.5 132.5q142 0 237 -178q13 28 30.5 54.5t45 56.5t66.5 48.5t82 18.5q32 0 62 -10.5t63 -40.5t57.5 -76.5t40.5 -125t16 -179.5q0 -26 -6.5 -42.5t-19 -23.5t-21.5 -8.5t-24 -1.5h-328q12 -120 66.5 -197t115.5 -77q65 0 94 90l5 15 q4 16 7.5 22t10.5 17t18.5 15.5t26.5 4.5q21 0 37 -16.5t16 -41.5q0 -22 -8 -51t-26 -61t-43 -59t-62 -44.5t-80 -17.5q-143 0 -240 180q-42 -88 -104 -134t-135 -46q-86 0 -154.5 63t-105.5 166t-37 223zM154 457q0 -144 54.5 -242t125.5 -98q69 0 125.5 98t56.5 242 q0 135 -56 225t-126 90q-65 0 -122.5 -85.5t-57.5 -229.5zM635 516h283q-3 103 -36.5 179.5t-84.5 76.5q-61 0 -106.5 -80t-55.5 -176z" />
<glyph unicode="&#x178;" d="M39 1190q0 17 6 29.5t13.5 18.5t20.5 9t21 3.5t21 0.5h213q13 0 21 -0.5t21 -3.5t20.5 -9t13.5 -18.5t6 -29.5q0 -23 -7 -36.5t-22.5 -19t-28 -7t-36.5 -1.5q0 -1 36.5 -77t68.5 -143.5t66 -147t44 -115.5l215 483q-19 0 -29.5 0.5t-25 4t-22 10t-13 19t-5.5 30.5 q0 17 6 29.5t13.5 18.5t20.5 9t21 3.5t21 0.5h213q18 0 28 -1t24.5 -6.5t22 -19.5t7.5 -36q0 -28 -15.5 -43t-30 -17t-36.5 -2h-43l-301 -626v-375h51q17 0 27.5 -1.5t25 -7t22 -19.5t7.5 -36q0 -17 -6 -29.5t-13.5 -18.5t-20.5 -9t-21 -3.5t-21 -0.5h-243q-18 0 -28 1 t-24.5 6.5t-22 19.5t-7.5 36q0 28 15.5 43t30 17t36.5 2h51v375l-303 626h-43q-17 0 -27.5 1.5t-25 7t-22 19.5t-7.5 36zM223 1573q0 43 30 73.5t73 30.5q41 0 71.5 -29.5t30.5 -72.5q0 -42 -29 -72t-73 -30q-41 0 -72 28.5t-31 71.5zM641 1573q0 42 30 73t72 31 q41 0 72 -29.5t31 -72.5t-29.5 -72.5t-73.5 -29.5t-73 30t-29 70z" />
<glyph unicode="&#x2c6;" d="M205 1079q0 35 45 62q244 162 258 170q17 8 29 8h2q15 0 49 -21t235 -155q47 -29 47 -66q0 -22 -21.5 -50t-49.5 -28h-4q-23 0 -133.5 82t-124.5 82q-3 0 -6 -0.5t-6.5 -2.5t-6.5 -4t-8.5 -5.5t-10 -6.5t-12.5 -9t-14 -11q-25 -18 -65 -47q-71 -51 -93 -64.5t-39 -13.5 q-28 0 -49.5 27.5t-21.5 52.5z" />
<glyph unicode="&#x2dc;" d="M180 1071q0 28 33 57q134 123 225 123q38 0 71.5 -17t53 -38t41 -38t37.5 -17q29 0 66 27t69.5 54t50.5 27q25 0 45.5 -18.5t20.5 -44.5q0 -25 -33 -58q-128 -122 -227 -122q-39 0 -71.5 17t-50.5 37t-39.5 37t-39.5 17q-28 0 -65 -27t-70.5 -54t-52.5 -27 q-28 0 -46 20.5t-18 44.5z" />
<glyph unicode="&#x2000;" horiz-adv-x="847" />
<glyph unicode="&#x2001;" horiz-adv-x="1694" />
<glyph unicode="&#x2002;" horiz-adv-x="847" />
<glyph unicode="&#x2003;" horiz-adv-x="1694" />
<glyph unicode="&#x2004;" horiz-adv-x="564" />
<glyph unicode="&#x2005;" horiz-adv-x="423" />
<glyph unicode="&#x2006;" horiz-adv-x="282" />
<glyph unicode="&#x2007;" horiz-adv-x="282" />
<glyph unicode="&#x2008;" horiz-adv-x="211" />
<glyph unicode="&#x2009;" horiz-adv-x="338" />
<glyph unicode="&#x200a;" horiz-adv-x="94" />
<glyph unicode="&#x2010;" d="M178 442q0 62 72 62h575q37 0 52.5 -19t15.5 -43q0 -63 -72 -63h-575q-38 1 -53 20t-15 43z" />
<glyph unicode="&#x2011;" d="M178 442q0 62 72 62h575q37 0 52.5 -19t15.5 -43q0 -63 -72 -63h-575q-38 1 -53 20t-15 43z" />
<glyph unicode="&#x2012;" d="M178 442q0 62 72 62h575q37 0 52.5 -19t15.5 -43q0 -63 -72 -63h-575q-38 1 -53 20t-15 43z" />
<glyph unicode="&#x2013;" d="M178 442q0 62 72 62h575q37 0 52.5 -19t15.5 -43q0 -63 -72 -63h-575q-38 1 -53 20t-15 43z" />
<glyph unicode="&#x2014;" d="M178 442q0 62 72 62h575q37 0 52.5 -19t15.5 -43q0 -63 -72 -63h-575q-38 1 -53 20t-15 43z" />
<glyph unicode="&#x2018;" d="M348 961q0 78 25 150.5t62 121.5t79 86.5t75.5 55.5t51.5 18q25 0 44.5 -20.5t19.5 -45.5q0 -12 -4 -21.5t-12 -17t-13.5 -11.5t-17 -10t-13.5 -7q-25 -15 -49.5 -36.5t-54 -58t-47.5 -92.5t-19 -121q34 15 62 15q56 0 92.5 -38.5t36.5 -90.5q0 -53 -36 -90t-93 -37 q-84 0 -136.5 71.5t-52.5 178.5z" />
<glyph unicode="&#x2019;" d="M369 633q0 12 3.5 21.5t12 17t13.5 11.5t16.5 10t13.5 7q26 16 49.5 37t53.5 58t48 92.5t19 120.5q-29 -13 -61 -13q-57 0 -93 37t-36 90t35 91t92 38q85 0 137.5 -71.5t52.5 -180.5q0 -77 -25 -148.5t-62 -121t-78.5 -87t-75.5 -55.5t-52 -18q-25 0 -44 19.5t-19 44.5z " />
<glyph unicode="&#x201a;" d="M369 -219q0 19 11.5 32t20.5 16.5t25 8.5q120 39 152 168q-21 -6 -41 -6q-53 0 -90 36t-37 93q0 52 35 89.5t94 37.5q70 0 120 -57t50 -148q0 -64 -22.5 -121t-55.5 -95t-71.5 -66t-71.5 -41t-54 -13q-26 0 -45.5 21t-19.5 45z" />
<glyph unicode="&#x201c;" d="M20 915q0 75 31.5 142t75 106.5t84.5 62.5t65 23t44 -19.5t20 -43.5q0 -22 -14 -36t-37 -25t-47.5 -26.5t-49.5 -50.5t-40 -87q36 6 38 6h3q56 0 91 -37.5t35 -91.5q0 -53 -35 -90t-91 -37q-76 0 -124.5 59.5t-48.5 144.5zM711 915q0 61 20.5 117t51.5 94t67 67t66 42.5 t49 13.5h2q24 0 43.5 -19.5t19.5 -43.5q0 -22 -14 -36t-37 -25t-47.5 -26.5t-49.5 -50.5t-40 -87q36 6 39 6h2q56 0 91.5 -37.5t35.5 -91.5q0 -52 -35.5 -89.5t-91.5 -37.5q-76 0 -124 59.5t-48 144.5z" />
<glyph unicode="&#x201d;" d="M43 774q0 22 14.5 36t37.5 25t48 26.5t50 50.5t40 87q-24 -4 -38 -4h-2q-56 0 -93 37t-37 90q0 51 36 90t96 39q74 0 122 -61t48 -143q0 -75 -31 -142t-74.5 -107.5t-84.5 -63.5t-66 -23q-26 0 -46 19.5t-20 43.5zM733 776q0 22 14.5 35.5t37 24t47.5 25.5t50 50t40 88 q-24 -4 -39 -4h-2q-56 0 -91.5 36.5t-35.5 90.5q0 51 34.5 90t94.5 39q67 0 118.5 -55.5t51.5 -148.5q0 -75 -31 -142t-74.5 -107.5t-84.5 -63.5t-66 -23q-26 0 -45 20t-19 45z" />
<glyph unicode="&#x201e;" d="M43 -219q0 22 14.5 36t37.5 25t48 26.5t50 50.5t40 87q-24 -4 -38 -4h-2q-56 0 -93 37t-37 90q0 51 36 90t96 39q74 0 122 -61t48 -144q0 -75 -31 -142t-74.5 -107.5t-84.5 -63.5t-66 -23q-26 0 -46 20t-20 44zM733 -217q0 22 14.5 35.5t37 24t47.5 25.5t50 50t40 88 q-24 -4 -39 -4h-2q-56 0 -91.5 36.5t-35.5 90.5q0 51 34.5 90t94.5 39q66 0 118 -56t52 -149q0 -75 -31 -142t-74.5 -107.5t-84.5 -63.5t-66 -23q-26 0 -45 20.5t-19 45.5z" />
<glyph unicode="&#x2022;" d="M119 627q0 118 59 214.5t154.5 149.5t204.5 53q177 0 297 -123.5t120 -293.5q0 -178 -124 -298t-293 -120q-170 0 -294 120.5t-124 297.5z" />
<glyph unicode="&#x2026;" d="M100 129q0 49 37 88t92 39q52 0 89.5 -36.5t37.5 -90.5q0 -50 -36 -89.5t-91 -39.5q-52 0 -90.5 37.5t-38.5 91.5zM408 129q0 49 37 88t92 39q52 0 89.5 -36.5t37.5 -90.5q0 -50 -36 -89.5t-91 -39.5q-52 0 -90.5 37.5t-38.5 91.5zM715 129q0 49 37 88t92 39 q52 0 89.5 -36.5t37.5 -90.5q0 -50 -36 -89.5t-91 -39.5q-52 0 -90.5 37.5t-38.5 91.5z" />
<glyph unicode="&#x202f;" horiz-adv-x="338" />
<glyph unicode="&#x2039;" d="M133 451q0 32 41 59l518 371q25 18 49 18q26 0 44 -17t18 -40q0 -32 -33 -56q-421 -305 -469 -335v-2q37 -23 469 -336q33 -25 33 -56q0 -22 -16.5 -39.5t-45.5 -17.5q-9 0 -15 1t-14.5 5t-11.5 6t-15 11t-17 12l-494 354q-41 27 -41 62z" />
<glyph unicode="&#x203a;" d="M268 57q0 31 35 56q432 313 469 336v2q-48 30 -469 335q-35 26 -35 56q0 24 18.5 40.5t45.5 16.5q16 0 29 -5.5t28.5 -17.5t16.5 -12l491 -354q41 -27 41 -59q0 -35 -41 -62l-516 -371q-25 -18 -49 -18q-26 0 -45 16t-19 41z" />
<glyph unicode="&#x205f;" horiz-adv-x="423" />
<glyph unicode="&#x20ac;" d="M0 539q1 25 10.5 42.5t23 24.5t24.5 9.5t22 2.5h10v25h-16q-74 0 -74 59q0 3 1 8t5.5 18.5t12.5 23.5t24 18t37 8h24v2q15 82 55.5 164t104 154.5t158.5 118t205 45.5q74 0 140.5 -24.5t110.5 -60.5t77 -77t48 -74t15 -51q0 -23 -17 -51.5t-49 -28.5q-23 0 -35 13.5 t-26 44t-27 48.5q-41 58 -104 90.5t-135 32.5q-55 0 -108 -18.5t-104.5 -57t-95.5 -108t-71 -162.5h612q30 0 45 -16t15 -41q0 -78 -84 -78h-607v-25h561q39 0 53.5 -18.5t14.5 -38.5q0 -9 -2.5 -19.5t-9.5 -26t-25.5 -25t-44.5 -9.5h-528q38 -155 143.5 -249.5t235.5 -94.5 q58 0 108.5 19t83.5 49t52.5 56t31.5 50l5 10t7 12.5t8.5 12t10.5 11.5t13.5 7t17.5 3q21 0 38 -16.5t17 -49.5q0 -36 -27.5 -86t-75 -98.5t-124.5 -82.5t-164 -34q-90 0 -170 30.5t-138.5 80t-104.5 113.5t-72.5 129t-37.5 128h-32q-38 0 -55 18t-17 40z" />
<glyph unicode="&#x2122;" d="M0 1358q0 21 10 34.5t26 19t27.5 7.5t22.5 2h358q44 0 58 -8q35 -18 35 -55q0 -24 -19.5 -44t-68.5 -20q-2 0 -5.5 1t-5.5 1h-98v-522v-7.5v-9t-0.5 -9t-1.5 -10t-3 -9.5t-5.5 -10t-8 -9t-10.5 -10q-15 -12 -43 -12q-72 0 -71 86v4v518h-97q-2 0 -6 -1t-6 -1 q-48 0 -68 19t-20 45zM555 764v598q0 82 72 82q37 0 55.5 -27t77.5 -164q9 -20 14 -31.5t14 -32t17 -38.5q93 209 105 234.5t22 35.5q23 23 53 23q28 0 50 -17.5t22 -62.5v-598q1 -40 -22 -59t-50 -19q-73 8 -72 92v224q0 7 -1 20t-1 20q-36 -87 -52 -106q-21 -25 -54 -25 q-12 0 -22 2.5t-19 9.5t-14 12.5t-13 20.5t-11.5 23t-13 30t-14.5 33v-270q0 -86 -71 -86q-14 0 -28 4.5t-28.5 23t-15.5 48.5z" />
<glyph unicode="&#xe000;" horiz-adv-x="880" d="M0 0v881h881v-881h-881z" />
<glyph unicode="&#xfb01;" d="M23 63q0 64 75 64h99v629h-70q-74 0 -74 61q0 64 72 64h72v110q0 70 39 124.5t102.5 85.5t133 46t140.5 15q77 0 132 -16t82.5 -42t39 -52t11.5 -54q0 -40 -27.5 -67t-65.5 -27q-36 0 -63 25t-27 67q0 8 4 28q-47 13 -98 13q-98 0 -165 -32.5t-87 -72.5q-8 -14 -8 -61 v-90h465q27 0 43 -7t21.5 -23t6.5 -24t1 -28v-672h98q76 0 76 -64q0 -26 -17 -44.5t-57 -18.5h-338q-74 0 -74 63q0 64 80 64h88v629h-393v-629h92q76 0 76 -64q0 -63 -74 -63h-338q-73 0 -73 63z" />
<glyph unicode="&#xfb02;" d="M23 63q0 64 75 64h99v629h-70q-74 0 -74 61q0 64 72 64h72v110q0 72 39.5 126.5t104 85t137 45t149.5 14.5q72 0 113.5 -5.5t43.5 -5.5h7v-6q20 4 28 4q58 0 58 -73v-1049h98q76 0 76 -64q0 -26 -17 -44.5t-57 -18.5h-338q-74 0 -74 63q0 64 80 64h88v629h-393v-629h92 q76 0 76 -64q0 -63 -74 -63h-338q-73 0 -73 63zM340 881h393v188q-8 8 -13.5 15t-8.5 14.5t-4.5 11t-3 12.5t-1.5 11q-62 4 -92 4h-2q-118 0 -193 -41.5t-75 -110.5v-104z" />
<glyph unicode="&#xfb03;" d="M-8 63q0 64 76 64h41v629q-74 0 -74 65q0 26 17.5 43t53.5 17h3v108q0 67 28.5 121.5t73.5 86t97 48.5t104 17q93 0 157 -64h2q37 30 91 47t106 17q90 0 144.5 -51.5t54.5 -112.5q0 -43 -27 -68.5t-63 -25.5q-39 0 -66 27t-27 65q0 13 7 34q-30 5 -33 5q-15 0 -32 -3.5 t-38.5 -13.5t-38 -26t-28 -43.5t-11.5 -63.5v-104h285q26 0 42 -7t22 -22.5t7 -24.5t1 -28v-672h41q75 0 75 -64q0 -14 -4.5 -27t-21.5 -24.5t-45 -11.5h-207q-36 0 -53 17.5t-17 43.5q0 66 78 66h10v629h-213v-629h13q39 0 57 -16.5t18 -42.5q0 -27 -16 -47.5t-57 -20.5 h-176q-36 0 -54 17.5t-18 43.5q0 23 12 40.5t33 21.5q14 4 45 4v629h-215v-629h10q78 0 78 -66q0 -26 -17 -43.5t-53 -17.5h-207q-39 0 -55 18.5t-16 44.5zM252 881h215v137q-39 34 -39 74q0 17 6 38q-25 5 -35 5q-20 0 -42.5 -6.5t-47.5 -21t-41 -46t-16 -74.5v-106z" />
<glyph unicode="&#xfb04;" d="M-8 63q0 64 76 64h41v629q-74 0 -74 63q0 26 17.5 44t51.5 18h5v108q0 54 18.5 100t49.5 77.5t70.5 53.5t82 32t84.5 10q101 0 161 -60q88 60 199 60q34 0 66.5 -5t42.5 -6v-4q3 0 11 1t13 1q60 0 60 -71v-1051h41q75 0 75 -64q0 -14 -4.5 -27t-21.5 -24.5t-45 -11.5 h-207q-36 0 -53 17.5t-17 43.5q0 66 78 66h10v629h-213v-629h13q39 0 57 -16.5t18 -42.5q0 -27 -16 -47.5t-57 -20.5h-176q-36 0 -54 17.5t-18 43.5q0 23 12 40.5t33 21.5q14 4 45 4v629h-215v-629h10q78 0 78 -66q0 -26 -17 -43.5t-53 -17.5h-207q-39 0 -55 18.5t-16 44.5z M252 881h215v80l4 86l-5 5l-6.5 6.5t-7 8t-7 10.5t-5.5 12t-4.5 15.5t-1.5 17.5q0 2 1 5.5t1 5.5q-12 2 -35 2q-24 0 -47.5 -7t-47.5 -22t-39 -46t-15 -73v-106zM610 881h213v188l-18 23l-10 24l-2 19h-27q-62 0 -109 -34t-47 -114v-106z" />
</font>
</defs>
</svg>
