<?xml version="1.0" standalone="no"?>
<!DOCTYPE svg PUBLIC "-//W3C//DTD SVG 1.1//EN" "http://www.w3.org/Graphics/SVG/1.1/DTD/svg11.dtd" >
<svg xmlns="http://www.w3.org/2000/svg">
<metadata></metadata>
<defs>
<font id="cmu_serif_extraromanslanted" horiz-adv-x="1024" >
<font-face units-per-em="2048" ascent="1638" descent="-410" />
<missing-glyph horiz-adv-x="681" />
<glyph unicode="&#xfb01;" horiz-adv-x="1136" d="M55 0l11 63h10q54 0 83.5 3.5t47 17t23.5 29.5t12 51l108 655h-157l10 62h159q37 243 48 280q35 120 173.5 201.5t307.5 81.5q104 0 169.5 -52t65.5 -130q0 -52 -31.5 -85.5t-76.5 -33.5q-34 0 -58 23t-24 59q0 21 8 42.5t36 42t71 21.5q-66 66 -164 66 q-114 0 -216 -70.5t-130 -179.5q-3 -14 -11 -60t-19 -109t-17 -97h278v4l299 22q-4 -31 -35 -221l-88 -524q-6 -36 -6 -43q0 -33 26.5 -44.5t94.5 -11.5h27l-11 -63q-111 6 -223 6q-114 0 -231 -6l10 63h10q70 0 101.5 8t43 25t19.5 60q14 82 36 214q60 357 60 392 q0 57 -92 57h-324l-110 -665q-4 -20 -4 -35q0 -33 26.5 -44.5t98.5 -11.5h22l-10 -63q-111 6 -225 6q-115 0 -232 -6z" />
<glyph unicode="&#xfb02;" horiz-adv-x="1136" d="M55 0l11 63h10q54 0 83.5 3.5t47 17t23.5 29.5t12 51l108 655h-157l10 62h159q32 232 61.5 310t119.5 144q150 109 350 109q62 0 99 -8t55.5 -16.5t37.5 -8.5q8 0 72 10q-5 -39 -22 -139l-187 -1126q-6 -36 -6 -37q0 -34 27.5 -45t103.5 -11h17l-11 -63q-111 6 -223 6 q-114 0 -231 -6l10 63h10q54 0 83.5 3.5t47 17t23.5 29.5t12 51l109 655h-431l-110 -665q-4 -20 -4 -35q0 -33 26.5 -44.5t98.5 -11.5h22l-10 -63q-111 6 -225 6q-115 0 -232 -6zM494 881h436l57 338q-39 33 -39 67q0 59 66 96q-52 15 -123 15t-131.5 -21.5t-100.5 -56 t-64 -64.5t-38 -59q-6 -12 -11 -28.5t-8.5 -32t-9 -46t-9 -53t-11.5 -71.5t-14 -84z" />
<glyph unicode="&#xfb03;" horiz-adv-x="1705" d="M55 0l11 63h10q54 0 83.5 3.5t47 17t23.5 29.5t12 51l108 655h-157l10 62h159q7 48 25.5 156.5t24.5 127.5q37 117 174.5 198t298.5 81q157 0 221 -113q34 22 54 33.5t68.5 34t106 34t121.5 11.5q110 0 175 -51.5t65 -128.5q0 -60 -35 -90.5t-74 -30.5q-35 0 -59.5 23 t-24.5 59q0 35 27.5 70t89.5 36q-66 66 -164 66q-114 0 -217 -70.5t-131 -179.5q-3 -14 -11 -60.5t-18 -108.5t-16 -97h276v4l301 22q-4 -33 -10.5 -70t-14 -81.5t-11.5 -69.5l-86 -524q-7 -42 -7 -43q0 -33 26.5 -44.5t94.5 -11.5h27l-10 -63q-111 6 -226 6q-114 0 -231 -6 l10 63h10q70 0 102 8t44 25.5t20 59.5q14 82 28.5 169.5t23 137.5t17.5 102.5t13.5 80t8 54t5 40t1.5 22.5q0 57 -95 57h-321l-113 -665q-4 -20 -4 -35q0 -33 27.5 -44.5t99.5 -11.5h21l-11 -63q-111 6 -223 6q-114 0 -231 -6l10 63h10q54 0 83.5 3.5t47 17t23.5 29.5t12 51 l109 655h-431l-110 -665q-4 -20 -4 -35q0 -33 26.5 -44.5t98.5 -11.5h22l-10 -63q-111 6 -225 6q-115 0 -232 -6zM494 881h436l45 268q-45 30 -45 74q0 33 26.5 69t90.5 39q-66 66 -164 66q-118 0 -215.5 -71.5t-126.5 -176.5q-4 -18 -47 -268z" />
<glyph unicode="&#xfb04;" horiz-adv-x="1705" d="M55 0l11 63h10q54 0 83.5 3.5t47 17t23.5 29.5t12 51l108 655h-157l10 62h159q7 48 25.5 156.5t24.5 127.5q40 126 179 202.5t298 76.5q165 0 227 -105q153 105 346 105q64 0 101.5 -8t55.5 -16.5t36 -8.5q7 0 71 10q-5 -39 -22 -139l-188 -1126q-5 -30 -5 -37 q0 -34 27.5 -45t103.5 -11h17l-10 -63q-111 6 -226 6q-114 0 -231 -6l10 63h10q54 0 83.5 3.5t47 17t23.5 29.5t12 51l111 655h-430l-113 -665q-4 -20 -4 -35q0 -33 27.5 -44.5t99.5 -11.5h21l-11 -63q-111 6 -223 6q-114 0 -231 -6l10 63h10q54 0 83.5 3.5t47 17t23.5 29.5 t12 51l109 655h-431l-110 -665q-4 -20 -4 -35q0 -33 26.5 -44.5t98.5 -11.5h22l-10 -63q-111 6 -225 6q-115 0 -232 -6zM494 881h436l45 264l12 43q-43 29 -43 69q0 75 90 103q-56 37 -149 37q-117 0 -215.5 -69.5t-128.5 -180.5q-13 -57 -47 -266zM1063 881h436l55 338 q-36 31 -36 67q0 61 63 96q-52 15 -123 15q-57 0 -108.5 -15t-86.5 -37t-64.5 -51t-45.5 -52.5t-27 -45.5q-6 -12 -11 -28.5t-8.5 -32t-9 -46t-9 -53t-11.5 -71.5t-14 -84z" />
<glyph horiz-adv-x="0" />
<glyph unicode="&#xd;" horiz-adv-x="2048" />
<glyph unicode=" "  horiz-adv-x="681" />
<glyph unicode="&#x09;" horiz-adv-x="681" />
<glyph unicode="&#xa0;" horiz-adv-x="681" />
<glyph unicode="!" horiz-adv-x="569" d="M195 94q0 50 36.5 85.5t83.5 35.5q42 0 69.5 -28t27.5 -66q0 -47 -36.5 -84t-86.5 -37q-38 0 -66 27t-28 67zM328 420v22l71 891q3 42 18.5 71t37.5 41t38 16.5t31 4.5q40 0 68.5 -24.5t28.5 -63.5q0 -18 -7 -43l-229 -905q-10 -43 -33 -45q-24 0 -24 35z" />
<glyph unicode="&#x22;" d="M434 711q0 17 17 320.5t20 326.5q7 46 38.5 71t70.5 25h2q33 0 56.5 -19.5t23.5 -54.5q0 -18 -29.5 -125.5t-78 -277t-73.5 -266.5h-47zM776 711q6 90 11 175t8 142t5.5 110t4.5 86t3.5 62.5t3.5 46t4 30.5t5.5 22t7 14.5t9.5 13.5q30 41 86 41h2q33 0 55.5 -19.5 t22.5 -54.5q0 -15 -45 -182t-91 -327l-45 -160h-47z" />
<glyph unicode="#" horiz-adv-x="1705" d="M168 313q0 23 47 23h375l153 352h-460q-47 0 -47 23q0 24 49 24h481l268 608q25 60 36 69q6 5 13 5q19 0 19 -20q0 -24 -23 -70l-262 -592h436l271 608q25 60 36 69q6 5 13 5q18 0 18 -20q0 -22 -24 -70l-262 -592h350q49 0 49 -24q0 -23 -45 -23h-375l-156 -352h461 q49 0 49 -23q0 -24 -49 -24h-483l-289 -656l-14 -22l-8 -4h-9q-15 3 -18 20l8 25l279 637h-437l-288 -656l-17 -22l-6 -4h-10q-13 3 -16 20l6 25l280 637h-350q-49 0 -49 24zM639 336h438l156 352h-438z" />
<glyph unicode="$" d="M168 295q0 88 29 129q30 43 86 43q36 0 59 -23t23 -57q0 -45 -31.5 -74.5t-77.5 -29.5q-11 0 -35 4q3 -32 8.5 -58t23 -60.5t44.5 -59t76 -44t114 -24.5l101 612q-1 0 -7 1q-199 42 -267 187q-31 65 -31 148q0 74 30 149t84 140.5t138.5 110.5t185.5 55l14 92h64l-17 -92 q76 -7 134 -30.5t91 -54t53.5 -70.5t27 -74t6.5 -70q0 -162 -113 -162q-35 0 -58.5 22t-23.5 58q0 42 29.5 73t79.5 31q20 0 32 -2q-22 198 -268 215l-92 -555q185 -37 259 -175q42 -77 42 -179q0 -60 -17 -123.5t-54 -125t-88 -112t-124.5 -85.5t-158.5 -45l-15 -93h-63 l14 93q-76 7 -133.5 32.5t-89.5 57.5t-52 74.5t-26 77.5t-6 73zM401 1067q0 -29 6 -54.5t16 -45t24 -36t29.5 -28.5t32.5 -22.5t32 -16.5t30 -11t25 -7.5t18 -3.5l7 -2l90 538q-97 -14 -170 -65.5t-106.5 -116t-33.5 -129.5zM551 43q135 18 224 121.5t89 226.5q0 43 -12 80 t-28 61t-42 44t-43.5 30t-43 18.5t-30.5 9.5t-16 3z" />
<glyph unicode="%" horiz-adv-x="1705" d="M272 -74q0 16 23 43l1141 1362v2q-129 -65 -273 -65q-166 0 -301 90q17 -61 17 -131q0 -126 -47 -245.5t-127 -195t-168 -75.5q-44 0 -86.5 20t-77.5 58.5t-56.5 102t-21.5 142.5q0 99 33 192.5t85.5 161t120 108t134.5 40.5q49 0 80.5 -19t62.5 -53q135 -151 352 -151 q78 0 150.5 20t124.5 52.5t85 60.5t56 55q25 35 49 35q16 0 28.5 -12t12.5 -29t-24 -45l-1287 -1536q-25 -29 -45 -29q-17 0 -29 12t-12 29zM412 967q0 -95 36 -153t93 -58q68 0 134.5 66t109 177t42.5 230q0 110 -43 186t-114 76q-58 0 -110.5 -53.5t-84.5 -130.5 q-29 -73 -46 -179.5t-17 -160.5zM1063 207q0 126 53.5 243.5t141 189t180.5 71.5q68 0 117.5 -47t71.5 -115.5t22 -147.5q0 -124 -46.5 -243.5t-126.5 -196t-169 -76.5q-107 0 -175.5 93.5t-68.5 228.5zM1182 141q0 -85 33 -148t96 -63q68 0 134.5 66.5t109 177.5t42.5 229 q0 108 -43 185.5t-114 77.5q-60 0 -113.5 -56t-85.5 -137q-26 -71 -42.5 -177t-16.5 -155z" />
<glyph unicode="&#x26;" horiz-adv-x="1591" d="M127 221q0 131 111 232l301 272q-29 117 -29 246q0 212 70 325q44 72 118 121t156 49q41 0 70.5 -17.5t44.5 -47.5t21.5 -61.5t6.5 -67.5q0 -58 -12.5 -102.5t-61 -115t-141.5 -163.5q-63 -58 -110 -105q25 -114 90.5 -255.5t100 -199.5t55.5 -89q116 105 372 454 q17 17 17 45q0 27 -18 45t-45.5 24.5t-42.5 8.5t-25 2l12 62q92 -6 250 -6q84 0 198 6q-2 -10 -5 -32t-5 -32q-132 0 -225 -74q-27 -21 -88.5 -104t-162 -210.5t-204.5 -233.5q75 -103 135 -141t117 -38q91 0 171 65.5t97 164.5h52q-24 -129 -122 -211t-212 -82 q-182 0 -336 156q-189 -156 -395 -156q-137 0 -231.5 73t-94.5 193zM303 246q0 -14 1 -27.5t5 -44t15.5 -54.5t29 -49t48.5 -39t71 -14q20 0 43 3t71.5 14t108.5 41.5t117 77.5q-64 79 -144.5 228.5t-117.5 291.5q-129 -109 -166 -160q-34 -49 -54.5 -112.5t-24 -97 t-3.5 -58.5zM647 1018q0 -77 15 -180q79 73 134 134t84 102t44.5 81t18.5 64t3 59q0 143 -90 143q-19 0 -39.5 -5.5t-53 -29.5t-56.5 -64t-42 -119.5t-18 -184.5z" />
<glyph unicode="'" horiz-adv-x="569" d="M379 711q9 121 15 242t8.5 189.5t6 128t8.5 90t15 44.5q32 49 94 49q34 0 57 -19.5t23 -54.5q0 -16 -45 -183t-90 -327l-45 -159h-47z" />
<glyph unicode="(" horiz-adv-x="794" d="M264 244q0 324 121.5 625t292.5 477q80 82 147.5 136t83.5 54q21 0 21 -20q0 -6 -4 -10.5t-23 -22.5q-104 -89 -188.5 -203.5t-138 -224t-93.5 -233t-59.5 -218.5t-31 -193t-13.5 -145t-2 -86q0 -395 198 -641q21 -24 21 -31q0 -20 -21 -20q-25 0 -97.5 88t-119.5 193 q-94 208 -94 475z" />
<glyph unicode=")" horiz-adv-x="794" d="M35 -492q0 7 28 35q125 104 222 248.5t152.5 284.5t91 292t47.5 264.5t12 209.5q0 409 -203 647q-16 18 -16 27q0 20 22 20q7 0 26 -14.5t46 -44.5t56 -69t59.5 -95t52.5 -115q69 -190 69 -420q0 -84 -10 -176.5t-39 -217t-75.5 -242.5t-127.5 -249t-186 -241 q-46 -46 -117 -105t-90 -59q-20 0 -20 20z" />
<glyph unicode="*" d="M283 895q0 14 4.5 24.5t14 17.5t17 11t21.5 10l309 138l-262 133q-22 10 -31.5 20t-9.5 27q0 25 20 46t46 21q19 0 45 -22l221 -184l22 321q10 78 66 78q25 0 37 -14t12 -31q0 -7 -6 -31l-86 -323l289 186q29 20 45 20q20 0 33.5 -14.5t13.5 -34.5q0 -18 -9.5 -31.5 t-19.5 -19.5t-26 -12l-310 -137l260 -133q15 -8 21.5 -12t13 -13.5t6.5 -22.5q0 -27 -21 -47t-44 -20q-19 0 -45 22l-219 185l-25 -322q-8 -78 -65 -78q-23 0 -35.5 13.5t-12.5 29.5q0 11 5 31l86 326l-289 -187q-29 -20 -45 -20q-21 0 -34 14.5t-13 34.5z" />
<glyph unicode="+" horiz-adv-x="1593" d="M203 512q0 25 49 25q7 0 17 -1t12 -1h581q2 17 51 315.5t52 308.5q5 31 24 31q23 0 23 -31l-105 -624h576q3 0 13 1t15 1q48 0 48 -25t-50 -25q-7 0 -16.5 1t-11.5 1h-580l-98 -581q-1 -3 -3 -18.5t-4 -26t-8.5 -20t-15.5 -9.5q-22 0 -22 31q0 11 8 51l96 573h-573 q-3 0 -14 -1t-17 -1q-47 0 -47 25z" />
<glyph unicode="," horiz-adv-x="567" d="M145 -373q0 10 13 19q193 169 217 389q-31 -35 -86 -35q-49 0 -72.5 28.5t-23.5 63.5q0 48 34.5 86.5t89.5 38.5q29 0 50.5 -13.5t31.5 -31t15.5 -42t6.5 -37t1 -25.5q0 -71 -23.5 -144.5t-57.5 -128t-71 -99t-64.5 -68t-37.5 -23.5q-9 0 -16 6.5t-7 15.5z" />
<glyph unicode="-" horiz-adv-x="681" d="M84 381l20 121h545l-20 -121h-545z" />
<glyph unicode="." horiz-adv-x="569" d="M195 94q0 46 35.5 83.5t84.5 37.5q42 0 69.5 -27.5t27.5 -66.5q0 -46 -36.5 -83.5t-86.5 -37.5q-44 0 -69 29t-25 65z" />
<glyph unicode="/" d="M35 -485q0 7 16 39l1016 1880q38 68 49 83t23 15q6 0 12 -5.5t6 -17.5q0 -5 -2 -10.5t-5.5 -12t-4.5 -9.5l-1045 -1930q-2 -4 -6.5 -12t-6.5 -12t-5.5 -10t-6 -9t-6 -6t-7 -4.5t-7.5 -1.5q-9 0 -14.5 7t-5.5 16z" />
<glyph unicode="0" d="M162 389q0 120 37 323t96 322q14 28 23 45t33.5 55.5t47 64.5t60 60t76.5 54.5t92 35.5t110 15q82 0 145 -29t99.5 -73t59.5 -105.5t30.5 -116t7.5 -114.5q0 -46 -8 -135t-40.5 -241.5t-82.5 -262.5q-75 -170 -193 -251t-251 -81q-65 0 -117.5 17.5t-87.5 45.5t-61 67.5 t-40 78t-22.5 83.5t-11 77t-2.5 65zM313 264q0 -65 14.5 -115t35.5 -77.5t50 -44.5t52 -22t47 -5q21 0 43.5 4t56.5 20t64.5 42t63 75t55.5 115q40 118 88.5 406t48.5 401q0 66 -16 115t-38.5 75t-52.5 42t-51.5 20t-42.5 4q-27 0 -57 -8t-69 -28t-77.5 -65t-66.5 -110 q-46 -109 -97 -416t-51 -428z" />
<glyph unicode="1" d="M195 0l10 63h63q57 0 94.5 4t58.5 9t32.5 19t14.5 24.5t7 34.5l178 1069q-121 -54 -274 -54q2 10 5 32t5 32q248 0 393 131q16 0 23 -1t13.5 -7t6.5 -19q0 -10 -4 -28l-190 -1137q-6 -33 -6 -47q0 -24 12 -36.5t51.5 -19t118.5 -6.5h61q-1 -10 -5 -33t-5 -30 q-72 6 -332 6q-259 0 -331 -6z" />
<glyph unicode="2" d="M102 0q0 45 31 76l438 409q185 174 257.5 306.5t72.5 255.5q0 111 -55.5 182t-165.5 71q-93 0 -178 -55t-135 -153q8 2 22 2q43 0 68.5 -24.5t25.5 -65.5q0 -55 -37.5 -90t-85.5 -35q-12 0 -25 3t-30 11.5t-28 28.5t-11 49q0 41 19 92.5t58 104.5t90.5 96.5t124.5 71.5 t153 28q74 0 140 -20.5t119 -60.5t84 -105.5t31 -147.5q0 -87 -37.5 -170t-84 -136t-111.5 -110q-23 -20 -214.5 -170.5t-346.5 -285.5h360q36 0 78.5 1.5t70.5 2.5l27 2q19 4 27 12q34 42 74 180h51l-117 -356h-760z" />
<glyph unicode="3" d="M129 238q0 48 15 82t38.5 48.5t42.5 20.5t37 6q50 0 76.5 -28.5t26.5 -67.5q0 -58 -46.5 -99.5t-111.5 -31.5q19 -46 56.5 -79t81.5 -48.5t80.5 -22t68.5 -6.5q72 0 131 41.5t95 108t55.5 145t19.5 156.5q0 105 -52 168q-23 27 -52.5 41t-47.5 16t-47 2h-82 q-32 0 -42.5 3.5t-10.5 17.5q0 19 18 22q11 4 58 6q35 2 53 4t47 9t48.5 18.5t43.5 32.5t47 51q54 72 78.5 157t24.5 138q0 82 -45 123t-117 41q-20 0 -47.5 -3.5t-73 -14.5t-92 -39.5t-80.5 -69.5q108 0 108 -88q0 -44 -31.5 -81.5t-88.5 -37.5q-47 0 -70 27t-23 61 q0 37 17.5 77.5t53 79.5t83 70.5t114 50.5t140.5 19q149 0 243.5 -73.5t94.5 -174.5q0 -44 -20.5 -98.5t-60 -111.5t-110 -107.5t-159.5 -77.5q131 -29 207.5 -118t76.5 -202q0 -80 -39.5 -160.5t-105.5 -143.5t-160.5 -102.5t-197.5 -39.5q-154 0 -260.5 78t-106.5 205z " />
<glyph unicode="4" d="M115 338q0 53 24 84l770 934q17 22 23.5 26t23.5 4q31 0 31 -22q0 -11 -4 -29l-156 -934h205l-10 -63h-205q-1 -9 -10.5 -63t-18 -102t-8.5 -52q0 -34 29 -46t121 -12h39q-2 -10 -5.5 -31.5t-5.5 -31.5q-84 6 -276 6q-199 0 -279 -6l11 63h39q90 0 123.5 11.5t44.5 44.5 q2 6 9 49.5t15.5 98t11.5 71.5h-542zM180 401h502l127 764z" />
<glyph unicode="5" d="M154 276q0 162 118 162q46 0 68 -25.5t22 -60.5q0 -40 -29.5 -77t-86.5 -37q-24 0 -39 6q16 -114 91 -173t171 -59q80 0 151 48t113 122q49 84 70.5 213t21.5 195q0 106 -43 165.5t-116 59.5q-82 0 -157 -37.5t-130 -103.5q-17 -19 -24 -20q-3 -1 -7 -1q-29 0 -29 25 q0 8 5 31l102 608q6 45 25 45q7 0 32 -10q121 -54 254 -54q139 0 281 56q18 8 26 8q6 0 12.5 -4.5t6.5 -16.5q0 -10 -20 -33.5t-59.5 -54t-89.5 -58.5t-119 -47.5t-138 -19.5q-84 0 -172 29l-68 -399q117 102 273 102q148 0 236.5 -105t88.5 -261q0 -146 -77 -271.5 t-198 -196.5t-251 -71q-139 0 -227 91.5t-88 229.5z" />
<glyph unicode="6" d="M172 414q0 176 41.5 332t111 267t157.5 191.5t182 120t184 39.5q62 0 111 -16.5t83.5 -60t34.5 -109.5q0 -37 -10.5 -64.5t-24 -40.5t-31.5 -20t-26.5 -8t-15.5 -1q-35 0 -59.5 22t-24.5 58q0 46 31.5 77.5t76.5 31.5q17 0 23 -2q-37 82 -166 82q-162 0 -295 -168 q-41 -51 -71.5 -110.5t-50 -130t-27.5 -111t-21 -113.5q43 77 116 134.5t169 57.5q88 0 157 -35t108 -90.5t59 -116t20 -120.5q0 -241 -166 -404q-83 -80 -163.5 -115.5t-174.5 -35.5q-78 0 -139 29.5t-97.5 75t-60.5 108t-32.5 122.5t-8.5 124zM332 254q0 -67 16.5 -116.5 t44 -75.5t58 -38t63.5 -12q46 0 87.5 17t67 37t49.5 51t31 43t15 28q35 80 57.5 223t22.5 199q0 28 -4 55t-16 57.5t-31 52.5t-52 37t-77 15q-53 0 -100 -22t-79.5 -58.5t-52 -67.5t-35.5 -65q-29 -64 -45.5 -159t-18 -133.5t-1.5 -67.5z" />
<glyph unicode="7" d="M274 963l140 421h51q0 -15 1.5 -22t14 -17.5t38.5 -14.5t76.5 -7.5t125.5 -3.5h491q0 -42 -26 -72l-363 -416q-34 -39 -65 -92.5t-53 -102t-43.5 -119t-33.5 -114t-27.5 -120.5t-20.5 -104.5t-17 -96.5q-4 -21 -6 -31t-10.5 -32t-19 -33t-30.5 -21t-46 -10 q-40 0 -62 24.5t-22 55.5q0 16 9.5 66.5t39.5 145.5t71 183q101 203 230 367q34 43 90.5 108.5t126 143.5t98.5 112h-416q-139 0 -186 -6q-16 -3 -25 -10t-29.5 -50.5t-49.5 -131.5h-52z" />
<glyph unicode="8" d="M133 260q0 260 365 428l-74 53q-59 43 -88 105.5t-29 126.5q0 101 59 191.5t158.5 145t210.5 54.5q135 0 230.5 -72t95.5 -192q0 -43 -13.5 -84t-32.5 -71.5t-50.5 -61.5t-55 -50t-59.5 -40.5t-51.5 -30t-42.5 -21.5q53 -41 86 -61q23 -17 37.5 -28.5t39.5 -39 t39.5 -54.5t26.5 -69.5t12 -89.5q0 -118 -69.5 -221t-183 -163t-238.5 -60q-154 0 -263.5 84.5t-109.5 220.5zM236 260q0 -107 77.5 -177.5t198.5 -70.5q94 0 179.5 40t138.5 109t53 148q0 29 -8 55t-18 42.5t-30 37t-31.5 29.5t-35.5 27l-217 155q-136 -62 -221.5 -171 t-85.5 -224zM412 1071q0 -30 8 -53t28 -44.5t36.5 -35t50.5 -37.5l176 -129q116 58 188 145.5t72 184.5q0 90 -67 150.5t-173 60.5q-128 0 -223.5 -73t-95.5 -169z" />
<glyph unicode="9" d="M164 143q0 34 9 59.5t21.5 38.5t29 21t28 10t22.5 2q31 0 56.5 -19.5t25.5 -59.5q0 -48 -32.5 -78.5t-73.5 -30.5q-15 0 -21 2q47 -76 189 -76q167 0 297 191q43 63 75 153.5t42.5 144.5t25.5 144q-46 -83 -119.5 -141t-165.5 -58q-74 0 -135.5 26t-99.5 65.5t-64 89.5 t-36.5 96t-10.5 86q0 116 44.5 220.5t117 177t165 115t187.5 42.5q155 0 242.5 -118t87.5 -333q0 -53 -5.5 -112.5t-21 -154.5t-56 -198.5t-99.5 -191.5q-95 -141 -218.5 -221t-252.5 -80q-46 0 -87.5 8.5t-80.5 28.5t-62.5 59t-23.5 92zM399 713q0 -101 45 -160t134 -59 q52 0 98 21.5t80.5 58.5t59.5 78.5t44 90.5q29 78 41 181t12 157q0 103 -46 167.5t-128 64.5q-52 0 -98.5 -19.5t-78 -51t-49 -55.5t-30.5 -48q-34 -67 -59 -213t-25 -213z" />
<glyph unicode=":" horiz-adv-x="567" d="M193 94q0 47 36.5 85t87.5 38q37 0 66 -24t29 -70q0 -51 -38.5 -87t-84.5 -36q-44 0 -70 28t-26 66zM303 760q0 47 37.5 85t87.5 38q44 0 70 -29t26 -66q0 -47 -37.5 -84.5t-87.5 -37.5q-44 0 -70 28.5t-26 65.5z" />
<glyph unicode=";" horiz-adv-x="569" d="M145 -373q0 10 13 19q193 169 217 389q-31 -35 -86 -35q-49 0 -72.5 28.5t-23.5 63.5q0 48 34.5 86.5t89.5 38.5q29 0 50.5 -13.5t31.5 -31t15.5 -42t6.5 -37t1 -25.5q0 -71 -23.5 -144.5t-57.5 -128t-71 -99t-64.5 -68t-37.5 -23.5q-9 0 -16 6.5t-7 15.5zM305 760 q0 46 35.5 83.5t85.5 37.5q42 0 69 -28t27 -67q0 -46 -36.5 -83t-86.5 -37q-44 0 -69 29t-25 65z" />
<glyph unicode="&#x3c;" horiz-adv-x="1593" d="M260 512q0 8 9 16t19 13t31 14l1221 518q10 10 31 10q8 0 15 -5.5t7 -14.5q0 -12 -10.5 -19.5t-44.5 -21.5l-1202 -512l1038 -514q37 -19 37 -37q0 -7 -7 -12.5t-15 -5.5q-3 0 -33 12l-1061 526q-35 17 -35 33z" />
<glyph unicode="=" horiz-adv-x="1593" d="M168 311q0 10 4 15.5t14 7.5t13.5 2h15.5h1249q39 0 47 -4q15 -8 15 -19q0 -24 -58 -24h-1245q-55 0 -55 22zM236 711q0 24 40 24h1254h8.5h9h8.5t9 -1t7.5 -2t7 -3t5 -4.5t3.5 -6t1 -7.5q0 -23 -51 -23h-1262q-40 0 -40 23z" />
<glyph unicode="&#x3e;" horiz-adv-x="1593" d="M168 -39q0 4 1 7.5t4.5 7t6.5 5.5t8.5 5t9.5 5t12.5 5.5t12.5 5.5l1204 512l-1038 514q-37 18 -37 37q0 8 7 13t14 5q5 0 35 -12l1058 -524l7 -4q7 -4 10 -6t8 -6.5t7.5 -9t2.5 -9.5q0 -20 -57 -43l-1223 -518q-10 -10 -31 -10q-8 0 -15 5.5t-7 14.5z" />
<glyph unicode="?" horiz-adv-x="966" d="M307 1153q0 41 25.5 89.5t72 94.5t124.5 76.5t171 30.5q19 0 35.5 -0.5t54.5 -5t68.5 -13t68 -26.5t62.5 -42.5t42.5 -64t17.5 -88.5q0 -22 -4.5 -45.5t-18.5 -59.5t-46.5 -73.5t-80.5 -69.5q-60 -39 -109.5 -82t-82.5 -79.5t-59 -80t-40.5 -73.5t-26 -70t-15.5 -59.5 t-9 -52.5q-10 -62 -16 -68q-5 -8 -19 -8q-24 0 -24 23q0 28 16.5 105t28.5 116q28 87 86.5 184t146.5 176q54 50 80 111q11 28 18.5 67.5t9 62t1.5 32.5q0 139 -191 139q-95 0 -173.5 -40t-119.5 -99q99 0 99 -80q0 -37 -28.5 -72t-80.5 -35q-41 0 -62.5 24.5t-21.5 55.5z M362 94q0 47 38 85t85 38q39 0 68 -24.5t29 -71.5q0 -51 -38.5 -86t-84.5 -35q-43 0 -70 29t-27 65z" />
<glyph unicode="@" horiz-adv-x="1591" d="M223 584q0 113 31.5 224t87 205t132.5 174.5t166 136.5t190 88t202 32q247 0 410.5 -171t163.5 -435q0 -88 -22.5 -198t-47.5 -177q-14 -37 -29 -65.5t-41 -63t-64.5 -53.5t-86.5 -19q-42 0 -80.5 13t-69.5 47t-35 84q-60 -68 -136.5 -106t-153.5 -38 q-139 0 -239.5 100.5t-100.5 270.5q0 105 42 203.5t110 168.5t155.5 112t175.5 42q34 0 67 -8t69 -26.5t69 -54t57 -85.5h68q18 0 25 -0.5t14.5 -2t9.5 -5.5t2 -12q0 -5 -21 -133.5t-26 -157.5l-27 -160q-2 -15 -7 -46.5t-8 -52.5t-3 -28q0 -80 51 -80q122 0 174 189 q17 50 37 158t20 184q0 163 -68.5 291.5t-187.5 199t-266 70.5q-141 0 -279.5 -66.5t-243.5 -176.5t-170 -261.5t-65 -310.5q0 -245 147.5 -403t383.5 -158q272 0 565 122q22 11 32.5 13t39.5 2q36 0 45.5 -3.5t9.5 -17.5t-27 -24q-339 -138 -663 -138q-134 0 -245 48 t-184.5 130.5t-114 193t-40.5 235.5zM637 608q0 -126 56.5 -213.5t152.5 -87.5q62 0 133.5 36t134.5 116q22 27 27 38t10 40l66 387q-25 84 -87.5 137t-142.5 53q-87 0 -168.5 -72t-131.5 -190t-50 -244z" />
<glyph unicode="A" horiz-adv-x="1536" d="M66 0q2 10 5 31.5t5 31.5q98 0 158 35.5t96 104.5l626 1222q12 25 22.5 33t33.5 8q24 0 30 -8t11 -39l229 -1265q7 -41 16 -56.5t42 -25t106 -9.5h33q-1 -7 -5.5 -30t-5.5 -33q-129 6 -268 6q-223 0 -295 -6q1 10 5 33t5 30q183 0 183 68q0 19 -4 31l-56 305h-506 q-15 -25 -35 -64.5t-46.5 -93t-40.5 -80.5q-27 -53 -27 -73q0 -30 18 -51t44.5 -29.5t44.5 -11.5t30 -3l-12 -61q-171 6 -234 6q-79 0 -208 -6zM565 530h461l-119 666z" />
<glyph unicode="B" horiz-adv-x="1449" d="M74 0l10 63q104 0 149 7q42 7 55.5 24.5t20.5 59.5l180 1075q1 4 4 22.5t3 26.5q0 21 -11.5 33t-24.5 15t-42 7q-33 2 -121 2l10 64h744q183 0 294 -87.5t111 -217.5q0 -131 -117 -231.5t-280 -131.5q142 -14 241 -97.5t99 -213.5q0 -76 -40.5 -151.5t-108.5 -135 t-167.5 -96.5t-208.5 -37h-800zM473 106q0 -16 6 -25t21.5 -12.5t28.5 -4.5t40 -1h248q110 0 198.5 55.5t134.5 141t46 180.5q0 29 -5 59.5t-21 69t-41.5 67.5t-71.5 49t-105 20h-379l-94 -558q-6 -31 -6 -41zM580 750h292q115 0 205 54t135 134t45 166q0 26 -4.5 53 t-19.5 60t-39 58t-67.5 42.5t-100.5 17.5h-246q-39 0 -59.5 -2.5t-32 -13.5t-14.5 -21.5t-8 -37.5z" />
<glyph unicode="C" horiz-adv-x="1478" d="M221 575q0 137 46.5 269.5t128.5 239.5t187.5 188.5t230 126.5t249.5 45q207 0 332 -156q16 -16 18 -16q1 0 19 18l110 127q1 1 6.5 8.5t7.5 8.5q7 10 19 10q24 0 23 -23l-93 -555q-8 -6 -28 -6q-29 0 -31 21q0 9 1 26t1 25q0 87 -23 166t-66.5 142.5t-115 101.5 t-160.5 38q-139 0 -266.5 -72.5t-206.5 -179.5q-52 -71 -90.5 -160.5t-56 -159.5t-27.5 -146.5t-11 -105t-1 -52.5q0 -107 27.5 -192.5t71 -139t101 -89.5t114.5 -50.5t116 -14.5q180 0 346 140q144 122 193 336q4 18 26 18q25 0 25 -23q0 -4 -3.5 -23t-17.5 -60t-35 -85.5 t-61 -100t-92 -101.5q-185 -164 -412 -164q-165 0 -301.5 75.5t-218.5 218.5t-82 326z" />
<glyph unicode="D" horiz-adv-x="1562" d="M72 0l10 63q104 0 149 7q42 7 55.5 24.5t20.5 59.5l180 1075q1 4 4 22.5t3 26.5q0 21 -11.5 33t-24.5 15t-42 7q-33 2 -121 2l10 64h744q156 0 276.5 -76.5t184 -207.5t63.5 -294t-63.5 -315.5t-167.5 -263t-242.5 -176.5t-282.5 -66h-745zM477 106q0 -16 6 -25 t21.5 -12.5t28.5 -4.5t40 -1h199q144 0 255.5 63t182.5 159q45 61 78.5 145t50 156t26 148.5t11.5 112.5t2 58q0 114 -33 200t-90.5 134.5t-125.5 72t-146 23.5h-199q-39 0 -59.5 -2.5t-32 -13.5t-14.5 -21.5t-8 -37.5l-187 -1113q-6 -31 -6 -41z" />
<glyph unicode="E" horiz-adv-x="1392" d="M68 0q2 10 5 31.5t5 31.5h45q50 0 82 3.5t50 8.5t28 19t13 24.5t7 35.5l182 1089q4 18 4 29q0 33 -30 45t-125 12h-45l10 64h1153l-18 -461h-52q2 25 2 88q0 88 -13.5 143t-51.5 94.5t-104.5 55.5t-172.5 16h-256q-70 0 -89 -13.5t-27 -64.5l-82 -495h180q136 0 189.5 47 t74.5 192h51l-90 -542h-51q12 70 12 106q0 79 -45 106t-153 27h-178l-93 -545q-6 -31 -6 -41q0 -16 6 -25t21.5 -12.5t28.5 -4.5t40 -1h267q98 0 168.5 15t125 46t96 88.5t74 130.5t66.5 185h51l-174 -528h-1181z" />
<glyph unicode="F" horiz-adv-x="1335" d="M68 0l10 63h45q50 0 82 3.5t50 8.5t28 19t13 24.5t7 35.5l182 1089q4 18 4 29q0 33 -30 45t-125 12h-45l10 64h1124l-18 -461h-51q2 25 2 90q0 87 -12.5 140.5t-48 93.5t-101 56.5t-170.5 16.5h-238q-70 0 -89 -13.5t-27 -64.5l-86 -522h172q72 0 116 10.5t73 40.5 t44 72.5t27 116.5h51l-90 -543h-51q12 74 12 109q0 76 -45 103.5t-150 27.5h-172l-82 -494q-6 -33 -6 -47q0 -36 35.5 -49t151.5 -13h65l-10 -63q-78 6 -346 6q-239 0 -311 -6z" />
<glyph unicode="G" horiz-adv-x="1605" d="M221 575q0 170 72.5 331.5t189.5 278.5t271 188t311 71q215 0 350 -176l129 149q18 19 22.5 23t10.5 4q25 0 25 -23l-95 -555q-8 -6 -28 -6q-9 0 -14 1t-10.5 6t-6.5 16v47q0 91 -23.5 171.5t-68 143t-114.5 99t-157 36.5q-131 0 -261.5 -69.5t-223.5 -196.5 q-49 -68 -85.5 -156.5t-53 -158.5t-26 -145.5t-10.5 -102.5t-1 -45q0 -106 27.5 -191.5t71.5 -139.5t103 -90.5t118 -51.5t120 -15q114 0 214 52t134 139q13 44 31 166q10 50 10 61q0 34 -37 47t-145 13h-63l10 63q43 -4 160 -4q28 0 85 -1t85 -1q110 0 251 6q-1 -7 -5 -30 t-5 -33q-53 0 -79 -2t-43.5 -12.5t-22.5 -24t-10 -43.5l-64 -373q-6 -34 -12 -37q-3 -2 -10 -2q-16 0 -54 45t-57 82q-56 -78 -168.5 -126t-241.5 -48q-127 0 -239 45.5t-192.5 126.5t-127.5 197t-47 251z" />
<glyph unicode="H" horiz-adv-x="1536" d="M68 0l10 63h45q50 0 82 3.5t50 8.5t28 19t13 24.5t7 35.5l180 1075q6 48 6 49q0 34 -28.5 45.5t-126.5 11.5h-43q1 10 5 33.5t5 30.5q74 -6 301 -6q231 0 303 6l-10 -64h-45q-50 0 -82 -3.5t-50 -8.5t-28 -18.5t-13 -23.5t-7 -34l-82 -487h612l78 469q6 48 6 49 q0 34 -29 45.5t-127 11.5h-43q1 10 5.5 33.5t5.5 30.5q74 -6 301 -6q231 0 303 6l-10 -64h-45q-80 0 -117.5 -9.5t-47.5 -25t-16 -53.5l-182 -1091q-4 -32 -4 -35q0 -34 30.5 -46t125.5 -12h43q-1 -7 -5.5 -30t-5.5 -33q-74 6 -301 6q-231 0 -303 -6l10 63h46q50 0 82 3.5 t50 8.5t28 19t13 24.5t7 35.5l90 542h-610l-91 -540q-4 -32 -4 -35q0 -34 30.5 -46t125.5 -12h43q-1 -7 -5 -30t-5 -33q-74 6 -301 6q-231 0 -303 -6z" />
<glyph unicode="I" horiz-adv-x="739" d="M57 0l11 63h49q81 0 119.5 9t49.5 25.5t17 54.5l180 1077q6 48 6 49q0 34 -30 45.5t-131 11.5h-47q1 10 5 33.5t5 30.5q72 -6 311 -6t313 6l-10 -64h-49q-52 0 -85 -3.5t-52 -8.5t-29 -18.5t-13 -24t-7 -35.5l-181 -1073q-6 -48 -6 -49q0 -24 9.5 -35.5t45 -18 t107.5 -6.5h47q-1 -10 -5 -33t-5 -30q-72 6 -311 6q-240 0 -314 -6z" />
<glyph unicode="J" horiz-adv-x="1050" d="M119 197q0 43 14.5 74.5t36.5 47t42.5 22.5t39.5 7q45 0 73.5 -27.5t28.5 -68.5q0 -54 -37.5 -93.5t-93.5 -39.5q-16 0 -24 2q16 -37 44.5 -63t60 -37.5t55 -16t44.5 -4.5q83 0 161.5 80.5t103.5 222.5l155 926q6 33 6 45q0 15 -6 25.5t-20.5 17t-27.5 10.5t-40.5 5.5 t-44.5 2t-53 0.5h-70q1 7 5.5 30.5t5.5 33.5q47 -4 172 -4q28 0 85 -1t85 -1q131 0 266 6l-10 -64q-106 0 -134 -12t-38 -74l-158 -948q-17 -102 -85 -182.5t-160.5 -122t-190.5 -41.5q-129 0 -210 70.5t-81 171.5z" />
<glyph unicode="K" horiz-adv-x="1591" d="M68 0l10 63h45q50 0 82 3.5t50 8.5t28 19t13 24.5t7 35.5l180 1075q6 48 6 49q0 34 -28.5 45.5t-126.5 11.5h-43q1 10 5 33.5t5 30.5q74 -6 301 -6q231 0 303 6l-10 -64h-45q-50 0 -82 -3.5t-50 -8.5t-28 -18.5t-13 -23.5t-7 -34l-111 -657l746 612q45 34 45 74 q0 17 -8.5 29t-19.5 18t-24.5 9.5t-20 4t-9.5 0.5l12 62q72 -6 256 -6q119 0 174 6l-10 -64q-30 -1 -50 -4t-64 -13.5t-94 -38t-101 -69.5l-428 -350l354 -696q19 -36 38.5 -57t46.5 -30.5t50 -11.5t66 -2l-13 -63q-25 1 -112.5 3.5t-120.5 2.5l-144 -2q-112 0 -149 -4 l10 63q131 0 131 70q0 32 -22 72l-277 538l-272 -225l-62 -362q-4 -32 -4 -35q0 -34 30.5 -46t125.5 -12h43q-1 -7 -5 -30t-5 -33q-74 6 -301 6q-231 0 -303 -6z" />
<glyph unicode="L" horiz-adv-x="1280" d="M68 0q2 10 5 31.5t5 31.5h45q50 0 82 3.5t50 8.5t28 19t13 24.5t7 35.5l180 1075q6 48 6 49q0 34 -28.5 45.5t-126.5 11.5h-43q1 10 5 33.5t5 30.5q74 -6 309 -6q272 0 346 6l-10 -64h-65q-59 0 -97 -4t-59.5 -9t-33 -18.5t-14.5 -24t-7 -34.5l-185 -1098q-6 -31 -6 -41 q0 -16 6 -25t21.5 -12.5t28.5 -4.5t40 -1h162q256 0 375 173q57 83 107 257q3 11 10 35h51l-145 -528h-1067z" />
<glyph unicode="M" horiz-adv-x="1875" d="M76 0q2 10 5 31.5t5 31.5q73 0 122 14t71 40t29 43.5t11 44.5l173 1024q6 48 6 49q0 34 -29 45.5t-127 11.5h-43q1 10 5 33.5t5 30.5h342q41 0 51 -7t17 -42l254 -1143l637 1151q17 29 29 35t51 6h344l-11 -64h-45q-80 0 -117 -9.5t-47 -25t-16 -53.5l-182 -1091 q-4 -32 -4 -35q0 -34 30 -46t125 -12h43q-1 -7 -5 -30t-5 -33q-76 6 -293 6q-221 0 -295 -6l11 63h45q50 0 82 3.5t50 8.5t28 19t13 24.5t7 35.5l199 1179h-2l-721 -1298q-22 -35 -43 -35q-11 0 -17.5 7t-9 14t-6.5 24l-281 1272h-2l-184 -1096q-6 -48 -6 -49 q0 -109 190 -109l-12 -63q-189 6 -238 6q-23 0 -239 -6z" />
<glyph unicode="N" horiz-adv-x="1536" d="M68 0q2 10 5 31.5t5 31.5q60 0 103.5 10.5t66.5 24t37.5 36t18.5 36t7 35.5l187 1116q-54 14 -152 14h-55q1 10 5 33.5t5 30.5h340q35 0 44.5 -5t21.5 -28l542 -1059l146 873q6 33 6 47q0 108 -191 108l13 64q189 -6 237 -6q24 0 240 6l-10 -64q-60 0 -104.5 -11 t-67.5 -25t-38 -37t-19 -37.5t-7 -36.5l-190 -1141q-5 -30 -10 -38.5t-23 -8.5q-15 0 -20.5 5.5t-16.5 27.5l-616 1202l-27 45l-178 -1059q-6 -48 -6 -49q0 -109 190 -109l-12 -63q-189 6 -238 6q-23 0 -239 -6z" />
<glyph unicode="O" horiz-adv-x="1591" d="M219 561q0 168 68.5 331t180.5 283.5t262 194.5t306 74q159 0 288 -76.5t204.5 -217.5t75.5 -321q0 -171 -69.5 -333.5t-182.5 -280t-262 -189t-302 -71.5q-162 0 -292 77.5t-203.5 216t-73.5 312.5zM426 508q0 -231 106 -365.5t265 -134.5q112 0 227 70.5t209 212.5 q84 130 127 305t43 317q0 127 -34.5 224t-91 150.5t-120 79.5t-131.5 26q-108 0 -226.5 -68t-215.5 -213q-50 -77 -84.5 -174.5t-49 -187t-19.5 -146.5t-5 -96z" />
<glyph unicode="P" horiz-adv-x="1392" d="M72 0l10 63h45q50 0 82 3.5t50 8.5t28 19t13 24.5t7 35.5l180 1075q1 4 4 22.5t3 26.5q0 34 -29 45.5t-127 11.5h-43q1 10 5 33.5t5 30.5h719q100 0 182.5 -28t135.5 -75t81.5 -106t28.5 -123q0 -110 -76.5 -207.5t-201 -155t-259.5 -57.5h-342l-81 -491q-1 -6 -2 -14 t-2 -13t-1 -8q0 -34 30.5 -46t125.5 -12h43q-1 -7 -5 -30t-5 -33q-74 6 -301 6q-231 0 -303 -6zM575 700h279q145 0 240.5 59.5t126.5 182.5q26 104 26 178q0 215 -286 215h-177q-39 0 -59.5 -2.5t-32 -13.5t-14.5 -21.5t-8 -37.5z" />
<glyph unicode="Q" horiz-adv-x="1591" d="M219 561q0 168 68.5 331t180.5 283.5t262 194.5t306 74q159 0 288 -76.5t204.5 -217.5t75.5 -321q0 -257 -149 -484.5t-394 -332.5q26 -113 62.5 -155.5t99.5 -42.5q75 0 136 49.5t81 118.5q5 19 7 25.5t6.5 11t12.5 4.5q23 0 23 -27q0 -11 -8 -49t-31 -98t-55.5 -114 t-89.5 -93t-125 -39q-49 0 -84.5 17t-55.5 43.5t-32 66.5t-15.5 77t-3.5 84v95q-101 -31 -201 -31q-162 0 -292 77.5t-203.5 216t-73.5 312.5zM418 498q0 -188 69 -304t181 -163q-17 24 -17 73q0 82 59 140.5t134 58.5q84 0 129 -55.5t71 -161.5q88 58 155.5 145.5 t105.5 175t61.5 186t31 169t7.5 133.5q0 108 -23.5 195t-61 142t-88 92.5t-101.5 53t-103 15.5q-127 0 -244 -78.5t-194 -198.5q-53 -80 -90.5 -176t-53.5 -183.5t-22 -148.5t-6 -110zM696 104q0 -98 101 -98q94 0 190 47q-3 47 -9 79.5t-20.5 63.5t-42.5 46.5t-69 15.5 q-61 0 -105.5 -46.5t-44.5 -107.5z" />
<glyph unicode="R" horiz-adv-x="1507" d="M72 0l10 63h45q50 0 82 3.5t50 8.5t28 19t13 24.5t7 35.5l180 1075q1 4 4 22.5t3 26.5q0 34 -29 45.5t-127 11.5h-43l10 64h639q207 0 343 -94.5t136 -233.5q0 -70 -36.5 -134t-97 -110.5t-133 -80t-150.5 -50.5q41 -13 86.5 -42.5t72.5 -65.5q35 -49 43.5 -89.5 t8.5 -113.5q0 -25 -1.5 -73t-1.5 -72q0 -53 1.5 -85.5t7 -65.5t15.5 -50t28 -28t45 -11q53 0 99.5 48.5t66.5 127.5q8 32 16 36q5 3 12 3q11 0 18 -8t7 -17q0 -11 -6.5 -35t-23.5 -59t-41.5 -66t-66.5 -53t-92 -22q-56 0 -107.5 13.5t-96 41t-71 76t-26.5 111.5q0 17 17 127 q22 123 22 149q0 8 -0.5 16.5t-5 30.5t-12.5 40.5t-25.5 41.5t-41 38.5t-61.5 26.5t-85 11h-236l-86 -522q-4 -32 -4 -35q0 -34 30.5 -46t125.5 -12h43l-10 -63q-74 6 -299 6t-299 -6zM580 723h223q194 0 304 95t110 290q0 37 -8.5 67.5t-20.5 52.5t-34 39.5t-41 28.5 t-50 19t-52.5 11.5t-57 5.5t-54 2.5t-53.5 0.5q-107 0 -125 -4q-20 -4 -30 -14t-13 -19.5t-8 -37.5z" />
<glyph unicode="S" horiz-adv-x="1136" d="M111 -23q0 11 4 29l69 414q5 29 10 37t21 8q25 0 25 -23q0 -12 -4.5 -43t-4.5 -45q0 -85 30.5 -150.5t84.5 -105.5t122 -60t148 -20q93 0 171 54t119.5 133.5t41.5 161.5q0 20 -4 43.5t-16 60t-42.5 69t-76.5 50.5l-164 43q-68 18 -89.5 23.5t-61.5 18.5t-55.5 23 t-36.5 26.5t-40 39.5q-77 94 -77 221q0 120 64.5 226t172.5 169.5t230 63.5q113 0 188.5 -42t114.5 -102l92 117q14 18 19 22.5t14 4.5q24 0 24 -23l-82 -481q-9 -6 -22 -6q-17 0 -21 9t-4 28q0 16 1 20.5t1 22.5q0 171 -81.5 271.5t-245.5 100.5q-131 0 -226.5 -97 t-95.5 -218q0 -73 37.5 -126t93.5 -77q48 -14 123 -32l78 -21q77 -19 110 -29.5t72 -34.5t68 -61q82 -99 82 -239q0 -90 -37.5 -179.5t-100.5 -159.5t-153 -113.5t-187 -43.5q-62 0 -117 11t-89 25t-67.5 37.5t-47 36t-33.5 33.5l-94 -121q-12 -15 -17 -18.5t-16 -3.5 q-22 0 -22 22z" />
<glyph unicode="T" horiz-adv-x="1478" d="M227 926l117 460h1251l-39 -460h-51q11 97 11 157q0 63 -10 104t-30.5 68.5t-60 42t-88 20t-125.5 5.5q-94 0 -112 -4q-20 -4 -30.5 -14t-13.5 -20.5t-8 -37.5l-182 -1089q-4 -23 -4 -33q0 -24 15.5 -36.5t60.5 -19t131 -6.5h78l-11 -63q-84 6 -387 6l-196 -2 q-142 0 -193 -4l10 63h78q65 0 107 4t66 9.5t37 19t16.5 25t7.5 35.5l180 1073q6 48 6 51q0 23 -10 30.5t-43 10.5q-12 2 -90 2q-189 0 -265 -46q-66 -39 -107 -142q-21 -54 -64 -209h-52z" />
<glyph unicode="U" horiz-adv-x="1536" d="M291 1335q1 10 5 33.5t5 30.5q74 -6 301 -6q231 0 303 6l-10 -64h-45q-80 0 -117 -9.5t-47 -25t-16 -53.5l-138 -829q-6 -37 -6 -90q0 -77 21 -135.5t50.5 -90.5t69 -52t70.5 -26t60 -6q75 0 150.5 31t141.5 87t114.5 144t66.5 193l119 707q6 33 6 47q0 108 -191 108 l13 64q183 -6 239 -6q127 0 244 6l-10 -64q-60 0 -104.5 -11t-67.5 -25t-38 -37t-19 -37.5t-7 -36.5l-121 -727q-16 -98 -66 -190t-121 -162t-164.5 -112t-190.5 -42q-119 0 -219 52.5t-161 152.5t-61 227q0 49 6 86l127 756q6 48 6 49q0 34 -28.5 45.5t-126.5 11.5h-43z " />
<glyph unicode="V" horiz-adv-x="1536" d="M262 1335l10 64q141 -6 258 -6q223 0 295 6l-10 -64q-178 0 -178 -65q0 -5 6 -35l219 -1030l537 987q2 4 5.5 10t4.5 9t3 7l3 6t2 5t1 5.5t0.5 5.5t0.5 7q0 33 -32 60.5t-103 27.5l10 64q147 -6 234 -6q106 0 201 6l-11 -64q-93 0 -151 -34.5t-94 -100.5l-658 -1204 q-11 -19 -15.5 -26t-13.5 -11t-26 -4q-23 0 -31 8t-14 39l-264 1249q-13 60 -45 72t-144 12z" />
<glyph unicode="W" horiz-adv-x="2103" d="M260 1335l10 64q135 -6 248 -6q221 0 293 6q-1 -10 -5 -33.5t-5 -30.5q-22 0 -34 -0.5t-38 -2t-42 -6t-34.5 -11.5t-27.5 -19.5t-9 -29.5q0 -10 5 -35l157 -991l420 850q12 23 12 34q0 15 -13 88t-19 84q-12 25 -41 32t-119 7l10 64q135 -6 248 -6q221 0 293 6 q-1 -10 -5 -33.5t-5 -30.5q-22 0 -34 -0.5t-38 -2t-42 -6t-34.5 -11.5t-27.5 -19.5t-9 -29.5q0 -8 4 -31l158 -995l467 948q16 29 16 51q0 28 -17.5 48t-44.5 29.5t-45.5 13.5t-35.5 5q-9 2 -11.5 3.5t-2.5 7.5l8 53q111 -6 241 -6q111 0 189 6q-2 -10 -5 -32t-5 -32 q-56 -1 -98 -14.5t-68 -39t-37 -41.5t-25 -44l-592 -1200q-7 -14 -11 -20.5t-13.5 -13.5t-22.5 -7q-19 0 -24 9t-10 42l-164 1030l-512 -1040q-7 -14 -11 -20.5t-13.5 -13.5t-22.5 -7q-19 0 -25.5 10.5t-9.5 36.5l-197 1241q-10 66 -39 79t-135 13z" />
<glyph unicode="X" horiz-adv-x="1536" d="M49 0q2 10 5 31.5t5 31.5q206 0 312 125l428 506l-277 557q-19 37 -37 53.5t-52 23.5t-101 7h-33q1 7 5 30.5t5 33.5q120 -6 264 -6q227 0 301 6l-10 -64q-63 -1 -104 -21.5t-41 -43.5q0 -8 14 -33l195 -389l291 346q28 31 28 57q0 13 -4 26t-26.5 31.5t-61.5 24.5 q-18 5 -18 13l8 53q82 -6 260 -6q5 0 227 6l-10 -64q-58 0 -109 -11t-82.5 -24.5t-61.5 -36t-41.5 -34.5t-27.5 -31l-346 -407l324 -652q16 -32 35 -47.5t52.5 -22t96.5 -6.5h35q-2 -10 -5 -31.5t-5 -31.5q-120 6 -264 6q-229 0 -301 -6q1 7 5 30t5 33q63 1 103 22.5 t40 41.5q0 6 -12 31l-236 479l-364 -430q-29 -35 -29 -60q0 -40 37 -62t78 -24l-12 -61q-82 6 -261 6q-5 0 -227 -6z" />
<glyph unicode="Y" horiz-adv-x="1536" d="M246 1335l10 64q114 -6 266 -6q229 0 301 6l-10 -64q-29 0 -47.5 -1t-46.5 -6t-42.5 -17.5t-14.5 -32.5q0 -12 12 -39l266 -594l430 551q33 42 33 70q0 31 -26.5 50t-78.5 19l11 64q159 -6 233 -6q106 0 201 6l-10 -64q-37 -1 -66.5 -5.5t-69 -17t-78 -41t-71.5 -71.5 l-500 -641q-1 -9 -21 -124.5t-35 -206t-15 -105.5q0 -30 16 -41t53 -14q51 -5 129 -5l-10 -63q-74 6 -299 6t-299 -6l10 63q127 0 176 11q18 5 29.5 21.5t14 27.5t5.5 31q30 163 68 407l-311 696q-16 37 -35.5 52t-56 20.5t-121.5 5.5z" />
<glyph unicode="Z" horiz-adv-x="1251" d="M119 23q0 25 24 55l1006 1257h-318q-211 0 -324 -89t-159 -308h-51l100 461h914q24 0 33 -1t14.5 -6t5.5 -16q0 -24 -23 -51l-1005 -1255h334q80 0 144 11.5t112 31t85.5 53.5t63.5 69.5t47.5 89t35 103t28.5 119.5h51l-125 -547h-940q-25 0 -34 1t-14 5.5t-5 16.5z" />
<glyph unicode="[" horiz-adv-x="569" d="M127 -512l342 2048h309l-8 -47h-172l-326 -1954h172l-8 -47h-309z" />
<glyph unicode="\" d="M367 1503q0 29 20 29q6 0 11 -3t8 -7.5t5.5 -11t3.5 -11t2 -10t1 -6.5l401 -1938q4 -16 4 -24q0 -29 -20 -29q-4 0 -7.5 1.5t-6.5 5.5t-4.5 7t-3.5 9l-3 9t-2.5 9t-1.5 8l-403 1938q-4 16 -4 24z" />
<glyph unicode="]" horiz-adv-x="569" d="M-41 -512l8 47h172l326 1954h-172l8 47h309l-342 -2048h-309z" />
<glyph unicode="^" horiz-adv-x="1251" d="M406 991l432 295l336 -295v-2l-37 -41l-316 230h-2l-391 -230z" />
<glyph unicode="_" horiz-adv-x="1593" d="M98 -436q0 41 62 41h1124q62 0 62 -41q0 -8 -4 -16t-18.5 -16t-37.5 -9h-1128q-33 0 -46.5 12.5t-13.5 28.5z" />
<glyph unicode="`" d="M412 1229q0 34 27 60t57 26q23 0 45 -21t114 -129q61 -72 103 -121l-37 -40q-18 9 -254 157q-1 1 -8.5 5.5t-10.5 7t-10 7.5t-10.5 9.5t-7.5 10.5t-6 13t-2 15z" />
<glyph unicode="a" d="M117 168q0 144 165 249.5t416 114.5q50 2 56 5q5 4 13.5 61t8.5 76q0 82 -47.5 140t-130.5 58q-57 0 -125 -22.5t-111 -71.5q39 -2 63 -23t24 -59q0 -43 -31.5 -74.5t-75.5 -31.5q-43 0 -63.5 24.5t-20.5 55.5q0 92 99 170t247 78q132 0 221.5 -72t89.5 -187 q0 -51 -59 -376q-1 -7 -7 -43.5t-10.5 -66t-4.5 -38.5q0 -34 14 -59t45 -25q26 0 50.5 22.5t35.5 65.5q9 28 29 158h51q-13 -85 -21 -119q-7 -43 -24.5 -77t-39 -54.5t-47 -34.5t-47 -19t-40.5 -5q-20 0 -39.5 6t-41.5 21.5t-36 50t-14 84.5q-7 -13 -19 -29.5t-39 -43.5 t-59 -48t-79.5 -36.5t-98.5 -15.5q-43 0 -88.5 8t-95.5 27.5t-81.5 59.5t-31.5 96zM274 164q0 -62 43.5 -101.5t110.5 -39.5q53 0 104 22.5t89 60.5q36 35 58 74.5t27.5 62.5t12.5 64l31 185q-97 -4 -175.5 -24.5t-127 -48t-84 -64.5t-52 -67t-26 -62t-10.5 -43.5t-1 -18.5z " />
<glyph unicode="b" horiz-adv-x="1136" d="M217 0l203 1217q6 37 6 53q0 41 -28 53t-117 12q0 7 5 33t9 29q4 4 37 4l258 20l-107 -645q28 28 62 53t100 50.5t135 25.5q152 0 259.5 -106.5t107.5 -280.5q0 -108 -46 -208.5t-121 -173t-172.5 -116t-197.5 -43.5q-167 0 -245 152q-88 -115 -91 -121q-11 -8 -57 -8z M393 197q0 -5 5.5 -22t20.5 -43.5t37 -50t61 -41t87 -17.5q75 0 153 45t132 131q39 62 62.5 156t28.5 147.5t5 87.5q0 76 -21 132t-55 84.5t-68.5 41t-70.5 12.5q-75 0 -145 -36t-117 -91q-24 -27 -29 -38t-10 -40l-72 -424q-4 -16 -4 -34z" />
<glyph unicode="c" horiz-adv-x="909" d="M137 365q0 140 72.5 268t195 206.5t259.5 78.5q112 0 197 -51t85 -144q0 -57 -33 -89t-75 -32q-43 0 -63.5 24.5t-20.5 55.5q0 8 1.5 18.5t9 27t19 29.5t34 23t52.5 11q-61 75 -206 75q-103 0 -187 -78.5t-129 -202.5t-45 -263q0 -79 21 -138.5t55.5 -91.5t72.5 -47.5 t78 -15.5q92 0 173.5 53t130.5 154q9 19 13.5 23.5t16.5 4.5q25 0 25 -20q0 -8 -12.5 -35t-42.5 -67t-71.5 -76.5t-108.5 -62.5t-144 -26q-157 0 -265 108.5t-108 279.5z" />
<glyph unicode="d" horiz-adv-x="1136" d="M137 365q0 109 46.5 210t122 172.5t172.5 114.5t196 43q52 0 96.5 -14.5t73 -38.5t43.5 -41t26 -35l74 441q6 37 6 53q0 41 -28 53t-117 12q0 7 5 33t9 29q4 4 37 4l258 20l-207 -1237q-6 -37 -6 -55q0 -41 27.5 -53.5t118.5 -12.5q0 -7 -5.5 -32.5t-9.5 -28.5 q-4 -4 -37 -4l-264 -21l21 132q-132 -132 -291 -132q-152 0 -259.5 106t-107.5 282zM299 293q0 -63 15 -112.5t37.5 -78.5t52.5 -47.5t56.5 -25t53.5 -6.5q73 0 142.5 37.5t119.5 97.5q26 32 31 43t10 41l72 424q4 23 4 32q0 5 -6 21.5t-21.5 41t-38.5 46t-61.5 37.5 t-85.5 16q-68 0 -141.5 -39t-128.5 -114q-45 -64 -72.5 -163.5t-33 -156.5t-5.5 -94z" />
<glyph unicode="e" horiz-adv-x="909" d="M125 373q0 99 41 198t109 175.5t163 124t195 47.5q59 0 111 -16t98 -50.5t73 -98.5t27 -151q0 -45 -6 -90q-4 -29 -12.5 -34t-46.5 -5h-570q-18 -93 -18 -164q0 -78 22.5 -136t58.5 -87.5t73.5 -43t76.5 -13.5q27 0 60 7.5t80 27t94.5 65t81.5 111.5q8 17 13.5 22.5 t16.5 5.5q12 0 17.5 -7t5.5 -15q0 -12 -15 -41.5t-47.5 -68.5t-75 -74.5t-107.5 -60t-136 -24.5q-162 0 -272.5 112.5t-110.5 283.5zM315 516h484q10 69 10 115q0 18 -1 33t-5.5 47t-16 56.5t-30 50.5t-51 40t-74.5 14q-20 0 -45 -5t-66 -27t-77 -57.5t-72 -105t-56 -161.5z " />
<glyph unicode="f" horiz-adv-x="624" d="M70 0l10 63q107 0 135.5 13t38.5 76l111 667h-160l10 64h162q18 119 41 250q25 137 133.5 224t232.5 87q66 0 115 -33t49 -94q0 -51 -30 -79t-70 -28q-42 0 -61 23t-19 53q0 31 20 60t60 40q-35 13 -66 13q-84 0 -164 -99q-26 -35 -42 -74t-22.5 -68.5t-16.5 -90.5 l-31 -184h239l-10 -64h-233l-111 -659q-6 -29 -6 -39q0 -22 12 -34t22.5 -14t35.5 -5q46 -5 118 -5l-10 -63q-99 6 -258 6q-26 0 -65 -1t-90 -2.5t-80 -2.5z" />
<glyph unicode="g" d="M29 -184q0 71 60.5 136t162.5 93q-62 50 -62 141q0 116 95 211q-64 68 -64 168q0 136 115.5 238t265.5 102q76 0 129 -24.5t78 -49.5q52 46 113.5 71.5t117.5 25.5q36 0 59 -19t28.5 -36.5t5.5 -32.5q0 -36 -22 -55t-46 -19q-27 0 -41 16.5t-14 36.5q0 21 14 39.5 t25 22.5v2q-121 0 -211 -82q53 -71 53 -156q0 -133 -115 -236.5t-266 -103.5q-115 0 -195 64q-55 -55 -55 -125q0 -45 25.5 -77.5t68.5 -33.5h115q46 0 70 -0.5t70 -2.5t73 -6t66.5 -12.5t63.5 -21t51.5 -31t42.5 -43t25.5 -58t10.5 -73.5q0 -80 -49.5 -142t-127.5 -96.5 t-160 -51.5t-161 -17q-182 0 -298.5 68.5t-116.5 169.5zM135 -186q0 -77 86.5 -133t224.5 -56q156 0 272 73t116 167q0 36 -13.5 62.5t-44.5 42.5t-59 25.5t-80 13t-83 4.5t-91 1h-4q-118 0 -153 -5.5t-75 -33.5q-49 -33 -72.5 -77t-23.5 -84zM367 510q0 -82 44 -120 t101 -38q50 0 99 29.5t77 81.5q30 51 42.5 126t12.5 111q0 46 -15 79.5t-38.5 49t-45.5 22.5t-44 7q-47 0 -94.5 -27t-79.5 -77q-31 -50 -45 -129.5t-14 -114.5z" />
<glyph unicode="h" horiz-adv-x="1136" d="M66 0l10 63h2q40 0 64.5 1t44.5 5t29.5 9t17 17t10.5 23.5t6 33.5l178 1065q6 37 6 53q0 41 -28 53t-117 12q0 7 5 33t9 29q4 4 37 4l258 20l-119 -706l2 -2q18 30 44.5 59.5t66.5 61.5t96 51.5t117 19.5q242 0 242 -209q0 -32 -7 -75l-79 -476q-5 -25 -5 -30 q0 -19 8 -29.5t30.5 -15.5t44 -6t67.5 -1l-12 -63q-198 6 -228 6q-21 0 -231 -6l10 63h2q102 0 132 11.5t38 66.5l70 410q22 145 22 172q0 71 -30 104t-91 33q-108 0 -206 -88q-46 -44 -75.5 -97t-38 -86.5t-15.5 -78.5q-24 -135 -45 -270q-3 -17 -8 -47.5t-9 -53t-4 -24.5 q0 -19 8 -29.5t30.5 -15.5t44 -6t67.5 -1l-13 -63q-198 6 -227 6q-21 0 -231 -6z" />
<glyph unicode="i" horiz-adv-x="567" d="M68 0l10 63h2q40 0 64.5 1t44.5 5t29.5 9t17 17t10.5 23.5t6 33.5l92 548q6 37 6 54q0 41 -26.5 53t-110.5 12q0 2 4 25t4 26q1 6 3.5 8.5t11 5t26.5 3.5l252 18l-125 -745q-6 -33 -6 -47q0 -34 27.5 -42t105.5 -8l-12 -63q-171 6 -211 6q-27 0 -225 -6zM365 1247 q0 53 38 88t84 35q44 0 70.5 -28.5t26.5 -65.5q0 -47 -38 -85t-85 -38q-41 0 -68.5 25.5t-27.5 68.5z" />
<glyph unicode="j" horiz-adv-x="624" d="M-127 -274q0 45 30 78.5t79 33.5q40 0 62 -24t22 -56q0 -33 -22 -65.5t-71 -40.5q47 -27 107 -27q43 0 78.5 24.5t58 66.5t37 86t22.5 94l136 804q6 48 6 52q0 43 -32.5 55t-129.5 12q0 6 5 32.5t9 29.5q4 4 37 4l275 20l-168 -1009q-23 -135 -118 -225.5t-212 -90.5 q-91 0 -151 40.5t-60 105.5zM422 1247q0 49 37.5 86t85.5 37q41 0 68.5 -26t27.5 -68q0 -50 -38 -86.5t-85 -36.5q-42 0 -69 28t-27 66z" />
<glyph unicode="k" horiz-adv-x="1079" d="M57 0l11 63h2q40 0 64.5 1t44.5 5t29.5 9t17 17t10.5 23.5t6 33.5l178 1065q6 37 6 53q0 41 -28 53t-117 12q0 7 5 33t9 29q4 4 37 4l258 20l-164 -981l291 219q40 32 54 44t29 33t15 40q0 20 -15.5 32.5t-37.5 12.5l12 62q135 -6 227 -6q83 0 144 6l-10 -64 q-129 -8 -261 -100q-27 -19 -116.5 -86.5t-89.5 -71.5q0 -2 12 -26l199 -363q39 -70 71.5 -89.5t106.5 -19.5l-13 -63q-82 6 -176 6q-56 0 -221 -6l10 63q82 0 82 58q0 27 -30 80q-102 196 -152 278l-149 -112q-3 -15 -13 -77.5t-19 -118t-9 -56.5q0 -13 3.5 -21.5t13 -14.5 t19 -9t30 -4.5t36.5 -1.5t47 -1l-12 -63q-159 6 -221 6q-22 0 -226 -6z" />
<glyph unicode="l" horiz-adv-x="567" d="M68 0l10 63h2q40 0 64.5 1t44.5 5t29.5 9t17 17t10.5 23.5t6 33.5l178 1065q6 37 6 53q0 41 -28 53t-117 12q0 7 5 33t9 29q4 4 37 4l258 20l-213 -1276q-4 -20 -4 -30q0 -13 3.5 -21.5t13 -14.5t19 -9t30 -4.5t36.5 -1.5t47 -1l-12 -63q-222 6 -225 6q-23 0 -227 -6z " />
<glyph unicode="m" horiz-adv-x="1705" d="M66 0l10 63h2q40 0 64.5 1t44.5 5t29.5 9t17 17t10.5 23.5t6 33.5l92 548q6 37 6 54q0 41 -28 53t-117 12q0 7 5 33t9 29q4 4 37 4l252 20l-35 -203l2 -2q12 20 28 42t47.5 52.5t66.5 54t85.5 40t104.5 16.5q235 0 244 -198q30 50 71.5 92t109.5 74t144 32 q242 0 242 -209q0 -38 -6 -75l-80 -476q-4 -20 -4 -30q0 -13 3.5 -21.5t13 -14.5t19 -9t30 -4.5t36.5 -1.5t47 -1l-12 -63q-198 6 -227 6q-22 0 -232 -6l10 63h3q102 0 131.5 11.5t37.5 66.5l70 410q23 152 23 172q0 71 -30 104t-91 33q-109 0 -207 -88q-46 -44 -75.5 -97 t-38 -86.5t-15.5 -78.5q-24 -135 -45 -270q-3 -17 -8 -47.5t-9 -53t-4 -24.5q0 -19 8 -29.5t30.5 -15.5t44 -6t67.5 -1l-12 -63q-198 6 -228 6q-21 0 -231 -6l10 63h2q102 0 132 11.5t38 66.5l70 410q22 145 22 172q0 71 -30 104t-91 33q-108 0 -206 -88q-46 -44 -75.5 -97 t-38 -86.5t-15.5 -78.5q-24 -135 -45 -270q-3 -17 -8 -47.5t-9 -53t-4 -24.5q0 -19 8 -29.5t30.5 -15.5t44 -6t67.5 -1l-13 -63q-198 6 -227 6q-21 0 -231 -6z" />
<glyph unicode="n" horiz-adv-x="1136" d="M66 0l10 63q48 0 70.5 1t46.5 6.5t35 17.5t16 33q3 6 20 110q84 512 84 523q0 41 -28 53t-117 12l10 64l293 22l-35 -203l2 -2q12 20 28 42t47.5 52.5t66.5 54t85.5 40t104.5 16.5q242 0 242 -209q0 -22 -21 -161l-31 -183q-39 -214 -39 -237q0 -19 8 -29.5t30.5 -15.5 t44 -6t67.5 -1l-10 -63q-210 6 -230 6q-21 0 -231 -6l10 63q103 0 133.5 11.5t38.5 66.5l70 410q22 145 22 172q0 71 -30 104t-91 33q-108 0 -206 -88q-46 -44 -75.5 -97t-38 -86.5t-15.5 -78.5q-24 -135 -45 -270q-3 -17 -8 -47.5t-9 -53t-4 -24.5q0 -19 8 -29.5 t30.5 -15.5t44 -6t67.5 -1l-11 -63q-210 6 -229 6q-21 0 -231 -6z" />
<glyph unicode="o" d="M123 360q0 80 28 162t79 152t117.5 125.5t149 87t167.5 31.5q165 0 272.5 -113.5t107.5 -284.5q0 -144 -77 -270.5t-200.5 -199.5t-258.5 -73q-169 0 -277 110.5t-108 272.5zM287 295q0 -70 19 -122t44.5 -78.5t60.5 -42.5t58.5 -19.5t46.5 -3.5q82 0 159.5 47.5 t123.5 132.5q46 87 67 212t21 191q0 65 -18 114.5t-44 76t-60 43.5t-60 21.5t-50 4.5q-16 0 -33 -2t-50.5 -11.5t-64 -26.5t-66.5 -51.5t-64 -80.5q-42 -69 -66 -198.5t-24 -206.5z" />
<glyph unicode="p" horiz-adv-x="1136" d="M-8 -397l10 63q105 0 133.5 11.5t38.5 70.5l162 965q6 48 6 49q0 36 -28.5 46.5t-118.5 10.5l10 64l299 22l-23 -133q13 15 35 32.5t61.5 42.5t94 41.5t112.5 16.5q154 0 258.5 -107t104.5 -278q0 -146 -78.5 -272.5t-202.5 -198.5t-256 -72q-154 0 -233 127 q-2 -11 -19 -111.5t-31 -183.5t-14 -92q0 -33 26.5 -42t123.5 -9l-10 -63q-216 6 -232 6q-19 0 -229 -6zM391 195q22 -75 76 -123.5t135 -48.5q66 0 134 41.5t121.5 110.5t87.5 168t34 204q0 137 -59 222t-152 85q-73 0 -152.5 -40t-140.5 -126z" />
<glyph unicode="q" horiz-adv-x="1079" d="M137 365q0 144 78 270t201 198t254 72q179 0 248 -188l92 162q7 12 11 17.5t5 6t4 0.5q2 2 41 2l-190 -1138q0 -4 -3.5 -23t-3.5 -27q0 -33 26 -42t124 -9l-12 -63q-204 6 -230 6q-19 0 -229 -6q1 10 5 33t5 30q89 0 121.5 7t44.5 40q3 13 31 181t37 227 q-6 -8 -16.5 -19.5t-39.5 -35t-61 -42t-79.5 -33t-96.5 -14.5q-72 0 -137.5 26.5t-117 75t-82 123t-30.5 163.5zM303 332q0 -123 56 -216t155 -93q66 0 140.5 38.5t140.5 133.5q15 22 21 34t7.5 18.5t5.5 28.5l50 289q6 31 6 45q0 15 -3.5 39t-16.5 61.5t-34 68t-60.5 53 t-90.5 22.5q-67 0 -135.5 -42t-121.5 -111.5t-86.5 -167t-33.5 -201.5z" />
<glyph unicode="r" horiz-adv-x="800" d="M57 0l11 63h2q40 0 64.5 1t44.5 5t29.5 9t17 17t10.5 23.5t6 33.5l92 548q6 37 6 54q0 41 -28 53t-117 12q0 2 4 25t4 26q1 6 3.5 8.5t11 5t26.5 3.5l250 18l-35 -213l2 -2q41 89 115 152t165 63q60 0 98 -31.5t38 -80.5q0 -44 -30.5 -73.5t-70.5 -29.5q-28 0 -53 17.5 t-25 58.5q0 31 15.5 56t40.5 36v2q-66 0 -120 -30.5t-90 -81.5t-57.5 -97t-37.5 -98q-9 -36 -42.5 -224t-33.5 -208q0 -35 28.5 -46.5t120.5 -11.5h39q-2 -10 -5 -31.5t-5 -31.5q-99 6 -258 6q-26 0 -65 -1t-90.5 -2.5t-80.5 -2.5z" />
<glyph unicode="s" horiz-adv-x="806" d="M68 0q0 13 4 31l47 274q5 29 9 36t19 7q12 0 17.5 -4.5t6.5 -11.5t3 -27q4 -88 26.5 -147.5t58.5 -87t70.5 -37.5t78.5 -10q62 0 111 16t77.5 39.5t47.5 54t25.5 56t6.5 49.5q0 26 -7.5 48t-18.5 37t-30 28t-34.5 20.5t-41.5 15t-40.5 11t-40.5 8.5q-59 11 -88 18t-64 22 t-61 37q-74 63 -74 152q0 32 10 67t36 74.5t66 70t106.5 51t150.5 20.5q115 0 184 -58q11 9 41 31q31 27 43 27q23 0 23 -23q0 -7 -5 -29l-34 -207q-5 -29 -10 -38t-21 -9q-25 0 -25 21l2 21q2 22 2 38q0 53 -18 91t-40.5 55.5t-55.5 27.5t-49.5 11.5t-36.5 1.5 q-53 0 -96 -10t-69.5 -25t-46 -35.5t-28.5 -37t-14 -35.5t-5.5 -25.5t-0.5 -10.5q0 -29 14 -52.5t31.5 -37t50 -25t53.5 -16.5t58 -12q95 -17 138.5 -33.5t84.5 -58.5q69 -65 69 -164q0 -35 -10 -74.5t-37 -85t-67 -81t-108.5 -59.5t-153.5 -24q-142 0 -211 91 q-28 -28 -52 -48q-33 -31 -40.5 -37t-14.5 -6q-22 0 -22 23z" />
<glyph unicode="t" horiz-adv-x="794" d="M176 819l6 45q55 2 103.5 25t84.5 61t65.5 89t48 106t28.5 115h51l-61 -377h293q-2 -10 -5.5 -32t-5.5 -32h-292l-101 -606q-4 -28 -4 -45q0 -55 24.5 -97t82.5 -42q84 0 141 110q17 34 25.5 68.5t23.5 125.5q1 8 2 12.5t2 12t2 13.5h51q-22 -138 -31.5 -176.5 t-35.5 -83.5q-71 -134 -197 -134q-24 0 -47.5 3t-58 16t-59.5 34.5t-43.5 64t-18.5 98.5q0 30 6 67l92 559h-172z" />
<glyph unicode="u" horiz-adv-x="1136" d="M203 819q0 7 5 33t9 29q4 4 37 4l264 20l-119 -708q-4 -16 -4 -58q0 -17 1 -28t9.5 -29.5t23 -29.5t45 -20t73.5 -9q106 0 192 86q31 32 53 67t35 76.5t17 59t12 57.5l43 258q2 16 7 47t8.5 52.5t3.5 27.5q0 41 -28.5 53t-117.5 12q0 7 5 33t9 29q4 4 37 4l264 20 l-120 -721q-6 -37 -6 -55q0 -41 27 -53.5t118 -12.5q0 -7 -5 -32.5t-9 -28.5q-4 -4 -37 -4l-258 -21l28 173l-2 2q-8 -14 -17 -27t-36.5 -42.5t-57 -50.5t-77 -38t-98.5 -17q-149 0 -212 55.5t-63 157.5q0 17 33 232q53 298 53 332q0 41 -28 53t-117 12z" />
<glyph unicode="v" horiz-adv-x="1079" d="M176 819l12 64q147 -6 195 -6t225 6q-2 -10 -5 -32t-5 -32q-125 0 -125 -61q0 -2 2 -15.5t2 -15.5l135 -567l293 516q25 45 25 69q0 25 -11.5 42t-29 23.5t-27.5 8.5t-16 2l12 62q87 -6 176 -6q84 0 154 6l-10 -64q-47 -1 -85 -14.5t-63 -38t-37 -41.5t-26 -41l-379 -666 q-22 -41 -51 -41q-11 0 -17 2t-10.5 10.5t-6 12.5t-5.5 21l-168 714q-12 55 -37.5 68.5t-116.5 13.5z" />
<glyph unicode="w" horiz-adv-x="1478" d="M174 819l12 64q91 -6 189 -6q68 0 221 6l-10 -64q-24 0 -39 -1t-39.5 -6.5t-37.5 -20t-13 -37.5q0 -21 8 -45l100 -529l258 496q-21 108 -32 119q-8 12 -29.5 17.5t-37.5 6t-52 0.5l12 64q89 -6 178 -6q48 0 213 6l-10 -64q-24 0 -39 -1t-39.5 -6.5t-37.5 -20t-13 -37.5 q0 -21 8 -45l105 -555l274 524q4 5 8 18q5 10 8 33q2 2 2 8q0 27 -14.5 45.5t-36 26t-34 10t-19.5 2.5l12 62q99 -6 189 -6q80 0 147 6q-2 -10 -5 -32t-5 -32q-61 -2 -108.5 -30.5t-84.5 -100.5l-352 -672q-10 -22 -19 -30.5t-26 -8.5q-23 0 -29 17q-2 5 -8 31l-110 573 l-303 -580q-11 -22 -20 -31.5t-28 -9.5q-18 0 -25 9.5t-13 40.5l-134 704q-8 43 -16.5 58t-35 22.5t-89.5 7.5z" />
<glyph unicode="x" horiz-adv-x="1079" d="M25 0q1 10 5 33t5 30q56 1 103.5 13.5t85 36.5t59 42.5t47.5 45.5q13 11 113 115t108 114l-186 311q-32 53 -66 65.5t-127 12.5l10 64q147 -6 195 -6q62 0 221 6q-1 -10 -5 -33.5t-5 -30.5q-41 -3 -61.5 -20t-20.5 -37q0 -10 18 -37l121 -201q7 8 55.5 58.5t51.5 54.5 q50 48 70 74.5t20 56.5q0 17 -5 28.5t-15.5 16t-14.5 6t-14 2.5l10 62q75 -6 194 -6q85 0 170 6q-2 -10 -5 -32t-5 -32q-150 0 -270 -110l-217 -226l110 -186q18 -30 46 -75.5t44 -72.5t19 -32q27 -37 61.5 -45.5t116.5 -8.5l-12 -63q-83 6 -193 6q-40 0 -223 -6l10 63 q42 1 62 19.5t20 38.5q0 15 -35 65l-121 201l-184 -190q-41 -41 -41 -82q0 -17 5 -28.5t15 -16.5t15 -6.5t14 -2.5l-10 -61q-75 6 -194 6q-84 0 -170 -6z" />
<glyph unicode="y" horiz-adv-x="1079" d="M-6 -276q0 53 31.5 81.5t70.5 28.5q29 0 51.5 -17t22.5 -53q0 -35 -23.5 -66t-72.5 -36q35 -37 92 -37q106 0 201 133q17 22 52.5 81.5t63 109.5t27.5 53q0 4 -6 31l-176 712q-12 49 -36.5 61.5t-115.5 12.5l12 64q79 -6 197 -6q40 0 223 6q-1 -10 -5 -33.5t-5 -30.5 q-125 0 -125 -61q0 -7 6 -31l135 -549l289 498q27 49 27 72q0 30 -19.5 48t-35.5 21.5t-29 3.5l12 62q87 -6 176 -6t152 6l-10 -64q-73 -3 -122 -34.5t-87 -96.5l-512 -883q-11 -18 -20 -32.5t-41.5 -54t-63.5 -66t-78 -49.5t-94 -23q-70 0 -117 41t-47 103z" />
<glyph unicode="z" horiz-adv-x="909" d="M61 23v5t1 4.5t1.5 3.5t3 4t4.5 5.5t6.5 7.5t8.5 10l709 775h-236q-159 0 -226.5 -57t-103.5 -228h-51l78 330h651q32 0 43 -3.5t11 -17.5q0 -13 -23 -39l-709 -772h244q75 0 128 12.5t89.5 34.5t63 65.5t44 92t36.5 127.5h51l-99 -383h-671q-25 0 -34 1t-14.5 6t-5.5 16 z" />
<glyph unicode="{" d="M236 512q0 14 8 18.5t35 6.5t45 6q81 18 146 70t89 124q8 27 50 287t57 297q22 55 70 98t108 67.5t122 37t121 12.5q37 0 37 -25q0 -9 -5.5 -14t-17.5 -7t-26 -3.5t-36.5 -5.5t-43.5 -11q-63 -22 -113 -62t-73 -95q-14 -33 -56.5 -298.5t-54.5 -297.5q-15 -43 -43 -77 t-66.5 -57.5t-76.5 -39.5t-88 -31q205 -66 205 -219q0 -27 -44 -286t-44 -286q0 -67 52 -120t150 -64q2 0 11 -0.5t13 -1.5t10 -3t9.5 -7t4.5 -12q0 -25 -41 -25q-48 0 -103 11t-114 36t-97.5 74.5t-38.5 116.5q0 28 44 286t44 283q0 80 -57.5 130t-134.5 60q-2 0 -9.5 0.5 t-11 1t-10.5 2t-10.5 3t-7.5 4.5t-6 7t-2 9z" />
<glyph unicode="|" horiz-adv-x="569" d="M166 -463q0 1 6 49l313 1874q3 21 5.5 32.5t13.5 26.5t28 15q12 0 25.5 -10.5t13.5 -34.5q0 -11 -4 -35l-317 -1896q0 -1 -2 -11t-3.5 -15t-5 -14.5t-7.5 -14.5t-11 -9t-16 -4q-13 0 -26 11.5t-13 35.5z" />
<glyph unicode="}" d="M68 -489q0 15 13.5 19t49 9t66.5 15q136 46 186 157q15 33 56.5 298t54.5 298q29 79 98.5 126.5t175.5 78.5q-55 16 -95 41t-60.5 48t-32.5 51t-14.5 45t-2.5 34q0 28 44 287t44 285q0 79 -60.5 127.5t-141.5 56.5q-33 5 -37 8q-11 7 -11 16q0 10 11.5 17.5t29.5 7.5 q58 0 116.5 -13t113 -38.5t88.5 -73t35 -108.5q0 -31 -44 -288.5t-44 -285.5q0 -80 57 -130t133 -60q2 0 9.5 -0.5t11 -1t10.5 -2t11 -3t8.5 -4.5t6.5 -7t2 -9q0 -14 -8 -18.5t-35 -6.5t-45 -6q-80 -18 -145 -69t-90 -125l-1 -1q-4 -14 -26 -146q-30 -181 -59 -353 q0 -1 -2.5 -15.5t-4 -19.5t-5 -20t-7.5 -23.5t-10.5 -23.5t-15 -26t-19.5 -25t-25.5 -27t-31.5 -25q-69 -50 -158 -72t-164 -22q-36 0 -36 23z" />
<glyph unicode="~" horiz-adv-x="1251" d="M371 1206q7 7 32.5 31.5t35.5 33.5t33.5 29t40 28.5t40.5 19.5t49 15.5t53 4.5q70 0 201.5 -49t200.5 -49q29 0 57 7t45 13t43.5 24.5t33.5 24t36 29.5l31 -31v-2q-5 -5 -25.5 -24.5t-27.5 -26t-26 -23.5t-29.5 -23.5t-29 -19t-33 -18t-34 -12.5t-39.5 -9.5t-41 -2.5 q-70 0 -202 48t-200 48q-47 0 -91 -17t-68 -34t-56 -45z" />
<glyph unicode="&#xa1;" horiz-adv-x="569" d="M119 -354q0 23 24 116l205 813q14 64 37 64q15 0 21 -7t6 -26v-14l-72 -897q-5 -59 -26 -87q-24 -33 -68 -46q-20 -4 -31 -4q-38 0 -67 24.5t-29 63.5zM328 901q0 50 38 86.5t85 36.5q38 0 66 -27t28 -67q0 -50 -38 -85.5t-85 -35.5q-38 0 -66 26t-28 66z" />
<glyph unicode="&#xa2;" d="M135 373q0 126 69.5 245.5t198.5 202t285 92.5l31 179h61l-28 -179q147 -5 228 -54.5t81 -135.5q0 -51 -30.5 -86t-78.5 -35q-37 0 -59.5 22.5t-22.5 57.5t25.5 69t87.5 37q-24 21 -43.5 33t-71.5 25.5t-125 15.5l-139 -831q87 8 153 34.5t100.5 59.5t57 64.5t37 53 t27.5 21.5q9 0 15.5 -6t6.5 -12q0 -15 -14.5 -43t-47.5 -65t-78 -70.5t-115 -58.5t-150 -29v-3l-31 -176h-61l28 179q-99 7 -177 44.5t-125 94t-71 121.5t-24 133zM303 342q0 -127 64.5 -209.5t175.5 -99.5l137 827q-84 -14 -151.5 -57t-108.5 -98t-68.5 -122.5t-38 -126.5 t-10.5 -114z" />
<glyph unicode="&#xa3;" horiz-adv-x="1486" d="M127 84q0 71 75.5 136t196.5 65q54 0 133 -25l15 62l61 358h-104q-41 0 -53.5 4.5t-12.5 26.5q0 14 13.5 23t37.5 9h129q8 57 33.5 202t32.5 173q45 152 163 241t240 89q127 0 207 -90.5t80 -227.5q0 -157 -112 -157q-35 0 -58.5 22t-23.5 58q0 43 32 74.5t76 31.5 q15 0 35 -4q-6 68 -31 119t-60.5 77t-70.5 38t-69 12q-98 0 -181 -94q-28 -33 -46.5 -70t-31.5 -91.5t-21 -100t-22.5 -138t-27.5 -164.5h180q47 0 47 -26q0 -21 -18 -33q-8 -4 -27 -4h-192q-49 -299 -61 -353t-46 -120q7 -4 41.5 -25t47.5 -28.5t45 -24.5t51.5 -25t48 -18 t54 -14t50.5 -4q94 0 159.5 56t90.5 124q1 4 4 15t5 15t6 11t10 9.5t14 2.5q20 0 20 -25q0 -33 -23.5 -81t-64.5 -98t-110 -85t-148 -35q-48 0 -105.5 18t-84 31t-97 54t-73.5 43q-136 -146 -303 -146q-70 0 -113 29.5t-43 77.5zM203 86q0 -28 24 -44.5t62 -16.5 q26 0 57.5 9.5t75 44t72.5 89.5q-66 25 -129 25q-73 0 -117.5 -35t-44.5 -72z" />
<glyph unicode="&#xa4;" horiz-adv-x="1507" d="M84 -53q0 5 1.5 10t7 12t11.5 14t18 18t24.5 21.5t34 28.5t42 35t52.5 44.5t63 53.5q-43 71 -65.5 137t-22.5 156q0 24 2 49.5t14 81t33 107.5t64.5 119t103.5 124v3q-37 45 -89 107q-63 74 -74 89.5t-13 28.5q0 17 13 28t28 11q5 0 9.5 -1.5t11 -6.5t12.5 -10.5t16 -16 t19 -21t23.5 -28.5t28.5 -35t35.5 -43t42.5 -51q88 69 193.5 107t214.5 38q217 0 362 -145h3q216 187 238 202q16 11 32 11q12 0 23.5 -10.5t11.5 -26.5q0 -18 -32.5 -49.5t-134.5 -117.5q-53 -44 -85 -71q42 -68 65 -135t23 -158q0 -25 -2 -51t-14 -81.5t-33 -106.5 t-64.5 -117.5t-103.5 -124.5v-2q43 -52 101 -120q69 -83 73 -95l2 -12q0 -17 -12.5 -28t-28.5 -11q-14 0 -32.5 19t-82.5 96q-50 60 -84 100q-187 -146 -407 -146q-100 0 -196 36.5t-169 109.5h-2q-53 -45 -126 -109q-88 -77 -107.5 -91.5t-32.5 -14.5q-16 0 -27.5 12.5 t-11.5 26.5zM332 477q0 -185 119.5 -301.5t302.5 -116.5q117 0 229 50.5t195 132.5t133.5 191.5t50.5 223.5q0 184 -122 300t-302 116q-117 0 -229 -50t-194 -131.5t-132.5 -191t-50.5 -223.5z" />
<glyph unicode="&#xa5;" horiz-adv-x="1536" d="M221 471q0 25 62 25h477q6 38 6 53t-6.5 33.5t-17.5 41.5t-39.5 85.5t-59.5 136.5h-313q-20 0 -31.5 7t-11.5 15q0 10 12 17.5t31 7.5h291l-158 352q-29 63 -65 76.5t-144 13.5h-8l10 64q156 -6 260 -6q154 0 307 6l-10 -64h-4q-31 0 -52 -1.5t-44 -7t-35 -17.5t-12 -31 q0 -4 1 -9.5t4 -14.5t7 -18.5t11.5 -27.5t15.5 -36t21.5 -48.5l27 -61t34.5 -76.5t41 -93h267q20 0 31.5 4.5t16.5 9.5t21 25q46 59 113 144q86 109 104.5 137t18.5 53q0 28 -26 47t-77 22l11 64q120 -6 237 -6q108 0 197 6l-10 -64q-53 -1 -97.5 -12t-72.5 -24.5t-56.5 -38 t-41.5 -39.5t-35 -43l-222 -285h289q23 -1 31 -11t4 -20q-6 -16 -47 -16h-287q-23 0 -51 -33q-48 -61 -112 -142q-79 -101 -87 -120q-4 -10 -6 -31q-2 -14 -4 -24h477q51 0 51 -25q0 -22 -45 -22h-491q-12 -78 -26.5 -157.5t-20.5 -115t-6 -49.5q0 -16 4.5 -27t16.5 -18 t23.5 -11t35 -5.5t40.5 -2t50 -0.5h28l-10 -63q-258 6 -285 6q-157 0 -313 -6l10 63h10q41 0 66.5 0.5t49.5 3.5t36.5 5.5t25.5 11.5t18 15t11 23.5t8 30t7 40.5q4 25 20 115.5t23 140.5h-484q-47 0 -47 22zM852 846l88 -201l158 201h-246z" />
<glyph unicode="&#xa6;" horiz-adv-x="342" d="M53 -463q0 1 6 43l113 684q1 3 3.5 19.5t5 24.5t7.5 20.5t14 18t21 5.5q37 0 37 -51q0 -13 -4 -37l-115 -688q-1 -3 -3.5 -20.5t-4.5 -25t-7 -19t-13.5 -16.5t-20.5 -5q-17 0 -28 14t-11 33zM250 719q0 1 6 43l115 686q0 2 2 12.5t2.5 13.5t2.5 12.5t3.5 13t4 10.5t6 10 t7.5 7t9.5 5.5t11.5 1.5q17 0 28 -14t11 -33q0 -1 -6 -43l-115 -686q-1 -3 -3 -17t-3.5 -20.5t-5 -17.5t-8 -16.5t-12 -10t-17.5 -4.5q-17 0 -28 14t-11 33z" />
<glyph unicode="&#xa7;" horiz-adv-x="909" d="M137 -205q0 58 26 81.5t58 23.5q25 0 43.5 -17t18.5 -45t-20.5 -54t-65.5 -26h-2q24 -71 77.5 -102t110.5 -31q59 0 112.5 31t87.5 77t54 96.5t20 92.5q0 34 -15.5 63.5t-46 52t-52.5 36t-60 30t-43 19.5q-95 48 -156 136.5t-61 203.5t60 203.5t153 134.5 q-55 62 -83.5 123.5t-28.5 144.5q0 104 54 191.5t138 135.5t174 48q104 0 177 -61t73 -156q0 -58 -26.5 -81.5t-57.5 -23.5q-25 0 -43 17t-18 45q0 33 23.5 56.5t62.5 23.5h2q-22 70 -78 101.5t-113 31.5q-77 0 -142.5 -52.5t-97.5 -119t-32 -121.5q0 -28 12 -53.5t27 -42.5 t43.5 -36t46 -27.5t50 -24t40.5 -19.5q94 -47 154.5 -136t60.5 -204q0 -114 -61 -203t-154 -135v-2q115 -112 115 -266q0 -106 -55 -194t-138.5 -134.5t-173.5 -46.5q-103 0 -176.5 60.5t-73.5 154.5zM319 496q0 -38 18.5 -68.5t51 -53t65.5 -39.5t74.5 -37.5t65.5 -37.5 q50 30 85.5 71.5t51 81.5t21.5 67.5t6 45.5q0 46 -30.5 83.5t-67.5 58.5t-93.5 49.5t-83.5 46.5q-50 -31 -85.5 -73t-51 -82t-21.5 -67.5t-6 -45.5z" />
<glyph unicode="&#xa8;" d="M412 1229q0 46 35.5 83.5t84.5 37.5q38 0 67.5 -27.5t29.5 -67.5q0 -52 -39 -86t-84 -34q-41 0 -67.5 28t-26.5 66zM809 1229q0 47 36.5 84t86.5 37q38 0 66 -27.5t28 -67.5q0 -50 -38 -85t-85 -35q-39 0 -66.5 26.5t-27.5 67.5z" />
<glyph unicode="&#xa9;" horiz-adv-x="2275" d="M184 336q0 162 46.5 321t128 295t196.5 253.5t248 199.5t285.5 129t306.5 47q179 0 337 -64.5t274.5 -179.5t184.5 -283.5t68 -365.5q0 -161 -46 -320t-127.5 -295t-196 -253.5t-246.5 -200t-285 -129.5t-307 -47q-179 0 -337.5 64.5t-275.5 179.5t-185.5 283.5 t-68.5 365.5zM266 336q0 -169 57 -318t158 -258t248.5 -172t319.5 -63q146 0 290 45t267.5 123.5t230 189t182 238t118 274t42.5 293.5q0 233 -101.5 418.5t-280.5 289t-402 103.5q-143 0 -285.5 -44t-266 -121.5t-231 -187t-183.5 -236.5t-119.5 -275.5t-43.5 -298.5z M643 414q0 122 59 236t153.5 195t217 130t246.5 49q167 0 276 -113h2q70 65 98 88t40 23q22 0 22 -27l-59 -364q-8 -37 -33 -37q-13 0 -20.5 5.5t-10 17.5t-3.5 24.5t-2 31.5t-3 34q-17 105 -90.5 179.5t-192.5 74.5q-111 0 -216.5 -55.5t-170.5 -151.5q-58 -87 -83 -202 t-25 -200q0 -77 22.5 -137.5t57.5 -96.5t81.5 -59.5t89 -32t85.5 -8.5q128 0 247 80.5t158 218.5q1 3 3 11t3 10.5t3.5 8.5t4.5 8t6 5t8.5 4t10.5 1q17 0 17 -27q0 -37 -20.5 -85.5t-63.5 -100.5t-99.5 -96t-137.5 -72.5t-169 -28.5q-140 0 -256 56.5t-186 162.5t-70 240z " />
<glyph unicode="&#xaa;" horiz-adv-x="909" d="M76 662q0 24 39 24h635q45 0 45 -22q0 -25 -45 -25h-631q-23 0 -33 7.5t-10 15.5zM102 872q0 51 40 90.5t96 60.5t130.5 35t129 18t106.5 5q3 24 12 71.5t14 87t5 75.5q0 30 -5 62t-17 66.5t-36.5 56.5t-58.5 22q-19 0 -42.5 -7.5t-55.5 -26.5t-65 -62t-58 -105 q10 2 31 2q35 0 58.5 -22.5t23.5 -57.5q0 -42 -31.5 -74t-75.5 -32q-35 0 -58.5 21.5t-23.5 55.5q0 31 12 74.5t37.5 93t60.5 91t87 69t110 27.5q109 0 178.5 -84.5t69.5 -208.5q0 -53 -31.5 -226t-31.5 -186q0 -21 14 -31t51 -10h2q53 0 67.5 18.5t22.5 73.5q1 11 2 17h52 q-4 -26 -5.5 -35t-5.5 -29.5t-7.5 -26.5t-11 -21t-16 -19.5t-21.5 -14t-29.5 -12t-38.5 -7.5t-48.5 -6.5t-60.5 -2.5h-29q-39 1 -52.5 19t-16.5 61q-87 -93 -230 -93q-250 0 -250 127zM264 872q0 -30 27 -54.5t84 -24.5q62 0 120.5 28.5t77.5 81.5q2 5 25 135 q-151 -6 -242.5 -53t-91.5 -113z" />
<glyph unicode="&#xab;" horiz-adv-x="1136" d="M315 496q0 5 1.5 8t3.5 6t8.5 7.5t13 8.5t20.5 13t27 18q88 61 162 128t116.5 118t74 93.5t50 65.5t29.5 23q9 0 14 -6t5 -12q0 -20 -49 -98.5t-142 -188.5t-188 -186q176 -227 219 -447q8 -43 -21 -43q-8 0 -13.5 7.5t-9.5 20.5l-5 13q-33 91 -77.5 167.5t-84.5 122 t-76 78.5t-57 53t-21 30zM655 494q0 8 7 16.5t16 14t25 15.5t26 17q88 61 162 128t116.5 118t74 93.5t50 65.5t29.5 23q9 0 14 -6t5 -12q-1 -20 -50 -98t-141.5 -188t-187.5 -187q63 -80 110.5 -163t69 -144.5t31.5 -100.5t10 -57q0 -25 -21 -25q-6 0 -11.5 5.5t-8.5 11.5 t-6 14.5t-4 9.5q-33 92 -77.5 168.5t-84.5 121.5t-76 77.5t-57 52t-21 29.5z" />
<glyph unicode="&#xac;" horiz-adv-x="1366" d="M229 688q0 41 64 41h1007q62 0 62 -47q0 -14 -37 -234.5t-41 -232.5q-12 -29 -39 -29q-15 0 -27 13t-12 28q0 7 68 420h-979q-66 0 -66 41z" />
<glyph unicode="&#xad;" horiz-adv-x="342" d="M84 381l20 121h545l-20 -121h-545z" />
<glyph unicode="&#xae;" horiz-adv-x="2275" d="M184 336q0 162 46.5 321t128 295t196.5 253.5t248 199.5t285.5 129t306.5 47q179 0 337 -64.5t274.5 -179.5t184.5 -283.5t68 -365.5q0 -161 -46 -320t-127.5 -295t-196 -253.5t-246.5 -200t-285 -129.5t-307 -47q-179 0 -337.5 64.5t-275.5 179.5t-185.5 283.5 t-68.5 365.5zM266 336q0 -169 57 -318t158 -258t248.5 -172t319.5 -63q146 0 290 45t267.5 123.5t230 189t182 238t118 274t42.5 293.5q0 233 -101.5 418.5t-280.5 289t-402 103.5q-143 0 -285.5 -44t-266 -121.5t-231 -187t-183.5 -236.5t-119.5 -275.5t-43.5 -298.5z M496 0l10 63h22q55 0 88 3t55.5 8t34 18.5t17 28.5t10.5 43l111 659q2 10 2 31q0 38 -34.5 49.5t-133.5 11.5h-29l10 64h551q179 0 281 -39q94 -35 143 -87.5t49 -113.5q0 -165 -329 -254q43 -14 74 -36t46 -43.5t24 -47.5t10.5 -42.5t2.5 -34.5v-7q0 -8 1 -24 q9 -149 24 -191q20 -57 76 -57q41 0 74.5 28t48.5 59t27 64l12 33q11 11 20 11q23 0 23 -27q0 -12 -6 -34.5t-22 -54.5t-39.5 -59.5t-63 -47t-87.5 -19.5q-56 0 -104 8.5t-93.5 28t-72 58.5t-26.5 93q0 25 13 97.5t13 89.5q0 22 -7.5 43t-26.5 43.5t-58.5 36.5t-95.5 14 h-178q-56 -337 -56 -342q0 -40 35.5 -51t140.5 -11h23l-10 -63q-153 6 -310 6q-32 0 -290 -6zM971 512h145q36 0 61 1t66 6t69.5 14.5t61.5 28t53 44.5t34 66.5t14 91.5q0 48 -22 80t-64 46.5t-83 19.5t-98 5h-69q-59 0 -82 -12t-31 -59z" />
<glyph unicode="&#xaf;" d="M362 1329l11 66h739l-12 -66h-738z" />
<glyph unicode="&#xb0;" horiz-adv-x="681" d="M305 1143q0 99 77.5 177.5t182.5 78.5q86 0 142.5 -56t56.5 -141q0 -100 -78 -178t-182 -78q-86 0 -142.5 56t-56.5 141zM387 1143q0 -52 32.5 -83.5t84.5 -31.5q70 0 124 54t54 120q0 48 -33 81.5t-84 33.5q-69 0 -123.5 -54.5t-54.5 -119.5z" />
<glyph unicode="&#xb1;" horiz-adv-x="1593" d="M121 41q4 41 59 41h586l94 559h-569q-62 0 -62 41t62 41h583q1 5 95 567l2 12q2 13 3 17.5t4.5 14.5t8 14.5t12 9t17.5 4.5q20 0 29.5 -16t9.5 -31q0 -8 -49.5 -299.5t-49.5 -292.5h570q61 0 61 -41q0 -18 -11.5 -27.5t-24.5 -11.5t-35 -2h-574l-92 -559h569q62 0 62 -41 q0 -16 -13.5 -28.5t-46.5 -12.5h-1239q-61 0 -61 41z" />
<glyph unicode="&#xb2;" horiz-adv-x="909" d="M219 711q21 121 27 129q8 12 89.5 59t188.5 107.5t156 95.5q23 17 39 29t40.5 37t40 48t27 56.5t11.5 68.5q0 79 -52 128t-139 49q-102 0 -176 -50q74 -20 74 -92q0 -50 -37.5 -85.5t-85.5 -35.5q-41 0 -67.5 25.5t-26.5 67.5q0 96 102.5 164.5t257.5 68.5q64 0 122 -14 t107.5 -41.5t79 -75.5t29.5 -111q0 -53 -21 -98t-50.5 -75t-79.5 -60.5t-87.5 -47t-96.5 -41.5t-87 -38q-26 -11 -217 -109h268q151 0 179.5 8t49.5 58l3 6q22 56 45 127h51l-115 -358h-649z" />
<glyph unicode="&#xb3;" horiz-adv-x="909" d="M231 864q0 57 37 97t94 40q43 0 72 -26.5t29 -69.5q0 -42 -25 -77.5t-76 -51.5q84 -28 189 -28q54 0 95 17.5t64 43t38 60t19.5 63t4.5 57.5q0 35 -12 61t-28.5 39t-40 21t-40 10t-33.5 2h-40q-43 0 -43 25q0 13 13.5 19t32 6.5t45.5 4t46 11.5q62 26 100.5 100.5 t38.5 141.5q0 54 -34.5 77t-78.5 23q-22 0 -48 -5.5t-61.5 -20t-73.5 -46.5t-69 -78h27q40 0 66 -24.5t26 -63.5q0 -49 -36 -83.5t-83 -34.5q-38 0 -65 25t-27 65q0 39 23 91t65.5 103.5t114 87t156.5 35.5q118 0 202 -49.5t84 -126.5q0 -20 -7.5 -45.5t-26 -58.5t-58 -66.5 t-94.5 -58.5l-61 -25q37 -7 74.5 -21.5t73.5 -38t58.5 -59.5t22.5 -78q0 -45 -29 -91t-81 -85.5t-134 -64.5t-178 -25q-80 0 -141 12t-95.5 29.5t-56 42.5t-28.5 46.5t-7 45.5z" />
<glyph unicode="&#xb4;" d="M612 1044q74 62 174 146q111 94 133 109.5t44 15.5q28 0 45.5 -19.5t17.5 -44.5q0 -12 -3.5 -23t-10.5 -20t-13.5 -15t-18 -13t-17 -10t-17.5 -8.5t-14 -6.5q-255 -133 -295 -151z" />
<glyph unicode="&#xb5;" horiz-adv-x="1136" d="M0 -399l10 63h15q89 0 118 14.5t39 67.5l156 936q10 50 10 70q0 23 -9.5 37t-29 20t-40.5 7.5t-52 2.5h-14l10 62l307 22l-102 -610q-21 -134 -21 -156q0 -112 150 -112q57 0 107.5 24.5t86 64.5t60 84t37.5 89q9 29 43 237t34 226q0 30 -19.5 46t-43.5 19.5t-64 3.5h-16 l10 62l305 22l-120 -729q-4 -28 -4 -43q0 -30 19.5 -45.5t43 -19t61.5 -3.5h19l-10 -63l-299 -23l26 177q-115 -177 -284 -177q-93 0 -170 29q-6 -46 -17.5 -113.5t-19.5 -114t-8 -57.5q0 -34 28.5 -45.5t106.5 -11.5h12l-10 -63q-204 6 -223 6q-118 0 -238 -6z" />
<glyph unicode="&#xb6;" horiz-adv-x="1251" d="M266 887q0 68 24 140.5t75.5 143t123 126t174.5 90t222 34.5h469q67 0 67 -41q0 -16 -12.5 -28.5t-42.5 -12.5h-119l-276 -1656h92q18 0 26.5 -1t18.5 -6t18 -16q4 -8 4 -16q0 -17 -14.5 -30t-46.5 -13h-520q-29 0 -44.5 13t-15.5 30q0 41 62 41q3 0 8.5 -1t7.5 -1h97 l131 788q-118 9 -212 39.5t-152 72.5t-96.5 95t-53.5 104.5t-15 104.5zM748 -317h141l274 1656h-141z" />
<glyph unicode="&#xb7;" horiz-adv-x="569" d="M258 481q0 46 36.5 83.5t86.5 37.5q41 0 67.5 -28t26.5 -66q0 -46 -36.5 -83.5t-86.5 -37.5q-42 0 -68 27.5t-26 66.5z" />
<glyph unicode="&#xb8;" horiz-adv-x="909" d="M143 -418l9 47h38q45 0 77.5 1t82.5 8.5t81.5 20t55 38t23.5 61.5q0 34 -34 63.5t-118 33.5l25 145h143l-18 -111q77 -17 110 -46q37 -32 37 -81q0 -53 -32 -88.5t-98 -55.5t-151 -28t-206 -8h-25z" />
<glyph unicode="&#xb9;" horiz-adv-x="909" d="M287 711l10 63h41q83 0 119.5 6.5t55 26.5t26.5 67l92 551q-61 -30 -119 -45t-143 -16l10 63q78 1 143.5 17t106 38.5t70 44t49 37t30.5 15.5q25 0 25 -31q0 -7 -2 -18t-2 -12l-94 -566q-17 -108 -17 -114q0 -39 32.5 -51.5t129.5 -12.5h45l-10 -63h-107l82 2l-160 2 h-254l-133 -4h-26z" />
<glyph unicode="&#xba;" horiz-adv-x="909" d="M76 662q0 24 39 24h635q45 0 45 -22q0 -25 -45 -25h-631q-23 0 -33 7.5t-10 15.5zM115 1081q0 121 65.5 234t175.5 183.5t232 70.5q148 0 241 -99.5t93 -248.5q0 -126 -67.5 -237t-176 -175t-227.5 -64q-142 0 -239 94t-97 242zM276 1008q0 -60 17.5 -103t47 -65 t59 -31.5t61.5 -9.5q98 0 176 78q53 55 84.5 165t36.5 192l6 83q0 59 -18.5 101.5t-48 63.5t-59 30.5t-60.5 9.5q-106 0 -183 -84q-32 -34 -55.5 -90.5t-35 -113.5t-18.5 -109t-8 -85z" />
<glyph unicode="&#xbb;" horiz-adv-x="1136" d="M121 25q0 19 48 96t140.5 187t188.5 188q-58 74 -102 149t-65 129.5t-34 98t-15 65.5l-3 23q0 24 18 24q19 0 33 -41q33 -91 77.5 -167.5t84.5 -121.5t75.5 -78t56.5 -52t21 -29q0 -11 -23 -28t-68.5 -48t-100.5 -75.5t-130 -126.5t-147 -183q-21 -31 -37 -31 q-7 0 -12.5 6.5t-5.5 14.5zM461 25q0 20 48.5 97t141.5 186.5t189 187.5q-58 74 -102 149t-66 129.5t-35 98t-16 65.5l-3 23q0 10 6 17t15 7q8 0 15 -7.5t9.5 -14t6.5 -19.5q33 -91 77.5 -167.5t85 -121.5t76 -78t57 -52t21.5 -29q0 -11 -23.5 -28t-69 -48t-100.5 -75.5 t-130.5 -126.5t-147.5 -183q-21 -31 -35 -31q-7 0 -13.5 6.5t-6.5 14.5z" />
<glyph unicode="&#xbc;" horiz-adv-x="909" d="M25 -193q2 10 4 25q4 30 9 38.5t30 33.5l14 14l522 531q4 4 16.5 17t16.5 16.5t13.5 11.5t15 10.5t13.5 5t17 2.5q31 0 31 -29q0 -16 -2 -22l-98 -590h204l-10 -64h-205q-12 -70 -12 -81q0 -40 35.5 -51t151.5 -11l-11 -63q-144 6 -286 6q-109 0 -271 -6l10 63h19 q92 0 130 11t49 30t20 80q1 4 1.5 7t1 7t1.5 8h-430zM98 -129h379l78 463zM113 569q0 41 57 41h748q14 0 22 -1t20 -4t18.5 -12.5t6.5 -23.5q0 -41 -59 -41h-756q-57 0 -57 41zM285 692l10 64h20q60 0 91 1.5t58.5 6.5t39.5 17t20 29.5t13 47.5l102 608 q-69 -19 -121.5 -24.5t-136.5 -5.5l10 63q100 0 176 12.5t109.5 27.5t60.5 27.5t39 12.5q29 0 29 -31q0 -16 -4 -32l-96 -578q-3 -20 -8 -46.5t-8 -43.5t-3 -29q0 -40 34 -51.5t140 -11.5h33l-10 -64q-150 6 -303 6q-119 0 -295 -6z" />
<glyph unicode="&#xbd;" horiz-adv-x="909" d="M35 -399q6 41 13.5 52.5t51.5 45.5q46 35 113 86t104 78.5t88 68t78.5 64.5t62 57t51.5 57t34.5 53t24 56.5t6.5 56.5q0 68 -55 110t-148 42q-71 0 -144 -25q54 -32 54 -84q0 -51 -37 -86.5t-88 -35.5q-40 0 -66 24t-26 66q0 26 10 52.5t35.5 54.5t64 49.5t101 35 t141.5 13.5q63 0 119.5 -10t110 -32.5t85 -66t31.5 -104.5q0 -47 -19 -90t-45.5 -73.5t-70 -64t-78 -54t-84.5 -49.5t-76 -46l-217 -142h139q183 0 228 4q42 3 59 31.5t62 163.5h51l-117 -358h-647zM113 569q0 41 57 41h748q14 0 22 -1t20 -4t18.5 -12.5t6.5 -23.5 q0 -41 -61 -41h-754q-57 0 -57 41zM285 692l10 64h20q60 0 91 1.5t58.5 6.5t39.5 17t20 29.5t13 47.5l100 608q-69 -19 -121 -24.5t-135 -5.5l10 63q100 0 175.5 12.5t109 27.5t60 27.5t38.5 12.5q29 0 29 -31q0 -16 -4 -32l-94 -578q-3 -20 -8 -46.5t-8 -43.5t-3 -29 q0 -40 33 -51.5t139 -11.5h33l-10 -64q-150 6 -301 6q-119 0 -295 -6z" />
<glyph unicode="&#xbe;" horiz-adv-x="909" d="M25 -193q2 10 4 25q4 30 9 38.5t30 33.5l14 14l522 531q4 4 16.5 17t16.5 16.5t13.5 11.5t15 10.5t13.5 5t17 2.5q31 0 31 -29q0 -16 -2 -22l-98 -590h204l-10 -64h-205q-12 -70 -12 -81q0 -40 35.5 -51t151.5 -11l-11 -63q-144 6 -286 6q-109 0 -271 -6l10 63h19 q92 0 130 11t49 30t20 80q1 4 1.5 7t1 7t1.5 8h-430zM98 -129h379l78 463zM113 569q0 41 57 41h748q67 0 67 -43q0 -17 -14.5 -28t-44.5 -11h-756q-57 0 -57 41zM225 825q0 63 41 100.5t92 37.5q42 0 70.5 -27t28.5 -70q0 -39 -25.5 -76t-79.5 -53q96 -32 193 -32 q55 0 97 19.5t65 48t37.5 66t19 67.5t4.5 59q0 37 -12 64t-29 41t-40.5 22t-40 10t-34.5 2h-39q-41 0 -41 22q0 16 19 22t52.5 8t49.5 7q71 23 114.5 104t43.5 156q0 57 -33 81t-82 24q-120 0 -219 -82q55 -3 76.5 -28.5t21.5 -59.5q0 -47 -34 -83t-84 -36q-39 0 -65.5 24 t-26.5 64t23.5 83.5t65 82t109 63.5t146.5 25q120 0 204 -52t84 -130q0 -22 -7.5 -48.5t-26 -61.5t-58.5 -70t-96 -62q-12 -6 -35 -14t-29 -10q109 -22 169.5 -80.5t60.5 -126.5q0 -106 -121 -193.5t-303 -87.5q-58 0 -111 8.5t-104 27.5t-81 56t-30 88z" />
<glyph unicode="&#xbf;" horiz-adv-x="966" d="M84 -188q0 65 29 128.5t82 108.5q2 2 35.5 28.5t54.5 45t58.5 59t63.5 78.5t53.5 95t43.5 118q8 31 13.5 69t9.5 59.5t12 31.5q7 9 24 5.5t17 -15.5q0 -22 -7 -70t-27 -132.5t-69.5 -185t-120.5 -182.5l-6 -7q-6 -6 -13.5 -14.5t-17.5 -23.5t-19.5 -32.5t-19 -42.5 t-16.5 -52t-11.5 -63t-4.5 -74q0 -119 145 -119q213 0 338 139q-54 0 -74 25t-20 55q0 39 30.5 73t75.5 34q37 0 60.5 -22.5t23.5 -59.5q0 -48 -29.5 -98t-83.5 -93t-140 -70.5t-187 -27.5q-91 0 -154.5 22.5t-94 60t-42.5 73.5t-12 76zM498 901q0 50 36.5 86.5t83.5 36.5 q38 0 67.5 -27t29.5 -67q0 -50 -38 -85.5t-85 -35.5q-38 0 -66 26t-28 66z" />
<glyph unicode="&#xc0;" horiz-adv-x="1536" d="M66 0q2 10 5 31.5t5 31.5q98 0 158 35.5t96 104.5l626 1222q12 25 22.5 33t33.5 8q24 0 30 -8t11 -39l229 -1265q7 -41 16 -56.5t42 -25t106 -9.5h33q-1 -7 -5.5 -30t-5.5 -33q-129 6 -268 6q-223 0 -295 -6q1 10 5 33t5 30q183 0 183 68q0 19 -4 31l-56 305h-506 q-15 -25 -35 -64.5t-46.5 -93t-40.5 -80.5q-27 -53 -27 -73q0 -30 18 -51t44.5 -29.5t44.5 -11.5t30 -3l-12 -61q-171 6 -234 6q-79 0 -208 -6zM565 530h461l-119 666zM760 1679q0 31 24 58.5t58 27.5q18 0 45.5 -16.5t128.5 -86.5q25 -18 40 -28.5t43 -29.5t54 -37l-29 -49 q-8 2 -18 5.5t-31 10.5t-47.5 15.5t-80 26t-116.5 38.5q-24 7 -35 11.5t-23.5 18.5t-12.5 35z" />
<glyph unicode="&#xc1;" horiz-adv-x="1536" d="M66 0q2 10 5 31.5t5 31.5q98 0 158 35.5t96 104.5l626 1222q12 25 22.5 33t33.5 8q24 0 30 -8t11 -39l229 -1265q7 -41 16 -56.5t42 -25t106 -9.5h33q-1 -7 -5.5 -30t-5.5 -33q-129 6 -268 6q-223 0 -295 -6q1 10 5 33t5 30q183 0 183 68q0 19 -4 31l-56 305h-506 q-15 -25 -35 -64.5t-46.5 -93t-40.5 -80.5q-27 -53 -27 -73q0 -30 18 -51t44.5 -29.5t44.5 -11.5t30 -3l-12 -61q-171 6 -234 6q-79 0 -208 -6zM565 530h461l-119 666zM846 1567q63 35 156 88q144 82 172.5 96t48.5 14q24 0 41.5 -18t17.5 -45q0 -16 -6.5 -29.5t-13.5 -21.5 t-21.5 -15.5t-22.5 -10.5t-24 -7.5t-18 -5.5q-85 -25 -150.5 -44.5t-92 -27.5t-44.5 -13.5t-29 -8.5z" />
<glyph unicode="&#xc2;" horiz-adv-x="1536" d="M66 0q2 10 5 31.5t5 31.5q98 0 158 35.5t96 104.5l626 1222q12 25 22.5 33t33.5 8q24 0 30 -8t11 -39l229 -1265q7 -41 16 -56.5t42 -25t106 -9.5h33q-1 -7 -5.5 -30t-5.5 -33q-129 6 -268 6q-223 0 -295 -6q1 10 5 33t5 30q183 0 183 68q0 19 -4 31l-56 305h-506 q-15 -25 -35 -64.5t-46.5 -93t-40.5 -80.5q-27 -53 -27 -73q0 -30 18 -51t44.5 -29.5t44.5 -11.5t30 -3l-12 -61q-171 6 -234 6q-79 0 -208 -6zM565 530h461l-119 666zM754 1561l321 286l225 -286v-2l-40 -35h-3l-198 215l-275 -215h-2z" />
<glyph unicode="&#xc3;" horiz-adv-x="1536" d="M66 0q2 10 5 31.5t5 31.5q98 0 158 35.5t96 104.5l626 1222q12 25 22.5 33t33.5 8q24 0 30 -8t11 -39l229 -1265q7 -41 16 -56.5t42 -25t106 -9.5h33q-1 -7 -5.5 -30t-5.5 -33q-129 6 -268 6q-223 0 -295 -6q1 10 5 33t5 30q183 0 183 68q0 19 -4 31l-56 305h-506 q-15 -25 -35 -64.5t-46.5 -93t-40.5 -80.5q-27 -53 -27 -73q0 -30 18 -51t44.5 -29.5t44.5 -11.5t30 -3l-12 -61q-171 6 -234 6q-79 0 -208 -6zM565 530h461l-119 666zM649 1681v2q6 6 27.5 27t31 29.5t29.5 25.5t35 24.5t36 17.5t43.5 14t47.5 4q60 0 176.5 -39t177.5 -39 q53 0 95 19t88 59l28 -29v-2q-5 -5 -25 -24.5t-26.5 -26t-25.5 -22.5t-29.5 -22.5t-29.5 -17.5t-34.5 -15.5t-36.5 -8.5t-43 -4q-60 0 -177 39t-177 39q-40 0 -75 -12.5t-54 -25.5t-51 -40z" />
<glyph unicode="&#xc4;" horiz-adv-x="1536" d="M66 0q2 10 5 31.5t5 31.5q98 0 158 35.5t96 104.5l626 1222q12 25 22.5 33t33.5 8q24 0 30 -8t11 -39l229 -1265q7 -41 16 -56.5t42 -25t106 -9.5h33q-1 -7 -5.5 -30t-5.5 -33q-129 6 -268 6q-223 0 -295 -6q1 10 5 33t5 30q183 0 183 68q0 19 -4 31l-56 305h-506 q-15 -25 -35 -64.5t-46.5 -93t-40.5 -80.5q-27 -53 -27 -73q0 -30 18 -51t44.5 -29.5t44.5 -11.5t30 -3l-12 -61q-171 6 -234 6q-79 0 -208 -6zM565 530h461l-119 666zM737 1653q0 51 38.5 86t84.5 35q38 0 66 -27t28 -68q0 -51 -39 -85.5t-84 -34.5q-41 0 -67.5 28 t-26.5 66zM1135 1651q0 53 38 88t84 35q38 0 66.5 -27t28.5 -68q0 -48 -38 -84t-85 -36q-39 0 -66.5 26.5t-27.5 65.5z" />
<glyph unicode="&#xc5;" horiz-adv-x="1536" d="M66 0l10 63q45 1 81 7.5t63 21.5t44.5 28t35 38.5t26 40.5t24.5 47l606 1181q-114 46 -114 177q0 106 73 186t162 80q72 0 118 -52t46 -130q0 -32 -9 -66.5t-28.5 -72.5t-58.5 -71t-92 -51l229 -1269q12 -63 41.5 -79t138.5 -16h17l-11 -63q-131 6 -262 6q-151 0 -301 -6 l10 63h9q170 0 170 70q0 18 -56 334h-508q-26 -52 -66 -129q-58 -111 -69.5 -137.5t-11.5 -44.5q0 -35 31 -62.5t104 -30.5l-10 -63q-120 6 -238 6q-81 0 -204 -6zM563 530h463l-121 666zM891 1593q0 -68 36 -96.5t85 -28.5q50 0 87.5 24t56 62t26.5 74.5t8 71.5 q0 68 -35.5 96.5t-85.5 28.5t-87.5 -24.5t-56 -62.5t-26.5 -74.5t-8 -70.5z" />
<glyph unicode="&#xc6;" horiz-adv-x="1849" d="M66 0l10 61v2q65 1 111.5 15t78 43.5t47 53t39.5 69.5l574 1089l-174 2l10 64h1147l-19 -461h-53q4 70 4 106q0 90 -15.5 146t-55.5 88.5t-98 44.5t-152 12h-142q-69 0 -90 -4t-33 -16q-15 -15 -26.5 -75.5t-35 -221.5t-52.5 -313h127q122 0 162 12q66 19 99 95 q20 48 34 130h53l-90 -541h-53q12 74 12 111q0 98 -86 120q-36 9 -135 9h-134q-35 -210 -69 -406q-19 -110 -19 -124q0 -32 25.5 -40t108.5 -8h104q87 0 145 6t112.5 24.5t90.5 48.5t72 84.5t65 125.5t62 176h51l-174 -528h-1010l11 63h12q67 0 93.5 6t39.5 19 q11 9 16.5 25.5t28 140t63.5 387.5h-329q-75 -143 -163 -309q-60 -114 -70.5 -136.5t-10.5 -39.5q0 -35 31 -62.5t104 -30.5l-12 -63q-120 6 -238 6q-102 0 -204 -6zM662 705h307q12 77 35.5 217.5t40 238t16.5 105.5q0 23 -12.5 37t-24.5 18t-33 8z" />
<glyph unicode="&#xc7;" horiz-adv-x="1478" d="M219 575q0 135 46 266.5t128 238.5t187.5 190t231.5 128.5t253 45.5q223 0 348 -176q27 30 53.5 61t41 49.5t28.5 34.5t23.5 22.5t17.5 6.5t15 -7t7 -22q0 -5 -19.5 -125t-41.5 -254l-22 -133q-1 -4 -2 -7.5t-1.5 -6.5t-1.5 -5.5t-1.5 -4t-2 -3t-2 -2.5t-2 -2.5l-2 -2 t-3 -2.5t-3.5 -3q-9 -4 -21 -2t-20 10q-6 8 -6 58q0 199 -100 325.5t-267 126.5q-35 0 -76 -7t-107.5 -28t-140 -73.5t-136.5 -130.5q-73 -91 -119.5 -217.5t-62 -228t-15.5 -193.5q0 -100 24.5 -182t65.5 -137.5t96.5 -93t116.5 -54.5t127 -17q122 0 236 63t191 164 t105 216q9 40 21 47q12 9 25 1t12 -28q-4 -46 -27.5 -106t-70.5 -128t-109 -127t-152 -103.5t-190 -57.5l-10 -70q14 -3 24 -5.5t35.5 -12.5t42.5 -22.5t31 -35.5t14 -51q0 -41 -20.5 -72.5t-58.5 -50t-78.5 -31t-94.5 -18t-92.5 -7t-85.5 -1.5h-82l6 47h43q45 0 78.5 1.5 t82 8.5t80 20t54.5 38.5t23 60.5q-2 38 -36 65.5t-116 31.5l17 104q-243 30 -388 201t-145 415z" />
<glyph unicode="&#xc8;" horiz-adv-x="1392" d="M68 0q2 10 5 31.5t5 31.5h45q50 0 82 3.5t50 8.5t28 19t13 24.5t7 35.5l182 1089q4 18 4 29q0 33 -30 45t-125 12h-45l10 64h1153l-18 -461h-52q2 25 2 88q0 88 -13.5 143t-51.5 94.5t-104.5 55.5t-172.5 16h-256q-70 0 -89 -13.5t-27 -64.5l-82 -495h180q136 0 189.5 47 t74.5 192h51l-90 -542h-51q12 70 12 106q0 79 -45 106t-153 27h-178l-93 -545q-6 -31 -6 -41q0 -16 6 -25t21.5 -12.5t28.5 -4.5t40 -1h267q98 0 168.5 15t125 46t96 88.5t74 130.5t66.5 185h51l-174 -528h-1181zM760 1679q0 31 24 58.5t58 27.5q18 0 45.5 -16.5 t128.5 -86.5q25 -18 40 -28.5t43 -29.5t54 -37l-29 -49q-8 2 -18 5.5t-31 10.5t-47.5 15.5t-80 26t-116.5 38.5q-24 7 -35 11.5t-23.5 18.5t-12.5 35z" />
<glyph unicode="&#xc9;" horiz-adv-x="1392" d="M68 0q2 10 5 31.5t5 31.5h45q50 0 82 3.5t50 8.5t28 19t13 24.5t7 35.5l182 1089q4 18 4 29q0 33 -30 45t-125 12h-45l10 64h1153l-18 -461h-52q2 25 2 88q0 88 -13.5 143t-51.5 94.5t-104.5 55.5t-172.5 16h-256q-70 0 -89 -13.5t-27 -64.5l-82 -495h180q136 0 189.5 47 t74.5 192h51l-90 -542h-51q12 70 12 106q0 79 -45 106t-153 27h-178l-93 -545q-6 -31 -6 -41q0 -16 6 -25t21.5 -12.5t28.5 -4.5t40 -1h267q98 0 168.5 15t125 46t96 88.5t74 130.5t66.5 185h51l-174 -528h-1181zM877 1567q319 180 336 188q22 10 40 10q24 0 41 -18t17 -45 q0 -16 -6.5 -29.5t-14 -21.5t-22 -15.5t-22.5 -10.5t-24 -7.5t-18 -5.5q-108 -32 -182.5 -54.5t-97 -29.5t-35.5 -10z" />
<glyph unicode="&#xca;" horiz-adv-x="1392" d="M68 0q2 10 5 31.5t5 31.5h45q50 0 82 3.5t50 8.5t28 19t13 24.5t7 35.5l182 1089q4 18 4 29q0 33 -30 45t-125 12h-45l10 64h1153l-18 -461h-52q2 25 2 88q0 88 -13.5 143t-51.5 94.5t-104.5 55.5t-172.5 16h-256q-70 0 -89 -13.5t-27 -64.5l-82 -495h180q136 0 189.5 47 t74.5 192h51l-90 -542h-51q12 70 12 106q0 79 -45 106t-153 27h-178l-93 -545q-6 -31 -6 -41q0 -16 6 -25t21.5 -12.5t28.5 -4.5t40 -1h267q98 0 168.5 15t125 46t96 88.5t74 130.5t66.5 185h51l-174 -528h-1181zM696 1561l322 286l227 -288l-41 -35h-2l-201 215l-272 -215 h-2z" />
<glyph unicode="&#xcb;" horiz-adv-x="1392" d="M68 0q2 10 5 31.5t5 31.5h45q50 0 82 3.5t50 8.5t28 19t13 24.5t7 35.5l182 1089q4 18 4 29q0 33 -30 45t-125 12h-45l10 64h1153l-18 -461h-52q2 25 2 88q0 88 -13.5 143t-51.5 94.5t-104.5 55.5t-172.5 16h-256q-70 0 -89 -13.5t-27 -64.5l-82 -495h180q136 0 189.5 47 t74.5 192h51l-90 -542h-51q12 70 12 106q0 79 -45 106t-153 27h-178l-93 -545q-6 -31 -6 -41q0 -16 6 -25t21.5 -12.5t28.5 -4.5t40 -1h267q98 0 168.5 15t125 46t96 88.5t74 130.5t66.5 185h51l-174 -528h-1181zM680 1651q0 50 38 86.5t85 36.5q38 0 66 -27.5t28 -67.5 q0 -47 -35.5 -83.5t-85.5 -36.5q-37 0 -66.5 26t-29.5 66zM1079 1653q0 49 37 85t84 36q38 0 67 -27.5t29 -67.5q0 -50 -37.5 -85t-84.5 -35q-42 0 -68.5 27.5t-26.5 66.5z" />
<glyph unicode="&#xcc;" horiz-adv-x="739" d="M57 0l11 63h49q81 0 119.5 9t49.5 25.5t17 54.5l180 1077q6 48 6 49q0 34 -30 45.5t-131 11.5h-47q1 10 5 33.5t5 30.5q72 -6 311 -6t313 6l-10 -64h-49q-52 0 -85 -3.5t-52 -8.5t-29 -18.5t-13 -24t-7 -35.5l-181 -1073q-6 -48 -6 -49q0 -24 9.5 -35.5t45 -18 t107.5 -6.5h47q-1 -10 -5 -33t-5 -30q-72 6 -311 6q-240 0 -314 -6zM389 1679q0 34 27 60t55 26q22 0 50 -17.5t179 -123.5q17 -11 26.5 -18t25.5 -18t30 -21l-30 -49q-35 10 -293 96q-35 11 -52.5 24.5t-17.5 40.5z" />
<glyph unicode="&#xcd;" horiz-adv-x="739" d="M57 0l11 63h49q81 0 119.5 9t49.5 25.5t17 54.5l180 1077q6 48 6 49q0 34 -30 45.5t-131 11.5h-47q1 10 5 33.5t5 30.5q72 -6 311 -6t313 6l-10 -64h-49q-52 0 -85 -3.5t-52 -8.5t-29 -18.5t-13 -24t-7 -35.5l-181 -1073q-6 -48 -6 -49q0 -24 9.5 -35.5t45 -18 t107.5 -6.5h47q-1 -10 -5 -33t-5 -30q-72 6 -311 6q-240 0 -314 -6zM428 1567q66 37 162 92q135 77 164 91.5t49 14.5q24 0 40.5 -18t16.5 -45q0 -17 -7 -31t-16 -22.5t-23 -15.5t-23 -10.5t-21.5 -7t-13.5 -3.5q-107 -31 -182.5 -54t-98.5 -30t-35 -10z" />
<glyph unicode="&#xce;" horiz-adv-x="739" d="M57 0l11 63h49q81 0 119.5 9t49.5 25.5t17 54.5l180 1077q6 48 6 49q0 34 -30 45.5t-131 11.5h-47q1 10 5 33.5t5 30.5q72 -6 311 -6t313 6l-10 -64h-49q-52 0 -85 -3.5t-52 -8.5t-29 -18.5t-13 -24t-7 -35.5l-181 -1073q-6 -48 -6 -49q0 -24 9.5 -35.5t45 -18 t107.5 -6.5h47q-1 -10 -5 -33t-5 -30q-72 6 -311 6q-240 0 -314 -6zM354 1561l322 286l225 -286l-43 -37l-199 215l-274 -217z" />
<glyph unicode="&#xcf;" horiz-adv-x="739" d="M57 0l11 63h49q81 0 119.5 9t49.5 25.5t17 54.5l180 1077q6 48 6 49q0 34 -30 45.5t-131 11.5h-47q1 10 5 33.5t5 30.5q72 -6 311 -6t313 6l-10 -64h-49q-52 0 -85 -3.5t-52 -8.5t-29 -18.5t-13 -24t-7 -35.5l-181 -1073q-6 -48 -6 -49q0 -24 9.5 -35.5t45 -18 t107.5 -6.5h47q-1 -10 -5 -33t-5 -30q-72 6 -311 6q-240 0 -314 -6zM338 1653q0 50 38 85.5t85 35.5q38 0 66 -27.5t28 -67.5q0 -50 -38 -85t-85 -35q-38 0 -66 27t-28 67zM735 1653q0 47 36.5 84t86.5 37q38 0 66 -27.5t28 -67.5q0 -47 -36.5 -83.5t-86.5 -36.5 q-42 0 -68 27.5t-26 66.5z" />
<glyph unicode="&#xd0;" horiz-adv-x="1564" d="M70 0l10 63h18q126 0 161.5 15.5t47.5 83.5l82 493h-156q-4 0 -10.5 1t-9.5 1.5t-7.5 1.5t-7 2t-5.5 3.5t-4 5t-2 7t-1 9.5q0 28 43 31h170q17 100 35 209.5t26.5 157.5t16 96.5t10 69t2.5 32.5q0 34 -37 43.5t-133 9.5h-26l10 64h721q37 0 64 -1.5t81.5 -12.5 t98.5 -30.5t97 -60.5t95 -98q115 -157 115 -377q0 -154 -57 -298.5t-151 -251t-217 -177.5t-253 -88q-35 -4 -109 -4h-718zM479 111q0 -33 26.5 -40.5t117.5 -7.5h145q143 0 253 60t179 149q53 66 91 161t55.5 189t24.5 163t7 122q0 62 -10.5 119t-39 114.5t-73 99.5 t-117.5 68.5t-167 26.5h-51q-18 0 -52 1t-51 1q-69 0 -90.5 -3.5t-34.5 -14.5q-10 -9 -16.5 -29t-29.5 -151t-68 -422h323q22 0 33 -2t14 -5t8 -12q2 -4 2 -10q0 -14 -13.5 -24.5t-37.5 -10.5q-4 0 -10.5 1t-9.5 1h-320q-7 -51 -29.5 -185t-40.5 -241t-18 -118z" />
<glyph unicode="&#xd1;" horiz-adv-x="1536" d="M68 0q2 10 5 31.5t5 31.5q60 0 103.5 10.5t66.5 24t37.5 36t18.5 36t7 35.5l187 1116q-54 14 -152 14h-55q1 10 5 33.5t5 30.5h340q35 0 44.5 -5t21.5 -28l542 -1059l146 873q6 33 6 47q0 108 -191 108l13 64q189 -6 237 -6q24 0 240 6l-10 -64q-60 0 -104.5 -11 t-67.5 -25t-38 -37t-19 -37.5t-7 -36.5l-190 -1141q-5 -30 -10 -38.5t-23 -8.5q-15 0 -20.5 5.5t-16.5 27.5l-616 1202l-27 45l-178 -1059q-6 -48 -6 -49q0 -109 190 -109l-12 -63q-189 6 -238 6q-23 0 -239 -6zM651 1681v2q5 5 32 31.5t36.5 34.5t35 27.5t43 27t45 14.5 t56.5 7q60 0 176.5 -39t177.5 -39q53 0 95 19t88 59l28 -29v-2q-5 -5 -25 -24.5t-26.5 -26t-25.5 -22.5t-29.5 -22.5t-29.5 -17.5t-34.5 -15.5t-36.5 -8.5t-43 -4q-60 0 -177 39t-177 39q-40 0 -75 -12.5t-54 -25.5t-51 -40z" />
<glyph unicode="&#xd2;" horiz-adv-x="1591" d="M219 561q0 168 68.5 331t180.5 283.5t262 194.5t306 74q159 0 288 -76.5t204.5 -217.5t75.5 -321q0 -171 -69.5 -333.5t-182.5 -280t-262 -189t-302 -71.5q-162 0 -292 77.5t-203.5 216t-73.5 312.5zM426 508q0 -231 106 -365.5t265 -134.5q112 0 227 70.5t209 212.5 q84 130 127 305t43 317q0 127 -34.5 224t-91 150.5t-120 79.5t-131.5 26q-108 0 -226.5 -68t-215.5 -213q-50 -77 -84.5 -174.5t-49 -187t-19.5 -146.5t-5 -96zM844 1679q0 31 24 58.5t58 27.5q18 0 45.5 -16.5t128.5 -86.5q25 -18 40 -28.5t43 -29.5t54 -37l-29 -49 q-8 2 -18 5.5t-31 10.5t-47.5 15.5t-80 26t-116.5 38.5q-24 7 -35 11.5t-23.5 18.5t-12.5 35z" />
<glyph unicode="&#xd3;" horiz-adv-x="1591" d="M219 561q0 168 68.5 331t180.5 283.5t262 194.5t306 74q159 0 288 -76.5t204.5 -217.5t75.5 -321q0 -171 -69.5 -333.5t-182.5 -280t-262 -189t-302 -71.5q-162 0 -292 77.5t-203.5 216t-73.5 312.5zM426 508q0 -231 106 -365.5t265 -134.5q112 0 227 70.5t209 212.5 q84 130 127 305t43 317q0 127 -34.5 224t-91 150.5t-120 79.5t-131.5 26q-108 0 -226.5 -68t-215.5 -213q-50 -77 -84.5 -174.5t-49 -187t-19.5 -146.5t-5 -96zM874 1567q63 35 156 88q144 82 172.5 96t48.5 14q24 0 42 -18t18 -45q0 -16 -6.5 -29.5t-14 -21.5t-22 -15.5 t-22.5 -10.5t-24 -7.5t-18 -5.5q-108 -32 -182.5 -54.5t-97 -29.5t-35.5 -10z" />
<glyph unicode="&#xd4;" horiz-adv-x="1591" d="M219 561q0 168 68.5 331t180.5 283.5t262 194.5t306 74q159 0 288 -76.5t204.5 -217.5t75.5 -321q0 -171 -69.5 -333.5t-182.5 -280t-262 -189t-302 -71.5q-162 0 -292 77.5t-203.5 216t-73.5 312.5zM426 508q0 -231 106 -365.5t265 -134.5q112 0 227 70.5t209 212.5 q84 130 127 305t43 317q0 127 -34.5 224t-91 150.5t-120 79.5t-131.5 26q-108 0 -226.5 -68t-215.5 -213q-50 -77 -84.5 -174.5t-49 -187t-19.5 -146.5t-5 -96zM780 1561l322 286l227 -288l-41 -35h-2l-201 215l-274 -215z" />
<glyph unicode="&#xd5;" horiz-adv-x="1591" d="M219 561q0 168 68.5 331t180.5 283.5t262 194.5t306 74q159 0 288 -76.5t204.5 -217.5t75.5 -321q0 -171 -69.5 -333.5t-182.5 -280t-262 -189t-302 -71.5q-162 0 -292 77.5t-203.5 216t-73.5 312.5zM426 508q0 -231 106 -365.5t265 -134.5q112 0 227 70.5t209 212.5 q84 130 127 305t43 317q0 127 -34.5 224t-91 150.5t-120 79.5t-131.5 26q-108 0 -226.5 -68t-215.5 -213q-50 -77 -84.5 -174.5t-49 -187t-19.5 -146.5t-5 -96zM678 1681v2q6 6 27.5 27t31 29.5t29.5 25.5t35 24.5t36 17.5t43.5 14t47.5 4q60 0 176 -39t176 -39q52 0 94 19 t88 59l29 -29v-2l-28 -28t-31 -29.5t-29 -24.5t-34.5 -25t-35 -17t-43.5 -13.5t-47 -3.5q-61 0 -177 39t-177 39q-40 0 -75 -12.5t-54 -25.5t-51 -40z" />
<glyph unicode="&#xd6;" horiz-adv-x="1591" d="M219 561q0 168 68.5 331t180.5 283.5t262 194.5t306 74q159 0 288 -76.5t204.5 -217.5t75.5 -321q0 -171 -69.5 -333.5t-182.5 -280t-262 -189t-302 -71.5q-162 0 -292 77.5t-203.5 216t-73.5 312.5zM426 508q0 -231 106 -365.5t265 -134.5q112 0 227 70.5t209 212.5 q84 130 127 305t43 317q0 127 -34.5 224t-91 150.5t-120 79.5t-131.5 26q-108 0 -226.5 -68t-215.5 -213q-50 -77 -84.5 -174.5t-49 -187t-19.5 -146.5t-5 -96zM766 1653q0 47 35.5 84t85.5 37q38 0 67 -27.5t29 -67.5q0 -50 -38 -85t-85 -35q-38 0 -66 27t-28 67z M1163 1653q0 46 36.5 83.5t86.5 37.5q42 0 68 -28t26 -67q0 -51 -39 -85.5t-84 -34.5q-42 0 -68 27.5t-26 66.5z" />
<glyph unicode="&#xd7;" horiz-adv-x="1593" d="M313 57q1 13 8 24.5t13.5 17t27.5 24.5l461 395q-94 113 -214 256q-108 128 -126 152.5t-18 40.5t12.5 26.5t24.5 10.5h2q18 0 46 -30.5t174 -207.5q96 -117 161 -195h2l459 394q2 2 11.5 11t15.5 13.5t15.5 9.5t18.5 5q15 0 28 -10t13 -29q0 -7 -4.5 -15.5t-11.5 -16.5 t-13 -14t-12.5 -11.5t-7.5 -6.5l-461 -393v-2q40 -45 322 -383q36 -41 36 -66q0 -14 -11.5 -25.5t-24.5 -11.5q-12 0 -24.5 8.5t-19 16t-20.5 25.5q-277 333 -319 385l-463 -398q-40 -35 -58 -37t-30.5 8.5t-12.5 28.5z" />
<glyph unicode="&#xd8;" horiz-adv-x="1593" d="M215 -86l172 205q-77 77 -123.5 189.5t-46.5 252.5q0 169 69 332t181.5 283t263 194t305.5 74q67 0 125.5 -12t106.5 -36.5t72.5 -40t60.5 -42.5l168 200l39 -28l-172 -205q168 -179 168 -451q0 -171 -69.5 -333.5t-182.5 -280t-262.5 -189t-303.5 -71.5q-204 0 -364 129 l-168 -197zM391 475q0 -30 2.5 -59t6 -51.5t9 -45t10 -37t11 -31t10 -24t9 -18.5t6.5 -12l843 995q4 5 11 13t9.5 12t6 9t5 9t1.5 8q0 12 -22 36.5t-59 52t-97 47.5t-125 20q-131 0 -251 -70.5t-202 -187.5q-53 -75 -91.5 -173t-57.5 -192t-27 -168.5t-8 -132.5zM481 154 q122 -152 316 -152q129 0 247.5 68t198.5 178q54 74 94 172.5t59 194t27.5 170.5t8.5 133q0 31 -2.5 60.5t-6 52t-9 45.5t-10 37.5t-11 31.5t-10 24l-9.5 19l-6 12z" />
<glyph unicode="&#xd9;" horiz-adv-x="1536" d="M291 1335q1 10 5 33.5t5 30.5q74 -6 301 -6q231 0 303 6l-10 -64h-45q-80 0 -117 -9.5t-47 -25t-16 -53.5l-138 -829q-6 -37 -6 -90q0 -77 21 -135.5t50.5 -90.5t69 -52t70.5 -26t60 -6q75 0 150.5 31t141.5 87t114.5 144t66.5 193l119 707q6 33 6 47q0 108 -191 108 l13 64q183 -6 239 -6q127 0 244 6l-10 -64q-60 0 -104.5 -11t-67.5 -25t-38 -37t-19 -37.5t-7 -36.5l-121 -727q-16 -98 -66 -190t-121 -162t-164.5 -112t-190.5 -42q-119 0 -219 52.5t-161 152.5t-61 227q0 49 6 86l127 756q6 48 6 49q0 34 -28.5 45.5t-126.5 11.5h-43z M815 1679q0 31 24 58.5t58 27.5q18 0 45.5 -16.5t128.5 -86.5q25 -18 40 -28.5t43 -29.5t54 -37l-28 -49q-8 2 -18 5.5t-31 10.5t-47.5 15.5t-80 26t-116.5 38.5q-19 6 -26.5 8.5t-21 10t-19 19t-5.5 27.5z" />
<glyph unicode="&#xda;" horiz-adv-x="1536" d="M291 1335q1 10 5 33.5t5 30.5q74 -6 301 -6q231 0 303 6l-10 -64h-45q-80 0 -117 -9.5t-47 -25t-16 -53.5l-138 -829q-6 -37 -6 -90q0 -77 21 -135.5t50.5 -90.5t69 -52t70.5 -26t60 -6q75 0 150.5 31t141.5 87t114.5 144t66.5 193l119 707q6 33 6 47q0 108 -191 108 l13 64q183 -6 239 -6q127 0 244 6l-10 -64q-60 0 -104.5 -11t-67.5 -25t-38 -37t-19 -37.5t-7 -36.5l-121 -727q-16 -98 -66 -190t-121 -162t-164.5 -112t-190.5 -42q-119 0 -219 52.5t-161 152.5t-61 227q0 49 6 86l127 756q6 48 6 49q0 34 -28.5 45.5t-126.5 11.5h-43z M932 1567q63 35 156 88q144 82 172.5 96t48.5 14q24 0 40.5 -18t16.5 -45q0 -16 -6 -29.5t-13 -21.5t-22 -16t-22 -10.5t-23.5 -7.5t-17.5 -5q-84 -25 -150.5 -44.5t-93 -27.5t-45 -13.5t-29.5 -8.5z" />
<glyph unicode="&#xdb;" horiz-adv-x="1536" d="M291 1335q1 10 5 33.5t5 30.5q74 -6 301 -6q231 0 303 6l-10 -64h-45q-80 0 -117 -9.5t-47 -25t-16 -53.5l-138 -829q-6 -37 -6 -90q0 -77 21 -135.5t50.5 -90.5t69 -52t70.5 -26t60 -6q75 0 150.5 31t141.5 87t114.5 144t66.5 193l119 707q6 33 6 47q0 108 -191 108 l13 64q183 -6 239 -6q127 0 244 6l-10 -64q-60 0 -104.5 -11t-67.5 -25t-38 -37t-19 -37.5t-7 -36.5l-121 -727q-16 -98 -66 -190t-121 -162t-164.5 -112t-190.5 -42q-119 0 -219 52.5t-161 152.5t-61 227q0 49 6 86l127 756q6 48 6 49q0 34 -28.5 45.5t-126.5 11.5h-43z M782 1561l322 286l225 -286v-2l-41 -35h-2l-199 215l-274 -215h-2z" />
<glyph unicode="&#xdc;" horiz-adv-x="1536" d="M291 1335q1 10 5 33.5t5 30.5q74 -6 301 -6q231 0 303 6l-10 -64h-45q-80 0 -117 -9.5t-47 -25t-16 -53.5l-138 -829q-6 -37 -6 -90q0 -77 21 -135.5t50.5 -90.5t69 -52t70.5 -26t60 -6q75 0 150.5 31t141.5 87t114.5 144t66.5 193l119 707q6 33 6 47q0 108 -191 108 l13 64q183 -6 239 -6q127 0 244 6l-10 -64q-60 0 -104.5 -11t-67.5 -25t-38 -37t-19 -37.5t-7 -36.5l-121 -727q-16 -98 -66 -190t-121 -162t-164.5 -112t-190.5 -42q-119 0 -219 52.5t-161 152.5t-61 227q0 49 6 86l127 756q6 48 6 49q0 34 -28.5 45.5t-126.5 11.5h-43z M737 1653q0 51 38.5 86t84.5 35q38 0 66 -27t28 -68q0 -51 -39 -85.5t-84 -34.5q-41 0 -67.5 28t-26.5 66zM1135 1651q0 53 38 88t84 35q38 0 66.5 -27t28.5 -68q0 -48 -38 -84t-85 -36q-39 0 -66.5 26.5t-27.5 65.5z" />
<glyph unicode="&#xdd;" horiz-adv-x="1536" d="M246 1335l10 64q114 -6 266 -6q229 0 301 6l-10 -64q-29 0 -47.5 -1t-46.5 -6t-42.5 -17.5t-14.5 -32.5q0 -12 12 -39l266 -594l430 551q33 42 33 70q0 31 -26.5 50t-78.5 19l11 64q159 -6 233 -6q106 0 201 6l-10 -64q-37 -1 -66.5 -5.5t-69 -17t-78 -41t-71.5 -71.5 l-500 -641q-1 -9 -21 -124.5t-35 -206t-15 -105.5q0 -30 16 -41t53 -14q51 -5 129 -5l-10 -63q-74 6 -299 6t-299 -6l10 63q127 0 176 11q18 5 29.5 21.5t14 27.5t5.5 31q30 163 68 407l-311 696q-16 37 -35.5 52t-56 20.5t-121.5 5.5zM932 1567q63 35 156 88 q144 82 172.5 96t48.5 14q24 0 40.5 -18t16.5 -45q0 -16 -6 -29.5t-13 -21.5t-22 -16t-22 -10.5t-23.5 -7.5t-17.5 -5q-84 -25 -150.5 -44.5t-93 -27.5t-45 -13.5t-29.5 -8.5z" />
<glyph unicode="&#xde;" horiz-adv-x="1280" d="M72 0l10 63h22q59 0 93 3t56.5 8t32.5 20t14.5 30.5t9.5 47.5q2 13 3 21l170 1019q9 56 9 64q0 38 -32.5 48.5t-131.5 10.5h-33l10 64q153 -6 305 -6q143 0 287 6l-10 -64h-21q-140 0 -169 -23t-46 -134q-2 -10 -3 -15.5t-2.5 -15t-2.5 -17.5h266q101 0 178.5 -31 t120 -81t63.5 -104.5t21 -110.5q0 -57 -20.5 -117.5t-64 -118t-103.5 -102.5t-145 -72.5t-183 -27.5h-262q-7 -51 -17 -107t-15 -87t-5 -46q0 -40 35.5 -51t140.5 -11h23l-10 -63q-150 6 -304 6h-6q-120 0 -284 -6zM526 428h205q85 0 155.5 37t112.5 95t65 124.5t23 130.5 q0 31 -5 62t-20 67t-38 62.5t-63 44.5t-91 18q-6 0 -20.5 -1t-20.5 -1h-196z" />
<glyph unicode="&#xdf;" d="M55 0l11 63h10q54 0 83.5 3.5t47 17t23.5 29.5t12 51l108 655h-157l10 62h159q6 45 28 169t28 148q19 68 57 118t86.5 77t97.5 39t101 12q110 0 171.5 -58.5t61.5 -164.5q0 -44 -12 -112t-46 -142t-81 -88l-16 -3q-16 -3 -33 -7t-39.5 -18t-40 -34t-29.5 -56t-12 -83 q0 -49 19.5 -76.5t43.5 -34.5t64 -16t61 -19q61 -27 95 -86t34 -133q0 -42 -10 -85.5t-34 -89t-58.5 -81t-88.5 -58t-120 -22.5q-48 0 -76.5 14t-54.5 42l-9 -9l-11.5 -11.5t-11.5 -10.5t-13.5 -10.5t-12.5 -6.5t-12 -3q-20 0 -20 24q0 15 43 279q9 53 33 53q8 0 18 -10 q6 -6 6 -29q0 -5 -1 -32.5t-1 -49.5q0 -96 26.5 -144t96.5 -48q54 0 95 23t63 58.5t32.5 71.5t10.5 70q0 85 -60 127q-23 16 -61 22.5t-76 19t-67 44.5q-56 62 -56 153q0 44 13 90.5t39.5 92.5t76.5 78t115 38q25 3 38.5 12t27.5 36q32 59 46.5 141t14.5 121q0 94 -52.5 134 t-125.5 40q-51 0 -90 -19.5t-61 -46t-38.5 -69.5t-22.5 -71.5t-13 -71.5q-1 -9 -2 -13l-185 -1106q-44 6 -96 6q-20 0 -201 -6z" />
<glyph unicode="&#xe0;" d="M117 168q0 144 165 249.5t416 114.5q50 2 56 5q5 4 13.5 61t8.5 76q0 82 -47.5 140t-130.5 58q-57 0 -125 -22.5t-111 -71.5q39 -2 63 -23t24 -59q0 -43 -31.5 -74.5t-75.5 -31.5q-43 0 -63.5 24.5t-20.5 55.5q0 92 99 170t247 78q132 0 221.5 -72t89.5 -187 q0 -51 -59 -376q-1 -7 -7 -43.5t-10.5 -66t-4.5 -38.5q0 -34 14 -59t45 -25q26 0 50.5 22.5t35.5 65.5q9 28 29 158h51q-13 -85 -21 -119q-7 -43 -24.5 -77t-39 -54.5t-47 -34.5t-47 -19t-40.5 -5q-20 0 -39.5 6t-41.5 21.5t-36 50t-14 84.5q-7 -13 -19 -29.5t-39 -43.5 t-59 -48t-79.5 -36.5t-98.5 -15.5q-43 0 -88.5 8t-95.5 27.5t-81.5 59.5t-31.5 96zM274 164q0 -62 43.5 -101.5t110.5 -39.5q53 0 104 22.5t89 60.5q36 35 58 74.5t27.5 62.5t12.5 64l31 185q-97 -4 -175.5 -24.5t-127 -48t-84 -64.5t-52 -67t-26 -62t-10.5 -43.5t-1 -18.5z M522 1229q0 34 27 60t57 26q23 0 45 -21t114 -129q61 -72 103 -121l-37 -40q-12 6 -253 157q-1 1 -10 6.5t-13 8.5t-11.5 9.5t-11.5 12t-7 14t-3 17.5z" />
<glyph unicode="&#xe1;" d="M117 168q0 144 165 249.5t416 114.5q50 2 56 5q5 4 13.5 61t8.5 76q0 82 -47.5 140t-130.5 58q-57 0 -125 -22.5t-111 -71.5q39 -2 63 -23t24 -59q0 -43 -31.5 -74.5t-75.5 -31.5q-43 0 -63.5 24.5t-20.5 55.5q0 92 99 170t247 78q132 0 221.5 -72t89.5 -187 q0 -51 -59 -376q-1 -7 -7 -43.5t-10.5 -66t-4.5 -38.5q0 -34 14 -59t45 -25q26 0 50.5 22.5t35.5 65.5q9 28 29 158h51q-13 -85 -21 -119q-7 -43 -24.5 -77t-39 -54.5t-47 -34.5t-47 -19t-40.5 -5q-20 0 -39.5 6t-41.5 21.5t-36 50t-14 84.5q-7 -13 -19 -29.5t-39 -43.5 t-59 -48t-79.5 -36.5t-98.5 -15.5q-43 0 -88.5 8t-95.5 27.5t-81.5 59.5t-31.5 96zM274 164q0 -62 43.5 -101.5t110.5 -39.5q53 0 104 22.5t89 60.5q36 35 58 74.5t27.5 62.5t12.5 64l31 185q-97 -4 -175.5 -24.5t-127 -48t-84 -64.5t-52 -67t-26 -62t-10.5 -43.5t-1 -18.5z M498 1044q79 66 183 153q104 89 125 103.5t42 14.5q28 0 45.5 -19.5t17.5 -44.5q0 -12 -3.5 -23t-10.5 -20t-13.5 -15t-18 -13t-17 -10t-17.5 -8.5t-14 -6.5q-255 -133 -295 -151z" />
<glyph unicode="&#xe2;" d="M117 168q0 144 165 249.5t416 114.5q50 2 56 5q5 4 13.5 61t8.5 76q0 82 -47.5 140t-130.5 58q-57 0 -125 -22.5t-111 -71.5q39 -2 63 -23t24 -59q0 -43 -31.5 -74.5t-75.5 -31.5q-43 0 -63.5 24.5t-20.5 55.5q0 92 99 170t247 78q132 0 221.5 -72t89.5 -187 q0 -51 -59 -376q-1 -7 -7 -43.5t-10.5 -66t-4.5 -38.5q0 -34 14 -59t45 -25q26 0 50.5 22.5t35.5 65.5q9 28 29 158h51q-13 -85 -21 -119q-7 -43 -24.5 -77t-39 -54.5t-47 -34.5t-47 -19t-40.5 -5q-20 0 -39.5 6t-41.5 21.5t-36 50t-14 84.5q-7 -13 -19 -29.5t-39 -43.5 t-59 -48t-79.5 -36.5t-98.5 -15.5q-43 0 -88.5 8t-95.5 27.5t-81.5 59.5t-31.5 96zM274 164q0 -62 43.5 -101.5t110.5 -39.5q53 0 104 22.5t89 60.5q36 35 58 74.5t27.5 62.5t12.5 64l31 185q-97 -4 -175.5 -24.5t-127 -48t-84 -64.5t-52 -67t-26 -62t-10.5 -43.5t-1 -18.5z M348 1024l326 307l223 -307l-43 -37l-199 234l-276 -234z" />
<glyph unicode="&#xe3;" d="M117 168q0 144 165 249.5t416 114.5q50 2 56 5q5 4 13.5 61t8.5 76q0 82 -47.5 140t-130.5 58q-57 0 -125 -22.5t-111 -71.5q39 -2 63 -23t24 -59q0 -43 -31.5 -74.5t-75.5 -31.5q-43 0 -63.5 24.5t-20.5 55.5q0 92 99 170t247 78q132 0 221.5 -72t89.5 -187 q0 -51 -59 -376q-1 -7 -7 -43.5t-10.5 -66t-4.5 -38.5q0 -34 14 -59t45 -25q26 0 50.5 22.5t35.5 65.5q9 28 29 158h51q-13 -85 -21 -119q-7 -43 -24.5 -77t-39 -54.5t-47 -34.5t-47 -19t-40.5 -5q-20 0 -39.5 6t-41.5 21.5t-36 50t-14 84.5q-7 -13 -19 -29.5t-39 -43.5 t-59 -48t-79.5 -36.5t-98.5 -15.5q-43 0 -88.5 8t-95.5 27.5t-81.5 59.5t-31.5 96zM274 164q0 -62 43.5 -101.5t110.5 -39.5q53 0 104 22.5t89 60.5q36 35 58 74.5t27.5 62.5t12.5 64l31 185q-97 -4 -175.5 -24.5t-127 -48t-84 -64.5t-52 -67t-26 -62t-10.5 -43.5t-1 -18.5z M293 1094q6 6 35 34.5t47.5 44t48 37.5t59 32.5t58.5 10.5q39 0 80.5 -24l83 -48t81.5 -24q33 0 69.5 17.5t58 34.5t53.5 46h2l28 -30q-4 -3 -29 -28t-37.5 -36.5t-39.5 -34t-47 -33.5t-46.5 -20.5t-49.5 -9.5q-38 0 -79 24t-83 48t-82 24q-33 0 -70 -18t-56 -33t-54 -45z " />
<glyph unicode="&#xe4;" d="M117 168q0 144 165 249.5t416 114.5q50 2 56 5q5 4 13.5 61t8.5 76q0 82 -47.5 140t-130.5 58q-57 0 -125 -22.5t-111 -71.5q39 -2 63 -23t24 -59q0 -43 -31.5 -74.5t-75.5 -31.5q-43 0 -63.5 24.5t-20.5 55.5q0 92 99 170t247 78q132 0 221.5 -72t89.5 -187 q0 -51 -59 -376q-1 -7 -7 -43.5t-10.5 -66t-4.5 -38.5q0 -34 14 -59t45 -25q26 0 50.5 22.5t35.5 65.5q9 28 29 158h51q-13 -85 -21 -119q-7 -43 -24.5 -77t-39 -54.5t-47 -34.5t-47 -19t-40.5 -5q-20 0 -39.5 6t-41.5 21.5t-36 50t-14 84.5q-7 -13 -19 -29.5t-39 -43.5 t-59 -48t-79.5 -36.5t-98.5 -15.5q-43 0 -88.5 8t-95.5 27.5t-81.5 59.5t-31.5 96zM274 164q0 -62 43.5 -101.5t110.5 -39.5q53 0 104 22.5t89 60.5q36 35 58 74.5t27.5 62.5t12.5 64l31 185q-97 -4 -175.5 -24.5t-127 -48t-84 -64.5t-52 -67t-26 -62t-10.5 -43.5t-1 -18.5z M410 1229q0 46 35.5 83.5t84.5 37.5q38 0 67.5 -27.5t29.5 -67.5q0 -52 -39 -86t-84 -34q-41 0 -67.5 28t-26.5 66zM807 1229q0 49 38 85t85 36q38 0 66 -27.5t28 -67.5q0 -50 -38 -85t-85 -35q-39 0 -66.5 26.5t-27.5 67.5z" />
<glyph unicode="&#xe5;" d="M117 168q0 144 165 249.5t416 114.5q50 2 56 5q5 4 13.5 61t8.5 76q0 82 -47.5 140t-130.5 58q-57 0 -125 -22.5t-111 -71.5q39 -2 63 -23t24 -59q0 -43 -31.5 -74.5t-75.5 -31.5q-43 0 -63.5 24.5t-20.5 55.5q0 92 99 170t247 78q132 0 221.5 -72t89.5 -187 q0 -51 -59 -376q-1 -7 -7 -43.5t-10.5 -66t-4.5 -38.5q0 -34 14 -59t45 -25q26 0 50.5 22.5t35.5 65.5q9 28 29 158h51q-13 -85 -21 -119q-7 -43 -24.5 -77t-39 -54.5t-47 -34.5t-47 -19t-40.5 -5q-20 0 -39.5 6t-41.5 21.5t-36 50t-14 84.5q-7 -13 -19 -29.5t-39 -43.5 t-59 -48t-79.5 -36.5t-98.5 -15.5q-43 0 -88.5 8t-95.5 27.5t-81.5 59.5t-31.5 96zM274 164q0 -62 43.5 -101.5t110.5 -39.5q53 0 104 22.5t89 60.5q36 35 58 74.5t27.5 62.5t12.5 64l31 185q-97 -4 -175.5 -24.5t-127 -48t-84 -64.5t-52 -67t-26 -62t-10.5 -43.5t-1 -18.5z M453 1167q0 71 66 129t159 58q73 0 122.5 -40t49.5 -104q0 -70 -66 -128t-159 -58q-73 0 -122.5 40t-49.5 103zM504 1163q0 -94 127 -94q52 0 87.5 15.5t51 40.5t21.5 45.5t6 41.5q0 95 -125 95q-50 0 -85.5 -14.5t-52 -38t-23.5 -46t-7 -45.5z" />
<glyph unicode="&#xe6;" horiz-adv-x="1478" d="M119 162q0 44 21 89.5t70 92.5t120 83.5t181 60t243 24.5q3 21 7.5 48.5t6.5 43t4 34.5t2 36q0 82 -46.5 138t-129.5 56q-49 0 -93.5 -12t-75 -30t-45 -29t-22.5 -19q84 -9 84 -80q0 -39 -30.5 -72.5t-75.5 -33.5q-40 0 -61 22.5t-21 59.5q0 40 24.5 82t68 77.5 t110.5 58.5t143 23q29 0 60 -5t76 -19t86.5 -48t68.5 -85q157 157 332 157q40 0 77.5 -8t76 -29.5t67.5 -55t47 -88.5t18 -126q0 -62 -7 -93t-17 -37.5t-29 -6.5h-571q-15 -81 -15 -145q0 -79 23 -139.5t60 -92.5t76.5 -47.5t80.5 -15.5q84 0 159 51t120 135q21 43 34 47 q17 6 25.5 -6.5t1.5 -32.5q-12 -33 -40.5 -73t-72 -80.5t-107 -67.5t-132.5 -27q-29 0 -62.5 6t-80.5 23t-93 56t-78 96h-2q-60 -88 -158.5 -134.5t-213.5 -46.5q-129 0 -212 49t-83 136zM281 160q0 -62 42 -98.5t107 -36.5q116 0 211.5 85t95.5 189q0 9 -1 31.5t-1 38.5 q0 34 8 100q-333 -20 -434 -207q-28 -54 -28 -102zM899 516h471q10 68 10 125q0 67 -15 115t-40.5 70.5t-50 32t-51.5 9.5q-24 0 -51.5 -6t-67.5 -28.5t-75 -58.5t-71 -103.5t-59 -155.5z" />
<glyph unicode="&#xe7;" horiz-adv-x="909" d="M133 365q0 140 72.5 267t196 205t262.5 78q122 0 202 -53t80 -139q0 -52 -29.5 -86.5t-78.5 -34.5q-34 0 -58 22.5t-24 57.5q0 15 5 31t16.5 33.5t35.5 29t57 12.5q-1 1 -6 5.5t-8.5 7.5t-11.5 9t-14.5 10t-17.5 10t-21.5 10t-25 8.5t-29.5 7t-33.5 4.5t-38.5 2 q-84 0 -154.5 -50t-115 -130t-69 -175t-24.5 -188q0 -130 63 -209t166 -79q30 0 62.5 7t74.5 25t83.5 58t72.5 96q2 3 8 16t8.5 17t10.5 9t18 5q11 0 17 -12t-4 -35q-8 -18 -20 -38.5t-37.5 -51.5t-57.5 -57t-81.5 -50t-106.5 -36l-15 -95q76 -17 109 -44q39 -33 39 -83 q0 -53 -32.5 -88.5t-98.5 -55.5t-151 -28t-206 -8h-24l6 47h41q45 0 77.5 1t82 8.5t81 20t55 38t23.5 61.5q-4 90 -151 97l22 129q-139 28 -221 132t-82 249z" />
<glyph unicode="&#xe8;" horiz-adv-x="909" d="M125 373q0 99 41 198t109 175.5t163 124t195 47.5q59 0 111 -16t98 -50.5t73 -98.5t27 -151q0 -45 -6 -90q-4 -29 -12.5 -34t-46.5 -5h-570q-18 -93 -18 -164q0 -78 22.5 -136t58.5 -87.5t73.5 -43t76.5 -13.5q27 0 60 7.5t80 27t94.5 65t81.5 111.5q8 17 13.5 22.5 t16.5 5.5q12 0 17.5 -7t5.5 -15q0 -12 -15 -41.5t-47.5 -68.5t-75 -74.5t-107.5 -60t-136 -24.5q-162 0 -272.5 112.5t-110.5 283.5zM315 516h484q10 69 10 115q0 18 -1 33t-5.5 47t-16 56.5t-30 50.5t-51 40t-74.5 14q-20 0 -45 -5t-66 -27t-77 -57.5t-72 -105t-56 -161.5z M522 1229q0 34 27 60t57 26q23 0 45 -21t114 -129q61 -72 103 -121l-37 -40q-12 6 -253 157q-1 1 -10 6.5t-13 8.5t-11.5 9.5t-11.5 12t-7 14t-3 17.5z" />
<glyph unicode="&#xe9;" horiz-adv-x="909" d="M125 373q0 99 41 198t109 175.5t163 124t195 47.5q59 0 111 -16t98 -50.5t73 -98.5t27 -151q0 -45 -6 -90q-4 -29 -12.5 -34t-46.5 -5h-570q-18 -93 -18 -164q0 -78 22.5 -136t58.5 -87.5t73.5 -43t76.5 -13.5q27 0 60 7.5t80 27t94.5 65t81.5 111.5q8 17 13.5 22.5 t16.5 5.5q12 0 17.5 -7t5.5 -15q0 -12 -15 -41.5t-47.5 -68.5t-75 -74.5t-107.5 -60t-136 -24.5q-162 0 -272.5 112.5t-110.5 283.5zM315 516h484q10 69 10 115q0 18 -1 33t-5.5 47t-16 56.5t-30 50.5t-51 40t-74.5 14q-20 0 -45 -5t-66 -27t-77 -57.5t-72 -105t-56 -161.5z M440 1044q74 62 174 146q111 94 133 109.5t44 15.5q28 0 45.5 -19.5t17.5 -44.5q0 -12 -3.5 -23t-10.5 -20t-13.5 -15t-18 -13t-17 -10t-17.5 -8.5t-14 -6.5q-255 -133 -295 -151z" />
<glyph unicode="&#xea;" horiz-adv-x="909" d="M125 373q0 99 41 198t109 175.5t163 124t195 47.5q59 0 111 -16t98 -50.5t73 -98.5t27 -151q0 -45 -6 -90q-4 -29 -12.5 -34t-46.5 -5h-570q-18 -93 -18 -164q0 -78 22.5 -136t58.5 -87.5t73.5 -43t76.5 -13.5q27 0 60 7.5t80 27t94.5 65t81.5 111.5q8 17 13.5 22.5 t16.5 5.5q12 0 17.5 -7t5.5 -15q0 -12 -15 -41.5t-47.5 -68.5t-75 -74.5t-107.5 -60t-136 -24.5q-162 0 -272.5 112.5t-110.5 283.5zM315 516h484q10 69 10 115q0 18 -1 33t-5.5 47t-16 56.5t-30 50.5t-51 40t-74.5 14q-20 0 -45 -5t-66 -27t-77 -57.5t-72 -105t-56 -161.5z M348 1024l326 307l223 -307l-43 -37l-199 234l-276 -234z" />
<glyph unicode="&#xeb;" horiz-adv-x="909" d="M125 373q0 99 41 198t109 175.5t163 124t195 47.5q59 0 111 -16t98 -50.5t73 -98.5t27 -151q0 -45 -6 -90q-4 -29 -12.5 -34t-46.5 -5h-570q-18 -93 -18 -164q0 -78 22.5 -136t58.5 -87.5t73.5 -43t76.5 -13.5q27 0 60 7.5t80 27t94.5 65t81.5 111.5q8 17 13.5 22.5 t16.5 5.5q12 0 17.5 -7t5.5 -15q0 -12 -15 -41.5t-47.5 -68.5t-75 -74.5t-107.5 -60t-136 -24.5q-162 0 -272.5 112.5t-110.5 283.5zM315 516h484q10 69 10 115q0 18 -1 33t-5.5 47t-16 56.5t-30 50.5t-51 40t-74.5 14q-20 0 -45 -5t-66 -27t-77 -57.5t-72 -105t-56 -161.5z M352 1227q0 47 36.5 85t86.5 38q41 0 67.5 -28.5t26.5 -66.5q0 -51 -38.5 -85.5t-84.5 -34.5q-37 0 -65.5 25.5t-28.5 66.5zM750 1229q0 49 37.5 85t84.5 36q38 0 66.5 -27t28.5 -68q0 -47 -36.5 -83.5t-86.5 -36.5q-39 0 -66.5 26.5t-27.5 67.5z" />
<glyph unicode="&#xec;" horiz-adv-x="567" d="M68 0q2 10 5 31.5t5 31.5q48 0 70.5 1t46.5 6.5t35 17.5t16 33q3 6 20 110q84 512 84 523q0 41 -26.5 53t-110.5 12q6 37 12 64l289 22l-131 -792q0 -34 27.5 -42t105.5 -8q-1 -10 -5 -33t-5 -30q-210 6 -213 6q-27 0 -225 -6zM195 1229q0 34 27 60t57 26q23 0 44 -20 t105 -119q21 -25 33.5 -39.5t35.5 -41t44 -51.5l-37 -40q-29 15 -256 157q-53 35 -53 68z" />
<glyph unicode="&#xed;" horiz-adv-x="567" d="M68 0q2 10 5 31.5t5 31.5q48 0 70.5 1t46.5 6.5t35 17.5t16 33q3 6 20 110q84 512 84 523q0 41 -26.5 53t-110.5 12q6 37 12 64l289 22l-131 -792q0 -34 27.5 -42t105.5 -8q-1 -10 -5 -33t-5 -30q-210 6 -213 6q-27 0 -225 -6zM338 1044q79 66 183 153q104 89 125 103.5 t42 14.5q28 0 46 -19.5t18 -44.5q0 -12 -3.5 -23t-10.5 -19.5t-13.5 -15t-18 -13.5t-17.5 -10t-18 -8.5t-14 -6.5q-255 -133 -295 -151z" />
<glyph unicode="&#xee;" horiz-adv-x="567" d="M68 0q2 10 5 31.5t5 31.5q48 0 70.5 1t46.5 6.5t35 17.5t16 33q3 6 20 110q84 512 84 523q0 41 -26.5 53t-110.5 12q6 37 12 64l289 22l-131 -792q0 -34 27.5 -42t105.5 -8q-1 -10 -5 -33t-5 -30q-210 6 -213 6q-27 0 -225 -6zM190 1024l326 307l223 -307l-43 -35h-2 l-198 232l-275 -234z" />
<glyph unicode="&#xef;" horiz-adv-x="681" d="M125 0q2 10 5 31.5t5 31.5q48 0 70.5 1t46.5 6.5t35 17.5t16 33q5 9 21 110q84 512 84 523q0 41 -27 53t-111 12q3 17 13 64l288 22l-131 -792q0 -34 27.5 -42t105.5 -8q-1 -10 -5 -33t-5 -30q-210 6 -213 6q-27 0 -225 -6zM248 1227q0 50 38 85.5t85 35.5 q39 0 66.5 -26.5t27.5 -68.5q0 -50 -37 -85t-84 -35q-38 0 -67 27t-29 67zM647 1227q0 50 37 85.5t84 35.5q42 0 69 -28t27 -67q0 -47 -36.5 -83.5t-86.5 -36.5q-39 0 -66.5 26.5t-27.5 67.5z" />
<glyph unicode="&#xf0;" d="M123 362q0 106 46 208t120 177.5t171 121.5t195 46q150 0 234 -165q-10 79 -31.5 148t-54.5 124.5t-57.5 89t-59.5 74.5l-240 -127l-32 -12q-20 0 -23 20l2 8l4 8q35 23 77 46.5t94 50.5t81 43q-60 48 -113 80.5t-83 44t-53 19t-31.5 13t-8.5 17.5q0 22 37 22 q42 0 125.5 -24.5t161.5 -69.5q12 -7 24.5 -15.5t19 -13t14 -7.5t14.5 -3q22 0 141 65.5t133 65.5q12 0 18.5 -11.5t0.5 -21.5q-4 -8 -46.5 -32t-110 -59t-93.5 -50q118 -101 192 -251.5t74 -329.5q0 -62 -13 -152t-24 -129q-46 -170 -193.5 -287t-322.5 -117 q-163 0 -276 107.5t-113 277.5zM289 307q0 -78 22 -135t57.5 -86t71.5 -42t74 -13q83 0 153 46t115 121t70 167.5t25 187.5q0 145 -62.5 230t-157.5 85q-73 0 -143.5 -44t-114.5 -107q-60 -84 -85 -205t-25 -205z" />
<glyph unicode="&#xf1;" horiz-adv-x="1136" d="M66 0l10 63q48 0 70.5 1t46.5 6.5t35 17.5t16 33q3 6 20 110q84 512 84 523q0 41 -28 53t-117 12l10 64l293 22l-35 -203l2 -2q12 20 28 42t47.5 52.5t66.5 54t85.5 40t104.5 16.5q242 0 242 -209q0 -22 -21 -161l-31 -183q-39 -214 -39 -237q0 -19 8 -29.5t30.5 -15.5 t44 -6t67.5 -1l-10 -63q-210 6 -230 6q-21 0 -231 -6l10 63q103 0 133.5 11.5t38.5 66.5l70 410q22 145 22 172q0 71 -30 104t-91 33q-108 0 -206 -88q-46 -44 -75.5 -97t-38 -86.5t-15.5 -78.5q-24 -135 -45 -270q-3 -17 -8 -47.5t-9 -53t-4 -24.5q0 -19 8 -29.5 t30.5 -15.5t44 -6t67.5 -1l-11 -63q-210 6 -229 6q-21 0 -231 -6zM422 1094q6 6 35 34.5t47.5 44t48 37.5t59 32.5t58.5 10.5q39 0 80.5 -24l83 -48t81.5 -24q33 0 69.5 17.5t58 34.5t53.5 46h2l28 -30q-4 -3 -29 -28t-37.5 -36.5t-39.5 -34t-47 -33.5t-46.5 -20.5 t-49.5 -9.5q-38 0 -79 24t-83 48t-82 24q-33 0 -70 -18t-56 -33t-54 -45z" />
<glyph unicode="&#xf2;" d="M123 360q0 80 28 162t79 152t117.5 125.5t149 87t167.5 31.5q165 0 272.5 -113.5t107.5 -284.5q0 -144 -77 -270.5t-200.5 -199.5t-258.5 -73q-169 0 -277 110.5t-108 272.5zM287 295q0 -70 19 -122t44.5 -78.5t60.5 -42.5t58.5 -19.5t46.5 -3.5q82 0 159.5 47.5 t123.5 132.5q46 87 67 212t21 191q0 65 -18 114.5t-44 76t-60 43.5t-60 21.5t-50 4.5q-16 0 -33 -2t-50.5 -11.5t-64 -26.5t-66.5 -51.5t-64 -80.5q-42 -69 -66 -198.5t-24 -206.5zM524 1229q0 34 27 60t57 26q23 0 45 -21t114 -129q61 -72 103 -121l-36 -40q-18 9 -254 157 q-1 1 -10 6.5t-13 8.5t-11.5 9.5t-11.5 12t-7 14t-3 17.5z" />
<glyph unicode="&#xf3;" d="M123 360q0 80 28 162t79 152t117.5 125.5t149 87t167.5 31.5q165 0 272.5 -113.5t107.5 -284.5q0 -144 -77 -270.5t-200.5 -199.5t-258.5 -73q-169 0 -277 110.5t-108 272.5zM287 295q0 -70 19 -122t44.5 -78.5t60.5 -42.5t58.5 -19.5t46.5 -3.5q82 0 159.5 47.5 t123.5 132.5q46 87 67 212t21 191q0 65 -18 114.5t-44 76t-60 43.5t-60 21.5t-50 4.5q-16 0 -33 -2t-50.5 -11.5t-64 -26.5t-66.5 -51.5t-64 -80.5q-42 -69 -66 -198.5t-24 -206.5zM500 1044q79 66 183 153q104 89 125 103.5t42 14.5q28 0 45.5 -19.5t17.5 -44.5 q0 -12 -3.5 -23t-10.5 -20t-13.5 -15t-18 -13t-17 -10t-17.5 -8.5t-14 -6.5q-255 -133 -295 -151z" />
<glyph unicode="&#xf4;" d="M123 360q0 80 28 162t79 152t117.5 125.5t149 87t167.5 31.5q165 0 272.5 -113.5t107.5 -284.5q0 -144 -77 -270.5t-200.5 -199.5t-258.5 -73q-169 0 -277 110.5t-108 272.5zM287 295q0 -70 19 -122t44.5 -78.5t60.5 -42.5t58.5 -19.5t46.5 -3.5q82 0 159.5 47.5 t123.5 132.5q46 87 67 212t21 191q0 65 -18 114.5t-44 76t-60 43.5t-60 21.5t-50 4.5q-16 0 -33 -2t-50.5 -11.5t-64 -26.5t-66.5 -51.5t-64 -80.5q-42 -69 -66 -198.5t-24 -206.5zM408 1024l325 307l223 -307l-43 -37l-198 234l-277 -234z" />
<glyph unicode="&#xf5;" d="M123 360q0 80 28 162t79 152t117.5 125.5t149 87t167.5 31.5q165 0 272.5 -113.5t107.5 -284.5q0 -144 -77 -270.5t-200.5 -199.5t-258.5 -73q-169 0 -277 110.5t-108 272.5zM287 295q0 -70 19 -122t44.5 -78.5t60.5 -42.5t58.5 -19.5t46.5 -3.5q82 0 159.5 47.5 t123.5 132.5q46 87 67 212t21 191q0 65 -18 114.5t-44 76t-60 43.5t-60 21.5t-50 4.5q-16 0 -33 -2t-50.5 -11.5t-64 -26.5t-66.5 -51.5t-64 -80.5q-42 -69 -66 -198.5t-24 -206.5zM352 1094q6 6 35 34.5t47.5 44t48 37.5t59 32.5t58.5 10.5q39 0 80.5 -24t83.5 -48t82 -24 q33 0 69.5 17.5t57.5 34.5t53 46h2l29 -30q-2 -2 -28.5 -28t-38.5 -37t-39.5 -33.5t-47.5 -33.5t-46.5 -20.5t-49.5 -9.5q-38 0 -79 24t-83 48t-82 24q-33 0 -70 -18t-56 -33t-54 -45z" />
<glyph unicode="&#xf6;" d="M123 360q0 80 28 162t79 152t117.5 125.5t149 87t167.5 31.5q165 0 272.5 -113.5t107.5 -284.5q0 -144 -77 -270.5t-200.5 -199.5t-258.5 -73q-169 0 -277 110.5t-108 272.5zM287 295q0 -70 19 -122t44.5 -78.5t60.5 -42.5t58.5 -19.5t46.5 -3.5q82 0 159.5 47.5 t123.5 132.5q46 87 67 212t21 191q0 65 -18 114.5t-44 76t-60 43.5t-60 21.5t-50 4.5q-16 0 -33 -2t-50.5 -11.5t-64 -26.5t-66.5 -51.5t-64 -80.5q-42 -69 -66 -198.5t-24 -206.5zM412 1229q0 46 35.5 83.5t84.5 37.5q38 0 67.5 -27.5t29.5 -67.5q0 -52 -39 -86t-84 -34 q-41 0 -67.5 28t-26.5 66zM809 1229q0 49 38 85t85 36q38 0 66 -27.5t28 -67.5q0 -50 -38 -85t-85 -35q-39 0 -66.5 26.5t-27.5 67.5z" />
<glyph unicode="&#xf7;" horiz-adv-x="1593" d="M201 512q0 25 17 33t48 8h1229q66 0 66 -41t-60 -41h-1241q-33 0 -46 12.5t-13 28.5zM678 57q0 57 43.5 99.5t99.5 42.5q52 0 84.5 -35t32.5 -80q0 -58 -45 -99.5t-100 -41.5q-51 0 -83 34t-32 80zM825 940q0 55 42.5 98t101.5 43q51 0 82.5 -33.5t31.5 -80.5 q0 -55 -42 -98.5t-101 -43.5q-51 0 -83 34.5t-32 80.5z" />
<glyph unicode="&#xf8;" d="M90 -188l182 245q-137 116 -137 299q0 103 43.5 205t115 179.5t169 126t199.5 48.5q107 0 204 -59l174 236l37 -23l-178 -240q131 -114 131 -307q0 -106 -43.5 -206.5t-114.5 -174t-167 -118.5t-197 -46q-58 0 -102 12.5t-101 41.5l-178 -242zM272 295q0 -107 47 -174 l504 678v2q-70 67 -168 67q-64 0 -126.5 -29.5t-108.5 -78.5q-79 -85 -113.5 -223.5t-34.5 -241.5zM348 86q75 -61 168 -61q72 0 141 34.5t115 92.5q36 45 62.5 110.5t38.5 130.5t17 112.5t5 80.5q0 97 -43 178h-2z" />
<glyph unicode="&#xf9;" horiz-adv-x="1136" d="M203 819q0 7 5 33t9 29q4 4 37 4l264 20l-119 -708q-4 -16 -4 -58q0 -17 1 -28t9.5 -29.5t23 -29.5t45 -20t73.5 -9q106 0 192 86q31 32 53 67t35 76.5t17 59t12 57.5l43 258q2 16 7 47t8.5 52.5t3.5 27.5q0 41 -28.5 53t-117.5 12q0 7 5 33t9 29q4 4 37 4l264 20 l-120 -721q-6 -37 -6 -55q0 -41 27 -53.5t118 -12.5q0 -7 -5 -32.5t-9 -28.5q-4 -4 -37 -4l-258 -21l28 173l-2 2q-8 -14 -17 -27t-36.5 -42.5t-57 -50.5t-77 -38t-98.5 -17q-149 0 -212 55.5t-63 157.5q0 17 33 232q53 298 53 332q0 41 -28 53t-117 12zM563 1229 q0 34 27 60t57 26q23 0 45 -21t114 -129q61 -72 103 -121l-37 -40q-18 9 -254 157q-1 1 -8.5 5.5t-10.5 7t-10 7.5t-10.5 9.5t-7.5 10.5t-6 13t-2 15z" />
<glyph unicode="&#xfa;" horiz-adv-x="1136" d="M203 819q0 7 5 33t9 29q4 4 37 4l264 20l-119 -708q-4 -16 -4 -58q0 -17 1 -28t9.5 -29.5t23 -29.5t45 -20t73.5 -9q106 0 192 86q31 32 53 67t35 76.5t17 59t12 57.5l43 258q2 16 7 47t8.5 52.5t3.5 27.5q0 41 -28.5 53t-117.5 12q0 7 5 33t9 29q4 4 37 4l264 20 l-120 -721q-6 -37 -6 -55q0 -41 27 -53.5t118 -12.5q0 -7 -5 -32.5t-9 -28.5q-4 -4 -37 -4l-258 -21l28 173l-2 2q-8 -14 -17 -27t-36.5 -42.5t-57 -50.5t-77 -38t-98.5 -17q-149 0 -212 55.5t-63 157.5q0 17 33 232q53 298 53 332q0 41 -28 53t-117 12zM567 1044 q74 62 174 146q111 94 133 109.5t44 15.5q28 0 45.5 -19.5t17.5 -44.5q0 -12 -3.5 -23t-10.5 -20t-13.5 -15t-18 -13t-17 -10t-17.5 -8.5t-14 -6.5q-255 -133 -295 -151z" />
<glyph unicode="&#xfb;" horiz-adv-x="1136" d="M203 819q0 7 5 33t9 29q4 4 37 4l264 20l-119 -708q-4 -16 -4 -58q0 -17 1 -28t9.5 -29.5t23 -29.5t45 -20t73.5 -9q106 0 192 86q31 32 53 67t35 76.5t17 59t12 57.5l43 258q2 16 7 47t8.5 52.5t3.5 27.5q0 41 -28.5 53t-117.5 12q0 7 5 33t9 29q4 4 37 4l264 20 l-120 -721q-6 -37 -6 -55q0 -41 27 -53.5t118 -12.5q0 -7 -5 -32.5t-9 -28.5q-4 -4 -37 -4l-258 -21l28 173l-2 2q-8 -14 -17 -27t-36.5 -42.5t-57 -50.5t-77 -38t-98.5 -17q-149 0 -212 55.5t-63 157.5q0 17 33 232q53 298 53 332q0 41 -28 53t-117 12zM475 1024l326 307 l223 -307l-43 -37l-199 234l-276 -234z" />
<glyph unicode="&#xfc;" horiz-adv-x="1136" d="M203 819q0 7 5 33t9 29q4 4 37 4l264 20l-119 -708q-4 -16 -4 -58q0 -17 1 -28t9.5 -29.5t23 -29.5t45 -20t73.5 -9q106 0 192 86q31 32 53 67t35 76.5t17 59t12 57.5l43 258q2 16 7 47t8.5 52.5t3.5 27.5q0 41 -28.5 53t-117.5 12q0 7 5 33t9 29q4 4 37 4l264 20 l-120 -721q-6 -37 -6 -55q0 -41 27 -53.5t118 -12.5q0 -7 -5 -32.5t-9 -28.5q-4 -4 -37 -4l-258 -21l28 173l-2 2q-8 -14 -17 -27t-36.5 -42.5t-57 -50.5t-77 -38t-98.5 -17q-149 0 -212 55.5t-63 157.5q0 17 33 232q53 298 53 332q0 41 -28 53t-117 12zM479 1229 q0 46 35.5 83.5t85.5 37.5q38 0 67 -27.5t29 -67.5q0 -46 -36 -83t-87 -37q-42 0 -68 27.5t-26 66.5zM877 1229q0 49 37.5 85t84.5 36q38 0 66.5 -27.5t28.5 -67.5q0 -50 -38 -85t-85 -35q-38 0 -66 27t-28 67z" />
<glyph unicode="&#xfd;" horiz-adv-x="1079" d="M-6 -276q0 53 31.5 81.5t70.5 28.5q29 0 51.5 -17t22.5 -53q0 -35 -23.5 -66t-72.5 -36q35 -37 92 -37q106 0 201 133q17 22 52.5 81.5t63 109.5t27.5 53q0 4 -6 31l-176 712q-12 49 -36.5 61.5t-115.5 12.5l12 64q79 -6 197 -6q40 0 223 6q-1 -10 -5 -33.5t-5 -30.5 q-125 0 -125 -61q0 -7 6 -31l135 -549l289 498q27 49 27 72q0 30 -19.5 48t-35.5 21.5t-29 3.5l12 62q87 -6 176 -6t152 6l-10 -64q-73 -3 -122 -34.5t-87 -96.5l-512 -883q-11 -18 -20 -32.5t-41.5 -54t-63.5 -66t-78 -49.5t-94 -23q-70 0 -117 41t-47 103zM641 1044 q79 66 183 153q104 89 125 103.5t42 14.5q28 0 46 -19.5t18 -44.5q0 -12 -3.5 -23t-10.5 -20t-13.5 -15t-18 -13t-17 -10t-17.5 -8.5t-14 -6.5q-255 -133 -295 -151z" />
<glyph unicode="&#xfe;" horiz-adv-x="1136" d="M-10 -399l10 63h8q39 0 64 1t44 8t28 12t16.5 22t10 28.5t7.5 41.5l246 1474q4 24 4 39q0 17 -4.5 29.5t-16.5 19.5t-20.5 11t-31 6t-33 2h-39.5l10 63l301 23l-113 -670q137 129 303 129q161 0 263 -110.5t102 -272.5q0 -147 -80 -274t-203 -198t-252 -71q-50 0 -91 12 t-69.5 34.5t-43.5 39t-33 41.5q-18 -112 -35 -208t-23 -131t-6 -50q0 -30 29 -40.5t102 -10.5h17l-10 -63q-204 6 -224 6q-117 0 -237 -6zM393 201q0 -19 12.5 -47t36 -57.5t66.5 -50.5t94 -21q93 0 180.5 72.5t142 193.5t54.5 254q0 78 -20.5 144.5t-71 114.5t-123.5 48 q-96 0 -181.5 -59t-107.5 -109q-5 -13 -25.5 -133.5t-38.5 -234t-18 -115.5z" />
<glyph unicode="&#xff;" horiz-adv-x="1079" d="M-6 -276q0 53 31.5 81.5t70.5 28.5q29 0 51.5 -17t22.5 -53q0 -35 -23.5 -66t-72.5 -36q35 -37 92 -37q106 0 201 133q17 22 52.5 81.5t63 109.5t27.5 53q0 4 -6 31l-176 712q-12 49 -36.5 61.5t-115.5 12.5l12 64q79 -6 197 -6q40 0 223 6q-1 -10 -5 -33.5t-5 -30.5 q-125 0 -125 -61q0 -7 6 -31l135 -549l289 498q27 49 27 72q0 30 -19.5 48t-35.5 21.5t-29 3.5l12 62q87 -6 176 -6t152 6l-10 -64q-73 -3 -122 -34.5t-87 -96.5l-512 -883q-11 -18 -20 -32.5t-41.5 -54t-63.5 -66t-78 -49.5t-94 -23q-70 0 -117 41t-47 103zM440 1227 q0 50 38 86.5t85 36.5q38 0 66 -27.5t28 -67.5q0 -50 -37.5 -85t-84.5 -35q-38 0 -66.5 26t-28.5 66zM838 1229q0 49 38.5 85t84.5 36q41 0 67.5 -28.5t26.5 -68.5q0 -46 -36.5 -82t-86.5 -36q-42 0 -68 27.5t-26 66.5z" />
<glyph unicode="&#x152;" horiz-adv-x="2076" d="M246 561q0 172 71 336.5t184.5 283t261.5 191t296 72.5q57 0 155 -22.5t177 -22.5h745l-18 -461h-54q4 70 4 104q0 78 -14.5 131t-38.5 85t-69.5 49t-94.5 22.5t-125 5.5h-165q-82 0 -107 -11.5t-35 -66.5l-84 -499h189q45 0 73 1.5t60 6.5t52 15t41 27.5t34 43 t24.5 61.5t18.5 84h53l-90 -540h-51q10 83 10 100q0 38 -12 64t-30 40.5t-50 22.5t-61 10t-74 2h-197q-30 -178 -65 -383q-31 -183 -31 -202q0 -30 21 -39t83 -9h160q91 0 151 6t116 25t92 49t72.5 84.5t65 125t62.5 175.5h53l-174 -528h-774q-82 0 -184 -22.5t-162 -22.5 q-112 0 -214 42.5t-180 118.5t-124.5 192t-46.5 253zM453 545q0 -236 103.5 -389.5t270.5 -153.5q26 0 49 3t40.5 8t34 13t28 15.5t21.5 17.5t16.5 17t12.5 17t8.5 15t6.5 12l3 7q11 25 20 51.5t18.5 67t17 75t19 102.5t20 119.5t26 155.5t30.5 183q29 174 36 231t7 109 q0 32 -2.5 54t-13 47t-29.5 40.5t-53.5 26t-83.5 10.5q-110 0 -219.5 -67.5t-195 -180.5t-138.5 -273t-53 -333z" />
<glyph unicode="&#x153;" horiz-adv-x="1593" d="M123 367q0 138 71 265t191.5 205t255.5 78q214 0 326 -204q70 92 166.5 148t203.5 56q40 0 77.5 -8t77 -29.5t68.5 -55t47.5 -88.5t18.5 -126q0 -61 -7.5 -92t-18 -38t-29.5 -7h-570q-14 -75 -14 -145q0 -79 23 -139.5t60 -92.5t76.5 -47.5t80.5 -15.5q84 0 158.5 51 t119.5 135l7 13q7 14 13.5 22.5t14.5 11.5q11 3 21 -2.5t10 -17.5q0 -17 -16.5 -48.5t-49 -69t-74.5 -71t-100.5 -56t-118.5 -22.5q-36 0 -74.5 8.5t-86 29t-92 65t-74.5 108.5q-180 -211 -393 -211q-163 0 -266 112.5t-103 277.5zM276 307q0 -136 62.5 -209t155.5 -73 q71 0 133 35t105.5 92.5t74.5 131t46 151t15 151.5q0 62 -14.5 112t-38 81t-54 52t-60.5 29t-60 8q-75 0 -138 -37.5t-104 -97t-69.5 -135.5t-41 -149.5t-12.5 -141.5zM1012 516h471q10 68 10 125q0 54 -10.5 96t-26.5 66t-38 39.5t-42 20.5t-41 5q-24 0 -51 -6t-67 -28.5 t-75 -58.5t-71 -103.5t-59 -155.5z" />
<glyph unicode="&#x178;" horiz-adv-x="1536" d="M246 1335l10 64q114 -6 266 -6q229 0 301 6l-10 -64q-29 0 -47.5 -1t-46.5 -6t-42.5 -17.5t-14.5 -32.5q0 -12 12 -39l266 -594l430 551q33 42 33 70q0 31 -26.5 50t-78.5 19l11 64q159 -6 233 -6q106 0 201 6l-10 -64q-37 -1 -66.5 -5.5t-69 -17t-78 -41t-71.5 -71.5 l-500 -641q-1 -9 -21 -124.5t-35 -206t-15 -105.5q0 -30 16 -41t53 -14q51 -5 129 -5l-10 -63q-74 6 -299 6t-299 -6l10 63q127 0 176 11q18 5 29.5 21.5t14 27.5t5.5 31q30 163 68 407l-311 696q-16 37 -35.5 52t-56 20.5t-121.5 5.5zM737 1653q0 51 38.5 86t84.5 35 q38 0 66 -27t28 -68q0 -51 -39 -85.5t-84 -34.5q-41 0 -67.5 28t-26.5 66zM1135 1651q0 53 38 88t84 35q38 0 66.5 -27t28.5 -68q0 -48 -38 -84t-85 -36q-39 0 -66.5 26.5t-27.5 65.5z" />
<glyph unicode="&#x2c6;" d="M408 1024l325 307l223 -307l-43 -37l-198 234l-277 -234z" />
<glyph unicode="&#x2dc;" d="M371 1206q7 7 35 34.5t47 44t48 38t58.5 32.5t58.5 11q39 0 80.5 -24t83.5 -48t82 -24q33 0 69.5 17.5t57.5 34.5t53 46h3l28 -31q-1 -1 -28.5 -28t-38.5 -36.5t-39.5 -33t-47.5 -34t-46 -20t-50 -9.5q-38 0 -79 24t-82.5 48t-81.5 24q-33 0 -70 -17.5t-57 -33t-54 -45.5 z" />
<glyph unicode="&#x2000;" horiz-adv-x="935" />
<glyph unicode="&#x2001;" horiz-adv-x="1870" />
<glyph unicode="&#x2002;" horiz-adv-x="935" />
<glyph unicode="&#x2003;" horiz-adv-x="1870" />
<glyph unicode="&#x2004;" horiz-adv-x="623" />
<glyph unicode="&#x2005;" horiz-adv-x="467" />
<glyph unicode="&#x2006;" horiz-adv-x="311" />
<glyph unicode="&#x2007;" horiz-adv-x="311" />
<glyph unicode="&#x2008;" horiz-adv-x="233" />
<glyph unicode="&#x2009;" horiz-adv-x="374" />
<glyph unicode="&#x200a;" horiz-adv-x="103" />
<glyph unicode="&#x2010;" horiz-adv-x="681" d="M84 381l20 121h545l-20 -121h-545z" />
<glyph unicode="&#x2011;" horiz-adv-x="681" d="M84 381l20 121h545l-20 -121h-545z" />
<glyph unicode="&#x2012;" horiz-adv-x="681" d="M84 381l20 121h545l-20 -121h-545z" />
<glyph unicode="&#x2013;" d="M88 522l6 45h1022l-6 -45h-1022z" />
<glyph unicode="&#x2014;" horiz-adv-x="2048" d="M88 522l6 45h2046l-6 -45h-2046z" />
<glyph unicode="&#x2018;" horiz-adv-x="569" d="M311 958q0 84 34.5 172t80 148.5t86.5 99.5t57 39q12 0 16.5 -7t4.5 -13q0 -9 -21 -29.5t-52.5 -53.5t-64 -76t-59.5 -111t-35 -144q49 39 93 39q41 0 67.5 -25.5t26.5 -66.5q0 -49 -35.5 -86t-87.5 -37q-56 0 -83.5 44t-27.5 107z" />
<glyph unicode="&#x2019;" horiz-adv-x="569" d="M348 829q0 9 20.5 29.5t51.5 53.5t63.5 76t60 111t36.5 146q-51 -41 -93 -41q-41 0 -67.5 26.5t-26.5 67.5q0 49 35.5 86t87.5 37q56 0 83.5 -44t27.5 -107q0 -82 -34.5 -170t-79.5 -149t-86 -100.5t-58 -39.5q-21 0 -21 18z" />
<glyph unicode="&#x201a;" horiz-adv-x="569" d="M145 -373q0 10 13 19q193 169 217 389q-31 -35 -86 -35q-49 0 -72.5 28.5t-23.5 63.5q0 48 34.5 86.5t89.5 38.5q29 0 50.5 -13.5t31.5 -31t15.5 -42t6.5 -37t1 -25.5q0 -71 -23.5 -144.5t-57.5 -128t-71 -99t-64.5 -68t-37.5 -23.5q-9 0 -16 6.5t-7 15.5z" />
<glyph unicode="&#x201c;" horiz-adv-x="681" d="M152 958q0 84 34.5 172t80 148.5t86.5 99.5t57 39q20 0 20 -20q0 -9 -21 -29.5t-52 -53.5t-63.5 -76t-59.5 -111t-35 -144q49 39 92 39q41 0 67.5 -25.5t26.5 -66.5q0 -49 -35.5 -86t-87.5 -37q-56 0 -83 43.5t-27 107.5zM582 958q0 84 34.5 172t80 148.5t86.5 99.5 t57 39q20 0 20 -20q0 -9 -21 -29.5t-52 -53.5t-63.5 -76t-59.5 -111t-35 -144q49 39 92 39q41 0 67.5 -25.5t26.5 -66.5q0 -49 -35.5 -86t-87.5 -37q-56 0 -83 43.5t-27 107.5z" />
<glyph unicode="&#x201d;" horiz-adv-x="681" d="M190 829q0 9 20.5 29.5t51.5 53.5t63.5 76t60 111t36.5 146q-51 -41 -92 -41t-67.5 26.5t-26.5 67.5q0 49 35 86t87 37q56 0 83.5 -44t27.5 -107q0 -82 -34.5 -170t-79.5 -149t-86 -100.5t-58 -39.5q-21 0 -21 18zM621 829q0 9 20.5 29.5t51.5 53.5t63 76t59.5 111 t36.5 146q-51 -41 -92 -41t-67.5 26.5t-26.5 67.5q0 49 35 86t87 37q56 0 83.5 -44t27.5 -107q0 -82 -34.5 -170t-79.5 -149t-86 -100.5t-58 -39.5q-20 0 -20 18z" />
<glyph unicode="&#x201e;" horiz-adv-x="681" d="M-10 -375q0 8 21 29.5t52 55t63.5 78t59.5 111.5t35 142q-18 -15 -26.5 -20.5t-26.5 -13t-37 -7.5q-42 0 -69 27t-27 67q0 49 35.5 86t87.5 37q56 0 84 -44.5t28 -109.5q0 -83 -34.5 -170.5t-79.5 -147.5t-86 -99t-58 -39h-4q-5 0 -11.5 5.5t-6.5 12.5zM422 -375 q0 10 21 31t52 54t63.5 76.5t59.5 111t35 143.5q-51 -41 -92 -41q-42 0 -68 27t-26 67q0 49 35.5 86t87.5 37q56 0 83 -44.5t27 -109.5q0 -83 -34.5 -170.5t-79.5 -147.5t-86 -99t-58 -39h-4q-6 0 -11 5.5t-5 12.5z" />
<glyph unicode="&#x2022;" d="M193 453q0 116 63 221.5t170.5 170t228.5 64.5q144 0 243 -94.5t99 -243.5q0 -116 -63.5 -221.5t-171 -170t-227.5 -64.5q-144 0 -243 94t-99 244z" />
<glyph unicode="&#x2026;" horiz-adv-x="1708" d="M195 94q0 46 35.5 83.5t84.5 37.5q42 0 69.5 -27.5t27.5 -66.5q0 -46 -36.5 -83.5t-86.5 -37.5q-44 0 -69 29t-25 65zM764 94q0 46 35.5 83.5t85.5 37.5q42 0 69 -27.5t27 -66.5q0 -46 -36.5 -83.5t-86.5 -37.5q-44 0 -69 29t-25 65zM1333 94q0 46 35.5 83.5t85.5 37.5 q42 0 69 -27.5t27 -66.5q0 -46 -36.5 -83.5t-86.5 -37.5q-44 0 -69 29t-25 65z" />
<glyph unicode="&#x202f;" horiz-adv-x="374" />
<glyph unicode="&#x2039;" horiz-adv-x="909" d="M315 496q0 10 24 27.5t70 49.5t101 77t130 125.5t144 178.5q21 31 35 31q8 0 13.5 -5.5t5.5 -12.5q0 -20 -49.5 -99t-141.5 -189t-186 -185q57 -72 101 -146.5t65.5 -129.5t35 -99t16.5 -67l3 -23q0 -25 -20 -25q-19 0 -33 41q-31 89 -75.5 164.5t-84.5 121.5t-75.5 80 t-57 54.5t-21.5 30.5z" />
<glyph unicode="&#x203a;" horiz-adv-x="909" d="M233 23q0 19 47.5 96t140 188t189.5 189q-56 68 -99 141t-64.5 128t-35 100t-17.5 69l-3 24q0 27 21 27q17 0 29 -37q1 -3 1 -4q33 -91 77.5 -167t84.5 -121t76 -78t57 -52.5t21 -29.5q0 -11 -23 -27.5t-68.5 -48t-100.5 -75.5t-130 -126t-147 -184q-21 -31 -37 -31 q-8 0 -13.5 6t-5.5 13z" />
<glyph unicode="&#x205f;" horiz-adv-x="467" />
<glyph unicode="&#x20ac;" horiz-adv-x="1478" d="M102 592q0 6 5.5 22t23.5 35t43 19h166l10 63h-160q-47 0 -56 8q-5 5 -5 13q0 5 5 20.5t23.5 35.5t45.5 21h176q37 111 112.5 213.5t176 182t228.5 127t261 47.5q78 0 151.5 -18t125.5 -44.5t92 -56t60 -53.5t20 -37q0 -14 -31.5 -65.5t-48.5 -51.5q-8 0 -27 17.5 t-48.5 43t-69.5 51t-104 43t-138 17.5q-192 0 -358.5 -117.5t-241.5 -298.5h796q21 -2 29 -6t8 -14q0 -6 -5.5 -22.5t-22.5 -36t-41 -19.5h-797l-10 -63h735q45 0 45 -21q-1 -3 -2 -8.5t-7 -19t-14 -23.5t-22 -18.5t-31 -8.5h-706q17 -189 144 -301t316 -112q94 0 186 26 t146 56.5t99 60.5t49 31q14 6 21.5 -4t4.5 -31q-2 -15 -5.5 -36t-4.5 -27.5t-4 -18.5t-4.5 -14.5t-6.5 -10t-10 -11.5t-14 -11q-87 -67 -212 -116.5t-265 -49.5q-118 0 -224 39t-187 110t-131 179.5t-56 240.5h-191q-43 0 -43 23z" />
<glyph unicode="&#x2122;" horiz-adv-x="1366" d="M129 1511q0 15 10.5 20t40.5 5h574q24 0 35.5 -8t11.5 -17q0 -22 -51 -22h-263l-122 -727l-9 -25l-6 -6l-10 -4h-8q-12 2 -19 16v27l121 719h-248h-8h-8.5h-8t-8.5 1t-7.5 2t-7 2.5t-5 3.5t-3.5 5.5t-1 7.5zM768 754q0 3 1 10t1 10l121 731q8 55 21 66q8 6 16 6h1 q16 0 24.5 -25t41.5 -167q31 -134 54 -232q7 -34 22 -90q57 100 138 245q114 202 135.5 235.5t39.5 33.5q21 0 21 -29q0 -8 -32.5 -203l-64.5 -387l-32 -192q-7 -39 -29 -39q-24 0 -24 31q0 7 1.5 17t3.5 20.5t3 15.5l88 528q0 2 5.5 33t6.5 47q-19 -37 -130 -230t-114 -196 q-12 -18 -28 -18q-7 0 -11.5 3t-9.5 11.5t-8.5 19.5t-8.5 31.5t-10 44t-13 59.5t-16.5 74.5t-21.5 93.5t-28 113l-105 -624q-10 -55 -18 -65q-7 -9 -21 -9q-20 0 -20 27z" />
<glyph unicode="&#xe000;" horiz-adv-x="880" d="M0 0v881h881v-881h-881z" />
</font>
</defs>
</svg>
